<svg xmlns="http://www.w3.org/2000/svg" xmlns:xlink="http://www.w3.org/1999/xlink" width="1799.07115" height="1800" viewBox="0 0 1799.07115 1800">
  <defs>
    <linearGradient id="Orange_Yellow" data-name="Orange, Yellow" y1="1170.29072" x2="1202.43747" y2="1170.29072" gradientUnits="userSpaceOnUse">
      <stop offset="0" stop-color="#fde93a"/>
      <stop offset="0.06294" stop-color="#fed322"/>
      <stop offset="0.13263" stop-color="#fec30f"/>
      <stop offset="0.20442" stop-color="#ffb804"/>
      <stop offset="0.2809" stop-color="#ffb500"/>
      <stop offset="0.66854" stop-color="#f97e28"/>
      <stop offset="0.88764" stop-color="#ed5129"/>
      <stop offset="1" stop-color="#e32b2d"/>
    </linearGradient>
    <linearGradient id="Orange_Yellow-2" y1="165.94847" x2="69.1962" y2="165.94847" xlink:href="#Orange_Yellow"/>
    <linearGradient id="Orange_Yellow-3" y1="900" x2="1140.67551" y2="900" xlink:href="#Orange_Yellow"/>
    <linearGradient id="Orange_Yellow-4" x1="57.62032" y1="215.98984" x2="805.28608" y2="215.98984" xlink:href="#Orange_Yellow"/>
    <linearGradient id="Green_Yellow" data-name="Green, Yellow" x1="-6370.45185" y1="2546.72558" x2="9574.20778" y2="2546.72558" gradientTransform="translate(63.59604 3543.28855) rotate(-136.44658)" gradientUnits="userSpaceOnUse">
      <stop offset="0" stop-color="#fdea60"/>
      <stop offset="0.0749" stop-color="#efdf56"/>
      <stop offset="0.17412" stop-color="#e4d74e"/>
      <stop offset="0.28" stop-color="#e0d44b"/>
      <stop offset="0.67" stop-color="#00ba1e"/>
      <stop offset="0.89" stop-color="#1c5462"/>
      <stop offset="1" stop-color="#3a2392"/>
    </linearGradient>
    <linearGradient id="Green_Yellow-2" x1="-11220.74747" y1="2493.90715" x2="11734.87018" y2="2493.90715" gradientTransform="matrix(-0.9906, 0.137, -0.137, -0.9906, 1652.3234, 2704.32927)" xlink:href="#Green_Yellow"/>
    <linearGradient id="Green_Yellow-3" x1="-11624.65316" y1="666.20954" x2="14371.53381" y2="666.20954" gradientTransform="matrix(-0.5105, 0.8599, -0.8599, -0.5105, 1987.52871, 939.86918)" xlink:href="#Green_Yellow"/>
    <radialGradient id="GradientFill_2" data-name="GradientFill 2" cx="877.16724" cy="3341.859" r="189.04496" gradientTransform="translate(1753.98056 3372.40729) rotate(178.55029)" gradientUnits="userSpaceOnUse">
      <stop offset="0" stop-color="#fff"/>
      <stop offset="0.52" stop-color="#0099cf"/>
      <stop offset="1" stop-color="#110d48"/>
    </radialGradient>
    <radialGradient id="GradientFill_2-2" cx="-633.72171" cy="1618.49632" r="459.39695" gradientTransform="matrix(-0.6035, 0.7973, -0.7973, -0.6035, 2285.81785, 1656.26279)" xlink:href="#GradientFill_2"/>
    <linearGradient id="Green_Yellow-4" x1="-11901.72221" y1="698.23711" x2="14373.22456" y2="698.23711" gradientTransform="matrix(0.7973, 0.6035, -0.6035, 0.7973, 942.89757, -166.38299)" xlink:href="#Green_Yellow"/>
    <linearGradient id="Green_Yellow-5" x1="-11896.96851" y1="2062.38245" x2="14369.29135" y2="2062.38245" gradientTransform="matrix(0.7973, 0.6035, -0.6035, 0.7973, 942.89757, -166.38299)" xlink:href="#Green_Yellow"/>
    <linearGradient id="Green_Yellow-6" x1="-7030.5348" y1="1022.24606" x2="11076.08918" y2="1022.24606" gradientTransform="translate(-542.05388 844.69418) rotate(-14.30583)" xlink:href="#Green_Yellow"/>
    <linearGradient id="Orange_Yellow-5" x1="1157.14737" y1="1675.72995" x2="1799.07115" y2="1675.72995" xlink:href="#Orange_Yellow"/>
    <linearGradient id="Orange_Yellow-6" y1="1612.24665" x2="690.73228" y2="1612.24665" xlink:href="#Orange_Yellow"/>
    <linearGradient id="Orange_Yellow-7" y1="900" x2="1710.02131" y2="900" xlink:href="#Orange_Yellow"/>
    <linearGradient id="Orange_Yellow-8" y1="650.42711" x2="517.11029" y2="650.42711" xlink:href="#Orange_Yellow"/>
  </defs>
  <g style="isolation: isolate">
    <g id="Layer_2" data-name="Layer 2">
      <g id="Publicdomainvectors.org">
        <g id="abstract-939">
          <g opacity="0.61">
            <g>
              <g>
                <path d="M806.244,879.42632v1.2303a19.78142,19.78142,0,0,1,5.73208-5.21462,13.58121,13.58121,0,0,1,6.7413-1.66408,15.07894,15.07894,0,0,1,8.307,2.4285,16.49627,16.49627,0,0,1,5.9985,7.0989,25.72858,25.72858,0,0,1,2.1972,11.0712,27.93413,27.93413,0,0,1-1.2654,8.6469,19.71321,19.71321,0,0,1-3.4923,6.627,15.24756,15.24756,0,0,1-5.2428,4.10158,14.89662,14.89662,0,0,1-6.5022,1.44722,13.16368,13.16368,0,0,1-7.0461-1.7577,19.95877,19.95877,0,0,1-5.42728-5.1447v15.3105c0,4.4943-1.56272,6.7266-4.68452,6.7266-1.8411,0-3.0657-.5742-3.6444-1.7283a11.31487,11.31487,0,0,1-.8994-5.0745v-44.0346a6.57447,6.57447,0,0,1,1.2114-4.3563,4.18524,4.18524,0,0,1,3.3324-1.44722,4.30069,4.30069,0,0,1,3.3852,1.48532A6.30423,6.30423,0,0,1,806.244,879.42632Zm19.17478,14.8563a18.014,18.014,0,0,0-1.1937-6.9315,10.029,10.029,0,0,0-3.2784-4.4589,7.59918,7.59918,0,0,0-4.6362-1.5558,8.61074,8.61074,0,0,0-6.8232,3.3312c-1.85728,2.2323-2.7831,5.4873-2.7831,9.8055,0,4.0665.92582,7.21888,2.7552,9.4644a8.53961,8.53961,0,0,0,6.8511,3.3927,7.63451,7.63451,0,0,0,4.5207-1.4883,10.1599,10.1599,0,0,0,3.3264-4.4226A18.1788,18.1788,0,0,0,825.41878,894.28262Z" fill="#c3c3c2"/>
                <path d="M868.47358,909.43352v-1.2891a22.46,22.46,0,0,1-3.6972,3.86158,12.92554,12.92554,0,0,1-4.21738,2.33762,16.41616,16.41616,0,0,1-5.23382.7677,13.22317,13.22317,0,0,1-6.3546-1.5234,10.9022,10.9022,0,0,1-4.3518-4.21892q-1.8306-3.25167-1.8252-9.33538v-20.2149a6.78,6.78,0,0,1,1.32842-4.5759,4.42775,4.42775,0,0,1,3.50548-1.5207,4.52487,4.52487,0,0,1,3.5772,1.5441,6.655,6.655,0,0,1,1.35932,4.5525v16.3332a26.72653,26.72653,0,0,0,.564,5.9415,7.252,7.252,0,0,0,2.07838,3.7893,5.69076,5.69076,0,0,0,4.0152,1.3536,7.91614,7.91614,0,0,0,4.6596-1.5351,8.65891,8.65891,0,0,0,3.192-3.9858c.55382-1.4502.8205-4.6113.8205-9.4923v-12.4044a6.67829,6.67829,0,0,1,1.3635-4.5525,4.48032,4.48032,0,0,1,3.5406-1.5441,4.4067,4.4067,0,0,1,3.4965,1.5207,6.77206,6.77206,0,0,1,1.32572,4.5759V909.369a6.39155,6.39155,0,0,1-1.26692,4.35962,4.08936,4.08936,0,0,1-3.2682,1.4589,4.19142,4.19142,0,0,1-3.3075-1.506A6.287,6.287,0,0,1,868.47358,909.43352Z" fill="#c3c3c2"/>
              </g>
              <path d="M896.35978,864.37052v15.5889a22.48674,22.48674,0,0,1,5.6148-4.5936,14.42552,14.42552,0,0,1,7.0899-1.5879,15.33115,15.33115,0,0,1,8.5458,2.3994,15.8538,15.8538,0,0,1,5.6925,6.996,26.59272,26.59272,0,0,1,2.0244,10.8633,30.63339,30.63339,0,0,1-1.1163,8.5107,20.96971,20.96971,0,0,1-3.2754,6.70468,15.34224,15.34224,0,0,1-5.2206,4.40042,14.7882,14.7882,0,0,1-6.7443,1.5468,15.89647,15.89647,0,0,1-4.2597-.5625,11.458,11.458,0,0,1-3.375-1.4823,14.16843,14.16843,0,0,1-2.3862-1.875,38.73788,38.73788,0,0,1-2.5899-2.9121V909.369a6.31675,6.31675,0,0,1-1.3374,4.35962,4.32011,4.32011,0,0,1-3.3531,1.4706,4.12013,4.12013,0,0,1-3.3207-1.4706,6.713,6.713,0,0,1-1.2291-4.35962V864.816a7.67355,7.67355,0,0,1,1.2027-4.68178,3.92615,3.92615,0,0,1,3.3471-1.5879,4.16648,4.16648,0,0,1,3.4644,1.5234A6.64475,6.64475,0,0,1,896.35978,864.37052Zm.4704,30.3252q0,6.0867,2.6541,9.3591a8.62962,8.62962,0,0,0,7.008,3.2754,7.94935,7.94935,0,0,0,6.3573-3.3459q2.68065-3.3462,2.6718-9.5904a19.47751,19.47751,0,0,0-1.1073-6.96092,10.36439,10.36439,0,0,0-3.1464-4.50568,7.61146,7.61146,0,0,0-4.7754-1.5909,8.25692,8.25692,0,0,0-4.9734,1.5909,10.54954,10.54954,0,0,0-3.4452,4.6083A18.48006,18.48006,0,0,0,896.83018,894.69572Z" fill="#c3c3c2"/>
              <g>
                <path d="M932.21788,908.994V864.74852a7.12272,7.12272,0,0,1,1.3152-4.6377,4.352,4.352,0,0,1,3.5244-1.5645,4.531,4.531,0,0,1,3.5802,1.5528,6.92973,6.92973,0,0,1,1.3536,4.6494V908.994a6.88348,6.88348,0,0,1-1.377,4.65842,4.53736,4.53736,0,0,1-3.5568,1.5468,4.33334,4.33334,0,0,1-3.489-1.6113A6.962,6.962,0,0,1,932.21788,908.994Z" fill="#c3c3c2"/>
                <path d="M957.02938,868.96442a5.02314,5.02314,0,0,1-3.498-1.3155,4.78641,4.78641,0,0,1-1.4415-3.70892,4.69582,4.69582,0,0,1,1.4883-3.56848,4.812,4.812,0,0,1,3.4512-1.3857,5.01553,5.01553,0,0,1,3.366,1.2597,4.63721,4.63721,0,0,1,1.4619,3.69448,4.737,4.737,0,0,1-1.4295,3.67682A4.8105,4.8105,0,0,1,957.02938,868.96442Zm4.8279,10.5615V908.994a6.86945,6.86945,0,0,1-1.3827,4.64072,4.59193,4.59193,0,0,1-3.5421,1.5645,4.35764,4.35764,0,0,1-3.495-1.5996,7.03454,7.03454,0,0,1-1.3476-4.60562V879.81872a6.73628,6.73628,0,0,1,1.3476-4.5525,4.39945,4.39945,0,0,1,3.495-1.5441,4.5928,4.5928,0,0,1,3.5421,1.5441A6.157,6.157,0,0,1,961.85728,879.52592Z" fill="#c3c3c2"/>
                <path d="M1006.97157,902.565a9.20855,9.20855,0,0,1-1.0809,4.07372,14.07332,14.07332,0,0,1-3.3429,4.125,16.81938,16.81938,0,0,1-5.6307,3.1464,22.71932,22.71932,0,0,1-7.66107,1.2012q-9.06168,0-14.14472-5.502-5.08455-5.51925-5.0859-14.7816a25.28636,25.28636,0,0,1,2.3202-11.0949,17.274,17.274,0,0,1,6.7326-7.4472,20.02327,20.02327,0,0,1,10.5204-2.6454,20.5114,20.5114,0,0,1,6.96989,1.1571,18.21262,18.21262,0,0,1,5.367,2.9913,14.39169,14.39169,0,0,1,3.375,3.9051,7.869,7.869,0,0,1,1.1631,3.86428,4.23353,4.23353,0,0,1-1.3038,3.10262A4.39124,4.39124,0,0,1,1002,889.932a3.1049,3.1049,0,0,1-2.02743-.66778,9.63427,9.63427,0,0,1-1.8045-2.1036,15.48244,15.48244,0,0,0-3.7473-4.2684,8.20382,8.20382,0,0,0-4.94819-1.4298,8.33416,8.33416,0,0,0-6.993,3.5421c-1.7637,2.367-2.6427,5.5839-2.6427,9.6738a19.81267,19.81267,0,0,0,.6768,5.2908,12.46685,12.46685,0,0,0,1.9659,4.1148,8.4442,8.4442,0,0,0,3.126,2.5722,8.89591,8.89591,0,0,0,3.993.885,8.67431,8.67431,0,0,0,5.03609-1.41812,12.37445,12.37445,0,0,0,3.7032-4.33138,10.07332,10.07332,0,0,1,1.9395-2.7129,3.58624,3.58624,0,0,1,2.5428-.9582,3.731,3.731,0,0,1,2.9766,1.4064A4.76176,4.76176,0,0,1,1006.97157,902.565Z" fill="#c3c3c2"/>
                <path d="M1042.28037,909.369v-1.00168a24.17382,24.17382,0,0,1-3.8907,3.8202,14.14685,14.14685,0,0,1-4.1484,2.25,15.30064,15.30064,0,0,1-4.878.7617,13.91505,13.91505,0,0,1-6.498-1.5468,15.66119,15.66119,0,0,1-5.1621-4.4298,20.505,20.505,0,0,1-3.32217-6.78062,29.76275,29.76275,0,0,1-1.131-8.40538c0-6.369,1.494-11.3583,4.47957-14.9208a14.634,14.634,0,0,1,11.77443-5.3379,15.13568,15.13568,0,0,1,7.119,1.5264,19.63075,19.63075,0,0,1,5.65737,4.6551v-15.0555a7.774,7.774,0,0,1,1.2039-4.7433,3.99436,3.99436,0,0,1,3.4074-1.6143,4.18257,4.18257,0,0,1,3.4248,1.4709,6.81081,6.81081,0,0,1,1.2069,4.3533V909.369a6.43669,6.43669,0,0,1-1.2891,4.37132,4.26746,4.26746,0,0,1-3.3426,1.4589,4.19981,4.19981,0,0,1-3.3105-1.5057A6.45993,6.45993,0,0,1,1042.28037,909.369Zm-19.2042-14.97508a18.10153,18.10153,0,0,0,1.2303,7.0665,9.732,9.732,0,0,0,3.3693,4.3815,8.136,8.136,0,0,0,4.6875,1.4883,8.41445,8.41445,0,0,0,4.7052-1.4004,9.66694,9.66694,0,0,0,3.4101-4.3023,18.12093,18.12093,0,0,0,1.2597-7.2336,17.65157,17.65157,0,0,0-1.2597-7.0134,10.5406,10.5406,0,0,0-3.4395-4.4883,7.95907,7.95907,0,0,0-4.7433-1.5558,7.83212,7.83212,0,0,0-4.79577,1.5909,10.25164,10.25164,0,0,0-3.26373,4.5702A18.76049,18.76049,0,0,0,1023.07617,894.39392Z" fill="#c3c3c2"/>
                <path d="M1097.91207,894.48482a25.18116,25.18116,0,0,1-1.3593,8.3994,18.6779,18.6779,0,0,1-3.9345,6.6081,17.51428,17.51428,0,0,1-6.1554,4.2363,21.11446,21.11446,0,0,1-8.0565,1.4706,20.14674,20.14674,0,0,1-7.9806-1.5,17.54317,17.54317,0,0,1-6.1407-4.2774,18.78858,18.78858,0,0,1-3.9492-6.5667,25.10429,25.10429,0,0,1-1.32987-8.3907,25.62666,25.62666,0,0,1,1.34757-8.4786,18.72654,18.72654,0,0,1,3.9081-6.5772,17.02388,17.02388,0,0,1,6.1641-4.1982,20.90608,20.90608,0,0,1,7.9806-1.4883,20.69411,20.69411,0,0,1,8.0565,1.5117,17.4459,17.4459,0,0,1,6.1935,4.254,18.699,18.699,0,0,1,3.9111,6.5829A24.86729,24.86729,0,0,1,1097.91207,894.48482Zm-9.8028,0c0-4.1514-.8787-7.3974-2.6307-9.7149a8.45156,8.45156,0,0,0-7.0722-3.4716,8.56558,8.56558,0,0,0-5.0568,1.5498,9.925,9.925,0,0,0-3.3603,4.58488,21.61754,21.61754,0,0,0-.0147,14.03342,10.01275,10.01275,0,0,0,3.3339,4.5804,8.95558,8.95558,0,0,0,12.1701-1.91582C1087.23057,901.815,1088.10927,898.58642,1088.10927,894.48482Z" fill="#c3c3c2"/>
                <path d="M1139.19717,886.065c-.7266,1.71392-1.07817,4.76372-1.07817,9.13472v13.566a7.18909,7.18909,0,0,1-1.40013,4.8222,4.65769,4.65769,0,0,1-3.6915,1.6113,4.49452,4.49452,0,0,1-3.5889-1.6113,7.26753,7.26753,0,0,1-1.38-4.8222v-16.2729a53.25863,53.25863,0,0,0-.252-5.9856,6.8038,6.8038,0,0,0-1.3563-3.498,4.27026,4.27026,0,0,0-3.5067-1.3623q-4.7727,0-6.31347,3.4482-1.5165,3.4281-1.51773,9.8703v13.8003a7.26808,7.26808,0,0,1-1.36827,4.7988,4.86042,4.86042,0,0,1-7.27143,0,7.07422,7.07422,0,0,1-1.4121-4.7931v-29.1987a6.64825,6.64825,0,0,1,1.254-4.377,4.24617,4.24617,0,0,1,3.3573-1.50272,4.44812,4.44812,0,0,1,3.3516,1.40912,5.32025,5.32025,0,0,1,1.3419,3.8583v.97558a16.94813,16.94813,0,0,1,5.4375-4.66978,13.86929,13.86929,0,0,1,6.4335-1.4883,12.48549,12.48549,0,0,1,6.3339,1.5264,11.766,11.766,0,0,1,4.3653,4.63168,17.17756,17.17756,0,0,1,5.2968-4.64938,13.02537,13.02537,0,0,1,6.26373-1.5087,13.59439,13.59439,0,0,1,6.90837,1.6434,10.29937,10.29937,0,0,1,4.3359,4.6935c.8379,1.8516,1.248,4.7547,1.248,8.7216v19.9293a7.25263,7.25263,0,0,1-1.3827,4.8222,4.69037,4.69037,0,0,1-3.6975,1.6113,4.56354,4.56354,0,0,1-3.6327-1.6347,7.01926,7.01926,0,0,1-1.4238-4.7988v-17.1723a42.9923,42.9923,0,0,0-.2577-5.2677,6.163,6.163,0,0,0-1.4592-3.3312,4.4709,4.4709,0,0,0-3.5742-1.3476,6.427,6.427,0,0,0-3.6621,1.1838,7.91959,7.91959,0,0,0-2.7012,3.23428Z" fill="#c3c3c2"/>
                <path d="M1195.18347,909.45122a29.47294,29.47294,0,0,1-6.867,4.30078,18.25764,18.25764,0,0,1-7.4181,1.44722,13.63767,13.63767,0,0,1-6.6123-1.5468,11.08483,11.08483,0,0,1-4.3857-4.2189,11.23264,11.23264,0,0,1-1.5411-5.742,10.59269,10.59269,0,0,1,2.5488-7.1442,12.58658,12.58658,0,0,1,6.97293-3.9549c.621-.15242,2.16477-.4836,4.614-.999,2.46987-.53342,4.56747-1.005,6.33687-1.4385,1.752-.4365,3.6564-.9582,5.7072-1.5792a11.23253,11.23253,0,0,0-1.5528-5.9502c-.9228-1.2567-2.8359-1.878-5.7186-1.878a11.42067,11.42067,0,0,0-5.6076,1.0869,8.96809,8.96809,0,0,0-3.2166,3.2607c-.9084,1.4415-1.5264,2.3937-1.9014,2.8596a3.0409,3.0409,0,0,1-2.376.6795,4.04851,4.04851,0,0,1-2.8419-1.0899,3.6533,3.6533,0,0,1-1.2069-2.8386,8.84747,8.84747,0,0,1,1.8192-5.2179,13.20866,13.20866,0,0,1,5.7042-4.2012,24.59192,24.59192,0,0,1,9.627-1.6464,26.37065,26.37065,0,0,1,10.1394,1.6026,9.4628,9.4628,0,0,1,5.2032,5.0271,22.75854,22.75854,0,0,1,1.5234,9.1113c0,2.376,0,4.42978-.0174,6.0879-.0177,1.6731-.0294,3.5391-.0588,5.5725a21.28261,21.28261,0,0,0,.9201,5.9955,19.72566,19.72566,0,0,1,.89943,4.0137,3.82919,3.82919,0,0,1-1.40913,2.8593,4.6136,4.6136,0,0,1-3.1935,1.2891,4.27349,4.27349,0,0,1-2.9766-1.4706A21.97708,21.97708,0,0,1,1195.18347,909.45122Zm-.6444-14.7729a47.78534,47.78534,0,0,1-6.252,1.743c-2.7306.6123-4.626,1.0548-5.6808,1.3419a7.78324,7.78324,0,0,0-3.0027,1.67878,4.4475,4.4475,0,0,0-1.4355,3.51272,5.27018,5.27018,0,0,0,1.6815,3.9477,6.03206,6.03206,0,0,0,4.4121,1.6287,11.06024,11.06024,0,0,0,5.3526-1.3299,8.56759,8.56759,0,0,0,3.5946-3.4218c.8877-1.5456,1.3302-4.08842,1.3302-7.6452Z" fill="#c3c3c2"/>
                <path d="M1219.01067,868.96442a4.98488,4.98488,0,0,1-3.4863-1.3155,4.73659,4.73659,0,0,1-1.4589-3.70892,4.68546,4.68546,0,0,1,1.5-3.56848,4.80314,4.80314,0,0,1,3.4452-1.3857,5.05985,5.05985,0,0,1,3.375,1.2597,4.67009,4.67009,0,0,1,1.4502,3.69448,4.76364,4.76364,0,0,1-1.4208,3.67682A4.8442,4.8442,0,0,1,1219.01067,868.96442Zm4.8252,10.5615V908.994a6.854,6.854,0,0,1-1.3857,4.64072,4.5597,4.5597,0,0,1-3.5391,1.5645,4.37542,4.37542,0,0,1-3.504-1.5996,7.05259,7.05259,0,0,1-1.3416-4.60562V879.81872a6.75332,6.75332,0,0,1,1.3416-4.5525,4.41773,4.41773,0,0,1,3.504-1.5441,4.56063,4.56063,0,0,1,3.5391,1.5441A6.14355,6.14355,0,0,1,1223.83587,879.52592Z" fill="#c3c3c2"/>
              </g>
              <g>
                <path d="M1242.81747,879.37052v1.2219a17.38138,17.38138,0,0,1,5.6307-5.2032,14.60446,14.60446,0,0,1,7.04883-1.6671,13.49918,13.49918,0,0,1,6.91407,1.7754,10.98083,10.98083,0,0,1,4.5411,4.93948,12.56378,12.56378,0,0,1,1.248,4.04582,44.01786,44.01786,0,0,1,.2931,5.5254V908.994a6.99331,6.99331,0,0,1-1.3536,4.64072,4.66037,4.66037,0,0,1-7.008-.0468,6.87229,6.87229,0,0,1-1.37667-4.59392V892.00052a17.62994,17.62994,0,0,0-1.33023-7.7196c-.9141-1.7814-2.6952-2.6808-5.373-2.6808a7.66434,7.66434,0,0,0-4.758,1.6377,9.20176,9.20176,0,0,0-3.1494,4.4619q-.716,2.27655-.7206,8.5224V908.994a6.77915,6.77915,0,0,1-1.3857,4.65842,4.5292,4.5292,0,0,1-3.5508,1.5468,4.3623,4.3623,0,0,1-3.4686-1.5996,6.8916,6.8916,0,0,1-1.3653-4.60562V879.52592a6.56163,6.56163,0,0,1,1.21863-4.3593,4.15107,4.15107,0,0,1,3.32817-1.4445,4.41,4.41,0,0,1,2.3202.6417,4.46309,4.46309,0,0,1,1.6701,1.8984A7.19233,7.19233,0,0,1,1242.81747,879.37052Z" fill="#c3c3c2"/>
                <path d="M1284.16707,880.07372l7.9041,23.1666,8.5197-24.1716a15.09635,15.09635,0,0,1,1.9863-4.13072,3.5613,3.5613,0,0,1,2.92383-1.21588,4.35617,4.35617,0,0,1,3.19317,1.3272,4.15062,4.15062,0,0,1,1.2951,3.0204,6.29709,6.29709,0,0,1-.24027,1.5498,14.00139,14.00139,0,0,1-.52743,1.7022c-.21657.5127-.4335,1.11628-.7029,1.7901l-9.381,24.2826c-.2694.6915-.6036,1.5879-1.0194,2.6544a16.0591,16.0591,0,0,1-1.3947,2.754,5.951,5.951,0,0,1-1.9044,1.7694,5.70165,5.70165,0,0,1-2.748.627,5.20518,5.20518,0,0,1-3.31617-.9786,6.45391,6.45391,0,0,1-1.81653-2.1855c-.3927-.7734-1.06047-2.3262-1.9863-4.6407l-9.32217-24.0276c-.21693-.5949-.43953-1.1925-.67983-1.7871-.2169-.5979-.3867-1.2012-.5565-1.8312a7.00093,7.00093,0,0,1-.2286-1.6026,3.92972,3.92972,0,0,1,.6153-2.0772,4.80683,4.80683,0,0,1,1.6698-1.6815,4.41524,4.41524,0,0,1,2.3379-.6651,3.619,3.619,0,0,1,3.3456,1.4736A23.67941,23.67941,0,0,1,1284.16707,880.07372Z" fill="#c3c3c2"/>
              </g>
              <g>
                <path d="M1343.27037,896.95742h-19.125a14.157,14.157,0,0,0,1.3419,6.1422,9.599,9.599,0,0,0,3.4746,3.9903,8.839,8.839,0,0,0,4.78713,1.3476,11.69522,11.69522,0,0,0,3.20517-.4161,10.78451,10.78451,0,0,0,2.8125-1.3533,22.15584,22.15584,0,0,0,2.5077-1.9689c.75-.6915,1.7577-1.629,2.9589-2.8374a3.10259,3.10259,0,0,1,2.1504-.6825,3.41937,3.41937,0,0,1,2.4375.867,3.11561,3.11561,0,0,1,.93183,2.4243,6.901,6.901,0,0,1-1.04313,3.2403,12.5243,12.5243,0,0,1-3.1287,3.5508,18.17625,18.17625,0,0,1-5.2677,2.8242,21.79025,21.79025,0,0,1-7.2831,1.1133q-9.41305,0-14.631-5.6016-5.2119-5.616-5.2206-15.2037a26.38713,26.38713,0,0,1,1.2891-8.3904,18.42962,18.42962,0,0,1,3.75-6.633,15.99907,15.99907,0,0,1,6.0819-4.2537,21.23674,21.23674,0,0,1,8.0331-1.4766,18.26428,18.26428,0,0,1,9.8145,2.5371,16.14892,16.14892,0,0,1,6.1347,6.501,17.65855,17.65855,0,0,1,2.0508,8.1591c0,2.5575-.6972,4.22758-2.115,4.97758A12.68749,12.68749,0,0,1,1343.27037,896.95742Zm-19.125-5.8035H1341.87q-.35149-5.2164-2.70123-7.8165a7.96514,7.96514,0,0,0-6.1755-2.5899,7.637,7.637,0,0,0-5.98827,2.6367C1325.44047,885.12452,1324.497,887.72312,1324.14537,891.15392Z" fill="#c3c3c2"/>
                <path d="M1394.61026,902.565a8.92454,8.92454,0,0,1-1.0899,4.07372,13.82217,13.82217,0,0,1-3.3279,4.125,16.85021,16.85021,0,0,1-5.64869,3.1464,22.7012,22.7012,0,0,1-7.6521,1.2012q-9.07065,0-14.14467-5.502-5.0711-5.51925-5.07993-14.7816a25.11972,25.11972,0,0,1,2.3262-11.0949,17.15227,17.15227,0,0,1,6.7263-7.4472,20.01393,20.01393,0,0,1,10.52943-2.6454,20.56681,20.56681,0,0,1,6.96687,1.1571,18.59149,18.59149,0,0,1,5.373,2.9913,14.761,14.761,0,0,1,3.375,3.9051,8.02749,8.02749,0,0,1,1.1484,3.86428,4.1275,4.1275,0,0,1-1.3185,3.10262,4.32641,4.32641,0,0,1-3.1581,1.27138,3.05035,3.05035,0,0,1-2.01566-.66778,9.634,9.634,0,0,1-1.82224-2.1036,15.39708,15.39708,0,0,0-3.72659-4.2684,8.238,8.238,0,0,0-4.9746-1.4298,8.33133,8.33133,0,0,0-6.97257,3.5421c-1.77543,2.367-2.64273,5.5839-2.64273,9.6738a19.8207,19.8207,0,0,0,.6681,5.2908,12.5367,12.5367,0,0,0,1.97463,4.1148,8.55943,8.55943,0,0,0,3.11727,2.5722,8.89658,8.89658,0,0,0,4.00773.885,8.7026,8.7026,0,0,0,5.03307-1.41812,12.58045,12.58045,0,0,0,3.71493-4.33138,9.45723,9.45723,0,0,1,1.92776-2.7129,3.56252,3.56252,0,0,1,2.5371-.9582,3.69236,3.69236,0,0,1,2.9649,1.4064A4.648,4.648,0,0,1,1394.61026,902.565Z" fill="#c3c3c2"/>
                <path d="M1403.69816,874.58942h1.0722v-6.126c0-1.6377.0411-2.9385.1407-3.8673a5.539,5.539,0,0,1,.6915-2.41112,4.5518,4.5518,0,0,1,4.0371-2.33788,4.72526,4.72526,0,0,1,3.36334,1.4445,4.49078,4.49078,0,0,1,1.27136,2.367,22.4788,22.4788,0,0,1,.2637,3.9873v6.9435H1418.13a4.43816,4.43816,0,0,1,3.16376,1.0311,3.42321,3.42321,0,0,1,1.0959,2.625,2.95518,2.95518,0,0,1-1.5705,2.877,9.67513,9.67513,0,0,1-4.44716.82048h-1.83394v18.79382a31.07238,31.07238,0,0,0,.1641,3.693,3.78972,3.78972,0,0,0,.873,2.0859,2.80735,2.80735,0,0,0,2.2677.8145,11.96094,11.96094,0,0,0,2.3379-.3165,10.901,10.901,0,0,1,2.2734-.3165,2.91775,2.91775,0,0,1,2.127.9726,3.41556,3.41556,0,0,1,.9549,2.45518,4.08326,4.08326,0,0,1-2.5722,3.76772,16.83269,16.83269,0,0,1-7.4121,1.3065c-3.05276,0-5.379-.5391-6.9492-1.6113a7.39784,7.39784,0,0,1-3.0939-4.45892,31.50117,31.50117,0,0,1-.7383-7.57768V881.943h-1.2948a4.4875,4.4875,0,0,1-3.2109-1.04908,3.45026,3.45026,0,0,1-1.1133-2.6484,3.359,3.359,0,0,1,1.1601-2.625A4.97524,4.97524,0,0,1,1403.69816,874.58942Z" fill="#c3c3c2"/>
                <path d="M1465.68446,894.48482a25.09816,25.09816,0,0,1-1.3653,8.3994,18.76391,18.76391,0,0,1-3.9375,6.6081,17.4196,17.4196,0,0,1-6.1581,4.2363,20.99829,20.99829,0,0,1-8.0508,1.4706,20.08547,20.08547,0,0,1-7.9803-1.5,17.40766,17.40766,0,0,1-6.1407-4.2774,18.58932,18.58932,0,0,1-3.9375-6.5667,25.25709,25.25709,0,0,1-1.3302-8.3907,25.557,25.557,0,0,1,1.34194-8.4786,18.84521,18.84521,0,0,1,3.90236-6.5772,17.22275,17.22275,0,0,1,6.1641-4.1982,20.9903,20.9903,0,0,1,7.9803-1.4883,20.62283,20.62283,0,0,1,8.0508,1.5117,17.38856,17.38856,0,0,1,6.1992,4.254,18.85638,18.85638,0,0,1,3.9258,6.5829A25.60913,25.60913,0,0,1,1465.68446,894.48482Zm-9.80846,0c0-4.1514-.88474-7.3974-2.625-9.7149a8.95764,8.95764,0,0,0-12.11734-1.9218,9.8208,9.8208,0,0,0-3.369,4.58488,21.59089,21.59089,0,0,0-.01166,14.03342,10.02438,10.02438,0,0,0,3.31616,4.5804,8.50183,8.50183,0,0,0,5.1036,1.57618,8.4091,8.4091,0,0,0,7.07824-3.492C1454.99126,901.815,1455.876,898.58642,1455.876,894.48482Z" fill="#c3c3c2"/>
              </g>
              <path d="M1483.09856,900.48182V908.994a6.7505,6.7505,0,0,1-1.4061,4.65842,4.56047,4.56047,0,0,1-3.5391,1.5468,4.41534,4.41534,0,0,1-3.4746-1.5645,6.89777,6.89777,0,0,1-1.3536-4.64072V880.60112c0-4.5879,1.5762-6.879,4.752-6.879a3.968,3.968,0,0,1,3.5157,1.6113,9.368,9.368,0,0,1,1.1835,4.7403,17.71,17.71,0,0,1,3.5919-4.7403,7.27,7.27,0,0,1,4.9158-1.6113,12.26117,12.26117,0,0,1,5.9826,1.6113c1.9395,1.0695,2.9121,2.4933,2.9121,4.254a4.16644,4.16644,0,0,1-1.2423,3.0909,3.74831,3.74831,0,0,1-2.6718,1.2156,11.76445,11.76445,0,0,1-2.5959-.70292,11.92882,11.92882,0,0,0-3.6384-.69148,5.0832,5.0832,0,0,0-3.4923,1.18648,7.58007,7.58007,0,0,0-2.127,3.49232,25.25666,25.25666,0,0,0-1.03106,5.5194C1483.19816,894.813,1483.09856,897.40592,1483.09856,900.48182Z" fill="#c3c3c2"/>
              <path d="M1535.15336,901.87652a12.78041,12.78041,0,0,1-1.9863,7.2291,12.15826,12.15826,0,0,1-5.8125,4.5585,25.4229,25.4229,0,0,1-9.381,1.5351,21.97671,21.97671,0,0,1-9.0174-1.6875,13.1174,13.1174,0,0,1-5.5491-4.1895,8.65415,8.65415,0,0,1-1.8045-5.0565,3.96389,3.96389,0,0,1,1.1661-2.8698,3.79225,3.79225,0,0,1,2.8884-1.20692,3.38722,3.38722,0,0,1,2.3733.78812,9.1093,9.1093,0,0,1,1.5702,2.2104,10.89119,10.89119,0,0,0,3.6036,4.0839,10.43511,10.43511,0,0,0,5.7246,1.34758,8.04538,8.04538,0,0,0,4.81624-1.365,3.90825,3.90825,0,0,0,1.88666-3.123,4.28886,4.28886,0,0,0-1.9569-3.92158,22.8056,22.8056,0,0,0-6.4335-2.3613,52.93765,52.93765,0,0,1-8.2209-2.751,13.59109,13.59109,0,0,1-5.0799-3.7968,8.92929,8.92929,0,0,1-1.9044-5.7948,10.51282,10.51282,0,0,1,1.7577-5.7864,12.18913,12.18913,0,0,1,5.1798-4.3593,19.11013,19.11013,0,0,1,8.2677-1.6377,26.41467,26.41467,0,0,1,6.8145.8262,16.74729,16.74729,0,0,1,5.0565,2.2119,10.57916,10.57916,0,0,1,3.0762,3.0585,6.1032,6.1032,0,0,1,1.06054,3.2931,3.85988,3.85988,0,0,1-1.13074,2.874,4.39882,4.39882,0,0,1-3.1935,1.1163,3.8274,3.8274,0,0,1-2.5782-.9054,18.14581,18.14581,0,0,1-2.4141-2.6748,9.09307,9.09307,0,0,0-2.6133-2.3994,8.04729,8.04729,0,0,0-4.0779-.8934,7.61437,7.61437,0,0,0-4.4064,1.1865,3.43078,3.43078,0,0,0-1.752,2.9295,3.24665,3.24665,0,0,0,1.2774,2.6397,10.67462,10.67462,0,0,0,3.4746,1.6965c1.4649.4452,3.4746,1.00768,6.0294,1.6521a30.64171,30.64171,0,0,1,7.4238,2.7657,12.17919,12.17919,0,0,1,4.3593,3.7941A8.53812,8.53812,0,0,1,1535.15336,901.87652Z" fill="#c3c3c2"/>
              <g>
                <path d="M1546.245,915.19922a5.32993,5.32993,0,0,1-5.43154-5.6661,5.59643,5.59643,0,0,1,1.5177-3.9198,5.01577,5.01577,0,0,1,3.8085-1.6407,5.11713,5.11713,0,0,1,3.8202,1.629,5.36331,5.36331,0,0,1,1.6113,3.9315,5.44673,5.44673,0,0,1-1.6113,4.1604A5.15486,5.15486,0,0,1,1546.245,915.19922Z" fill="#c3c3c2"/>
                <path d="M1599.29006,894.48482a24.95536,24.95536,0,0,1-1.3653,8.3994,18.8451,18.8451,0,0,1-3.9315,6.6081,17.44559,17.44559,0,0,1-6.1641,4.2363,20.99937,20.99937,0,0,1-8.0508,1.4706,20.15455,20.15455,0,0,1-7.9863-1.5,17.417,17.417,0,0,1-6.129-4.2774,18.55739,18.55739,0,0,1-3.9609-6.5667,27.1262,27.1262,0,0,1,.0291-16.8693,18.92523,18.92523,0,0,1,3.89674-6.5772,17.22224,17.22224,0,0,1,6.16406-4.1982,20.89274,20.89274,0,0,1,7.9863-1.4883,20.66525,20.66525,0,0,1,8.0508,1.5117,17.16205,17.16205,0,0,1,6.1932,4.254,18.94338,18.94338,0,0,1,3.9258,6.5829A25.30492,25.30492,0,0,1,1599.29006,894.48482Zm-9.8145,0c0-4.1514-.8847-7.3974-2.6427-9.7149a8.39273,8.39273,0,0,0-7.0545-3.4716,8.50429,8.50429,0,0,0-5.0451,1.5498A9.77352,9.77352,0,0,0,1571.37,887.433a21.59405,21.59405,0,0,0-.02344,14.03342,10.09454,10.09454,0,0,0,3.3342,4.5804,8.49523,8.49523,0,0,0,5.0976,1.57618,8.35125,8.35125,0,0,0,7.0545-3.492C1588.59086,901.815,1589.47556,898.58642,1589.47556,894.48482Z" fill="#c3c3c2"/>
              </g>
              <path d="M1616.69246,900.48182V908.994a6.77829,6.77829,0,0,1-1.3947,4.65842,4.527,4.527,0,0,1-3.5274,1.5468,4.42275,4.42275,0,0,1-3.4863-1.5645,6.86812,6.86812,0,0,1-1.3593-4.64072V880.60112c0-4.5879,1.5996-6.879,4.7637-6.879a3.90827,3.90827,0,0,1,3.498,1.6113,9.11974,9.11974,0,0,1,1.2012,4.7403,17.576,17.576,0,0,1,3.5802-4.7403,7.30748,7.30748,0,0,1,4.9218-1.6113,12.26032,12.26032,0,0,1,5.98234,1.6113c1.93376,1.0695,2.90636,2.4933,2.90636,4.254a4.17917,4.17917,0,0,1-1.2306,3.0909,3.79077,3.79077,0,0,1-2.67776,1.2156,11.57888,11.57888,0,0,1-2.58964-.70292,11.93215,11.93215,0,0,0-3.6387-.69148,5.18661,5.18661,0,0,0-3.51566,1.18648,7.65709,7.65709,0,0,0-2.10934,3.49232,25.27551,25.27551,0,0,0-1.0314,5.5194C1616.80376,894.813,1616.69246,897.40592,1616.69246,900.48182Z" fill="#c3c3c2"/>
              <path d="M1673.24126,881.19v29.64392a32.67232,32.67232,0,0,1-1.0431,8.7363,14.31627,14.31627,0,0,1-3.32216,6.0645,14.00868,14.00868,0,0,1-6,3.5451,31.72924,31.72924,0,0,1-9.21694,1.1541A26.05022,26.05022,0,0,1,1644.63,928.869a15.51323,15.51323,0,0,1-6.12334-3.83188,7.04888,7.04888,0,0,1-2.1504-4.79312,4.124,4.124,0,0,1,4.1544-4.23028A4.77552,4.77552,0,0,1,1644.27836,918c.5214.67982,1.0722,1.35362,1.623,2.03312a9.57427,9.57427,0,0,0,1.8573,1.7637,7.09742,7.09742,0,0,0,2.4669,1.0899,13.72311,13.72311,0,0,0,3.2871.3516,12.882,12.882,0,0,0,5.8887-1.1016,6.16244,6.16244,0,0,0,2.9415-3.0762,12.42714,12.42714,0,0,0,.9666-4.242c.0996-1.5177.1758-3.9318.2403-7.2774a16.52064,16.52064,0,0,1-5.2206,4.998,13.77965,13.77965,0,0,1-7.0254,1.71088,14.25743,14.25743,0,0,1-8.5725-2.61328,16.37813,16.37813,0,0,1-5.6541-7.3242,28.19684,28.19684,0,0,1-1.9689-10.87952,26.54806,26.54806,0,0,1,1.2012-8.29978,17.2458,17.2458,0,0,1,3.4218-6.2373,14.49837,14.49837,0,0,1,5.127-3.83492,15.42858,15.42858,0,0,1,6.3633-1.28308,14.816,14.816,0,0,1,7.1955,1.66408,17.82826,17.82826,0,0,1,5.6601,5.21462v-1.374a6.22172,6.22172,0,0,1,1.242-4.125,4.08146,4.08146,0,0,1,3.2229-1.46462c1.8984,0,3.1521.64742,3.7734,1.92752A13.21009,13.21009,0,0,1,1673.24126,881.19Zm-28.3242,12.93752q0,6.183,2.6016,9.3822a8.275,8.275,0,0,0,6.7029,3.1758,8.54775,8.54775,0,0,0,4.6056-1.371,9.99753,9.99753,0,0,0,3.5331-4.1061,15.038,15.038,0,0,0,1.3536-6.6768q0-6.22665-2.6367-9.7119a8.26059,8.26059,0,0,0-6.9258-3.4833,8.03631,8.03631,0,0,0-6.7032,3.3312C1645.76066,886.89392,1644.91706,890.03762,1644.91706,894.12752Z" fill="#c3c3c2"/>
            </g>
            <g>
              <path d="M1177.84557,772.72713q0-24.759,16.77843-42.3018,16.7872-17.53425,40.506-17.5314,23.7037,0,40.5,17.5314,16.7782,17.5518,16.79277,42.3018,0,24.7806-16.79277,42.30749-16.80485,17.5518-40.5,17.5431-23.71325,0-40.506-17.5431Q1177.83266,797.52694,1177.84557,772.72713Zm14.7306,0q0,19.4634,12.3369,32.8974Q1217.24,819.06736,1235.13,819.063q17.8681,0,30.20487-13.43847,12.3399-13.4123,12.3282-32.8974,0-19.45485-12.3282-32.8947-12.3223-13.43835-30.20487-13.4265-17.89925,0-30.21693,13.4265Q1192.58622,753.26673,1192.57617,772.72713Zm57.0615,9.1464h14.502c-1.0254,7.81047-4.2306,13.9218-9.5508,18.3018a26.33265,26.33265,0,0,1-17.8887,6.4308q-14.18535,0-22.6554-9.9699-8.0199-9.47025-8.0214-24.4218,0-15.2973,7.9512-24.5361,7.92315-9.2286,22.4151-9.24033,10.78425,0,18.1992,5.80083,7.84845,6.24015,9.5508,17.5254h-14.502q-1.86345-9.81315-12.0468-9.8085-16.8048,0-16.8165,19.9248,0,9.3294,4.3185,15.2634a14.213,14.213,0,0,0,12.1962,5.9532Q1249.00032,793.09713,1249.63767,781.87353Z" fill="#c3c3c2"/>
              <polygon points="1201.028 810.259 1209.384 817.343 1270.837 738.444 1262.47 731.366 1201.028 810.259" fill="#c3c3c2"/>
            </g>
          </g>
          <g>
            <g style="mix-blend-mode: multiply">
              <path d="M1202.43747,1800a232.73287,232.73287,0,0,0-59.0448-51.8202c-77.8389-48.252-186.876-79.1367-309.96389-128.9034-116.86078-47.247-243.27539-110.0976-363.36329-203.39369-129.1596-100.4385-247.61729-234.366-333.13769-397.64339C62.5224,875.937,14.08446,712.45173,0,540.58143V1800Z" opacity="0.46" fill="url(#Orange_Yellow)" style="mix-blend-mode: multiply"/>
              <path d="M0,0V331.89694C8.98683,221.01274,32.1576,109.14994,69.1962,0Z" opacity="0.46" fill="url(#Orange_Yellow-2)" style="mix-blend-mode: multiply"/>
            </g>
            <g style="mix-blend-mode: multiply">
              <path d="M875.66158,1800c99.7545-50.3673,177.21842-119.0361,222.35879-194.3232,46.635-77.9328,55.4121-167.43449,24.4485-236.6748-32.7102-73.02839-107.9973-132.32219-190.17209-202.11028-94.6464-80.39072-195.4554-181.26872-263.0712-316.5249-72.1962-144.58169-102.94469-322.005-74.3745-499.629C614.32618,230.07574,660.99748,109.77994,731.14738,0H0V1778.86815Q24.48414,1790.00389,49.122,1800Z" opacity="0.46" fill="url(#Orange_Yellow-3)" style="mix-blend-mode: multiply"/>
            </g>
            <g style="mix-blend-mode: multiply">
              <path d="M57.6474,0c-.7881,99.55534,15.6504,189.40144,46.1706,262.76674,33.5931,80.7654,85.6434,140.9604,143.2014,161.76119,52.1163,18.7293,114.13649.8289,166.74929-38.87129C476.754,338.07124,537,264.31354,611.90908,183.64744,668.061,123.16264,731.48128,59.91064,805.28608,0Z" opacity="0.46" fill="url(#Orange_Yellow-4)" style="mix-blend-mode: multiply"/>
            </g>
          </g>
          <g>
            <g style="mix-blend-mode: multiply">
              <path d="M0,0V1594.5675c154.7592,55.62,300.65909,60.2637,401.71289,18.5154,81.6708-33.8466,128.53411-113.35229,120.7896-193.56719-9.4716-97.5792-68.7963-208.7109-121.6758-347.60159C346.69619,929.70422,301.065,762.16563,299.9928,575.61333,298.9878,387.69424,344.42729,185.76874,444.51989,0Z" fill="#ffb000" opacity="0.46" style="mix-blend-mode: multiply"/>
            </g>
            <g style="mix-blend-mode: multiply">
              <path d="M0,0V1021.23062c74.6295,78.2019,158.1636,139.1892,243.8949,180.117,121.20419,57.77938,245.33069,74.80679,345.43949,51.98159,87.00449-19.9074,156.63719-75.15239,185.04661-144.89669,29.82838-73.5264,21.16528-167.7012,14.62918-273.3894-7.4781-121.19549-5.5224-260.01419,42.0879-399.21239,50.9913-148.72559,152.0904-291.60509,293.88719-395.70719Q1153.83117,18.97714,1184.80947,0Z" fill="#ffb000" opacity="0.46" style="mix-blend-mode: multiply"/>
            </g>
          </g>
          <g>
            <g style="mix-blend-mode: multiply">
              <path d="M0,0V667.50723c59.1564,65.6661,127.062,107.0187,189.8964,113.565,64.1865,6.5361,127.02839-32.2791,168.61979-92.8725,50.1402-73.1544,86.3349-175.1586,140.0229-288.65759,50.2134-106.131,114.28559-219.633,204.32069-326.60014Q734.22568,35.67846,769.54828,0Z" opacity="0.46" fill="url(#Green_Yellow)" style="mix-blend-mode: multiply"/>
            </g>
            <g style="mix-blend-mode: multiply">
              <path d="M1799.07115,0H285.3678c-22.125,137.61034-12.6915,270.06454,23.45939,382.72414,38.9955,120.90386,108.555,217.692,190.554,271.39319,71.8053,46.8939,157.20119,57.9126,225.11729,30.3675,71.691-29.1255,131.6499-99.1962,200.25452-176.244,78.78807-88.4211,175.48527-183.38249,304.30647-248.69549,138.4161-70.0767,308.43453-103.29034,482.96489-82.3329q43.40925,5.25375,87.04679,14.90756Z" opacity="0.46" fill="url(#Green_Yellow-2)" style="mix-blend-mode: multiply"/>
            </g>
            <g style="mix-blend-mode: multiply">
              <path d="M1799.07115,0H1668.35156q7.0794,9.91628,15.3339,19.40764c30.3282,34.8855,70.06954,68.6325,115.38569,105.2769Z" opacity="0.46" fill="url(#Green_Yellow-3)" style="mix-blend-mode: multiply"/>
            </g>
          </g>
          <g>
            <g style="mix-blend-mode: multiply">
              <path d="M530.62949,0q.77535,2.3355,1.5879,4.64375a166.99185,166.99185,0,0,0,169.83539,111.558c90.2577-6.8409,194.5824-59.0553,324.11129-106.941Q1038.79377,4.5893,1051.70517,0Z" opacity="0.46" fill="url(#GradientFill_2)" style="mix-blend-mode: multiply"/>
            </g>
            <g style="mix-blend-mode: multiply">
              <path d="M1799.07115,0H861.08338c-17.51938,67.40614-20.496,132.79834-8.6058,190.09414,16.7358,80.2911,67.752,145.6143,133.242,172.46786,69.68279,28.47214,159.52442,20.35984,260.61929,12.78514,116.619-8.7318,250.98929-10.4295,389.22659,30.5832a833.18853,833.18853,0,0,1,163.50569,68.74349Z" opacity="0.46" fill="url(#GradientFill_2-2)" style="mix-blend-mode: multiply"/>
            </g>
          </g>
          <g>
            <g style="mix-blend-mode: multiply">
              <path d="M1799.07115,0h-353.748c60.8439,29.26894,135.04984,54.90394,216.55384,88.86334,44.34086,18.4731,90.38066,39.1698,137.19415,63.0834Z" fill="#0099cf" opacity="0.46" style="mix-blend-mode: multiply"/>
            </g>
            <g style="mix-blend-mode: multiply">
              <path d="M1799.07115,0H1510.42076c-40.9569,30.31054-74.4285,64.90444-98.4843,102.08194-43.85459,67.8882-53.31146,148.821-25.3917,212.2194,29.8653,67.6362,100.08124,122.931,178.5207,186.58589,79.1718,64.254,164.9472,142.0401,234.00569,244.4781Z" fill="#0099cf" opacity="0.46" style="mix-blend-mode: multiply"/>
              <path d="M1799.07115,1800v-58.9101q-17.37135,29.8125-36.80549,58.9101Z" fill="#0099cf" opacity="0.46" style="mix-blend-mode: multiply"/>
            </g>
            <g style="mix-blend-mode: multiply">
              <path d="M1799.07115,1800V1632.7881c-53.22059,57.252-113.60159,114.0936-183.20215,167.2119Z" fill="#0099cf" opacity="0.46" style="mix-blend-mode: multiply"/>
            </g>
          </g>
          <g>
            <g style="mix-blend-mode: multiply">
              <path d="M1799.07115,1800V447.64443c-40.45015,24.4821-71.46389,58.6218-87.38069,98.17257-27.5334,68.69373-15.759,157.84413-3.003,258.85533,14.9151,118.14119,24.0147,256.55429-12.93146,401.88418-40.33624,158.2356-133.59694,318.11429-276.29914,442.12229-68.92649,59.8563-149.15909,111.1347-237.41009,151.3212Z" opacity="0.46" fill="url(#Green_Yellow-4)" style="mix-blend-mode: multiply"/>
              <path d="M247.4253,1800A1370.8413,1370.8413,0,0,1,0,1667.496V1800Z" opacity="0.46" fill="url(#Green_Yellow-5)" style="mix-blend-mode: multiply"/>
            </g>
            <g style="mix-blend-mode: multiply">
              <path d="M1706.52236,1800c-36.8172-34.2363-92.5926-52.3212-152.9385-52.4706-107.6805-.1494-239.50469,30.62979-399.36329,40.69911-184.995,11.62207-399.89039-5.92089-614.73028-92.49891C340.878,1615.5996,148.6509,1476.80281,0,1287.70321V1800Z" opacity="0.46" fill="url(#Green_Yellow-6)" style="mix-blend-mode: multiply"/>
            </g>
          </g>
          <g>
            <g style="mix-blend-mode: multiply">
              <path d="M1799.07115,1800V1669.0812A1296.28422,1296.28422,0,0,1,1680.14936,1800Z" fill="#fff" opacity="0.46" style="mix-blend-mode: multiply"/>
            </g>
            <g style="mix-blend-mode: multiply">
              <path d="M1799.07115,1800V943.73432q-7.87905,2.79945-15.4275,6.2784c-68.99129,32.001-123.76465,106.2276-188.05679,188.8302-75.0351,96.38069-170.502,201.68819-303.68549,276.80549-144.4923,81.3984-326.97659,123.54509-515.559,103.67879C576.495,1498.128,371.91059,1407.48331,207.0189,1257.25771,127.1088,1184.38172,57.4101,1097.36432,0,1000.30952V1800Z" fill="#fff" opacity="0.46" style="mix-blend-mode: multiply"/>
            </g>
            <g style="mix-blend-mode: multiply">
              <path d="M869.19568,1800c-8.3538-31.371-25.1616-62.3058-48.2268-89.9736-54.1392-65.0568-137.3103-125.5197-228.28739-202.9161-104.0403-88.58189-215.2749-196.82219-308.16929-337.53508-100.434-152.4054-175.7871-339.2343-200.2002-545.42279C60.567,423.08073,86.1723,205.83994,165.6738,0H0V1800Z" fill="#fff" opacity="0.46" style="mix-blend-mode: multiply"/>
            </g>
          </g>
          <g>
            <g style="mix-blend-mode: multiply">
              <path d="M1799.07115,1800V1551.4599c-77.98229,25.0254-165.65609,76.0695-271.77539,125.4084-106.9773,49.7079-230.72459,96.69126-370.14839,123.1317Z" opacity="0.46" fill="url(#Orange_Yellow-5)" style="mix-blend-mode: multiply"/>
              <path d="M690.73228,1800a1272.21327,1272.21327,0,0,1-345.71609-118.3095C220.6773,1617.7851,103.191,1530.6708,0,1424.49331V1800Z" opacity="0.46" fill="url(#Orange_Yellow-6)" style="mix-blend-mode: multiply"/>
            </g>
            <g style="mix-blend-mode: multiply">
              <path d="M1670.91806,1800c40.8456-114.9813,49.4091-226.9923,27.0174-318.21089-21.6651-88.1076-77.5926-157.8369-147.4041-184.5939-73.383-28.0986-167.262-15.4071-273.68279-3.9873-123.6972,13.2012-267.7734,17.42009-415.19219-27.33691-158.6559-48.33389-313.59089-151.28908-426.14069-299.96488C317.24129,809.59563,247.0314,604.371,244.9233,389.50624,243.7677,260.313,267.5919,127.875,313.90859,0H0V1800Z" opacity="0.46" fill="url(#Orange_Yellow-7)" style="mix-blend-mode: multiply"/>
            </g>
            <g style="mix-blend-mode: multiply">
              <path d="M0,0V1273.14271c81.5187,30.2079,158.4654,36.3309,216.813,15.3486,67.8048-24.4221,107.65709-99.60059,113.86949-185.47559,7.7097-106.5471-12.6708-237.0396-12.063-391.10909.8571-175.8177,29.8728-375.18869,120.255-569.74349A1211.1879,1211.1879,0,0,1,517.11029,0Z" opacity="0.46" fill="url(#Orange_Yellow-8)" style="mix-blend-mode: multiply"/>
            </g>
          </g>
        </g>
      </g>
    </g>
  </g>
</svg>
