<svg xmlns="http://www.w3.org/2000/svg" xmlns:xlink="http://www.w3.org/1999/xlink" width="556.54291" height="561.78942" viewBox="0 0 556.54291 561.78942">
  <defs>
    <clipPath id="clip-path" transform="translate(26.49562 20.60487)">
      <rect width="500" height="500" fill="none"/>
    </clipPath>
  </defs>
  <g id="Layer_2" data-name="Layer 2">
    <g id="Publicdomainvectors.org">
      <g id="colored-circles">
        <g clip-path="url(#clip-path)">
          <rect x="26.49562" y="20.60487" width="500" height="500"/>
          <g>
            <path d="M446.061,387.21089a7.88375,7.88375,0,1,1,5.6213,9.6285A7.88374,7.88374,0,0,1,446.061,387.21089Z" transform="translate(26.49562 20.60487)" fill="#39b54a"/>
            <circle cx="499.97254" cy="61.9612" r="7.51696" transform="translate(393.03811 568.37277) rotate(-81.70664)" fill="#39b54a"/>
            <path d="M140.66659,265.234a5.85462,5.85462,0,1,1-8.2797.0244A5.8547,5.8547,0,0,1,140.66659,265.234Z" transform="translate(26.49562 20.60487)" fill="#39b54a"/>
            <path d="M298.58259,150.56839a6.00183,6.00183,0,1,1,.07991-8.48749A6.00185,6.00185,0,0,1,298.58259,150.56839Z" transform="translate(26.49562 20.60487)" fill="#39b54a"/>
            <circle cx="214.40197" cy="405.16204" r="14.24342" transform="translate(-20.54624 49.2412) rotate(-6.8878)" fill="#39b54a"/>
            <path d="M364.42889,383.12989a6.94717,6.94717,0,1,1-9.7786.952A6.94718,6.94718,0,0,1,364.42889,383.12989Z" transform="translate(26.49562 20.60487)" fill="#39b54a"/>
            <circle cx="171.11251" cy="341.25636" r="10.41223" fill="#39b54a"/>
            <circle cx="6.21375" cy="61.9612" r="7.51696" transform="translate(-29.50015 79.77746) rotate(-81.70664)" fill="#39b54a"/>
            <circle cx="355.64059" cy="99.38109" r="10.40984" transform="translate(17.32362 177.1577) rotate(-24.51931)" fill="#39b54a"/>
            <path d="M168.22259,259.15859a8.1298,8.1298,0,1,1,9.7207-6.1395A8.12987,8.12987,0,0,1,168.22259,259.15859Z" transform="translate(26.49562 20.60487)" fill="#39b54a"/>
            <path d="M131.411,251.88129a11.836,11.836,0,1,1,15.4794,6.3697A11.83608,11.83608,0,0,1,131.411,251.88129Z" transform="translate(26.49562 20.60487)" fill="#39b54a"/>
            <path d="M164.115,324.01509a7.19082,7.19082,0,1,1,7.7364,6.6004A7.19075,7.19075,0,0,1,164.115,324.01509Z" transform="translate(26.49562 20.60487)" fill="#39b54a"/>
            <circle cx="233.04094" cy="221.78919" r="12.99147" transform="translate(-4.32116 426.45283) rotate(-78.48129)" fill="#39b54a"/>
            <circle cx="371.74141" cy="173.67762" r="15.90693" transform="translate(-8.00656 136.64795) rotate(-16.96721)" fill="#39b54a"/>
            <circle cx="276.14514" cy="395.81434" r="16.86765" transform="translate(-166.84149 304.56418) rotate(-41.69694)" fill="#39b54a"/>
            <circle cx="322.51669" cy="145.71485" r="12.37315" transform="translate(40.85777 340.3617) rotate(-53.77096)" fill="#39b54a"/>
            <path d="M402.47389,320.09629a6.29376,6.29376,0,1,1,8.8812.5885A6.29381,6.29381,0,0,1,402.47389,320.09629Z" transform="translate(26.49562 20.60487)" fill="#39b54a"/>
          </g>
          <g>
            <path d="M449.88109,288.96469a8.063,8.063,0,1,1,4.8615,10.3146A8.063,8.063,0,0,1,449.88109,288.96469Z" transform="translate(26.49562 20.60487)" fill="#3ebdb2"/>
            <circle cx="488.60714" cy="-2.428" r="13.81274" transform="translate(28.55096 63.01192) rotate(-4.98014)" fill="#3ebdb2"/>
            <path d="M451.19319,408.14229a6.61876,6.61876,0,1,1-4.6317,8.134A6.61873,6.61873,0,0,1,451.19319,408.14229Z" transform="translate(26.49562 20.60487)" fill="#3ebdb2"/>
            <path d="M448.81379,29.14509a14.47968,14.47968,0,1,1-12.4413-16.26459A14.47979,14.47979,0,0,1,448.81379,29.14509Z" transform="translate(26.49562 20.60487)" fill="#3ebdb2"/>
            <circle cx="488.60714" cy="490.82768" r="13.81274" transform="translate(-14.2688 64.87404) rotate(-4.98014)" fill="#3ebdb2"/>
            <circle cx="169.79954" cy="287.08649" r="19.81673" transform="matrix(0.55886, -0.82926, 0.82926, 0.55886, -136.66897, 288.05916)" fill="#3ebdb2"/>
            <path d="M389.96809,338.69379a6.81535,6.81535,0,1,1,7.5873-5.944A6.81537,6.81537,0,0,1,389.96809,338.69379Z" transform="translate(26.49562 20.60487)" fill="#3ebdb2"/>
            <circle cx="344.29094" cy="355.75074" r="20.39099" transform="translate(-19.20561 681.31617) rotate(-83.96205)" fill="#3ebdb2"/>
            <path d="M448.81369,29.14509A14.47965,14.47965,0,1,1,436.3725,12.8805,14.47979,14.47979,0,0,1,448.81369,29.14509Z" transform="translate(26.49562 20.60487)" fill="#3ebdb2"/>
            <path d="M219.303,432.96179a7.48536,7.48536,0,1,1,7.5587,7.4113A7.48536,7.48536,0,0,1,219.303,432.96179Z" transform="translate(26.49562 20.60487)" fill="#3ebdb2"/>
            <path d="M62.8084,83.1556a6.46975,6.46975,0,1,1,8.1638,4.1313A6.46967,6.46967,0,0,1,62.8084,83.1556Z" transform="translate(26.49562 20.60487)" fill="#3ebdb2"/>
            <path d="M117.2966,398.77039a7.46132,7.46132,0,1,1,10.54139-.4708A7.46138,7.46138,0,0,1,117.2966,398.77039Z" transform="translate(26.49562 20.60487)" fill="#3ebdb2"/>
            <circle cx="288.52674" cy="72.1622" r="7.94143" transform="translate(73.758 266.68247) rotate(-49.82789)" fill="#3ebdb2"/>
            <circle cx="-5.15165" cy="-2.428" r="13.81274" transform="translate(26.68695 20.14848) rotate(-4.98014)" fill="#3ebdb2"/>
            <circle cx="275.19892" cy="172.05177" r="17.29104" transform="translate(97.73698 445.11964) rotate(-83.07949)" fill="#3ebdb2"/>
            <path d="M117.467,177.53989a7.101,7.101,0,1,1,3.7258,9.3256A7.10088,7.10088,0,0,1,117.467,177.53989Z" transform="translate(26.49562 20.60487)" fill="#3ebdb2"/>
            <path d="M437.3545,143.4044a5.4661,5.4661,0,1,1,.97179-7.6689A5.4662,5.4662,0,0,1,437.3545,143.4044Z" transform="translate(26.49562 20.60487)" fill="#3ebdb2"/>
            <path d="M14.2305,419.68449a9.47365,9.47365,0,1,1,10.8418-7.8712A9.47357,9.47357,0,0,1,14.2305,419.68449Z" transform="translate(26.49562 20.60487)" fill="#3ebdb2"/>
            <path d="M220.99909,301.07119a7.36766,7.36766,0,1,1,8.8518,5.4964A7.36778,7.36778,0,0,1,220.99909,301.07119Z" transform="translate(26.49562 20.60487)" fill="#3ebdb2"/>
            <circle cx="424.24936" cy="304.71051" r="19.80403" fill="#3ebdb2"/>
            <path d="M28.6958,173.62969a17.15442,17.15442,0,1,1-16.9577,17.3488A17.15436,17.15436,0,0,1,28.6958,173.62969Z" transform="translate(26.49562 20.60487)" fill="#3ebdb2"/>
            <circle cx="61.52845" cy="196.08809" r="5.52718" transform="translate(-28.11509 47.14065) rotate(-16.98939)" fill="#3ebdb2"/>
            <circle cx="337.62774" cy="240.39024" r="17.2559" transform="translate(5.59415 53.06059) rotate(-5.33854)" fill="#3ebdb2"/>
            <circle cx="144.72044" cy="5.93242" r="18.78604" transform="translate(46.39221 100.00978) rotate(-32.82884)" fill="#3ebdb2"/>
            <circle cx="429.31944" cy="427.23819" r="12.38581" transform="translate(-32.88412 90.04316) rotate(-8.65115)" fill="#3ebdb2"/>
            <circle cx="359.19616" cy="422.14309" r="18.75405" transform="translate(-76.58717 748.56626) rotate(-83.09239)" fill="#3ebdb2"/>
            <path d="M236.25959,412.39329a8.5242,8.5242,0,1,1,11.5778,3.3587A8.5242,8.5242,0,0,1,236.25959,412.39329Z" transform="translate(26.49562 20.60487)" fill="#3ebdb2"/>
            <path d="M346.39439,465.69877a9.99443,9.99443,0,1,1,5.7022-12.933A9.99444,9.99444,0,0,1,346.39439,465.69877Z" transform="translate(26.49562 20.60487)" fill="#3ebdb2"/>
            <path d="M58.5232,456.95349a5.45623,5.45623,0,1,1,7.6982.5278A5.45614,5.45614,0,0,1,58.5232,456.95349Z" transform="translate(26.49562 20.60487)" fill="#3ebdb2"/>
            <circle cx="-5.15165" cy="490.82768" r="13.81274" transform="translate(-16.13281 22.0106) rotate(-4.98014)" fill="#3ebdb2"/>
            <path d="M81.616,454.21129a6.00293,6.00293,0,1,1,8.2816,1.8671A6.00312,6.00312,0,0,1,81.616,454.21129Z" transform="translate(26.49562 20.60487)" fill="#3ebdb2"/>
            <circle cx="144.72044" cy="499.18811" r="18.78604" transform="translate(-221.0171 178.78576) rotate(-32.82884)" fill="#3ebdb2"/>
          </g>
          <g>
            <circle cx="483.98811" cy="177.91519" r="8.49392" transform="translate(252.14694 644.79398) rotate(-80.11807)" fill="#0d6954"/>
            <circle cx="478.01459" cy="414.20101" r="6.63508" transform="translate(-72.88257 693.02672) rotate(-65.00411)" fill="#0d6954"/>
            <path d="M452.11759,92.50709a6.93984,6.93984,0,1,1-.0218-9.81439A6.93989,6.93989,0,0,1,452.11759,92.50709Z" transform="translate(26.49562 20.60487)" fill="#0d6954"/>
            <path d="M452.11759,92.50709a6.93984,6.93984,0,1,1-.0219-9.81439A6.93989,6.93989,0,0,1,452.11759,92.50709Z" transform="translate(26.49562 20.60487)" fill="#0d6954"/>
            <path d="M118.4954,253.905a8.84679,8.84679,0,1,1-11.1174-5.7389A8.84681,8.84681,0,0,1,118.4954,253.905Z" transform="translate(26.49562 20.60487)" fill="#0d6954"/>
            <path d="M405.2355,407.68439a8.61976,8.61976,0,1,1,11.99779-2.1572A8.61976,8.61976,0,0,1,405.2355,407.68439Z" transform="translate(26.49562 20.60487)" fill="#0d6954"/>
            <path d="M258.05379,148.56439a14.129,14.129,0,1,1,16.5225-11.23659A14.12913,14.12913,0,0,1,258.05379,148.56439Z" transform="translate(26.49562 20.60487)" fill="#0d6954"/>
            <path d="M321.31729,62.753a7.2283,7.2283,0,1,1-6.9823-7.4662A7.22829,7.22829,0,0,1,321.31729,62.753Z" transform="translate(26.49562 20.60487)" fill="#0d6954"/>
            <circle cx="106.4542" cy="156.80352" r="18.1506" transform="translate(-56.54846 174.20812) rotate(-54.85982)" fill="#0d6954"/>
            <circle cx="195.11564" cy="233.26276" r="21.32321" fill="#0d6954"/>
            <path d="M330.93839,305.71569a5.60869,5.60869,0,1,1-4.889,6.246A5.60866,5.60866,0,0,1,330.93839,305.71569Z" transform="translate(26.49562 20.60487)" fill="#0d6954"/>
            <circle cx="126.09807" cy="42.36807" r="12.44606" transform="translate(19.87622 53.9258) rotate(-14.67226)" fill="#0d6954"/>
            <circle cx="263.54022" cy="94.2366" r="12.7702" transform="translate(147.09969 355.47238) rotate(-78.96546)" fill="#0d6954"/>
            <path d="M329.05919,326.77449a6.51379,6.51379,0,1,1-9.1913-.6148A6.51379,6.51379,0,0,1,329.05919,326.77449Z" transform="translate(26.49562 20.60487)" fill="#0d6954"/>
            <path d="M216.08779,352.56579a6.54848,6.54848,0,1,1,8.9778-2.2725A6.54856,6.54856,0,0,1,216.08779,352.56579Z" transform="translate(26.49562 20.60487)" fill="#0d6954"/>
            <path d="M310.53639,165.59659a5.95637,5.95637,0,1,1-6.9525,4.7561A5.95643,5.95643,0,0,1,310.53639,165.59659Z" transform="translate(26.49562 20.60487)" fill="#0d6954"/>
            <path d="M200.711,2.6122a7.277,7.277,0,1,1-6.5577,7.9314A7.277,7.277,0,0,1,200.711,2.6122Z" transform="translate(26.49562 20.60487)" fill="#0d6954"/>
            <circle cx="35.56835" cy="382.09244" r="9.59639" transform="translate(-319.6183 362.9684) rotate(-78.7393)" fill="#0d6954"/>
            <path d="M285.78219.2284a10.07326,10.07326,0,1,1-14.0343,2.4451A10.07324,10.07324,0,0,1,285.78219.2284Z" transform="translate(26.49562 20.60487)" fill="#0d6954"/>
            <circle cx="425.95099" cy="108.98579" r="15.06828" transform="translate(257.74399 523.80258) rotate(-78.06713)" fill="#0d6954"/>
            <path d="M383.2765,310.806a5.42729,5.42729,0,1,1-6.969-3.2162A5.42733,5.42733,0,0,1,383.2765,310.806Z" transform="translate(26.49562 20.60487)" fill="#0d6954"/>
            <circle cx="307.35972" cy="202.22572" r="13.31155" transform="translate(42.94001 448.07159) rotate(-71.09151)" fill="#0d6954"/>
            <path d="M345.177,173.53359a8.50637,8.50637,0,1,1-10.9382-5.0074A8.50641,8.50641,0,0,1,345.177,173.53359Z" transform="translate(26.49562 20.60487)" fill="#0d6954"/>
            <circle cx="163.60859" cy="391.79344" r="6.23471" transform="translate(-4.75748 35.17319) rotate(-4.65447)" fill="#0d6954"/>
            <circle cx="325.00686" cy="27.23342" r="20.69026" transform="matrix(0.96714, -0.25426, 0.25426, 0.96714, 30.25243, 104.13682)" fill="#0d6954"/>
            <circle cx="97.87275" cy="422.89814" r="16.94863" transform="translate(-203.51519 159.04865) rotate(-36.02609)" fill="#0d6954"/>
            <path d="M200.711,495.86789a7.277,7.277,0,1,1-6.5577,7.9314A7.277,7.277,0,0,1,200.711,495.86789Z" transform="translate(26.49562 20.60487)" fill="#0d6954"/>
            <path d="M285.78219,493.48409a10.07326,10.07326,0,1,1-14.0343,2.4451A10.07324,10.07324,0,0,1,285.78219,493.48409Z" transform="translate(26.49562 20.60487)" fill="#0d6954"/>
            <circle cx="325.00686" cy="520.48911" r="20.69026" transform="matrix(0.96714, -0.25426, 0.25426, 0.96714, -95.16381, 120.3475)" fill="#0d6954"/>
          </g>
          <g>
            <path d="M449.73249,164.27679a8.291,8.291,0,1,1-8.613,7.9558A8.29106,8.29106,0,0,1,449.73249,164.27679Z" transform="translate(26.49562 20.60487)" fill="#d45032"/>
            <path d="M497.71909,296.96629a15.19349,15.19349,0,1,1,16.5244-13.7342A15.1936,15.1936,0,0,1,497.71909,296.96629Z" transform="translate(26.49562 20.60487)" fill="#d45032"/>
            <circle cx="464.87161" cy="50.93145" r="16.70888" transform="translate(108.44309 339.99251) rotate(-41.2855)" fill="#d45032"/>
            <path d="M487.14369,333.50549a6.65366,6.65366,0,1,1-8.8477,3.2035A6.65364,6.65364,0,0,1,487.14369,333.50549Z" transform="translate(26.49562 20.60487)" fill="#d45032"/>
            <circle cx="462.41559" cy="142.07255" r="16.24818" transform="translate(324.03542 617.46171) rotate(-87.15163)" fill="#d45032"/>
            <path d="M458.38379,12.8073a6.30509,6.30509,0,1,1-7.4228,4.9407A6.305,6.305,0,0,1,458.38379,12.8073Z" transform="translate(26.49562 20.60487)" fill="#d45032"/>
            <path d="M223.40229,453.22329a17.33527,17.33527,0,1,1-22.5634-9.5873A17.33538,17.33538,0,0,1,223.40229,453.22329Z" transform="translate(26.49562 20.60487)" fill="#d45032"/>
            <path d="M449.7325,164.27679a8.291,8.291,0,1,1-8.61311,7.9558A8.291,8.291,0,0,1,449.7325,164.27679Z" transform="translate(26.49562 20.60487)" fill="#d45032"/>
            <circle cx="203.45952" cy="181.96757" r="16.11215" transform="translate(-8.7955 334.88307) rotate(-70.80272)" fill="#d45032"/>
            <path d="M139.20739,53.9096a8.5428,8.5428,0,1,1,3.9626,11.413A8.54276,8.54276,0,0,1,139.20739,53.9096Z" transform="translate(26.49562 20.60487)" fill="#d45032"/>
            <circle cx="22.3339" cy="355.88354" r="12.57745" transform="translate(-252.3398 185.57236) rotate(-54.03778)" fill="#d45032"/>
            <path d="M3.9603,296.96629a15.19349,15.19349,0,1,1,16.5244-13.7342A15.1936,15.1936,0,0,1,3.9603,296.96629Z" transform="translate(26.49562 20.60487)" fill="#d45032"/>
            <path d="M397.46189,190.72129a7.19123,7.19123,0,1,1,10.1629-.3796A7.19116,7.19116,0,0,1,397.46189,190.72129Z" transform="translate(26.49562 20.60487)" fill="#d45032"/>
            <path d="M389.74919,201.21019a5.72432,5.72432,0,1,1-3.3572,7.3664A5.72436,5.72436,0,0,1,389.74919,201.21019Z" transform="translate(26.49562 20.60487)" fill="#d45032"/>
            <circle cx="57.03255" cy="343.68559" r="17.4242" transform="translate(25.6982 20.73815) rotate(-0.13296)" fill="#d45032"/>
            <circle cx="387.84689" cy="108.6669" r="12.59242" transform="translate(17.53878 60.13054) rotate(-5.76751)" fill="#d45032"/>
            <circle cx="289.09772" cy="431.57561" r="14.548" transform="translate(-189.29545 574.33742) rotate(-69.78446)" fill="#d45032"/>
            <path d="M274.48719,280.34059a5.84972,5.84972,0,1,1,8.26731.3016A5.84977,5.84977,0,0,1,274.48719,280.34059Z" transform="translate(26.49562 20.60487)" fill="#d45032"/>
            <circle cx="207.30096" cy="161.00751" r="5.56288" fill="#d45032"/>
            <path d="M221.49289,104.19309a14.16254,14.16254,0,1,1,9.2889-17.74469A14.16266,14.16266,0,0,1,221.49289,104.19309Z" transform="translate(26.49562 20.60487)" fill="#d45032"/>
            <path d="M436.68069-5.102A12.59615,12.59615,0,0,1,421.52,4.2509a12.59608,12.59608,0,0,1-9.3529-15.1607,12.596,12.596,0,0,1,15.1607-9.3529A12.59614,12.59614,0,0,1,436.68069-5.102Z" transform="translate(26.49562 20.60487)" fill="#d45032"/>
            <circle cx="159.08862" cy="220.58026" r="10.25188" fill="#d45032"/>
            <circle cx="354.27401" cy="281.81012" r="19.1871" transform="translate(-60.21331 404.69434) rotate(-51.55879)" fill="#d45032"/>
            <path d="M45.1214,292.59239a9.63,9.63,0,1,1-4.0735,12.9955A9.62989,9.62989,0,0,1,45.1214,292.59239Z" transform="translate(26.49562 20.60487)" fill="#d45032"/>
            <circle cx="142.14869" cy="420.94789" r="19.69124" transform="translate(-259.7373 559.41948) rotate(-86.72477)" fill="#d45032"/>
            <path d="M111.5972,198.506a5.86339,5.86339,0,1,1-4.0465-7.2378A5.86345,5.86345,0,0,1,111.5972,198.506Z" transform="translate(26.49562 20.60487)" fill="#d45032"/>
            <circle cx="75.2915" cy="273.55462" r="17.85803" transform="translate(21.47844 22.03551) rotate(-1.05357)" fill="#d45032"/>
            <path d="M176.28959,336.76719a6.99538,6.99538,0,1,1-3.6362,9.2005A6.99551,6.99551,0,0,1,176.28959,336.76719Z" transform="translate(26.49562 20.60487)" fill="#d45032"/>
            <circle cx="371.27834" cy="73.68617" r="12.56175" transform="translate(274.35504 452.12484) rotate(-82.1958)" fill="#d45032"/>
            <path d="M262.74029,440.93469a12.11863,12.11863,0,1,1,5.1038-16.3607A12.1186,12.1186,0,0,1,262.74029,440.93469Z" transform="translate(26.49562 20.60487)" fill="#d45032"/>
            <circle cx="240.30759" cy="5.31682" r="19.02993" transform="translate(36.52862 94.83917) rotate(-17.92906)" fill="#d45032"/>
            <circle cx="246.67797" cy="327.45647" r="15.1962" transform="matrix(0.99885, -0.04791, 0.04791, 0.99885, 11.08952, 32.80002)" fill="#d45032"/>
            <path d="M436.65569,453.13469a6.36043,6.36043,0,1,1-7.2176-5.3682A6.3605,6.3605,0,0,1,436.65569,453.13469Z" transform="translate(26.49562 20.60487)" fill="#d45032"/>
            <path d="M398.15589,449.194a6.94719,6.94719,0,1,1-.8467,9.7882A6.94734,6.94734,0,0,1,398.15589,449.194Z" transform="translate(26.49562 20.60487)" fill="#d45032"/>
            <path d="M436.68069,488.15369a12.5961,12.5961,0,1,1-9.3529-15.1607A12.59615,12.59615,0,0,1,436.68069,488.15369Z" transform="translate(26.49562 20.60487)" fill="#d45032"/>
            <path d="M70.4672,473.50249a9.038,9.038,0,1,1,7.9915,9.9754A9.03784,9.03784,0,0,1,70.4672,473.50249Z" transform="translate(26.49562 20.60487)" fill="#d45032"/>
            <circle cx="207.32694" cy="459.71138" r="17.33524" transform="translate(19.29987 23.91836) rotate(-0.90006)" fill="#d45032"/>
            <circle cx="240.30759" cy="498.57251" r="19.02993" transform="translate(-115.31484 118.79246) rotate(-17.92906)" fill="#d45032"/>
            <path d="M294.47309,418.05719a14.548,14.548,0,1,1-18.8938,8.1431A14.548,14.548,0,0,1,294.47309,418.05719Z" transform="translate(26.49562 20.60487)" fill="#d45032"/>
          </g>
          <g>
            <path d="M446.32869,114.5513a8.38526,8.38526,0,1,1,11.7956,1.2201A8.38528,8.38528,0,0,1,446.32869,114.5513Z" transform="translate(26.49562 20.60487)" fill="#bb2a19"/>
            <circle cx="488.12149" cy="379.96774" r="18.43055" transform="translate(98.87951 858.61225) rotate(-85.6699)" fill="#bb2a19"/>
            <circle cx="500.40486" cy="30.81055" r="12.22185" transform="translate(55.20358 221.28698) rotate(-23.32873)" fill="#bb2a19"/>
            <path d="M469.40529,265.783a8.72206,8.72206,0,1,1,11.7644,3.7079A8.72206,8.72206,0,0,1,469.40529,265.783Z" transform="translate(26.49562 20.60487)" fill="#bb2a19"/>
            <circle cx="493.26914" cy="433.60984" r="7.82559" transform="translate(-62.70587 150.80097) rotate(-13.80181)" fill="#bb2a19"/>
            <path d="M487.10689,452.80469a5.54158,5.54158,0,1,1,4.0074,6.735A5.54157,5.54157,0,0,1,487.10689,452.80469Z" transform="translate(26.49562 20.60487)" fill="#bb2a19"/>
            <path d="M388.74169,448.72119a7.85964,7.85964,0,1,1-6.09819-9.293A7.85962,7.85962,0,0,1,388.74169,448.72119Z" transform="translate(26.49562 20.60487)" fill="#bb2a19"/>
            <circle cx="84.8354" cy="316.34854" r="14.46918" transform="translate(-215.9869 325.27336) rotate(-72.94448)" fill="#bb2a19"/>
            <path d="M330.90929,210.82229a7.83967,7.83967,0,1,1,10.80121-2.501A7.8397,7.8397,0,0,1,330.90929,210.82229Z" transform="translate(26.49562 20.60487)" fill="#bb2a19"/>
            <path d="M92.0203,183.23959a8.60194,8.60194,0,1,1-11.5545-3.8051A8.602,8.602,0,0,1,92.0203,183.23959Z" transform="translate(26.49562 20.60487)" fill="#bb2a19"/>
            <path d="M429.06629,163.70009a5.84053,5.84053,0,1,1,7.633,3.1559A5.8406,5.8406,0,0,1,429.06629,163.70009Z" transform="translate(26.49562 20.60487)" fill="#bb2a19"/>
            <path d="M167.67819,100.7475a18.90719,18.90719,0,1,1,21.1365-16.3772A18.90718,18.90718,0,0,1,167.67819,100.7475Z" transform="translate(26.49562 20.60487)" fill="#bb2a19"/>
            <path d="M293.70639,43.4559a12.75255,12.75255,0,1,1-9.0451-15.6026A12.75252,12.75252,0,0,1,293.70639,43.4559Z" transform="translate(26.49562 20.60487)" fill="#bb2a19"/>
            <circle cx="167.36024" cy="120.68527" r="11.36229" transform="translate(-10.53216 113.00729) rotate(-27.91732)" fill="#bb2a19"/>
            <circle cx="148.91987" cy="362.00779" r="20.52743" transform="translate(-194.06191 511.89228) rotate(-86.92398)" fill="#bb2a19"/>
            <path d="M269.43409,62.0045a6.69693,6.69693,0,1,1-9.4543-.561A6.69693,6.69693,0,0,1,269.43409,62.0045Z" transform="translate(26.49562 20.60487)" fill="#bb2a19"/>
            <circle cx="434.08084" cy="187.74939" r="6.62898" transform="translate(156.11257 570.26275) rotate(-73.31653)" fill="#bb2a19"/>
            <circle cx="195.29077" cy="371.05151" r="16.73605" transform="translate(-160.90868 563.01039) rotate(-86.36213)" fill="#bb2a19"/>
            <circle cx="354.42039" cy="319.27979" r="8.25589" transform="translate(-52.82677 141.33844) rotate(-17.41814)" fill="#bb2a19"/>
            <path d="M326.06839,443.19279a11.67954,11.67954,0,1,1,10.41211-12.8224A11.67961,11.67961,0,0,1,326.06839,443.19279Z" transform="translate(26.49562 20.60487)" fill="#bb2a19"/>
            <circle cx="293.48054" cy="116.37757" r="13.94156" transform="translate(94.6069 358.07803) rotate(-66.08201)" fill="#bb2a19"/>
            <circle cx="423.27934" cy="384.10519" r="6.02562" transform="translate(-93.42682 226.85049) rotate(-24.09229)" fill="#bb2a19"/>
            <circle cx="57.8657" cy="114.86345" r="19.84957" transform="translate(-42.50945 156.58367) rotate(-72.71127)" fill="#bb2a19"/>
            <circle cx="53.16922" cy="403.60879" r="17.15583" transform="translate(-294.869 264.67864) rotate(-59.4235)" fill="#bb2a19"/>
            <circle cx="304.24329" cy="316.67889" r="8.05274" transform="translate(-87.5184 203.45431) rotate(-28.40428)" fill="#bb2a19"/>
            <circle cx="364.01754" cy="209.16214" r="14.11328" transform="translate(103.84208 536.48719) rotate(-76.81653)" fill="#bb2a19"/>
            <circle cx="-5.6373" cy="379.96774" r="18.43055" transform="translate(-357.59921 366.26284) rotate(-85.6699)" fill="#bb2a19"/>
            <path d="M255.31109,225.16929a17.49023,17.49023,0,1,1,24.7153-.985A17.49031,17.49031,0,0,1,255.31109,225.16929Z" transform="translate(26.49562 20.60487)" fill="#bb2a19"/>
            <path d="M440.79129,260.91879a14.646,14.646,0,1,1-9.8804-18.2041A14.64589,14.64589,0,0,1,440.79129,260.91879Z" transform="translate(26.49562 20.60487)" fill="#bb2a19"/>
            <circle cx="6.64608" cy="30.81055" r="12.22185" transform="translate(14.83779 25.75558) rotate(-23.32873)" fill="#bb2a19"/>
            <circle cx="202.50947" cy="246.40374" r="18.16467" transform="translate(-49.77307 112.06466) rotate(-21.51942)" fill="#bb2a19"/>
            <circle cx="-0.48965" cy="433.60984" r="7.82559" transform="translate(-76.96231 33.00779) rotate(-13.80181)" fill="#bb2a19"/>
            <path d="M69.9226,433.84079a5.8202,5.8202,0,1,1-8.1046-1.4372A5.82028,5.82028,0,0,1,69.9226,433.84079Z" transform="translate(26.49562 20.60487)" fill="#bb2a19"/>
            <path d="M388.07409,472.40359a6.90422,6.90422,0,1,1-4.0929,8.8648A6.90427,6.90427,0,0,1,388.07409,472.40359Z" transform="translate(26.49562 20.60487)" fill="#bb2a19"/>
            <path d="M-6.6519,452.80469a5.54157,5.54157,0,0,1,6.7349-4.0074,5.54157,5.54157,0,0,1,4.0074,6.7349,5.54161,5.54161,0,0,1-6.7349,4.0075A5.54168,5.54168,0,0,1-6.6519,452.80469Z" transform="translate(26.49562 20.60487)" fill="#bb2a19"/>
            <circle cx="381.04612" cy="447.12384" r="7.85958" transform="translate(-135.84537 690.9916) rotate(-71.89825)" fill="#bb2a19"/>
          </g>
          <g>
            <path d="M490.44929,219.627a10.83541,10.83541,0,1,1,10.6724-10.9961A10.83543,10.83543,0,0,1,490.44929,219.627Z" transform="translate(26.49562 20.60487)" fill="#dccaa1"/>
            <path d="M461.89009,194.38659a7.019,7.019,0,1,1-9.8228,1.4302A7.01908,7.01908,0,0,1,461.89009,194.38659Z" transform="translate(26.49562 20.60487)" fill="#dccaa1"/>
            <path d="M450.74939,360.61419a12.10887,12.10887,0,1,1,13.8309-10.0974A12.10885,12.10885,0,0,1,450.74939,360.61419Z" transform="translate(26.49562 20.60487)" fill="#dccaa1"/>
            <path d="M479.99059,235.62669a7.4368,7.4368,0,1,1,5.1625,9.163A7.43677,7.43677,0,0,1,479.99059,235.62669Z" transform="translate(26.49562 20.60487)" fill="#dccaa1"/>
            <circle cx="508.16139" cy="141.8255" r="20.91204" transform="translate(323.25718 645.80659) rotate(-81.97248)" fill="#dccaa1"/>
            <circle cx="461.86399" cy="461.29983" r="15.07913" transform="translate(-144.45105 321.69685) rotate(-30.758)" fill="#dccaa1"/>
            <path d="M450.74929,360.61419a12.10887,12.10887,0,1,1,13.8309-10.0974A12.10893,12.10893,0,0,1,450.74929,360.61419Z" transform="translate(26.49562 20.60487)" fill="#dccaa1"/>
            <path d="M-3.3095,219.627a10.83543,10.83543,0,0,1-10.9961-10.6723,10.83551,10.83551,0,0,1,10.6724-10.9961,10.83543,10.83543,0,0,1,10.9961,10.6723A10.83545,10.83545,0,0,1-3.3095,219.627Z" transform="translate(26.49562 20.60487)" fill="#dccaa1"/>
            <circle cx="99.67992" cy="363.60176" r="20.83794" transform="translate(-250.13679 361.15532) rotate(-71.16394)" fill="#dccaa1"/>
            <circle cx="238.97872" cy="163.57009" r="8.99021" transform="translate(-16.92446 120.01173) rotate(-21.58914)" fill="#dccaa1"/>
            <circle cx="257.68497" cy="296.58664" r="11.41706" transform="translate(-27.46451 77.93744) rotate(-11.50081)" fill="#dccaa1"/>
            <path d="M121.6475,336.57239a6.79085,6.79085,0,1,1,1.4116-9.4994A6.79082,6.79082,0,0,1,121.6475,336.57239Z" transform="translate(26.49562 20.60487)" fill="#dccaa1"/>
            <path d="M170.46009,430.50419a6.12723,6.12723,0,1,1,.8623,8.6222A6.12725,6.12725,0,0,1,170.46009,430.50419Z" transform="translate(26.49562 20.60487)" fill="#dccaa1"/>
            <path d="M185.92209,105.4253a6.176,6.176,0,1,1,3.9432,7.7934A6.17611,6.17611,0,0,1,185.92209,105.4253Z" transform="translate(26.49562 20.60487)" fill="#dccaa1"/>
            <path d="M-13.7682,235.62669a7.43677,7.43677,0,0,1,9.163-5.1625,7.4367,7.4367,0,0,1,5.1625,9.163,7.43677,7.43677,0,0,1-9.163,5.1625A7.43677,7.43677,0,0,1-13.7682,235.62669Z" transform="translate(26.49562 20.60487)" fill="#dccaa1"/>
            <path d="M178.11239,6.1242a6.67,6.67,0,0,1-6.0811-7.211,6.67,6.67,0,0,1,7.2111-6.08111,6.67,6.67,0,0,1,6.08111,7.211A6.67006,6.67006,0,0,1,178.11239,6.1242Z" transform="translate(26.49562 20.60487)" fill="#dccaa1"/>
            <circle cx="402.75789" cy="146.15109" r="16.10162" transform="translate(1.49828 191.24118) rotate(-23.22071)" fill="#dccaa1"/>
            <circle cx="94.38165" cy="94.49675" r="8.78912" transform="translate(-6.8386 154.16808) rotate(-62.04304)" fill="#dccaa1"/>
            <path d="M333.20319,101.3474a11.03947,11.03947,0,1,1-14.6492,5.3982A11.03958,11.03958,0,0,1,333.20319,101.3474Z" transform="translate(26.49562 20.60487)" fill="#dccaa1"/>
            <path d="M383.8565,405.81979a5.82581,5.82581,0,1,1,6.45949-5.1142A5.82586,5.82586,0,0,1,383.8565,405.81979Z" transform="translate(26.49562 20.60487)" fill="#dccaa1"/>
            <circle cx="14.4026" cy="141.8255" r="20.91204" transform="translate(-101.54885 156.88609) rotate(-81.97248)" fill="#dccaa1"/>
            <circle cx="61.2862" cy="159.10094" r="17.1178" transform="translate(-22.78258 49.91898) rotate(-19.36057)" fill="#dccaa1"/>
            <path d="M305.65139,4.502a12.53177,12.53177,0,0,1-12.5593-12.5042,12.53177,12.53177,0,0,1,12.5042-12.5593,12.53177,12.53177,0,0,1,12.5593,12.5042A12.53189,12.53189,0,0,1,305.65139,4.502Z" transform="translate(26.49562 20.60487)" fill="#dccaa1"/>
            <path d="M205.24169,437.21149a7.70635,7.70635,0,1,1,3.8056-10.2125A7.70634,7.70634,0,0,1,205.24169,437.21149Z" transform="translate(26.49562 20.60487)" fill="#dccaa1"/>
            <circle cx="409.74984" cy="70.72475" r="20.02345" transform="matrix(0.04667, -0.99891, 0.99891, 0.04667, 346.47583, 497.33249)" fill="#dccaa1"/>
            <path d="M93.295,48.9606a12.57718,12.57718,0,1,1-11.277,13.755A12.57717,12.57717,0,0,1,93.295,48.9606Z" transform="translate(26.49562 20.60487)" fill="#dccaa1"/>
            <circle cx="50.22685" cy="50.26785" r="20.80824" transform="translate(16.77731 32.71291) rotate(-12.54342)" fill="#dccaa1"/>
            <path d="M84.2417,387.77109a7.2819,7.2819,0,1,1-8.4788,5.8447A7.282,7.282,0,0,1,84.2417,387.77109Z" transform="translate(26.49562 20.60487)" fill="#dccaa1"/>
            <circle cx="27.83947" cy="88.93802" r="15.65286" transform="translate(-33.29062 77.81369) rotate(-52.7135)" fill="#dccaa1"/>
            <path d="M328.3405,487.03877a6.77517,6.77517,0,1,1,9.558.67192A6.77524,6.77524,0,0,1,328.3405,487.03877Z" transform="translate(26.49562 20.60487)" fill="#dccaa1"/>
            <path d="M178.11239,499.37989a6.67,6.67,0,1,1,7.21111-6.08112A6.67,6.67,0,0,1,178.11239,499.37989Z" transform="translate(26.49562 20.60487)" fill="#dccaa1"/>
            <path d="M305.65139,497.75769a12.53178,12.53178,0,1,1,12.5042-12.5593A12.53177,12.53177,0,0,1,305.65139,497.75769Z" transform="translate(26.49562 20.60487)" fill="#dccaa1"/>
          </g>
          <g>
            <path d="M475.67149,316.12449a6.32261,6.32261,0,1,1,8.9174-.6557A6.32266,6.32266,0,0,1,475.67149,316.12449Z" transform="translate(26.49562 20.60487)" fill="#f6d77a"/>
            <circle cx="513.28064" cy="319.29274" r="16.76207" transform="translate(-62.91113 293.28457) rotate(-27.46164)" fill="#f6d77a"/>
            <circle cx="483.69984" cy="97.81869" r="16.43224" transform="translate(18.8607 72.33468) rotate(-6.07388)" fill="#f6d77a"/>
            <circle cx="453.68591" cy="234.78269" r="13.37457" transform="translate(-10.06876 111.83106) rotate(-11.04035)" fill="#f6d77a"/>
            <circle cx="453.68584" cy="234.78269" r="13.37451" transform="translate(218.90301 694.34921) rotate(-86.59967)" fill="#f6d77a"/>
            <path d="M61.4356,224.41059a19.60716,19.60716,0,1,1,17.3047,21.6663A19.60727,19.60727,0,0,1,61.4356,224.41059Z" transform="translate(26.49562 20.60487)" fill="#f6d77a"/>
            <path d="M235.53129,73.7505a6.01148,6.01148,0,1,1,7.5218,3.9621A6.01146,6.01146,0,0,1,235.53129,73.7505Z" transform="translate(26.49562 20.60487)" fill="#f6d77a"/>
            <path d="M204.30189,292.70859a6.76869,6.76869,0,1,1-8.5081,4.3866A6.76882,6.76882,0,0,1,204.30189,292.70859Z" transform="translate(26.49562 20.60487)" fill="#f6d77a"/>
            <path d="M333.82469,70.9682a6.86871,6.86871,0,1,1-3.8297,8.9271A6.86854,6.86854,0,0,1,333.82469,70.9682Z" transform="translate(26.49562 20.60487)" fill="#f6d77a"/>
            <path d="M422.12569,290.32279a10.59692,10.59692,0,1,1,5.30581,14.0157A10.597,10.597,0,0,1,422.12569,290.32279Z" transform="translate(26.49562 20.60487)" fill="#f6d77a"/>
            <path d="M412.24609,348.47759a7.86514,7.86514,0,1,1,6.0636-9.3249A7.86524,7.86524,0,0,1,412.24609,348.47759Z" transform="translate(26.49562 20.60487)" fill="#f6d77a"/>
            <circle cx="51.02647" cy="248.04404" r="6.4293" transform="translate(-129.68179 123.0601) rotate(-43.2823)" fill="#f6d77a"/>
            <circle cx="429.56676" cy="361.27341" r="12.16855" transform="translate(-95.45778 277.61136) rotate(-29.35881)" fill="#f6d77a"/>
            <circle cx="92.09262" cy="123.94369" r="9.46734" transform="translate(-34.7185 162.99124) rotate(-60.24659)" fill="#f6d77a"/>
            <path d="M53.0676,220.81819a7.29623,7.29623,0,1,1-5.989-8.4024A7.29623,7.29623,0,0,1,53.0676,220.81819Z" transform="translate(26.49562 20.60487)" fill="#f6d77a"/>
            <circle cx="212.68544" cy="137.43105" r="21.26076" transform="translate(-8.38868 211.24881) rotate(-45)" fill="#f6d77a"/>
            <path d="M439.00309,401.90179a6.03941,6.03941,0,1,1,.1245-8.5401A6.03956,6.03956,0,0,1,439.00309,401.90179Z" transform="translate(26.49562 20.60487)" fill="#f6d77a"/>
            <circle cx="157.37754" cy="162.37267" r="20.75113" transform="translate(-40.27116 212.84216) rotate(-53.4843)" fill="#f6d77a"/>
            <circle cx="19.52185" cy="319.29274" r="16.76207" transform="translate(-118.54797 65.58542) rotate(-27.46164)" fill="#f6d77a"/>
            <path d="M287.54839,304.10509a5.98789,5.98789,0,1,1-.4195-8.4577A5.98782,5.98782,0,0,1,287.54839,304.10509Z" transform="translate(26.49562 20.60487)" fill="#f6d77a"/>
            <circle cx="118.21612" cy="293.60694" r="18.62268" transform="translate(-171.07308 335.66018) rotate(-71.95422)" fill="#f6d77a"/>
            <circle cx="321.50369" cy="394.83779" r="19.15481" transform="translate(-1.11954 44.79791) rotate(-4.13215)" fill="#f6d77a"/>
            <path d="M376.35109,256.417a15.73655,15.73655,0,1,1,21.3012-6.4449A15.73649,15.73649,0,0,1,376.35109,256.417Z" transform="translate(26.49562 20.60487)" fill="#f6d77a"/>
            <circle cx="93.93222" cy="16.9018" r="19.81522" transform="translate(49.68001 101.56662) rotate(-52.36029)" fill="#f6d77a"/>
            <path d="M341.97219,51.1509a9.28147,9.28147,0,1,1,6.8314,11.2081A9.28144,9.28144,0,0,1,341.97219,51.1509Z" transform="translate(26.49562 20.60487)" fill="#f6d77a"/>
            <path d="M248.7745,54.2237a9.22669,9.22669,0,1,1,9.91739-8.4799A9.22681,9.22681,0,0,1,248.7745,54.2237Z" transform="translate(26.49562 20.60487)" fill="#f6d77a"/>
            <circle cx="-10.05895" cy="97.81869" r="16.43224" transform="translate(16.08887 20.08965) rotate(-6.07389)" fill="#f6d77a"/>
            <circle cx="293.84109" cy="243.00972" r="18.38385" transform="translate(-28.28 109.13903) rotate(-15.6925)" fill="#f6d77a"/>
            <circle cx="242.59574" cy="369.77934" r="20.44208" transform="translate(-153.33958 259.45845) rotate(-39.51291)" fill="#f6d77a"/>
            <path d="M23.3205,431.14829a6.80619,6.80619,0,1,1,9.481,1.6608A6.80607,6.80607,0,0,1,23.3205,431.14829Z" transform="translate(26.49562 20.60487)" fill="#f6d77a"/>
            <circle cx="118.82155" cy="463.45576" r="18.208" transform="translate(-330.64527 435.38255) rotate(-69.78064)" fill="#f6d77a"/>
            <circle cx="239.21949" cy="456.94653" r="12.10548" transform="translate(11.92153 28.5359) rotate(-1.84326)" fill="#f6d77a"/>
            <circle cx="93.93222" cy="510.15748" r="19.81522" transform="translate(-340.91267 293.59394) rotate(-52.36029)" fill="#f6d77a"/>
            <path d="M317.87029,460.81077a9.64449,9.64449,0,1,1-1.0675-13.59758A9.64445,9.64445,0,0,1,317.87029,460.81077Z" transform="translate(26.49562 20.60487)" fill="#f6d77a"/>
            <path d="M14.9005,451.09229a15.70117,15.70117,0,1,1,5.7201,21.4554A15.70112,15.70112,0,0,1,14.9005,451.09229Z" transform="translate(26.49562 20.60487)" fill="#f6d77a"/>
          </g>
          <g>
            <path d="M457.62029-4.2771a5.41531,5.41531,0,0,1-2.9344,7.0739A5.41544,5.41544,0,0,1,447.612-.1377a5.41529,5.41529,0,0,1,2.9345-7.0738A5.41516,5.41516,0,0,1,457.62029-4.2771Z" transform="translate(26.49562 20.60487)" fill="#f3ba0c"/>
            <path d="M457.62029,488.97859a5.41527,5.41527,0,1,1-7.0738-2.9344A5.41531,5.41531,0,0,1,457.62029,488.97859Z" transform="translate(26.49562 20.60487)" fill="#f3ba0c"/>
            <circle cx="396.89809" cy="427.59919" r="14.9154" transform="translate(-123.00624 243.71381) rotate(-26.61412)" fill="#f3ba0c"/>
            <path d="M437.02539,318.08589a10.03526,10.03526,0,1,1-14.0881,1.7142A10.0352,10.0352,0,0,1,437.02539,318.08589Z" transform="translate(26.49562 20.60487)" fill="#f3ba0c"/>
            <path d="M377.62809,339.488a6.09565,6.09565,0,1,1-1.5509-8.4799A6.09559,6.09559,0,0,1,377.62809,339.488Z" transform="translate(26.49562 20.60487)" fill="#f3ba0c"/>
            <path d="M426.06819,174.34079a6.11249,6.11249,0,1,1-6.6316-5.545A6.11251,6.11251,0,0,1,426.06819,174.34079Z" transform="translate(26.49562 20.60487)" fill="#f3ba0c"/>
            <path d="M169.17179,22.1583A13.52044,13.52044,0,1,1,157.3825,37.21209,13.52045,13.52045,0,0,1,169.17179,22.1583Z" transform="translate(26.49562 20.60487)" fill="#f3ba0c"/>
            <circle cx="358.70884" cy="136.57462" r="16.22138" transform="translate(1.72158 173.47477) rotate(-23.277)" fill="#f3ba0c"/>
            <circle cx="291.68392" cy="353.41499" r="20.95464" transform="translate(-124.9805 257.44008) rotate(-35.72756)" fill="#f3ba0c"/>
            <path d="M64.9762,2.2678a20.91981,20.91981,0,1,1-21.2716-20.562A20.91979,20.91979,0,0,1,64.9762,2.2678Z" transform="translate(26.49562 20.60487)" fill="#f3ba0c"/>
            <path d="M64.9762,495.52349a20.91981,20.91981,0,1,1-21.2716-20.562A20.91978,20.91978,0,0,1,64.9762,495.52349Z" transform="translate(26.49562 20.60487)" fill="#f3ba0c"/>
            <circle cx="161.52499" cy="458.96364" r="12.66766" transform="translate(-181.8429 163.43732) rotate(-30.08998)" fill="#f3ba0c"/>
          </g>
          <g>
            <path d="M447.77259,256.60479a8.59382,8.59382,0,1,1-2.6903,11.852A8.59379,8.59379,0,0,1,447.77259,256.60479Z" transform="translate(26.49562 20.60487)" fill="#ac8135"/>
            <circle cx="459.08021" cy="435.22989" r="6.49181" transform="translate(-129.78529 602.49896) rotate(-56.87803)" fill="#ac8135"/>
            <path d="M464.37359,326.34419a9.19668,9.19668,0,1,1-4.36-12.2535A9.19673,9.19673,0,0,1,464.37359,326.34419Z" transform="translate(26.49562 20.60487)" fill="#ac8135"/>
            <path d="M367.10869,39.7664a21.5033,21.5033,0,1,1,30.3315,2.1872A21.50322,21.50322,0,0,1,367.10869,39.7664Z" transform="translate(26.49562 20.60487)" fill="#ac8135"/>
            <path d="M372.53469,373.48769a17.98067,17.98067,0,1,1,21.857,12.9954A17.98064,17.98064,0,0,1,372.53469,373.48769Z" transform="translate(26.49562 20.60487)" fill="#ac8135"/>
            <circle cx="421.47919" cy="217.57559" r="17.75417" transform="translate(-25.63168 212.08938) rotate(-24.1504)" fill="#ac8135"/>
            <path d="M190.0125,329.479a14.56616,14.56616,0,1,1,18.07389,9.8833A14.56608,14.56608,0,0,1,190.0125,329.479Z" transform="translate(26.49562 20.60487)" fill="#ac8135"/>
            <path d="M214.17079,212.118a6.07706,6.07706,0,1,1-5.5384-6.5718A6.07707,6.07707,0,0,1,214.17079,212.118Z" transform="translate(26.49562 20.60487)" fill="#ac8135"/>
            <path d="M315.61069,81.1375a9.77368,9.77368,0,1,1-13.7277,1.6124A9.77368,9.77368,0,0,1,315.61069,81.1375Z" transform="translate(26.49562 20.60487)" fill="#ac8135"/>
            <circle cx="181.55337" cy="408.56986" r="11.35467" transform="matrix(0.81747, -0.57596, 0.57596, 0.81747, -175.68799, 199.74742)" fill="#ac8135"/>
            <circle cx="210.65222" cy="48.14325" r="20.81535" transform="translate(44.87895 167.36253) rotate(-40.02671)" fill="#ac8135"/>
            <circle cx="278.19564" cy="321.05062" r="6.5551" transform="translate(-111.17667 254.93655) rotate(-37.31171)" fill="#ac8135"/>
            <circle cx="129.77995" cy="117.0662" r="17.97509" transform="translate(37.43748 265.83049) rotate(-89.21284)" fill="#ac8135"/>
            <path d="M35.4491,267.08419a6.85967,6.85967,0,1,1-3.9976,8.839A6.85957,6.85957,0,0,1,35.4491,267.08419Z" transform="translate(26.49562 20.60487)" fill="#ac8135"/>
            <circle cx="311.35749" cy="282.86864" r="18.40848" transform="translate(27.86475 587.84188) rotate(-84.78695)" fill="#ac8135"/>
            <path d="M439.19779,63.868a5.635,5.635,0,1,1-6.6069,4.4559A5.63494,5.63494,0,0,1,439.19779,63.868Z" transform="translate(26.49562 20.60487)" fill="#ac8135"/>
            <path d="M64.5878,383.75429a6.27862,6.27862,0,1,1,4.5952-7.5977A6.27867,6.27867,0,0,1,64.5878,383.75429Z" transform="translate(26.49562 20.60487)" fill="#ac8135"/>
            <path d="M229.11579,192.63409a9.20075,9.20075,0,1,1,11.1081,6.7764A9.20081,9.20081,0,0,1,229.11579,192.63409Z" transform="translate(26.49562 20.60487)" fill="#ac8135"/>
            <path d="M126.02929,236.48549a12.44445,12.44445,0,1,1,5.1173-16.8387A12.44443,12.44443,0,0,1,126.02929,236.48549Z" transform="translate(26.49562 20.60487)" fill="#ac8135"/>
            <circle cx="124.30069" cy="79.9515" r="12.42067" transform="translate(14.89407 42.47465) rotate(-9.60872)" fill="#ac8135"/>
            <circle cx="240.28674" cy="110.62197" r="6.84047" transform="translate(28.61164 246.33396) rotate(-50.51448)" fill="#ac8135"/>
            <circle cx="358.87059" cy="-7.13495" r="9.53538" transform="translate(33.5271 84.52095) rotate(-10.27789)" fill="#ac8135"/>
            <circle cx="248.02997" cy="260.79744" r="19.72109" transform="translate(-50.56284 126.96239) rotate(-21.02635)" fill="#ac8135"/>
            <path d="M208.04859,270.31339a8.99862,8.99862,0,1,1-4.6147,11.8598A8.99855,8.99855,0,0,1,208.04859,270.31339Z" transform="translate(26.49562 20.60487)" fill="#ac8135"/>
            <circle cx="22.13595" cy="241.67957" r="14.37027" transform="translate(-137.91417 107.04365) rotate(-45)" fill="#ac8135"/>
            <path d="M367.10869,533.02208a21.5033,21.5033,0,1,1,30.3315,2.1872A21.50321,21.50321,0,0,1,367.10869,533.02208Z" transform="translate(26.49562 20.60487)" fill="#ac8135"/>
            <path d="M271.83019,447.56429a14.56008,14.56008,0,1,1-11.4648,17.1041A14.56007,14.56007,0,0,1,271.83019,447.56429Z" transform="translate(26.49562 20.60487)" fill="#ac8135"/>
            <circle cx="358.87059" cy="486.12074" r="9.53538" transform="translate(-54.48079 92.43574) rotate(-10.27789)" fill="#ac8135"/>
          </g>
        </g>
      </g>
    </g>
  </g>
</svg>
