<svg xmlns="http://www.w3.org/2000/svg" width="1800" height="1804.00123" viewBox="0 0 1800 1804.00123">
  <g style="isolation: isolate">
    <g id="Layer_2" data-name="Layer 2">
      <g id="Publicdomainvectors.org">
        <g id="swirl-23">
          <g>
            <g>
              <path d="M.00147,996.48988a893.974,893.974,0,0,0,54.98533,116.5178C162.11644,1302.545,326.93306,1442.64093,535.70152,1505.819c222.50209,68.67525,464.235,27.47064,645.53251-123.61351,87.90334-74.16637,151.08149-164.81513,178.5521-277.44039,24.72192-98.88859,65.92653-233.49037-19.2311-307.65824,2.74871,406.54682-409.29375,653.77387-782.877,538.4029,10.98826,8.23984,19.2278,19.22809,27.46764,30.21634-208.76814,24.72223-370.83635-175.80638-469.72645-343.37021-63.17962-101.634-85.15613-217.008-90.65014-335.12588C13.38185,427.58768,117.1851,184.94224,300.168,0H202.677A1082.897,1082.897,0,0,0,54.9868,209.26106,1029.36588,1029.36588,0,0,0,.00147,333.33805Z" fill="#e9d5a3"/>
              <path d="M.00147,397.0265C46.841,248.64841,128.84379,113.35727,235.44987,0H199.57359C111.33022,101.39941,41.31441,217.5009.00147,342.27446Z" fill="#fde500" style="mix-blend-mode: multiply"/>
              <path d="M.00147,1178.24214A958.883,958.883,0,0,0,115.4192,1338.25551c277.44069,307.65673,736.18158,401.0539,1090.53706,159.324,156.57528-107.13114,255.46688-263.70672,282.93451-445.00423C1510.86728,887.75713,1464.16885,717.4464,1340.555,599.327c-101.634-98.8901-280.1861-173.05647-406.545-82.40774,247.224-49.44562,469.72615,170.31078,486.20853,409.29378,27.46763,384.57181-357.10389,670.25474-722.4476,640.03869C383.58166,1540.2241,126.01307,1327.98.00147,1052.9916Z" fill="#8bd100" style="mix-blend-mode: multiply"/>
              <path d="M.00147,281.90063C43.98833,179.61962,103.96176,84.54006,176.78036,0H110.57058A1092.34553,1092.34553,0,0,0,.00147,167.62842Z" fill="#8bd100" style="mix-blend-mode: multiply"/>
            </g>
            <g>
              <path d="M.00147,901.31931c.01466.05737.0308.11444.04546.17151,79.66209,299.4172,313.15246,535.656,623.55761,587.84584,241.73021,43.953,505.43663-41.2043,620.80761-263.70642,41.2046-79.66049,76.91508-170.30955,57.687-266.45243-5.49413-24.72192-32.96177-10.98825-38.45589,2.74571-134.60208,274.695-469.72946,414.78788-741.67572,227.99624C285.73,1030.59877,197.82692,747.66245,288.47717,486.703,368.70537,249.74537,557.92432,74.88666,784.68572,0H561.91209C442.73957,60.19511,333.42623,144.54443,241.77844,250.46566c0,2.74688-13.73517,13.73367-13.73517,5.49413C256.00952,152.99543,318.09217,68.85577,396.59833,0H233.51517A1058.70561,1058.70561,0,0,0,118.16642,151.57557C64.66392,236.9738,25.03453,327.382.00147,420.634Z" fill="#e9d5a3"/>
              <path d="M1292.93235,0c207.00825,63.81761,386.51073,198.76421,507.065,378.63915v-66.682A1058.57076,1058.57076,0,0,0,1574.0484,80.15491,975.98211,975.98211,0,0,0,1446.72707,0Z" fill="#e9d5a3"/>
              <path d="M1765.3165,0q17.73179,14.15255,34.6808,28.84365V0Z" fill="#e9d5a3"/>
              <path d="M1799.9973,1546.68633a1234.53525,1234.53525,0,0,1-222.77786,257.3149h17.19217a1228.24472,1228.24472,0,0,0,205.58569-233.99782Z" fill="#e9d5a3"/>
              <path d="M.00147,1055.81661C150.27332,1392.132,502.81423,1618.6792,881.81713,1549.76936c249.97276-46.69573,461.48661-214.25956,516.42489-469.72644,27.47064-120.86511,10.98825-238.9845-43.95-346.11564-68.67525-131.85336-208.76845-217.008-354.35547-214.26077-16.48239,0-38.45887,21.975-24.72493,30.216,140.0959,96.14288,260.961,227.99624,241.73291,401.05271C1181.234,1294.30519,774.686,1343.74964,505.48515,1258.595c109.87685,63.17812,236.23608,82.40892,348.86137,131.85337,10.98823,5.49413-10.98828,16.48238-21.97383,19.2278-71.42066,21.97651-142.84132,32.96476-219.7564,19.22809-85.15463-16.48238-162.06941-41.20461-236.23878-87.90034C79.709,1154.20927-46.65021,805.34794,27.51613,467.47365,66.30937,283.4848,155.18953,125.43528,276.11471,0h-96.646C105.16,85.3733,44.198,181.4516.00147,284.58477Z" fill="#e39086" style="mix-blend-mode: multiply"/>
              <path d="M.00147,1161.8652C73.07528,1289.44485,177.339,1401.02,310.45067,1486.59125c326.88784,211.51386,760.90654,175.80338,1016.37069-120.86511,173.05767-197.78289,219.75644-480.7162,79.6635-711.45935-115.374-189.54039-359.8526-288.43015-563.12662-184.04623C716.999,536.14739,656.56631,698.2168,719.74742,827.32325c49.44445,98.8898,170.30925,109.878,263.70672,148.33424,38.45589,16.48236,16.48239,65.92954-5.49412,96.14288-60.43271,74.16938-148.33575,115.37368-241.73021,109.87955C524.71325,1170.69167,390.11417,983.9,296.717,813.58928c65.92652,266.45364,351.60976,486.20733,629.05014,381.82461,79.6605-30.21635,148.33575-85.15462,181.30051-162.06971,60.43271-131.85336,30.21335-274.69467-57.687-392.81286-10.98825-19.2278,0-41.20431,21.97654-46.69724a133.89662,133.89662,0,0,1,65.9238,0c151.08416,41.20311,219.7564,197.78019,241.73291,343.36722,30.21635,222.50211-112.62526,423.03072-302.16531,524.66773-266.45243,140.09289-593.34,93.39446-824.08192-101.637C136.23717,1263.83082,51.98156,1142.09763.00147,1008.42852Z" fill="#ffb000" style="mix-blend-mode: multiply"/>
              <path d="M.00147,325.80075A1051.7807,1051.7807,0,0,1,199.64417,0H121.23172A1065.306,1065.306,0,0,0,.00147,183.15441Z" fill="#ffb000" style="mix-blend-mode: multiply"/>
            </g>
            <g>
              <path d="M1518.35018,0c106.06936,71.09806,202.50867,154.792,281.64712,254.147V82.00276A1081.39176,1081.39176,0,0,0,1701.48117,0Z" fill="#e9d5a3"/>
              <path d="M1799.9973,1617.9547q-26.2726,35.44194-55.63965,69.16215a1222.10955,1222.10955,0,0,1-113.87482,116.88438H1799.9973Z" fill="#e9d5a3"/>
              <path d="M327.46712,0a1018.27149,1018.27149,0,0,0-85.68868,96.63579C11.03519,387.81315-38.41067,865.78064,244.52565,1121.24752c-49.446-203.274-107.13114-412.04246-38.45739-623.55782C274.69484,284.18287,420.93489,105.95487,616.49561,0Z" fill="#e39086" style="mix-blend-mode: multiply"/>
              <path d="M1441.72886,0c142.683,69.04466,264.12,172.31274,358.26844,296.55855V0Z" fill="#e39086" style="mix-blend-mode: multiply"/>
              <path d="M1799.9973,1623.79786A1294.96909,1294.96909,0,0,1,1650.96052,1799.742q-2.156,2.1384-4.32391,4.2592h46.03881a1371.924,1371.924,0,0,0,107.32188-112.78368Z" fill="#e39086" style="mix-blend-mode: multiply"/>
              <path d="M.00147,929.695c71.742,231.63076,237.7832,433.42934,467.02779,526.67993,217.008,87.90033,469.72615,74.16636,664.76063-74.16937,93.39449-74.16637,167.56353-167.56354,184.04321-282.93454,10.98826-85.1546,30.21606-214.261-46.69573-269.20083-74.16937,142.84162-112.62556,318.648-280.1891,387.32024-112.62526,46.69573-236.23878,54.93828-351.60976,16.48239-195.03448-68.67525-329.63325-247.227-359.84959-450.49986-30.21636-208.76814,41.2046-412.04216,181.2975-563.12362C564.29705,105.56349,699.01776,33.01313,843.55468,0H606.091q-37.10724,17.79351-73.1352,38.95026C324.18765,162.56232,219.80343,365.83664,109.92507,560.86932,115.846,343.29543,217.46712,146.45541,372.67691,0H224.485C119.14774,115.67015,42.69162,252.09369.00147,398.89359Z" fill="#0099cf" style="mix-blend-mode: multiply"/>
              <path d="M1221.85772,0a893.38879,893.38879,0,0,1,231.32287,85.649C1599.42484,165.506,1716.01293,280.07316,1799.9973,414.48V326.60158C1703.0389,188.74676,1572.91029,74.20031,1416.66034,0Z" fill="#0099cf" style="mix-blend-mode: multiply"/>
              <path d="M1799.9973,1525.90951c-64.686,107.03141-146.24725,200.024-239.81173,278.09172h26.9543q8.61972-7.52841,17.12188-15.24746a1222.1301,1222.1301,0,0,0,195.73555-227.11636Z" fill="#0099cf" style="mix-blend-mode: multiply"/>
            </g>
            <g>
              <path d="M1487.64993,0q29.73514,16.85184,58.92787,36.20309c100.977,67.63115,185.33088,148.02786,253.4195,237.25255V49.39724Q1771.749,23.7694,1741.75582,0Z" fill="#8f98a5" style="mix-blend-mode: multiply"/>
              <path d="M1800,1607.18031a1141.09191,1141.09191,0,0,1-116.07475,137.62323q-30.857,30.8575-63.38053,59.19769H1799.9973Z" fill="#8f98a5" style="mix-blend-mode: multiply"/>
            </g>
            <g>
              <path d="M1560.88935,0c88.842,70.52915,170.04256,149.50179,239.108,237.92718V104.51759A991.03433,991.03433,0,0,0,1665.07262,0Z" fill="#8bd100" style="mix-blend-mode: multiply"/>
              <path d="M1799.9973,1658.95385a1111.57774,1111.57774,0,0,1-127.656,145.04738h127.656Z" fill="#8bd100" style="mix-blend-mode: multiply"/>
              <path d="M309.00618,0C159.46774,148.066,61.83471,340.71552,38.50441,552.62978c-13.73535,123.612-8.24134,247.224,41.20461,359.8496,71.42066,159.321,175.80338,365.34343,365.34373,392.81406-2.74872-27.47063-21.97681-43.953-38.4592-63.18081-145.587-159.324-219.75339-362.59682-208.76663-571.365C214.233,370.76156,414.5973,114.76362,691.44535,0Z" fill="#f14e00" style="mix-blend-mode: multiply"/>
              <path d="M1351.54328,0c181.05421,72.93724,337.80851,203.07757,448.454,367.98371V0Z" fill="#f14e00" style="mix-blend-mode: multiply"/>
              <path d="M1799.9973,1534.6714a1217.9304,1217.9304,0,0,1-227.32161,269.32983h102.50239a1202.52113,1202.52113,0,0,0,124.81922-138.15111Z" fill="#f14e00" style="mix-blend-mode: multiply"/>
            </g>
            <g>
              <path d="M280.52329,0C188.69677,94.88011,115.38556,208.6525,68.72077,338.3672,11.03519,500.43691-8.19426,670.74767,33.01029,841.05842c46.69873,184.04622,137.34749,346.11563,293.92277,458.73819,142.84161,101.64,324.13912,175.80639,483.46312,96.14589,2.74571,0-8.23952-8.24285-10.98826-8.24285-439.5101-82.40621-708.71214-535.653-554.88227-950.44239C318.87224,240.07876,470.24417,88.544,653.32227,0Z" fill="#ffb000"/>
              <path d="M1424.27237,0c147.34154,69.85,276.1617,177.499,375.72493,308.98559V0Z" fill="#ffb000"/>
              <path d="M1799.9973,1615.039a1331.235,1331.235,0,0,1-162.20158,188.96226h22.23153a1214.52251,1214.52251,0,0,0,139.97-157.14732Z" fill="#ffb000"/>
              <path d="M.00147,972.86762C61.006,1152.24394,178.60332,1310.06037,346.16115,1417.916c115.374,71.42066,249.97275,112.62526,384.57453,98.89129,19.22811-2.74841,0-24.72191-10.98826-27.47063-337.87579-98.88829-576.85878-368.08914-634.54427-719.6989C39.12468,479.14525,153.76816,195.95993,355.60639,0H214.56011C118.50223,107.16358,44.69811,233.37743.00147,369.67181Z" fill="#ec0097" style="mix-blend-mode: multiply"/>
              <path d="M1789.95642,0q5.05573,4.24157,10.04088,8.5273V0Z" fill="#ec0097" style="mix-blend-mode: multiply"/>
              <path d="M.00147,1111.84013a943.90987,943.90987,0,0,0,145.63408,209.933c230.742,252.72117,601.57983,348.864,914.73338,208.76814,173.058-76.91478,310.40545-217.008,368.08944-401.0542,52.19286-167.56354,38.45889-354.35517-76.91509-494.44987-74.16637-85.15463-167.56354-151.08116-280.18607-162.06941-129.10767-8.24138-271.94929,49.44565-318.64772,178.55176-16.47968,43.95035-21.97381,90.64878-5.49411,134.60061,8.24252,21.975,43.953,30.216,60.43238,16.48088,98.8913-85.15463,247.227-82.40771,307.65974,38.45739,74.16637,151.08143-46.6987,329.63325-200.5286,370.83786-104.38272,30.21635-208.76815,38.45589-313.15087,32.96476,260.961,101.634,530.16186-41.20732,664.76063-277.44339,2.74871-5.49413,16.48241-13.734,19.22809-10.98525,60.43241,236.23578-137.34748,455.98948-359.8496,516.42488-233.49037,65.92653-477.969,0-664.76062-153.82987C129.14866,1209.72548,43.58943,1070.28679.00147,919.31377Z" fill="#8f98a5" style="mix-blend-mode: multiply"/>
              <path d="M.00147,413.95344C41.38049,261.69152,119.12851,117.73972,229.08016,0H147.03049A1091.97045,1091.97045,0,0,0,.00147,224.54375Z" fill="#8f98a5" style="mix-blend-mode: multiply"/>
            </g>
          </g>
          <g>
            <g>
              <path d="M782.119,0C507.18046,94.905,282.56643,335.35927,261.00653,635.03719c-21.975,321.39521,236.23878,640.0372,568.61774,601.58131,74.16938-8.24284,145.58733-49.44445,186.79166-118.11969,16.48236-24.72193-13.73369-49.44415-41.20433-43.95-195.03147,32.96176-365.34373-76.91479-472.47216-225.249,0,13.73365,2.74571,30.216-5.49413,43.95152-8.24254,10.98676-19.2308,8.23954-27.47064,2.74541-159.324-162.06941-96.14288-420.282,24.72222-587.84554,255.4669-357.10268,752.664-346.11563,1071.309-85.15462a912.96155,912.96155,0,0,1,234.19144,282.936V378.96325C1681.00352,203.52363,1509.57387,66.34044,1308.47035,0Z" fill="#e9d5a3"/>
              <path d="M1799.9973,1431.68511c-72.16288,144.45763-176.51346,270.9313-304.77045,372.31612h85.24864a1201.66032,1201.66032,0,0,0,219.52181-258.79634Z" fill="#e9d5a3"/>
              <path d="M1799.9973,383.02881C1684.66747,213.50864,1519.79952,80.935,1321.32723,22.46942,1521.14576,97.3999,1686.89654,235.92369,1799.9973,417.387Z" fill="#fde500" style="mix-blend-mode: multiply"/>
              <path d="M1799.9973,1507.29748a1149.04057,1149.04057,0,0,1-249.76159,296.70375h60.98088q39.0676-36.87639,75.45407-78.42548a1215.71254,1215.71254,0,0,0,113.32664-149.00769Z" fill="#fde500" style="mix-blend-mode: multiply"/>
              <path d="M564.52442,0A883.11281,883.11281,0,0,0,456.041,77.4077C280.23583,225.74194,175.85191,440.00451,170.35778,662.50633c-8.24134,266.45243,159.324,532.90756,420.282,620.8106,249.97274,87.90334,565.872-54.94127,590.59424-335.12737-21.97651,107.13113-90.64875,195.03147-181.2975,252.71846-233.49037,151.08116-530.16186,46.69874-670.25476-181.29751C92.25471,640.79534,313.39133,158.35019,698.71979,0Z" fill="#8bd100" style="mix-blend-mode: multiply"/>
              <path d="M1371.49021,0A932.021,932.021,0,0,1,1593.2765,126.85335a1008.30792,1008.30792,0,0,1,206.7208,212.20621V252.46014A1011.388,1011.388,0,0,0,1500.633,0Z" fill="#8bd100" style="mix-blend-mode: multiply"/>
              <path d="M1799.9973,1587.09014a1191.94988,1191.94988,0,0,1-189.90411,216.91109h64.941A1131.013,1131.013,0,0,0,1799.9973,1661.547Z" fill="#8bd100" style="mix-blend-mode: multiply"/>
            </g>
            <g>
              <path d="M.00147,1385.75774a1071.40593,1071.40593,0,0,0,233.53592,210.71c291.17586,192.286,645.531,217.00812,950.44235,65.92684,266.45514-131.85337,447.75265-398.3085,469.7292-694.977,30.21631-406.54833-310.4052-763.65072-711.4594-782.87882-13.73367,0-54.93828-13.73516-38.45589-21.97651,170.30925-101.6355,381.8231-27.46913,543.89251,60.43421,167.39954,89.97682,284.98817,232.157,352.31114,396.943v-199.769C1664.86446,204.60888,1451.30326,46.85132,1201.66783,0H888.1472c-168.94225,32.37664-325.905,118.6108-440.349,258.70671C296.717,448.24555,247.27256,706.45815,357.14941,923.46763c57.687,109.87655,148.33574,197.77989,269.20084,230.74164,104.38543,30.21937,211.51386,2.74873,304.911-54.93828,35.71048-24.7222,93.39747-82.40619,38.4589-112.62524-68.67525-38.45619-151.08416-19.2281-222.5048-54.93858-140.09322-76.91328-153.82717-263.70642-74.16669-392.81286C785.67425,357.59526,1021.91,305.40394,1205.95626,379.57181,1376.26551,448.24555,1502.62774,602.07392,1557.566,780.626c68.67224,227.99627,2.74571,466.98077-148.33575,651.02669-318.645,390.06589-909.23925,392.81148-1274.583,68.67224A1135.421,1135.421,0,0,1,.00147,1359.3315Z" fill="#e9d5a3"/>
              <path d="M1799.9973,1329.78979a943.79241,943.79241,0,0,1-72.122,145.81321c-80.14741,132.00864-182.0424,242.26967-299.60463,328.39823h128.69707c96.06084-82.95752,178.52262-180.64942,243.02959-288.97154Z" fill="#e9d5a3"/>
              <path d="M.00147,1804.00123H47.33509Q23.45226,1788.90924.00147,1772.999Z" fill="#e9d5a3"/>
              <path d="M715.3812,0C567.08661,59.26816,440.65709,160.15423,348.90957,302.657c-156.57678,244.47866-156.57678,557.62953,32.96206,777.38593,137.34749,156.57558,368.09216,236.23877,560.37791,142.84161,112.62526-52.19286,214.26227-159.324,222.50211-285.68323,5.49413-68.67374-41.20458-156.57531-107.13114-167.56354-79.66049-13.734-93.39444,107.13114-153.82686,159.321-82.40922,63.18109-192.28877,19.2308-252.72147-54.93708-54.93828-68.67374-82.40591-145.58855-104.38242-225.249C521.96753,780.626,601.628,904.238,607.12216,1030.59877c0,19.22778-43.95-2.74872-65.92653-16.48238-60.4327-38.4589-112.62557-87.90334-142.84162-153.82987-63.17811-151.08146-57.687-321.39221,19.2278-466.98074C565.91755,115.86509,879.06842-21.4821,1189.47387,33.45618c270.773,49.38707,484.53666,221.24234,610.52343,443.56844V345.41456a962.67749,962.67749,0,0,0-201.22664-210.32137C1523.87675,78.41815,1444.137,32.92962,1360.78637,0Z" fill="#e39086" style="mix-blend-mode: multiply"/>
              <path d="M1799.9973,1457.37514c-62.69422,117.13957-147.32379,224.18-250.67383,314.899q-18.696,16.311-37.87226,31.72705h94.1481a1238.11334,1238.11334,0,0,0,194.398-229.32792Z" fill="#e39086" style="mix-blend-mode: multiply"/>
              <path d="M597.03142,0l-.89752.49291C359.89782,132.34627,203.321,365.83664,178.59882,632.29027c-35.71018,362.598,252.72,722.44762,626.30325,711.45937,255.46686-5.49413,480.71468-233.49037,466.98072-491.703-8.23954-173.05767-115.371-302.16412-269.20055-376.332-27.47064-13.73517,5.49413-38.45743,24.72192-41.20431,120.86511-24.72225,227.99624,32.96327,332.382,79.6617C1227.9328,407.041,1035.647,357.59526,873.57429,431.76317c-134.59877,63.17962-247.224,241.73168-131.85306,376.332,60.43543,76.91481,129.10765,8.24107,192.28877-21.975,85.15462-41.20461,170.30925,63.17961,173.05766,148.33574,5.49113,211.51386-230.74465,324.13911-423.03042,293.91977-332.382-54.93527-497.19708-431.26876-401.0542-733.43287C346.16115,288.92306,491.75118,121.35922,684.03724,30.709Q721.281,13.40387,759.4808,0Z" fill="#ffb000" style="mix-blend-mode: multiply"/>
              <path d="M1317.60471,0a942.70445,942.70445,0,0,1,209.745,102.12992c111.22046,70.77546,202.092,158.6785,272.64763,257.90892V276.21426C1711.54848,162.82485,1600.17847,67.58249,1470.02943,0Z" fill="#ffb000" style="mix-blend-mode: multiply"/>
              <path d="M1799.9973,1562.48807q-14.859,22.75237-30.91743,44.968a1224.35218,1224.35218,0,0,1-176.06436,196.54518h62.27155a1301.41491,1301.41491,0,0,0,144.71024-163.79157Z" fill="#ffb000" style="mix-blend-mode: multiply"/>
            </g>
            <g>
              <path d="M.00147,1732.24313q48.66843,38.12593,100.4228,71.7581H1374.75493a1100.20164,1100.20164,0,0,0,199.29347-177.31708c116.93742-132.19068,191.52612-283.20155,225.9489-455.21211V785.89126C1775.03147,676.49258,1724.33777,576.711,1637.22651,505.931c41.20461,208.76815,98.8916,420.282,30.21636,634.54428-82.40922,255.46718-266.45214,464.23532-513.67948,571.36345C749.24648,1885.20463,282.68237,1762.11315.00147,1422.442Z" fill="#e9d5a3"/>
              <path d="M.00147,1474.3153c110.64089,125.23553,248.76125,227.01041,409.3408,292.46475a926.57226,926.57226,0,0,0,110.79929,37.22118h606.10133c36.84259-7.10746,73.50946-15.02747,109.92972-23.48721q-18.1062,12.24523-36.64611,23.48721h273.60939c120.70681-93.39158,222.26752-211.31423,298.6897-350.37475q14.92479-26.86642,28.17171-54.32851V537.54353a923.00883,923.00883,0,0,0-107.83221-163.46585c-148.33571-181.2975-354.35547-291.17585-582.35171-310.40515C920.273,47.19165,741.72123,115.86509,598.88232,242.22432c-68.675,60.43267-120.86781,131.85336-151.08416,217.008C434.0642,505.931,414.8364,558.1239,442.304,604.82114c2.74872,8.241,10.98826,2.74691,10.98826,2.74691C582.39994,426.27054,738.97552,275.18759,958.73192,258.70671c203.27432-13.73517,403.79962,74.16637,535.653,233.49036,211.51686,255.46538,211.51686,612.56807,24.72218,892.75717-140.0932,206.01943-335.12738,332.37866-576.85758,381.82581C579.92426,1839.24511,232.48128,1703.34692.00147,1450.1827Z" fill="#e39086" style="mix-blend-mode: multiply"/>
              <path d="M.00147,1804.00123H184.88353A1152.00691,1152.00691,0,0,1,.00147,1682.47038Z" fill="#e39086" style="mix-blend-mode: multiply"/>
              <path d="M.00147,1377.216c161.53284,199.77466,393.02542,336.97226,653.81942,373.08164,510.93076,74.16649,1024.61023-340.6215,988.89975-865.28773-13.734-197.77989-101.637-381.82611-260.961-510.93226C1186.72816,212.00827,939.50412,198.2728,703.265,258.70671a60.67184,60.67184,0,0,1-43.95,0c170.30925-175.80488,458.73789-192.28731,681.24-109.878,213.78442,80.53458,371.36891,246.92937,459.44227,449.25447v-191.199C1673.92853,208.12745,1479.54826,58.9029,1240.29673,0H847.29613C610.887,59.32673,407.52051,224.32087,321.43893,461.97952c-98.88829,285.68293,21.97651,653.77388,348.86435,719.7004,145.587,27.47063,293.92279-54.93827,351.60675-181.30051,13.737-27.46763,5.49413-71.42065-27.46763-71.42065-120.86811,0-277.44339,16.48538-332.382-120.86363-41.2043-107.13114-16.48236-227.99622,60.43271-315.89806,85.15462-93.39716,208.76814-134.60181,332.38166-126.36043,282.93482,19.2293,491.703,277.44189,508.18534,546.64274,13.734,181.2975-49.44715,359.8493-167.56383,505.43662-249.97276,310.40516-686.73714,370.83777-1038.3469,203.274C215.5192,1554.65313,94.61024,1456.21059.00147,1337.24355Z" fill="#0099cf" style="mix-blend-mode: multiply"/>
              <path d="M1799.9973,1387.39478c-67.8333,164.14318-173.60345,305.19547-303.7642,416.60645h66.80061c94.84948-81.16519,174.49525-174.96156,236.96359-277.32908Z" fill="#0099cf" style="mix-blend-mode: multiply"/>
            </g>
            <g>
              <path d="M.00147,1646.36971q1.39479,1.14847,2.79252,2.291c79.01524,63.96419,161.89664,116.33307,251.28984,155.34057H396.2523C247.23892,1731.38947,112.39805,1632.24285.00147,1512.82975Z" fill="#ab1610" style="mix-blend-mode: multiply"/>
              <path d="M.00147,1762.51806q30.15978,21.51157,61.36526,41.48317H1410.33625c99.86811-72.38588,188.85369-163.62427,262.60074-273.46,54.07591-81.10949,96.91429-166.36113,127.06031-253.90913V686.10665c-84.76174-239.19145-276.29086-469.89495-541.84818-493.32647,348.861,244.47708,560.3749,719.6992,313.15086,1123.50151-104.38272,175.80369-252.71846,304.90833-434.019,381.82342-379.0774,162.06941-826.83034,49.44414-1104.27072-252.71847q-16.984-18.37428-33.00882-37.35322Z" fill="#8f98a5" style="mix-blend-mode: multiply"/>
            </g>
            <g>
              <path d="M.00147,1604.1943q30.3204,20.68024,63.22517,38.97223-32.69444-35.323-63.22517-72.5002Z" fill="#d1e200"/>
              <path d="M1799.9973,948.562a762.21893,762.21893,0,0,0-91.34983-302.53658c49.44419,365.34223-43.95032,752.66247-376.33195,977.91329-155.87755,105.59383-328.4396,166.31691-503.20459,180.0625h532.54953q3.18546-2.1164,6.36521-4.2592c247.61752-167.45232,408.59-436.57086,431.97163-712.95243Z" fill="#8bd100" style="mix-blend-mode: multiply"/>
              <path d="M.00147,1728.75249q50.33144,40.14534,104.346,75.24874H676.16987c-156.2629-12.34054-310.917-62.703-453.61923-152.59486A1157.14468,1157.14468,0,0,1,.00147,1467.98793Z" fill="#8bd100" style="mix-blend-mode: multiply"/>
              <path d="M.00147,1455.99343a1108.05663,1108.05663,0,0,0,90.69431,91.03022,1055.31191,1055.31191,0,0,0,546.69111,256.97758H949.98175a1038.23565,1038.23565,0,0,0,184.55355-45.46372c195.03448-65.92653,337.87309-206.01974,491.703-332.379-75.24591,164.33122-195.42733,289.99238-340.04659,377.84268h202.06866a1134.80462,1134.80462,0,0,0,311.737-388.25873V523.01778C1735.64863,398.43165,1645.038,290.309,1524.60125,201.02c-238.9845-173.058-541.14711-203.27432-799.3597-76.91509-170.31225,79.662-274.69467,236.23875-315.89928,417.53659-19.2281,85.15463-41.20461,233.49037,43.95,241.73141,35.71048,5.49413,32.96478-85.15613,49.44715-137.34749,71.41795-230.74315,307.65674-379.07889,546.64123-359.8493,370.83786,30.21605,618.0622,409.29375,554.88108,771.89026-85.15463,488.95725-593.34,769.1463-1057.572,651.027-221.79233-57.06822-409.9011-186.40476-546.68829-357.063Z" fill="#f14e00" style="mix-blend-mode: multiply"/>
            </g>
            <g>
              <path d="M.00147,1447.64245c178.33212,186.06412,409.65469,319.249,673.04722,349.354,269.20085,27.46772,532.90757-46.69877,744.42142-222.50215,170.31226-140.0959,252.72117-329.63325,337.8758-519.1736,14.3236,300.80162-171.03976,580.26322-427.77662,748.68054h182.15417c120.65965-96.98465,219.04662-215.09263,290.27384-348.92574V483.12727c-144.637-256.13578-401.2888-443.48915-712.16044-457.91093C782.92554,11.48112,478.01451,192.78018,381.87163,489.45013c-38.45619,120.86514-30.21635,252.71819,21.97651,368.09067,32.96477,71.418,93.39717,129.105,164.81813,159.324,16.47938,5.49113,30.216-10.98825,24.72194-27.47064-68.675-178.55209-87.90306-406.54833,65.92681-552.1369,217.008-203.274,557.62949-200.52707,769.14335,5.49417,195.03418,186.79163,255.46688,464.23382,184.04592,719.7007-74.16637,263.70642-280.18877,461.4866-527.41314,557.62949C699.2788,1872.85238,279.29716,1725.40844.00147,1445.70353Z" fill="#ffb000"/>
              <path d="M.00147,1804.00123h129.1517A1329.89423,1329.89423,0,0,1,.00147,1717.198Z" fill="#ffb000"/>
              <path d="M793.01329,0a771.07283,771.07283,0,0,0-268.3,140.58731C373.63179,264.19933,285.73,445.49864,282.983,632.29027c0,65.92653,10.98676,167.56354,74.16637,203.274C398.354,549.88256,521.96753,233.98328,818.636,126.85335c304.91105-107.13114,653.77237-2.74842,862.54051,258.21259A934.84407,934.84407,0,0,1,1799.9973,580.86006V389.64933C1682.61412,211.34805,1508.72592,71.60569,1293.8593,5.987Q1283.55,2.87406,1273.19422,0Z" fill="#ec0097" style="mix-blend-mode: multiply"/>
              <path d="M1799.9973,1363.37663q-1.70718,3.92482-3.44679,7.84364c-77.52214,174.42466-189.22646,316.7998-342.65142,432.781h123.57266a1131.13173,1131.13173,0,0,0,125.68164-133.36406,1273.85127,1273.85127,0,0,0,96.84391-137.37663Z" fill="#ec0097" style="mix-blend-mode: multiply"/>
              <path d="M.00147,1804.00123H14.45986q-7.26221-5.06-14.45839-10.21386Z" fill="#ec0097" style="mix-blend-mode: multiply"/>
              <path d="M643.91789,0c-264.68924,133.53425-451.808,407.25962-443.34406,711.95227,10.98856,340.623,313.15116,664.75913,675.74918,587.84434,109.87685-24.72222,197.77989-85.15462,266.45213-175.80067,87.90334-118.11939,112.62526-274.69618,30.21638-392.81587C1071.35721,588.34,870.82888,643.27853,771.94029,775.13189c-16.48239,19.2278-41.20461,38.45739-60.43541,16.48238-82.40621-79.662-43.95032-203.27431-24.72222-302.16414-60.43241,82.40741-79.6605,192.28579-54.93828,293.9228,21.97651,85.15463,87.903,142.84012,170.31228,170.31075,60.43238,19.2281,197.77987,2.74872,173.05494,74.16637-52.18986,151.08146-285.68023,167.56384-425.77643,93.39747-307.65673-167.56384-318.645-590.59425-109.87685-851.55406C554.97046,123.31885,713.65045,33.91365,883.82215,0Z" fill="#8f98a5" style="mix-blend-mode: multiply"/>
              <path d="M1203.1724,0a836.4947,836.4947,0,0,1,170.34739,52.68577c177.77473,77.03494,325.72029,206.62529,426.47751,368.343V303.37131q-9.74607-12.81758-19.92917-25.43651C1682.13292,156.44492,1561.8193,62.37011,1428.21477,0Z" fill="#8f98a5" style="mix-blend-mode: multiply"/>
              <path d="M1799.9973,1509.54727A1135.89392,1135.89392,0,0,1,1667.44287,1692.611a1140.06054,1140.06054,0,0,1-111.57516,111.39025h84.88188a1204.70718,1204.70718,0,0,0,159.24771-185.68278Z" fill="#8f98a5" style="mix-blend-mode: multiply"/>
            </g>
          </g>
          <g>
            <g>
              <path d="M.00147,1435.71252c259.924,284.34837,659.76081,427.75619,1046.63079,303.59689,357.10389-115.37068,626.30473-455.99248,598.83409-835.07137-10.98555-170.31076-79.66049-329.63325-200.5256-453.24527C1260.89453,264.19933,972.46589,203.76693,747.21538,343.86133,645.57807,407.041,576.90581,519.66651,568.66627,635.03719c-5.49413,71.421,19.22779,186.79313,107.12813,195.033,30.21635,2.74722,38.4589-38.45589,46.69874-63.17961,21.97651-63.17962,54.93827-118.11789,82.40893-178.55059-32.96178-10.98826-21.97653-46.69844-8.23956-68.67345,54.93827-85.15613,148.33274-126.36073,244.47562-126.36073,249.97275,2.74691,466.98074,200.5283,510.93376,453.24677,60.4324,351.60976-162.06968,686.73713-483.46309,807.60224-153.8299,57.684-313.1509,74.16637-477.969,46.69873-244.94812-41.02558-447.49313-172.68821-590.63832-353.543Z" fill="#e9d5a3"/>
              <path d="M.00147,1437.43156A1056.81654,1056.81654,0,0,0,203.321,1607.45605c225.249,145.58733,477.96749,197.78011,730.689,140.0932C578.98709,1817.86709,229.31925,1663.31257.00147,1398.21272Z" fill="#fde500" style="mix-blend-mode: multiply"/>
              <path d="M.00147,1534.824C123.75156,1658.24106,272.0858,1749.97507,431.043,1804.00123h661.33457a987.71224,987.71224,0,0,0,182.25089-86.66833c219.75644-131.85336,373.58627-326.88453,431.2733-576.85758,65.92379-293.92277-24.72527-596.08692-263.70973-785.62573-181.29754-142.84132-423.02745-186.79314-631.79589-98.8898C645.57807,321.88632,543.941,475.71469,499.991,640.53132c46.69874-197.77989,217.008-354.35518,423.03072-390.06566,200.52533-35.71047,395.55978,35.71048,538.4014,175.80488,258.21259,255.46538,277.44038,653.77238,82.40624,958.6837-186.792,293.92277-516.42522,436.76433-848.80386,414.78779-268.7404-17.56478-515.017-145.19406-695.024-337.65013Z" fill="#8bd100" style="mix-blend-mode: multiply"/>
            </g>
            <g>
              <path d="M.00147,1404.82754c270.5296,316.32761,712.57394,443.76909,1098.82365,287.78344,285.68293-115.371,502.691-387.31754,519.1733-697.72271,10.98825-222.50359-76.91479-442.25849-269.20055-579.606C1156.51181,275.18759,876.323,266.94655,714.2533,448.24555,609.86787,566.36344,554.9293,777.8788,711.50488,876.7689c112.62526,71.42066,184.04592-52.19136,238.9845-137.34749,21.97651-32.96326,68.67524-24.72222,104.38542-8.24134,107.13144,52.19286,156.57558,178.5536,123.61082,293.92457-24.72223,93.39417-74.16637,173.05767-153.82687,225.24753-293.92307,186.79463-675.74918,38.45889-818.59049-269.19785-153.82868-332.38166-46.69874-730.68866,247.224-955.938Q470.46764,12.11984,487.99351,0H458.74977C331.85828,91.92924,228.16942,215.35649,164.86365,365.83664,49.49267,637.7844,82.45594,967.41765,285.73,1195.41389c184.04471,208.76815,483.46191,291.17736,738.92879,181.29751,236.23578-101.637,368.08914-357.10089,348.861-609.82085-2.74541-13.734,2.74572-43.95,19.2281-32.96327,93.39747,60.43241,96.14288,181.29751,87.90334,280.18911-16.48238,217.008-126.35923,417.53629-321.39371,535.653-318.645,192.28877-711.45936,140.09591-991.647-96.14288A986.08511,986.08511,0,0,1,.00147,1272.68072Z" fill="#e9d5a3"/>
              <path d="M.00147,40.32151Q13.80206,19.84852,28.4344,0H.00147Z" fill="#e9d5a3"/>
              <path d="M.00147,1455.28665C128.936,1596.0662,293.53576,1704.0507,483.50865,1761.28593c475.22327,142.84161,1024.61022-112.62527,1156.46358-604.32793,79.6635-285.68323-2.74572-593.34147-244.47592-780.1331C1214.1961,236.73019,972.46589,201.02,769.19187,308.15115c-145.58733,76.91479-263.70672,225.249-260.961,387.31874,2.74842,112.62524,68.67495,238.986,170.312,288.43015,74.16667,35.71047,230.742,8.23981,214.26257-90.64876-24.72222-126.36073,8.23954-241.73174,126.35923-288.43014-79.6605-2.74722-159.324,35.71018-236.23908,60.4324-19.2278,5.49413-35.71016,13.73547-54.93828,5.49413-16.48238-10.98676-16.48238-35.71048-10.98825-52.19136,49.44715-170.31076,222.50511-277.44189,403.80265-244.47863,274.69465,46.69874,445.0042,304.91133,455.99245,563.12362,13.73367,304.91133-184.04622,579.606-453.247,708.71094-359.84933,170.3122-788.37117,68.67525-1063.06765-211.51385Q28.57528,1401.54356.00147,1366.68824Z" fill="#e39086" style="mix-blend-mode: multiply"/>
              <path d="M.00147,1519.53829c132.55283,136.02465,294.88807,233.37022,470.85274,284.46294h577.14505c229.17821-67.35523,419.77437-206.91437,548.02265-416.30158,181.2978-296.66848,175.80368-667.50633-41.20431-944.94822C1318.58152,143.33453,870.82888,74.66078,587.89406,335.62029c-145.59,131.85336-217.008,321.39341-186.79163,510.93226,32.96177,195.03448,211.51386,280.1891,348.86136,401.05421,16.48237,13.73365-60.43242,19.22779-90.64877,32.96476,98.88859,24.72192,203.274-13.737,291.17436-57.687,65.92655-35.71048,115.37368-93.39747,142.84161-162.07241,19.2278-52.18986,30.21608-112.62256-8.23984-159.3213-10.98825-13.73369-30.21635-16.48088-43.953-5.49413-65.92653,38.4592-115.371,98.89158-195.03147,101.63731-115.371,2.74541-227.99625-71.421-269.20085-178.55059-65.92653-162.06971,0-343.36872,140.0932-447.75264,285.68323-214.26107,673.0032-79.662,840.567,214.26227,225.24782,392.81287,30.21635,892.75537-357.10389,1093.284C789.91883,1893.62349,300.30737,1759.82821,0,1440.74017Z" fill="#ffb000" style="mix-blend-mode: multiply"/>
            </g>
            <g>
              <path d="M.00147,1215.74766c153.5351,232.974,404.49938,382.58876,681.28706,405.44236,217.011,19.2311,450.50136-65.92653,568.61774-252.71847-123.61051,10.98826-222.50211,90.64906-346.11262,101.63731-186.79464,19.2278-368.09213-24.72222-524.66772-140.09319C85.20315,1115.7534.04693,733.92728,112.67229,409.78813,171.99451,244.6489,279.04215,104.77591,415.78978,0H59.4176Q38.718,28.21271,19.27641,58.1784,9.3786,73.20863.00147,88.4326Z" fill="#e9d5a3"/>
              <path d="M1649.25616,0A1152.66693,1152.66693,0,0,1,1799.9973,129.83966V0Z" fill="#e9d5a3"/>
              <path d="M.00147,1323.65046c189.85985,254.46933,474.74678,385.07915,780.17866,374.45465,357.10088-10.98826,705.96523-269.20085,752.66366-637.293,32.96207-271.94506-120.8678-593.33847-414.79088-623.55486-46.6957-5.49409-98.88829,0-131.85305,35.71052-8.23984,5.49413-2.74572,19.22929,5.49412,21.975,153.82957,76.91475,288.42868,197.77989,310.40516,368.09062,19.22809,164.81664-49.44415,326.88635-173.058,434.01749-217.008,189.54035-541.14711,164.81813-769.14335-13.734C33.01029,1027.85005-13.68692,569.11066,197.82692,220.24931A901.38963,901.38963,0,0,1,385.48692,0H353.94773q-28.00816,23.78634-54.4838,49.93856C170.35778,179.04471,85.20315,332.87308,38.50441,511.42517c-68.67374,255.46538,10.98826,497.19709,98.8901,727.93874-58.5833-45.69549-103.17282-104.88134-137.393-170.95445Z" fill="#e39086" style="mix-blend-mode: multiply"/>
              <path d="M.00147,177.71616A1061.60442,1061.60442,0,0,1,115.72138,0H.00147Z" fill="#e39086" style="mix-blend-mode: multiply"/>
              <path d="M.00147,1412.636q24.96559,28.13793,52.23811,54.72712c134.60058,129.10463,288.42744,217.008,469.728,266.45213,445.00423,120.8651,939.45561-118.1194,1076.80313-565.872,96.14284-318.64349-43.95306-686.73443-351.6098-821.3347-186.79193-79.662-423.03072-60.43241-560.3782,107.13113C615.362,544.3884,582.39994,659.76091,615.362,772.38468c19.2308,68.67374,63.18082,134.60057,140.0959,151.08295,104.38272,21.97651,162.06941-74.16787,206.01976-153.82987,19.22807-41.20463,71.42063-32.96356,107.13114-10.98825,82.40888,54.93977,115.37094,151.08416,98.89157,244.47862-32.96507,167.56354-181.30051,280.1888-343.37023,302.16531-142.84161,19.2281-285.68321-13.73667-401.0542-104.38542C181.346,1016.8648,101.684,687.23005,206.06826,407.041c57.68519-162.06941,162.0694-293.92277,304.911-398.307Q517.12176,4.30758,523.30211,0H464.03994C323.12433,101.66044,212.37339,241.85486,148.38277,407.041-5.4472,810.84207,214.3093,1321.77312,670.30328,1404.182c181.2975,32.96476,359.8496-16.48239,497.19709-137.34749,192.28576-170.31225,208.76514-439.5113,112.62229-662.01341-8.23987-13.73547,0-46.69724,16.48235-38.4577,115.371,63.17962,173.058,189.54035,195.03451,318.6465,43.95,260.95981-71.421,505.43843-296.67152,653.77387-315.89958,214.25957-705.96523,178.54909-999.8883-43.953C121.25515,1438.70154,55.96812,1375.79316.00147,1307.31466Z" fill="#0099cf" style="mix-blend-mode: multiply"/>
              <path d="M1579.87418,0c80.82771,51.94355,154.28129,114.39867,220.12312,184.34539V165.86252A1142.81032,1142.81032,0,0,0,1603.458,0Z" fill="#0099cf" style="mix-blend-mode: multiply"/>
            </g>
            <g>
              <path d="M.00147,491.788C61.8317,304.21026,165.92847,133.433,307.15378,0H152.834q-12.02725,15.0834-23.68083,30.709C75.56267,103.59214,30.33666,174.80163.00147,254.78349Z" fill="#ab1610" style="mix-blend-mode: multiply"/>
              <path d="M1779.27034,0q10.44984,9.07293,20.727,18.40958V0Z" fill="#ab1610" style="mix-blend-mode: multiply"/>
              <path d="M.00147,1248.74187c192.40761,275.01756,493.25158,429.99427,813.14042,399.91879,315.89928-30.21635,653.77537-285.68323,620.81061-634.54427,0-2.74872-5.49413-2.74872-8.23984-2.74872-153.82987,282.93752-423.03042,499.9455-763.65223,428.52485C423.07594,1390.44837,236.28431,1217.3904,145.63555,997.634-.92107,643.23588,121.34467,237.14231,429.68776,0H40.25709Q19.29105,28.56678.00147,58.64758Z" fill="#8f98a5" style="mix-blend-mode: multiply"/>
              <path d="M1654.328,0A1121.09515,1121.09515,0,0,1,1799.9973,124.4834V38.62921Q1779.88024,18.728,1759.01857,0Z" fill="#8f98a5" style="mix-blend-mode: multiply"/>
            </g>
            <g>
              <path d="M180.66689,0A819.66572,819.66572,0,0,0,60.47942,225.74194C127.34492,143.506,202.81221,67.07516,285.49687,0Z" fill="#d1e200"/>
              <path d="M1733.61871,0q34.25838,28.35374,66.37859,59.16092V0Z" fill="#d1e200"/>
              <path d="M.00147,1202.1753c59.7108,88.95313,135.20032,169.34114,225.29458,237.71722,271.94926,208.76814,673.00347,227.99623,928.46734,8.23984-52.18985,2.74841-101.637,10.98825-153.82686,21.9765-282.93752,65.92653-568.61774-24.72222-752.664-244.47862C65.97355,1011.36767.04693,725.68744,76.96181,453.73968,126.17437,275.34318,225.8989,119.90721,364.7101,0H68.47416A1152.148,1152.148,0,0,0,.00147,100.94345Z" fill="#8bd100" style="mix-blend-mode: multiply"/>
              <path d="M1728.43847,0q37.21084,29.71983,71.55883,62.14123V0Z" fill="#8bd100" style="mix-blend-mode: multiply"/>
              <path d="M.00147,1333.01369c189.64448,240.33377,486.72507,391.30049,796.661,373.334,233.49037-10.98826,453.24376-115.374,604.32822-302.16561,175.80338-222.50212,225.24753-532.90727,49.44415-774.639-109.87985-148.33424-274.695-255.46538-466.98074-217.008-54.93827,13.73546-109.87985,41.2046-131.85336,93.396-2.74841,10.98823,2.74574,24.72223,10.98826,24.72223,162.06971,21.97651,324.13912,93.39713,387.31723,252.71966,35.71048,87.90184,32.9648,184.04472,2.74872,271.94776-60.4327,170.30955-217.008,288.429-398.30847,315.89958-348.86137,54.93828-656.5196-217.011-711.45788-554.88407-35.71048-217.00919,8.241-428.523,137.34719-607.07514C340.81511,126.44424,412.09669,56.471,491.21291,0H375.38C142.16384,189.9816,22.78321,470.93485,35.7572,764.14363c13.73547,296.66849,200.52711,530.16156,431.27206,711.45937,10.98525,8.23954,27.46763,13.73366,27.46763,30.216C294.34226,1458.41353,109.33544,1320.11.00147,1134.47987Z" fill="#f14e00" style="mix-blend-mode: multiply"/>
              <path d="M.00147,133.61625A1365.89619,1365.89619,0,0,1,75.56267,0H.00147Z" fill="#f14e00" style="mix-blend-mode: multiply"/>
              <path d="M1607.51479,0A1080.07164,1080.07164,0,0,1,1799.9973,161.77174V101.24562A1105.63494,1105.63494,0,0,0,1684.638,0Z" fill="#f14e00" style="mix-blend-mode: multiply"/>
              <path d="M1799.9973,1790.76309q-5.46934,6.65283-11.0237,13.23814h11.0237Z" fill="#f14e00" style="mix-blend-mode: multiply"/>
            </g>
            <g>
              <path d="M.00147,1362.82785C174.35424,1575.873,419.36994,1705.13925,692.27678,1722.827c266.45514,16.48238,532.9076-82.40591,711.45937-293.92277,189.54035-222.50213,230.74465-532.90757,85.15462-788.37294-101.637-178.5518-293.92277-288.42865-499.9425-260.95951C865.33475,398.79991,760.952,497.6897,725.24155,615.80939c-5.49413,24.72193,16.47968,43.95152,41.20461,35.71015,104.38272-30.216,214.25957-65.9265,310.40245-27.46914,153.82987,68.67228,230.74465,269.20088,181.30051,439.51013-46.69874,159.324-175.80638,277.44339-332.382,324.13912-186.79163,54.94128-379.07739,19.2311-541.1471-96.14288C107.17816,1093.77688,13.78228,747.66245,107.17816,440.00451,157.5829,266.10456,263.48521,122.26574,390.9384,0h-5.53078C159.74919,191.90008,26.4352,490.5297,54.9868,791.61427c35.709,370.83786,332.379,681.243,705.96523,736.18128,19.2281,2.74571,41.20463,5.49413,57.684,21.97381-255.46388,96.14288-552.13536-71.42095-730.686-260.9583A758.37967,758.37967,0,0,1,.00147,1172.27584Z" fill="#ffb000"/>
              <path d="M.00147,119.22687A1147.60377,1147.60377,0,0,1,79.184,0H.00147Z" fill="#ffb000"/>
              <path d="M.00147,1423.2254A1127.18892,1127.18892,0,0,0,203.321,1604.71064C664.80915,1920.60722,1315.8331,1791.50231,1560.31173,1302.545c109.87955-219.7564,115.37068-488.95575-27.46794-703.218-104.38542-156.57558-277.44339-282.93482-475.22328-238.98333-27.46763,8.23987-13.734,35.709,5.49413,43.95035C1285.61675,486.703,1486.14536,648.77266,1513.613,898.74391c27.47064,263.70822-98.88859,513.678-326.88483,659.268C784.15617,1816.61751,278.08275,1679.33448.00147,1304.3725Z" fill="#ec0097" style="mix-blend-mode: multiply"/>
              <path d="M.00147,7.58413Q2.62826,3.776,5.27706,0H.00147Z" fill="#ec0097" style="mix-blend-mode: multiply"/>
              <path d="M.00147,1492.232c150.29227,156.55786,344.30578,268.95725,563.9156,311.76927H960.75013c256.52-50.88155,487.18264-201.28837,624.28352-438.27509,96.14288-164.81812,131.85336-346.11563,107.13144-532.90876-35.71048-255.46568-197.78015-483.46192-439.5101-579.60484-222.50211-90.65022-483.46312-49.44561-653.77267,126.35927C497.24531,486.703,431.31879,624.0504,456.041,769.63776c24.72193,164.81813,178.5518,302.16261,351.60676,310.40516,134.60178,8.24254,230.74466-93.39717,293.92578-206.02124,21.97353-41.2043,65.92683-13.73516,93.39446,8.24135,5.49413-65.92683-71.42093-109.87835-120.8651-140.09471-35.71048-21.975-82.40892-32.96326-112.62524-5.49412-71.421,60.4327-104.38273,184.04772-217.008,153.82987-93.39747-21.97651-131.85336-129.10765-126.35924-217.00922,8.23984-109.87832,65.92683-203.27429,151.08146-274.69494,107.13114-85.15463,236.23578-98.8901,368.08914-74.16637,307.65974,60.4324,488.95725,359.8496,480.71741,653.77237C1609.75588,1297.0509,1387.2538,1577.24,1093.331,1692.611,774.686,1818.97,409.34227,1755.7918,140.14143,1536.03539a1134.61648,1134.61648,0,0,1-140.14-135.53473Z" fill="#8f98a5" style="mix-blend-mode: multiply"/>
            </g>
          </g>
          <g>
            <g>
              <path d="M434.64812,0q-17.02576,13.53437-33.54569,27.96205c-189.54,167.5638-302.16561,403.80112-299.4184,651.027,2.74692,225.249,98.8898,445.00693,291.17586,585.09712,236.23878,173.06067,576.86029,175.80639,758.15779-79.65749,79.6608-109.87985,115.371-247.22734,43.95032-368.09244-32.96176-57.68669-104.38272-104.38393-170.30925-82.40892-16.48238,5.49413-21.97651,24.72223-19.2311,41.20461,10.98828,65.92653,35.71048,134.60178,10.98828,195.03418C977.96,1060.81212,868.08317,1102.01941,769.19187,1099.271c-109.87685-5.49411-208.76845-60.43268-277.44069-151.08143C285.73,670.74767,486.25707,360.34368,706.01075,179.04471,368.13766,341.11442,293.9698,764.14363,434.0642,1085.537c-79.66051-16.48238-118.1194-112.62526-164.81663-181.299-49.44414-68.67377-57.68518-148.33425-63.17931-227.99625C190.68584,399.3586,352.36506,146.40134,583.91952,0Z" fill="#e9d5a3"/>
              <path d="M1537.73657,0C1637.96,56.5693,1725.8102,128.95656,1799.9973,212.90579V116.94043A1123.58158,1123.58158,0,0,0,1662.62338,0Z" fill="#e9d5a3"/>
              <path d="M1799.9973,1735.91279q-28.62228,34.95354-59.45289,68.08844h59.45289Z" fill="#e9d5a3"/>
              <path d="M368.5732,0A957.40162,957.40162,0,0,0,266.50066,104.87683C.04693,420.77642-19.18108,906.98525,288.47717,1203.65372c90.64876,85.15734,195.03148,145.59,318.645,164.81783,90.64877,10.98826,214.26227,32.96508,280.1891-27.46763-175.80638,27.46763-354.35547-13.73667-497.19709-129.10764C203.321,1063.56053,120.91333,832.81738,137.39451,604.82114,155.14237,351.28265,291.65092,139.86582,484.82578,0Z" fill="#fde500" style="mix-blend-mode: multiply"/>
              <path d="M1619.49458,0A1112.55285,1112.55285,0,0,1,1799.9973,153.33275V70.23148Q1761.32123,33.25132,1719.2104,0Z" fill="#fde500" style="mix-blend-mode: multiply"/>
              <path d="M317.26344,0C108.52023,193.71584-4.96759,463.0852,16.52934,744.91554c19.22786,266.45213,159.32257,516.42487,398.30706,653.77237,175.80339,98.8916,379.07739,120.8651,571.36346,60.4327,293.9228-96.14318,491.70266-428.52184,373.58627-719.6992-46.69874-115.371-153.82987-206.02123-274.695-233.49037C955.9835,475.71469,796.66251,538.89431,760.952,684.48314,733.48139,786.12015,777.43141,939.947,879.06842,939.947c30.21637,2.74842,5.49413-74.16635,0-115.36945-8.23954-54.93978-19.2278-123.61355,35.71048-159.324,129.10765-82.40771,280.1891,21.97651,337.87609,140.0944,46.69843,98.8901,38.45589,214.26257-5.49413,313.15087-120.8651,285.68323-497.19707,370.83785-766.39793,236.23908C134.6473,1184.42864-5.4472,766.89055,107.17816,415.28229,159.72877,249.33326,259.62211,107.75171,390.03217,0Z" fill="#8bd100" style="mix-blend-mode: multiply"/>
              <path d="M1701.58089,0a1139.00514,1139.00514,0,0,1,98.41641,86.47477v-65.236Q1787.99844,10.50061,1775.61244,0Z" fill="#8bd100" style="mix-blend-mode: multiply"/>
            </g>
            <g>
              <path d="M479.25236,0C219.3003,192.29027,71.01892,516.761,153.8769,852.04668c76.91328,304.91132,365.34222,527.41313,681.2415,472.47486,104.38572-19.2281,195.03448-68.67224,258.21259-156.57829,32.96477-46.69573,52.19256-107.13113,30.21608-159.321-5.49416-10.98826-21.97353-8.24285-27.46766-2.74571-156.57529,112.62226-357.10389,145.58731-508.18535,10.98825C450.54688,898.74391,412.08768,706.45815,469.77467,541.64152c57.687-167.56384,197.77989-293.92307,365.34373-346.11567,175.80338-54.93854,359.8496-30.21631,521.919,57.68669,291.17736,162.06975,431.27056,497.19713,387.32024,821.33625-47.0769,339.62727-276.30227,601.04574-571.152,729.45244h134.11186q29.25981-16.25359,57.96273-34.47546c219.15506-140.20735,370.85829-353.26422,434.71705-588.02759V681.25349a930.34943,930.34943,0,0,0-99.58967-230.26072C1486.14536,96.63579,1071.35721-10.49384,695.02552,55.43269A387.88951,387.88951,0,0,1,775.35913,0Z" fill="#e9d5a3"/>
              <path d="M1409.86406,0c150.44166,58.93354,282.74078,161.47137,390.13324,294.07833V149.892A1117.58181,1117.58181,0,0,0,1620.0431,0Z" fill="#e9d5a3"/>
              <path d="M1799.9973,1713.766q-34.02088,46.74108-72.21875,90.23526h71.588c.21117-.22.41962-.44.63079-.66Z" fill="#e9d5a3"/>
              <path d="M.00147,1651.19521a1205.25918,1205.25918,0,0,0,221.2819,152.806H326.782A1117.15157,1117.15157,0,0,1,.00147,1597.32446Z" fill="#e9d5a3"/>
              <path d="M398.67661,0C313.48836,72.24218,240.24143,161.38907,184.093,266.94655,43.99854,530.65327,33.01029,843.80563,203.321,1102.01941c137.346,206.01975,362.59651,326.88485,604.32672,307.65676,151.08416-10.98826,288.43165-85.15463,384.57453-208.76815,79.6605-107.13114,104.38272-241.73021,57.684-365.34375-49.44414-123.612-200.5256-258.21257-318.645-153.82835-65.92653,57.68549-16.48238,151.08146-13.734,227.99775,2.74572,79.66049-96.14288,118.11638-159.3237,123.61051-74.16637,8.24285-145.58732-38.45591-197.78019-98.88829-98.88829-115.37248-123.61051-274.695-76.91477-414.78938,126.35922-387.32024,598.83409-428.52339,922.97621-282.93632C1112.55879,49.93856,689.53137,96.63579,480.76293,407.041,296.717,678.989,390.11417,1000.37941,634.5928,1189.91976c5.49112,5.49413,8.23985,19.23079,2.74571,27.47064-10.98826,16.48239-32.96206,13.734-52.19286,8.23984-227.99624-46.69873-362.595-247.22433-398.30549-461.48661C130.74154,447.95509,296.61729,164.37658,548.39978,0Z" fill="#e39086" style="mix-blend-mode: multiply"/>
              <path d="M1554.64158,0c90.90678,55.415,173.574,124.40861,245.35572,203.72428V88.82879A1159.64421,1159.64421,0,0,0,1696.71454,0Z" fill="#e39086" style="mix-blend-mode: multiply"/>
              <path d="M1799.9973,1745.443q-22.71318,29.63827-46.64017,58.55819h46.64017Z" fill="#e39086" style="mix-blend-mode: multiply"/>
              <path d="M322.2223,0C200.536,112.093,107.228,255.42573,57.73251,423.52333-21.92814,689.97726,22.022,978.40591,203.321,1203.65372c181.299,222.50483,469.72765,332.38167,744.42262,252.72118,178.5521-52.19286,329.63325-175.80338,392.81137-351.60976,49.44718-142.84162,43.953-296.67-43.95-428.52335-140.0932-208.76814-392.81136-227.99624-596.08538-96.14288-24.72523,16.48089-35.71048-16.48238-30.21635-41.2046,13.734-60.4324,52.18986-107.13114,96.14288-145.58853,82.40621-68.67224,181.2975-101.637,285.68023-115.371,173.058-24.72226,329.63324,57.68549,450.50135,181.29751,368.08914,373.58507,192.28576,955.938-181.30051,1241.62121,252.72117-178.5521,423.03042-483.46312,403.80263-796.61548-13.737-233.49037-120.86811-453.24527-326.88784-590.59276C1230.67848,201.02,1035.647,170.80367,848.85237,228.48915,692.27678,277.9348,565.91755,396.05269,513.725,552.62978c-52.18986,167.56354,2.74842,376.329,170.31225,453.24677,79.6605,38.45589,167.56354,13.734,230.74166-43.953,65.92683-63.17961,71.421-148.33424,90.64875-233.49039,2.74872-13.73394,24.72523-19.22807,41.20461-16.48086,96.14288,21.975,148.33574,107.13114,181.30054,189.53855,24.72219,60.4327,13.73394,123.61382-8.24258,184.04622-96.14315,258.2126-409.294,359.8496-659.2668,269.20085-181.29749-63.18112-324.13911-197.77989-401.0539-373.58357C52.23958,728.43313,82.45594,445.49864,236.28431,209.26106A961.36816,961.36816,0,0,1,425.10286,0Z" fill="#ffb000" style="mix-blend-mode: multiply"/>
              <path d="M1679.60738,0A1133.58122,1133.58122,0,0,1,1799.9973,99.04268V32.2682Q1782.32679,15.77681,1763.94649,0Z" fill="#ffb000" style="mix-blend-mode: multiply"/>
            </g>
            <g>
              <path d="M1799.9973,399.23845a717.51826,717.51826,0,0,0-107.83221-104.82126,1355.58926,1355.58926,0,0,1,107.83221,233.3612Z" fill="#e9d5a3"/>
              <path d="M1799.9973,1288.09557a963.275,963.275,0,0,1-58.38806,121.5806c-94.377,166.9742-229.25751,300.37028-386.8009,394.32506H1646.047A1130.68083,1130.68083,0,0,0,1799.9973,1617.0746Z" fill="#e9d5a3"/>
              <path d="M.00147,1804.00123H189.89676A1302.22991,1302.22991,0,0,1,.00147,1671.46139Z" fill="#e9d5a3"/>
              <path d="M611.39467,0C477.94843,76.6054,367.755,190.91005,302.21113,341.11442,252.76669,456.4869,214.3093,618.55631,277.48892,733.92728c13.734-10.98675,19.22809-30.21635,21.975-43.95,71.42215-302.16411,293.92428-546.64273,601.581-587.84734,252.71846-32.96326,499.9458,57.68549,673.00347,247.22554C1702.90107,489.579,1778.30824,659.4308,1799.9973,836.20379V239.21188c-75.91485-88.107-167.165-164.84761-272.64763-227.73076Q1517.4013,5.60274,1507.31807,0Z" fill="#e39086" style="mix-blend-mode: multiply"/>
              <path d="M1799.9973,1052.09108c-16.7317,137.732-65.45465,274.13177-146.28836,398.78969-97.95267,152.62417-227.54753,271.24519-375.85954,353.12046h449.284q38.23585-41.4876,72.86395-85.82638Z" fill="#e39086" style="mix-blend-mode: multiply"/>
              <path d="M.00147,1725.24113a1258.4164,1258.4164,0,0,0,103.81071,78.7601H216.669A1179.00185,1179.00185,0,0,1,.00147,1657.17624Z" fill="#e39086" style="mix-blend-mode: multiply"/>
              <path d="M463.18208,0c-124.75164,97.4423-224.177,228.83068-284.58326,376.8249C79.709,621.30352,109.92507,904.238,277.48892,1118.49881c170.30924,219.7567,477.969,299.41719,719.69919,156.57558,112.62527-65.92384,230.74469-214.26227,148.33544-348.86134-16.48238-27.46914-49.44414-8.23954-63.18081,13.73394-76.91509,93.39719-178.54909,159.324-299.4172,145.59-101.637-10.98825-186.79164-65.92653-247.224-148.33574C423.07594,786.12015,431.31879,599.327,527.46166,442.75143,648.32677,250.46566,865.33475,157.0697,1082.34274,176.29779c398.30849,32.96327,686.73713,423.02922,662.01491,813.09637-13.73367,252.71847-131.85336,483.46312-329.63325,651.027a1003.83474,1003.83474,0,0,1-267.62269,163.58011h135.93664c235.03339-126.60866,418.00007-338.42169,497.02978-600.34751q11.638-38.46519,19.92917-77.56027V735.26785c-37.22707-172.593-124.7195-333.50536-261.65938-457.333C1370.77438,126.85335,1156.51181,47.19165,936.75541,58.1784c-167.56354,8.241-313.15087,93.39717-464.232,156.57679C513.41382,122.74694,606.619,59.27386,690.19279,0H650.48555C591.50966,18.60032,536.92312,50.36689,480.76293,77.4077c-13.73367,5.49413-30.216,16.48084-43.95,8.24134,0,0,0-8.24134,2.71327-9.988C446.96524,60.2711,472.47773,33.537,514.816,0Z" fill="#0099cf" style="mix-blend-mode: multiply"/>
              <path d="M.00147,1636.88933a1243.53609,1243.53609,0,0,0,248.79068,167.1119H355.4526a1134.96991,1134.96991,0,0,1-281.23771-160.8347Q35.38024,1612.86367.00147,1580.34045Z" fill="#0099cf" style="mix-blend-mode: multiply"/>
            </g>
            <g>
              <path d="M.00147,1804.00123H66.15558q-33.869-25.71358-66.15411-53.28394Z" fill="#ab1610" style="mix-blend-mode: multiply"/>
              <path d="M1165.69632,0c14.10343,16.65119,36.62242,21.44845,53.9939,27.96205,276.229,104.71553,488.382,329.27821,580.30708,599.59825V338.6063C1669.29947,170.19361,1488.442,43.91067,1280.77954,0Z" fill="#8f98a5" style="mix-blend-mode: multiply"/>
              <path d="M1799.9973,1228.93013c-81.32663,245.43773-251.49835,448.50058-472.689,575.0711h342.20264a1261.39473,1261.39473,0,0,0,130.48636-157.18546Z" fill="#8f98a5" style="mix-blend-mode: multiply"/>
              <path d="M.00147,1804.00123H201.70774A1180.30962,1180.30962,0,0,1,.00147,1659.94238Z" fill="#8f98a5" style="mix-blend-mode: multiply"/>
            </g>
            <g>
              <path d="M1799.9973,1316.46943c-69.43219,164.25223-181.64684,312.40294-341.32258,428.33411q-43.41505,31.93074-88.56022,59.19769h259.47082q12.19665-11.56322,24.12362-23.48721a1136.24663,1136.24663,0,0,0,146.28836-182.39477Z" fill="#8bd100" style="mix-blend-mode: multiply"/>
              <path d="M.00147,1804.00123H170.40764A1159.66106,1159.66106,0,0,1,.00147,1682.12134Z" fill="#8bd100" style="mix-blend-mode: multiply"/>
              <path d="M593.557,0a887.91232,887.91232,0,0,0-77.08359,52.68577C332.42718,195.52585,200.57383,409.78813,222.55064,640.53132c10.98675,109.87835,35.70868,271.94806,131.85305,329.63475-38.45889-260.961,5.49413-546.64274,238.98452-722.44762,291.17434-222.50211,689.48286-170.31075,942.2013,76.91509,236.23608,230.74315,310.40515,576.85728,214.26227,890.00845-82.25358,269.68475-276.36982,473.17863-515.093,589.35924h196.14316c140.42721-94.10137,260.49452-215.7144,369.09539-346.44706V304.06187a1030.95654,1030.95654,0,0,0-159.4327-189.02821c-42.06972-43.25346-74.92-74.16487-98.58045-96.79259Q1528.39256,8.8203,1514.49008,0Z" fill="#f14e00" style="mix-blend-mode: multiply"/>
              <path d="M1799.9973,1508.119c-16.50607,36.67227-39.072,71.12449-55.63965,107.57689q29.6955-36.599,55.63965-75.39249Z" fill="#f14e00" style="mix-blend-mode: multiply"/>
              <path d="M.00147,1709.26638q13.51461,11.04817,27.51466,21.80349,51.80767,39.28747,106.12372,72.93136H286.26552A1218.09057,1218.09057,0,0,1,.00147,1611.21672Z" fill="#f14e00" style="mix-blend-mode: multiply"/>
            </g>
            <g>
              <path d="M556.858,0Q536.453,13.36038,516.47341,27.96205C307.70526,176.29779,178.59882,401.54682,178.59882,646.02544c0,120.86511,32.96357,236.23759,104.38422,343.36872,68.67224,104.38272,184.04622,247.22434,313.15086,203.274,8.24255,0-2.74569-24.72493-10.98825-35.71018-197.77989-186.79193-274.695-477.969-126.35923-722.44762C596.1339,209.26106,848.85237,102.12992,1101.57354,132.34627c170.30925,21.97651,326.88483,93.39567,447.74993,217.00919,225.25053,233.49037,293.92277,576.85759,195.03418,884.51733-81.12121,248.28615-256.84559,448.17226-481.88192,570.12844H1398.5208c167.364-107.89691,307.50115-258.5233,401.4765-438.47153V200.48445A1113.46441,1113.46441,0,0,0,1596.02191,25.21634Q1576.5433,12.12436,1556.70365,0Z" fill="#ffb000"/>
              <path d="M1799.9973,1560.38786c-53.89118,89.02674-120.07032,171.3125-194.36855,243.61337h151.09287q22.19818-25.88079,43.27568-52.66217Z" fill="#ffb000"/>
              <path d="M.00147,1687.05227a1304.1437,1304.1437,0,0,0,159.23318,116.949h74.7515A1174.686,1174.686,0,0,1,.00147,1647.20565Z" fill="#ffb000"/>
              <path d="M450.75353,0A897.29712,897.29712,0,0,0,313.19939,132.34627c-184.04622,217.00919-252.72,510.93226-162.06971,780.13311,93.396,280.1888,368.08944,491.70266,670.25475,447.75264,101.63731-13.737,192.28609-54.93858,269.20085-123.61352,60.4324-54.93858,98.88859-120.8651,126.35923-192.28606,10.98829-32.96477,2.74571-109.87655-5.49413-98.8883-137.34748,156.57527-321.39371,296.66849-532.90756,230.74166C428.57006,1099.271,291.22288,835.56427,343.41544,588.34,379.12593,434.51038,472.52339,316.39219,568.66627,201.02c-82.4092,52.19252-134.60207,148.33544-225.25083,186.79313C372.3498,206.96707,536.7486,83.27008,697.26508,0Z" fill="#ec0097" style="mix-blend-mode: multiply"/>
              <path d="M1464.547,0c129.1488,61.26864,243.23512,151.29832,335.45028,261.44521V130.86784A1129.08215,1129.08215,0,0,0,1646.17614,0Z" fill="#ec0097" style="mix-blend-mode: multiply"/>
              <path d="M1799.9973,1701.135a1070.64346,1070.64346,0,0,1-90.58448,102.86626h90.58448Z" fill="#ec0097" style="mix-blend-mode: multiply"/>
              <path d="M357.17734,0C45.58541,278.26641-78.75711,752.31794,184.093,1132.23277c96.14288,140.09591,222.5006,238.9875,379.07919,288.43164,238.98452,76.9151,513.67647,16.48239,670.25476-195.03417,101.637-140.0932,134.59877-315.89657,57.684-469.72645-46.69873-90.65025-126.35923-162.06971-227.99624-181.299C887.31126,541.64152,766.44616,692.72268,695.02552,838.31151c-19.23112,38.45739-79.66352-13.734-104.38573-46.69724-27.46765-38.45769-41.20462-79.662-49.44416-123.61352C519.21912,516.91927,615.362,387.81315,733.48139,299.90981c354.35547-263.70672,782.88,2.74718,961.43211,329.63325-57.687-148.33424-170.31225-271.9478-310.40545-359.8496C1172.99152,137.8404,917.52731,126.85335,703.265,253.21254c-247.224,145.58737-354.35547,488.95578-162.06941,722.445,145.587,173.06067,379.0774,162.07242,552.13536,35.71018,10.98826-8.23954,27.47067,0,27.47067,10.98826,10.98823,57.687-10.98828,109.87684-43.95305,153.82987-68.67224,98.88859-181.29781,142.84161-293.92307,153.82987-206.01973,24.72222-392.81137-87.903-516.42488-252.71847C82.45594,832.81738,96.1899,519.66651,241.77844,266.94655,304.45943,159.62768,387.50063,70.04074,483.74623,0Z" fill="#8f98a5" style="mix-blend-mode: multiply"/>
              <path d="M1619.88176,0a1124.96284,1124.96284,0,0,1,171.17463,140.58731q4.50108,4.50334,8.94091,9.04064V56.54437Q1767.72774,26.93448,1733.50727,0Z" fill="#8f98a5" style="mix-blend-mode: multiply"/>
            </g>
          </g>
          <g>
            <g>
              <path d="M1202.09015,1804.00123c170.79045-79.66332,318.35754-206.492,424.14811-375.097,134.60182-217.008,189.54035-513.67947,43.953-727.94027,0,227.99477,21.97381,461.48814-104.38542,675.74741-129.33954,216.15732-331.81877,363.74784-561,427.28983Z" fill="#e9d5a3"/>
              <path d="M.00147,1615.23542a1215.63189,1215.63189,0,0,0,298.40514,188.76581H480.47247c-181.88864-48.27972-346.31358-142.95588-480.471-270.21864Z" fill="#e9d5a3"/>
              <path d="M1326.65105,1804.00123a1044.1925,1044.1925,0,0,0,269.37086-240.4952c304.91132-384.57452,266.45513-961.43211-112.62527-1258.10209,271.94927,230.74345,359.8496,629.052,238.9845,964.17933-86.30445,243.74811-264.704,425.60011-482.43942,534.418Z" fill="#8bd100" style="mix-blend-mode: multiply"/>
              <path d="M.00147,1689.56609A1219.28233,1219.28233,0,0,0,161.7644,1804.00123H244.829A1202.27248,1202.27248,0,0,1,.00147,1636.64873Z" fill="#8bd100" style="mix-blend-mode: multiply"/>
            </g>
            <g>
              <path d="M.00147,1591.17912a1110.96418,1110.96418,0,0,0,338.90567,212.82211h810.93428c259.91391-108.419,468.41532-322.27362,545.07208-611.33305,60.43241-225.25053,38.4559-455.994-96.14284-659.268C1513.613,404.294,1392.74789,321.88632,1255.4004,269.69346c-120.8651-43.95152-255.46387-52.19106-376.332,0-71.42066,30.21635-142.83861,68.67374-189.537,140.09467-8.24284,13.7352-13.737,43.95155,2.74541,38.45742,208.76815-49.44564,434.019-101.637,615.31648,49.44415,230.74466,186.79344,260.961,516.42669,120.86511,766.39643-269.20085,475.22328-933.96148,453.24677-1291.06386,115.37368,285.68143,299.4172,736.17978,348.86135,1109.76635,203.27432-65.92683,104.38272-219.7567,142.84162-337.87607,175.80338-93.39449,27.47067-186.79165,27.47067-280.18612,19.228-208.76815-21.97372-401.0554-109.87677-565.872-247.22426Q30.24836,1502.53986.00147,1472.347Z" fill="#e9d5a3"/>
              <path d="M1236.0639,1804.00123q29.21607-14.872,57.7954-31.72705c247.22433-148.33545,420.2823-379.0804,466.98078-664.76363,46.69569-280.1873-30.2161-565.869-238.98454-752.661C1379.01392,228.48915,1167.50037,115.86509,977.96,214.75519c-2.74842,0,5.49412,8.24134,8.23984,10.98675,387.31993,85.15613,722.44761,373.58507,700.4708,788.37445-20.21632,370.66754-299.47547,677.03087-642.45551,789.88484Z" fill="#e39086" style="mix-blend-mode: multiply"/>
              <path d="M.00147,1636.56673A1126.58967,1126.58967,0,0,0,214.3093,1783.25964q20.41172,10.78438,41.14724,20.74159H438.31477c-162.784-50.905-312.821-140.70308-438.3133-258.30343Z" fill="#e39086" style="mix-blend-mode: multiply"/>
              <path d="M1799.9973,764.368c-56.17938-255.21606-220.20246-481.38483-464.93336-590.81747C1096.07941,66.4194,807.64776,91.14312,601.628,266.94655c-230.74195,192.28576-285.68323,571.365-41.20461,766.39763,65.92683,52.19286,148.33575,82.40922,233.49037,63.17812,43.95032-10.98526,134.60208-65.92353,82.40922-109.87655C782.92554,904.238,684.03724,824.57754,662.06043,700.964c-10.98825,35.71021-5.49412,82.40894-41.2043,109.87808-10.98826,5.49413-21.97381,2.74721-32.96207-5.49413-52.19254-43.95152-76.91478-107.13114-68.67494-173.05767C546.68976,382.319,774.686,195.52585,1019.16462,187.28605c244.47863-5.49413,475.22032,120.8651,612.56777,335.12738,277.44038,431.27025,87.90334,988.89974-337.87309,1238.8725q-39.97818,23.25416-81.14464,42.7153h109.17577c236.24179-141.02869,416.95567-368.96034,478.10687-646.77349Z" fill="#ffb000" style="mix-blend-mode: multiply"/>
              <path d="M.00147,1676.17846a1326.66517,1326.66517,0,0,0,187.63078,127.82277H283.388A1139.61615,1139.61615,0,0,1,.00147,1617.86068Z" fill="#ffb000" style="mix-blend-mode: multiply"/>
            </g>
            <g>
              <path d="M.00147,1408.107c84.23508,87.9529,185.44376,158.309,302.20966,202.09474C188.42253,1503.90086,81.16253,1387.80539.00147,1255.691Z" fill="#e9d5a3"/>
              <path d="M.00147,148.60548A1125.24211,1125.24211,0,0,1,103.66409,0H.00147Z" fill="#e9d5a3"/>
              <path d="M.00147,1515.291c129.43345,126.05105,289.1152,220.61878,469.7732,270.71717q38.29534,10.55117,76.77722,17.99305H917.19c118.15784-23.17626,233.1122-68.71051,340.95913-136.11248,266.45213-170.30924,420.282-483.46011,357.10088-788.37294-16.47934,293.92458-156.57528,574.11067-431.27026,719.7007C773.486,1815.26523,270.06309,1672.87826.00147,1286.9103Z" fill="#e39086" style="mix-blend-mode: multiply"/>
              <path d="M.00147,65.88418Q20.92127,32.27691,43.93246,0H35.78093C23.71746,14.85015,11.83893,29.85831.00147,44.90941Z" fill="#e39086" style="mix-blend-mode: multiply"/>
              <path d="M.00147,1593.23247c95.83039,87.56573,206.08121,159.66433,328.18115,210.76876h829.88693a993.924,993.924,0,0,0,374.77424-281.69981c280.18615-337.87278,285.68023-865.28772-68.67494-1150.97065C1269.13737,214.75519,991.694,154.32278,774.686,305.40394c-71.421,49.44565-151.08146,118.11939-153.82987,208.76814,109.87955,2.74719,203.274-87.90154,313.15387-96.14288,269.20054-21.97651,530.15885,195.033,549.38664,472.47487,13.737,192.28456-60.4324,379.0792-197.77989,516.42668-203.274,200.5253-510.93075,255.46388-777.38589,164.81512C286.71428,1496.51468,114.482,1333.84062.00147,1136.94381v23.67184c116.31975,208.211,304.24379,373.80644,535.7,452.33453,315.89926,107.13144,637.29,0,895.50526-206.01943,2.74572-2.74871,16.47938-10.98825,16.47938-8.24284-162.06941,335.12738-560.3749,453.24677-914.73037,381.82611C322.517,1738.22116,141.52014,1635.10872.00147,1493.72512Z" fill="#0099cf" style="mix-blend-mode: multiply"/>
            </g>
            <g>
              <path d="M.00147,1448.23208c101.32452,105.5764,219.36341,184.96116,357.14794,236.13906,156.57558,57.687,348.86134,112.6253,499.94552,32.96176-227.99626-21.97351-445.00725-85.15463-629.05166-233.49036A1005.19557,1005.19557,0,0,1,.00147,1231.12437Z" fill="#8f98a5" style="mix-blend-mode: multiply"/>
              <path d="M.00147,119.79007A1100.27913,1100.27913,0,0,1,76.96181,8.734Q80.47753,4.34731,84.02689,0H.00147Z" fill="#8f98a5" style="mix-blend-mode: multiply"/>
            </g>
            <g>
              <path d="M.00147,1387.031a675.3064,675.3064,0,0,0,140.14,102.30564C89.44472,1435.97054,42.202,1379.72685.00147,1320.2271Z" fill="#8bd100" style="mix-blend-mode: multiply"/>
              <path d="M.00147,34.54894Q12.50628,17.07622,25.71506,0H.00147Z" fill="#8bd100" style="mix-blend-mode: multiply"/>
              <path d="M.00147,1526.3877c139.98466,135.86605,309.2363,232.47241,501.64672,277.61353H976.13254c185.02274-45.57816,354.58706-145.97133,485.2906-298.18219,98.88859-115.37067,167.56353-249.96974,181.2975-398.30849,13.734-153.82687,13.734-357.10088-109.87685-461.48511,38.45619,288.43045-5.49412,598.8356-249.97272,796.61549-184.04595,151.08145-417.53632,206.01973-653.7724,170.30925C355.96293,1571.63714,130.774,1397.98984.00147,1165.72859Z" fill="#f14e00" style="mix-blend-mode: multiply"/>
              <path d="M.00147,176.17734q19.206-36.15022,41.24986-71.30051A1135.16607,1135.16607,0,0,1,115.76253,0H65.54522Q30.39839,43.24115.00147,89.219Z" fill="#f14e00" style="mix-blend-mode: multiply"/>
            </g>
            <g>
              <path d="M.00147,1547.73343c87.87981,83.95794,189.9875,154.0909,304.95658,205.31a1083.68519,1083.68519,0,0,0,137.519,50.95785h595.12929a944.0645,944.0645,0,0,0,344.15329-191.05105c214.26228-186.79163,340.62151-455.99218,288.43165-741.67541C1634.4808,673.49485,1532.84379,483.956,1354.292,387.81315c96.14288,131.85336,203.274,266.45364,225.24752,436.76439,38.4589,269.19934-76.91178,527.41164-293.92277,694.97547-192.28576,145.59-417.53358,192.28576-651.02395,159.324-271.71618-38.318-489.315-195.91427-634.59133-408.35808Z" fill="#ffb000"/>
              <path d="M.00147,1600.78a1136.37326,1136.37326,0,0,0,93.44122,69.85722c79.5815,52.67977,166.02383,99.87112,255.59153,133.36406H576.00529c-205.92421-49.55571-402.14666-132.02049-559.47595-287.19394q-8.35779-8.15738-16.52787-16.44422Z" fill="#ec0097" style="mix-blend-mode: multiply"/>
              <path d="M1799.9973,911.99818c-7.03715-145.73962-51.47708-285.53365-132.55443-417.05539C1466.91726,162.56232,1038.39242,16.9753,700.51963,217.5024,601.628,275.18759,530.20737,371.33077,494.49689,478.46191c-27.46763,79.662-46.69873,170.31075-8.23982,247.22553,8.23982,16.48088,30.21634,10.98676,38.45618-5.49412,49.44414-93.39717,93.39716-178.5518,148.33544-269.20055,5.49413-5.49413,8.23984-19.2296,13.734-27.46944,87.90334-140.0944,249.97275-200.5268,409.29675-186.79314,274.695,24.72223,508.18234,222.50212,593.34,486.21034,137.34748,436.76288-126.35924,909.23774-538.4017,1076.8015q-5.18278,2.16039-10.3779,4.2592h146.31754q6.21277-3.4584,12.3961-7.00479c247.22438-142.84165,420.28231-368.09218,480.71471-651.02669a933.02282,933.02282,0,0,0,19.92917-151.228Z" fill="#8f98a5" style="mix-blend-mode: multiply"/>
              <path d="M.00147,1660.99819a1155.26091,1155.26091,0,0,0,209.69379,143.003H345.08612A1104.975,1104.975,0,0,1,60.47942,1637.6724Q29.17993,1612.50458.00147,1585.74657Z" fill="#8f98a5" style="mix-blend-mode: multiply"/>
            </g>
          </g>
        </g>
      </g>
    </g>
  </g>
</svg>
