<svg xmlns="http://www.w3.org/2000/svg" width="1800" height="1800" viewBox="0 0 1800 1800">
  <g id="Layer_2" data-name="Layer 2">
    <g id="svg2">
      <g id="YingYangSeamless">
        <path id="path4" d="M64.45071.05836h122.811c-6.9342,4.42324-14.91236,6.92509-21.64858,11.6858a55.80982,55.80982,0,0,0-23.849,44.21435c-1.25544,22.95763,13.60742,45.70376,35.013,53.98777,10.55206,4.44123,22.29205,4.9497,33.48759,3.1633-35.3865,11.60931-76.30777,3.3298-104.91755-20.37477C78.23812,70.61863,61.88131,35.09326,64.4552.05386Z" fill="#8685eb"/>
        <path id="path12" d="M905.38177.05836h112.2477c-7.86114,22.41766.54,48.93907,19.57866,63.02772a57.61883,57.61883,0,0,0,41.02924,10.83985c17.29278-2.24986,32.97908-12.95922,41.89775-27.87582-17.14426,38.40969-57.99808,64.63862-100.00829,64.75111a112.38119,112.38119,0,0,1-75.89377-27.63734C920.32783,62.55511,906.09715,31.55647,905.37724.05836Z" fill="#bcf5d5"/>
        <path id="path16" d="M1065.44.05836h11.48352c7.3527,2.73584,13.22492,9.89941,12.874,17.96292.225,8.77448-6.80821,16.883-15.35336,18.3949-8.81965,1.80439-18.37049-3.82927-21.14909-12.37876-3.64483-9.58892,2.40742-21.08573,12.13821-23.97906Z" fill="#bcf5d5"/>
        <path id="path18" d="M1198.78057.05836h95.135c12.99545,4.90021,27.86728,5.28268,40.80877,0h6.67775C1301.67772,33.80634,1238.57246,33.56335,1198.78057.05836Z" fill="#c41bfc"/>
        <path id="path24" d="M1448.52.05836h38.40588c-5.53481,12.86023,6.68669,27.74084,20.22662,25.44147,11.47446-1.28692,19.79914-14.8896,14.62438-25.44147h130.87691c-11.07855,36.48831-41.52422,66.44752-78.53518,76.04094-40.77732,11.51931-87.85875-2.57834-114.76765-35.50287-8.05017-11.80279-12.48695-26.20192-10.7726-40.53806Z" fill="#a98e08"/>
        <path id="path28" d="M1697.3595,24.3794c29.92371-19.68182,69.4095-23.08361,102.5956-9.79591v87.66825a19.70419,19.70419,0,0,0,0,24.699v42.464c-22.62951-6.19612-40.52081-26.87689-41.83019-50.57247-2.142-26.6609-25.25745-49.66352-52.04922-51.04494-29.90572-3.15881-58.547,21.7787-60.36951,51.64791-1.03048-37.82473,19.76768-75.015,51.67584-95.0658Z" fill="#5fe29f"/>
        <path id="path30" d="M.03145,14.61049C40.84022,30.49,70.51646,72.171,70.575,116.1514c-.61647,19.07885-11.317,37.584-27.92131,47.12342A55.81463,55.81463,0,0,1,.03145,169.12447V126.53c9.4721,13.23371,32.9071,5.71466,33.0331-10.63286C35.13,98.71719,10.57,88.65579.03145,102.524V14.61049Z" fill="#5fe29f"/>
        <path id="path32" d="M884.76144,22.48052c15.31738,28.2808,16.26684,63.41919,4.29733,93.08592-11.749,30.0402-37.35289,54.02375-67.76265,64.53063-50.65437,18.54338-112.9002-5.64716-136.34423-54.54573-11.704-25.95894-.54-59.58992,25.17643-72.36916,24.56-13.94466,58.37153-4.9722,73.40987,18.78638,10.579,18.56589,32.26815,30.30118,53.63772,28.1998,22.031-1.48041,42.23967-17.43195,48.832-38.49519,4.46829-12.62174,3.46034-26.79139-1.24642-39.19265M733.35408,84.41706c-8.76115,1.35892-16.04629,9.62942-15.64585,18.61988-.34647,10.1829,9.23808,19.26335,19.32667,18.55689,9.90856.2115,18.51674-9.08945,18.10271-18.88086.31948-11.06933-10.93-20.50077-21.78359-18.2959Z" fill="#1f96e1"/>
        <path id="path34" d="M830.11124,25.42334c9.09863-1.43091,18.55718,5.11619,20.64965,14.02566,3.03738,10.38538-5.25132,22.69214-16.20834,23.13311C825.058,64.08052,815.41037,56.62,814.09193,47.175,811.968,37.12714,820.0497,26.60677,830.11124,25.42334Z" fill="#1f96e1"/>
        <path id="path36" d="M194.3107,39.413c9.92207-2.30836,20.73963,5.1297,22.10306,15.18659,2.05192,9.51243-4.96779,19.73582-14.47139,21.53571-10.49805,2.68634-21.87806-5.79115-22.60253-16.49151C178.09789,50.28885,185.1986,41.20839,194.3107,39.413Z" fill="#8685eb"/>
        <path id="path38" d="M376.21548,63.49106c1.79094,0,3.58634-.0045,5.39077-.0045l.01349.468q-2.72688-.00675-5.41778-.009l.01349-.45447Z" fill="#9c8fcd"/>
        <path id="path50" d="M1178.419,89.68849c52.53082,1.5794,99.59426,45.31228,105.44848,97.48665a111.89683,111.89683,0,0,1-22.49,83.83447c-21.61262,28.49681-57.69212,45.61376-93.49257,43.43142-20.93761-1.61091-40.33178-15.80756-47.78349-35.47587-7.74867-18.79087-3.85631-41.672,9.41358-57.02058,11.2945-13.52619,29.02383-20.50527,46.465-20.1183,30.4502-1.16543,55.95059-30.99414,51.97727-61.29983-1.692-25.959-23.86692-48.06611-49.53841-50.838m-9.92655,150.41474c-8.41462,1.74589-15.14181,9.91739-14.7639,18.57487-.14405,10.04339,9.17965,19.19585,19.29063,18.5524,9.886-.072,18.78225-9.27845,18.13875-19.23186.30143-11.37981-11.67247-20.64477-22.66548-17.89543Z" fill="#41e3dc"/>
        <path id="path52" d="M1468.76912,90.026c42.70767,14.54313,73.7518,57.50205,74.24232,102.63436a111.77972,111.77972,0,0,1-28.24987,77.95783c-28.86179,33.2305-78.64312,47.19318-120.15622,31.7006-22.472-9.20643-37.73534-33.766-34.52253-58.087,2.10586-27.14688,26.77832-49.68153,53.82675-50.21249,11.71752-.98094,22.66108,5.10718,34.41,3.48278,24.33492-.93145,46.40209-19.76732,51.46876-43.54388,6.42577-25.40548-7.76673-52.73234-31.02174-63.93217m-53.44429,141.449c-11.39358.24748-20.89717,12.40126-17.49526,23.47509,2.15542,9.35943,12.36994,16.01,21.80611,13.76468,9.05359-1.70541,16.22186-10.79936,14.89436-20.0868C1434.10007,239.003,1424.8394,231.06551,1415.32235,231.475Z" fill="#909e9c"/>
        <path id="path56" d="M275.431,132.35043c12.26649-24.88351,44.20162-37.19028,69.954-26.7554,22.32355,8.041,37.91541,31.67359,36.138,55.38718-.35549,12.24827-7.24469,23.55609-5.66077,35.99784.71545,25.59447,21.10861,48.71858,46.375,52.70985,22.85454,4.41873,47.131-7.42906,58.79451-27.36287-15.18235,36.16433-51.5723,61.85778-90.41917,65.69607-36.83995,4.35125-75.11531-11.36182-98.5323-40.03409-26.33738-31.42161-33.89706-78.15132-16.6493-115.64307m46.64053,7.40206c-8.81962,1.47141-15.98333,10.00739-15.20034,19.04285-.153,11.39782,12.23049,20.87425,23.19651,17.468,9.5981-2.24087,16.32979-12.89623,13.57142-22.53465C341.46569,144.38721,331.58411,137.72311,322.07152,139.748Z" fill="#9c8fcd"/>
        <path id="path60" d="M1698.25938,105.45105c12.95494-3.00132,25.62192,10.38987,21.89153,23.07461-2.80785,13.83217-22.553,19.20035-31.69668,8.26151-10.46212-9.71492-4.11737-29.09975,9.805-31.33612Z" fill="#5fe29f"/>
        <path id="path62" d="M42.65364,163.27482c16.6043-9.53942,27.30484-28.04232,27.92131-47.11668,2.5739,46.15823-27.67832,91.196-70.5435,107.81353V169.129A55.78632,55.78632,0,0,0,42.65364,163.27482Zm1757.288-36.32407a19.70419,19.70419,0,0,1,0-24.699ZM.018,102.53071c10.53855-13.86817,35.09851-3.80677,33.0331,13.3732-.126,16.34527-23.561,23.85982-33.0331,10.63061ZM1645.71071,119.4452c1.82241-29.86921,30.46366-54.80671,60.36937-51.6479,26.79191,1.38142,49.9074,24.384,52.04923,51.04493,1.30938,23.69558,19.20068,44.37634,41.83018,50.57248v54.58623c-33.14558,13.3642-72.62245,9.78691-102.58214-9.77342-31.76864-20.0238-52.6253-57.07007-51.66678-94.78231m52.52629-13.99416c-13.92238,2.23636-20.26713,21.6212-9.805,31.33612,9.14367,10.93884,28.88884,5.57067,31.69669-8.26151,3.73038-12.68474-8.93659-26.07593-21.89153-23.07461Z" fill="#635f63"/>
        <path id="path64" d="M1443.79523,122.68726c9.46762-.819,18.77319,6.85759,19.71811,16.33852,1.73687,9.9939-6.65523,20.09131-16.59524,21.03175-9.92655,1.29591-19.77222-6.85308-20.69009-16.7435C1424.91864,133.16713,1433.53114,122.99775,1443.79523,122.68726Z" fill="#909e9c"/>
        <path id="path66" d="M1169.41934,127.16449c10.76354-2.01588,21.50455,7.58655,21.32905,18.3589.549,10.07039-8.86463,19.56032-18.99812,18.83137-9.68816.46348-18.61115-8.54048-18.43126-18.1699C1152.851,136.97841,1160.24422,128.24894,1169.41934,127.16449Z" fill="#41e3dc"/>
        <path id="path68" d="M322.07152,139.75248c9.51259-2.02488,19.39417,4.63923,21.56759,13.97617,2.75837,9.63841-3.97335,20.29379-13.57142,22.53465-10.966,3.40629-23.34953-6.07013-23.19651-17.468C306.08819,149.75989,313.2519,141.22389,322.07152,139.75248ZM275.431,132.35043C291.28385,92.17234,333.10057,64.13452,376.20872,63.95q2.69314,0,5.41778.009c42.47371.225,83.09346,27.70033,99.87776,66.605,12.83794,28.76227,13.26093,63.30221-.4725,91.763-11.66351,19.93381-35.94,31.7816-58.79451,27.36287-25.26642-3.99127-45.65958-27.11538-46.375-52.70984-1.58392-12.44175,5.30528-23.74958,5.66077-35.99784,1.77741-23.71358-13.81441-47.34616-36.138-55.38718-25.7524-10.43488-57.68755,1.87189-69.954,26.7554m154.186,43.3684c-7.16821.95845-13.74242,6.25012-15.61434,13.32821-3.15435,9.39994,3.00137,20.54126,12.50046,23.2006,11.80751,4.14875,25.33842-6.5156,24.15949-18.87637C450.27561,182.9229,440.00252,174.13941,429.617,175.71882Z" fill="#a1b017"/>
        <path id="path72" d="M668.29807,166.51463c25.19,9.47643,46.44706,29.05476,58.466,53.11482a112.35105,112.35105,0,0,1-46.375,149.85c-28.5423,15.69955-64.3203,18.35441-94.514,5.88564-22.14805-10.92985-35.80049-37.07327-30.3377-61.4528,4.36032-26.36393,30.11722-46.7702,56.69758-45.43827,11.389.17549,22.15258,5.84065,33.64057,4.40073,29.06426-.85044,54.09219-27.68683,52.97623-56.72809.054-20.66275-12.49594-40.0026-30.55368-49.632M607.35263,306.25379c-11.335,1.60191-18.99366,15.13258-13.92691,25.58545,3.43335,9.11646,14.66935,14.03014,23.70948,10.36288,8.31115-3.1453,14.08889-12.68474,11.7535-21.49971C627.16529,311.13149,616.8922,304.24691,607.35263,306.25379Z" fill="#619c53"/>
        <path id="path74" d="M429.617,175.71657c10.38555-1.57941,20.65864,7.20408,21.04561,17.65244,1.179,12.36077-12.352,23.02513-24.15949,18.87637-9.49909-2.65934-15.65485-13.80068-12.50046-23.20062C415.87455,181.9667,422.44876,176.675,429.617,175.71657Z" fill="#9c8fcd"/>
        <path id="path76" d="M640.21931,198.21522c11.65449-1.96638,22.562,9.20194,21.12664,20.74826-1.134,8.96346-9.17958,16.73-18.4132,16.47351-8.68014.468-16.97776-6.21413-18.51674-14.73211C621.61262,210.468,629.94176,199.48865,640.21931,198.21522Z" fill="#619c53"/>
        <path id="path80" d="M1564.16512,237.20539c21.19407-11.73531,46.258-15.89755,70.19252-12.61725,46.50549,6.47511,86.76538,44.72731,94.109,91.313,3.79328,28.88826-18.22871,58.04653-47.13553,61.88478-27.34079,5.14768-56.03614-13.69717-63.00639-40.43457-4.22983-18.2689-17.86425-34.10347-35.56646-40.45706a56.332,56.332,0,0,0-56.40965,10.49337c-13.87748,11.80729-20.79363,30.66567-18.98014,48.66909-9.46308-46.38771,14.95739-96.92869,56.79663-118.84912m104.70159,66.7985c-9.3866,1.5164-16.70785,11.5778-14.85838,20.99125,1.071,8.94995,9.55756,16.25752,18.56171,16.091,9.97159.018,19.33567-9.05346,18.51228-19.22736.2925-11.19982-11.299-20.46929-22.21561-17.85494Z" fill="#fa61d1"/>
        <path id="path82" d="M63.80724,240.22022c35.868-15.67257,79.67813-9.84991,110.8393,13.60267C205.98322,276.983,224.014,317.2466,219.23965,356.06576c-3.73485,39.18366-29.83824,75.474-66.13369,90.87205-25.76141,9.8319-57.46706-1.72791-69.891-26.53942-14.85612-26.3909-3.17012-62.86123,23.87823-76.14668,24.64545-12.21226,37.21791-43.68338,27.16985-69.40834-9.5126-27.93882-42.53219-43.75988-70.458-34.62992M131.23014,375.5541c-13.79192.738-22.08957,18.67839-13.33293,29.50473,7.74867,12.42376,28.63678,9.44043,32.8576-4.53574C155.9116,388.16682,144.18959,373.74068,131.23014,375.5541Z" fill="#1d3136"/>
        <path id="path84" d="M1415.33388,231.46824c9.51706-.40947,18.77773,7.528,19.20521,17.153,1.32751,9.28744-5.84077,18.3814-14.89435,20.0868-9.436,2.24537-19.65069-4.40523-21.80612-13.76468C1394.43671,243.8695,1403.94031,231.71573,1415.33388,231.46824ZM1401.722,86.90317c21.95-5.63367,45.8576-5.11619,67.07418,3.12281,23.255,11.19983,37.44737,38.52669,31.02174,63.93217-5.06682,23.77657-27.13384,42.61245-51.46876,43.5439-11.749,1.6244-22.69254-4.46374-34.41006-3.48279-27.04829.531-51.72075,23.06562-53.82674,50.21249-3.21282,24.321,12.05053,48.88057,34.52252,58.087-26.89092-7.90151-49.7319-28.06031-63.12778-52.51634-15.94736-28.98726-18.32319-65.0796-5.71032-95.72726,12.77944-32.767,41.88868-58.42451,75.92522-67.172m42.05525,35.78635c-10.26409.31048-18.87673,10.47987-17.56722,20.62676.918,9.89041,10.76354,18.03941,20.69009,16.7435,9.94015-.94044,18.33225-11.03784,16.59524-21.03174C1462.55043,129.54711,1453.24472,121.87057,1443.77724,122.68952Z" fill="#404482"/>
        <path id="path88" d="M1168.51933,240.10772c10.993-2.74934,22.967,6.51561,22.66548,17.89543.64349,9.95339-8.25272,19.15985-18.13876,19.23185-10.11111.64347-19.43468-8.509-19.29062-18.55239-.37806-8.65748,6.34927-16.829,14.7639-18.57488Zm-84.61888-107.89229c22.049-28.48329,58.56055-44.9793,94.5365-42.52695,25.67135,2.77183,47.84645,24.879,49.53841,50.838,3.97331,30.30569-21.52707,60.13441-51.97727,61.29983-17.44129-.387-35.17048,6.59211-46.46505,20.1183-13.27,15.34858-17.16225,38.2297-9.41358,57.02058,7.45171,19.66833,26.84588,33.865,47.78342,35.47589-37.18646-.40949-72.91941-22.12517-91.9851-53.82576-24.31247-38.94067-21.17608-92.82493,7.98267-128.3998m85.49184-5.0532c-9.17512,1.08443-16.56833,9.81391-16.10033,19.02036-.18,9.62942,8.7431,18.63338,18.43125,18.16992,10.13364.72895,19.54715-8.761,18.99827-18.83138.1755-10.77236-10.56552-20.37478-21.329-18.3589Z" fill="#582927"/>
        <path id="path90" d="M992.26188,262.37012c16.25784,25.005,20.70361,57.16908,13.4859,85.97636-10.48,44.84882-51.2888,80.49117-97.21836,84.56792-42.04172,5.08468-86.20736-16.41952-107.55447-53.05182-6.7677-15.65-7.33018-34.12595.50851-49.488,8.18968-17.306,25.98637-29.25274,44.93506-31.16514,18.89472-1.87639,38.53634,6.43911,49.99288,21.66621,12.073,16.091,33.20408,25.09951,53.16072,21.70219,21.4236-2.75383,40.19233-19.31734,45.83055-40.12859,4.19385-13.18871,2.02044-27.49335-3.14086-40.07909M848.54916,336.84517c-13.44993,1.75489-20.28512,19.8888-11.22254,30.07169,8.07715,11.37532,27.86729,8.18051,32.04761-5.1072,5.77328-12.81973-7.24916-28.10983-20.82514-24.96449Z" fill="#511159"/>
        <path id="path92" d="M939.01787,268.39976c12.14947-2.06088,23.50253,10.32689,20.75312,22.23766-2.19141,15.33057-24.11445,20.44227-33.07809,8.05C917.3738,288.08157,925.14046,269.62818,939.01787,268.39976Z" fill="#511159"/>
        <path id="path94" d="M78.17963,275.65559c12.865-2.76283,25.41042,10.87135,21.2211,23.5201-3.37485,13.77815-22.97152,18.4804-32.02064,7.46054-10.07057-10.08839-3.22186-29.24825,10.79954-30.98066Z" fill="#1d3136"/>
        <path id="path98" d="M1668.89815,304.00389c10.91652-2.61435,22.50811,6.65508,22.21562,17.85494.82352,10.17389-8.54069,19.24534-18.51228,19.22736-9.00415.1665-17.49073-7.14107-18.56171-16.091-1.84947-9.41345,5.47178-19.47485,14.85837-20.99125ZM1526.378,307.38768a56.332,56.332,0,0,1,56.40965-10.49337c17.70221,6.35363,31.33662,22.18816,35.56646,40.45706,6.97025,26.7374,35.66546,45.58225,63.00639,40.43457,28.90682-3.83825,50.92881-32.99652,47.13552-61.88478,8.88716,43.4269-11.911,90.59758-49.11545,114.33816-32.04315,21.17124-75.3133,24.27153-109.80891,7.19956-32.22758-14.95259-56.34209-46.30672-62.1738-81.38211-1.81349-18.00342,5.1028-36.8618,18.98014-48.66909m35.382,23.61459c-13.75141.60747-22.23359,18.32739-13.67492,29.39223,8.13118,12.84674,29.70769,9.058,33.36159-5.61118C1585.438,342.859,1574.19755,329.24734,1561.76,331.00227Z" fill="#e6ec4c"/>
        <path id="path100" d="M607.34817,306.24249c9.53957-2.00687,19.81266,4.87771,21.53606,14.44863,2.33539,8.815-3.44235,18.35441-11.75349,21.49971-9.04013,3.66729-20.27613-1.24643-23.70949-10.36289C588.35444,321.37508,596.01316,307.84437,607.34817,306.24249ZM562.00134,178.6414c30.37825-21.41421,71.99242-26.87688,106.29447-12.13127,18.05774,9.62942,30.60771,28.96927,30.55367,49.632,1.116,29.04125-23.912,55.87765-52.97623,56.72811-11.488,1.43991-22.25159-4.22524-33.64056-4.40074-26.58036-1.33193-52.33727,19.07435-56.69759,45.43829-5.46275,24.37954,8.18965,50.523,30.3377,61.45281-41.46123-15.05161-70.935-57.29058-71.54248-101.28894-1.71894-37.16778,17.18478-74.28154,47.671-95.43028m78.2112,19.56932c-10.27755,1.27343-18.60668,12.25277-15.8033,22.48966,1.53892,8.518,9.83661,15.20008,18.51674,14.73211,9.23362.25648,17.27925-7.51,18.4132-16.47351C662.77459,207.41266,651.86707,196.24434,640.21251,198.21072Z" fill="#a8d895"/>
        <path id="path104" d="M243.8761,368.99123C265.0342,335.21177,305.195,314.54,345.0318,317.37932c29.07326,3.10482,52.44977,31.16514,49.48441,60.45386-1.86293,27.41687-26.15287,51.18443-53.80422,51.5714-21.67109-.567-43.02719,12.11328-52.35978,31.76809a56.47027,56.47027,0,0,0-.70648,47.72415c7.27619,16.87848,23.534,28.72629,41.22275,32.56-47.626-3.03283-90.24368-40.58305-99.94975-87.22278a112.55485,112.55485,0,0,1,14.95737-85.24289M335.58221,354.862c-9.71507,1.16994-17.51325,11.24483-15.68633,20.95973.9,9.24695,9.98958,16.94149,19.2817,16.145,10.894.04051,19.91616-11.23133,17.65273-21.88668-1.47368-9.71943-11.55325-17.054-21.25033-15.22033Z" fill="#d2c9a7"/>
        <path id="path108" d="M1194.6183,328.38116c41.20028-3.65377,83.08443,18.09793,104.39563,53.40278,24.85688,39.37713,21.63514,94.47184-8.78361,129.95219-9.04906,9.04447-20.78017,15.67257-33.59559,17.243-24.04242,4.01375-49.624-10.2279-59.13649-32.623-8.34266-18.05742-5.82278-40.1781,5.86769-56.17914,15.11929-21.23423,12.667-52.74134-5.82278-71.21271-20.3211-22.01717-57.52108-22.45364-79.24164-2.15535,18.61122-22.60216,47.24353-36.24083,76.31679-38.4322m52.6253,126.35243c-9.45416.61647-17.72019,9.49893-16.95984,19.07885-.22493,10.61037,10.354,19.8753,20.83867,18.1924,9.14368-.89543,16.75276-9.37743,16.57286-18.58837C1268.06881,462.83761,1257.75515,453.28918,1247.2436,454.72909Z" fill="#a14120"/>
        <path id="path110" d="M1561.69015,331.00227c12.4375-1.75489,23.678,11.8568,19.68666,23.78109-3.6539,14.66913-25.2304,18.45788-33.36159,5.61117-8.55867-11.06484-.07649-28.78479,13.67493-29.39223Z" fill="#fa61d1"/>
        <path id="path112" d="M848.538,336.84067c13.57592-3.1453,26.59836,12.14476,20.82515,24.96449-4.18033,13.28771-23.97047,16.48252-32.04762,5.1072-9.06264-10.18289-2.22738-28.3168,11.22254-30.07169ZM838.01742,225.16636a112.51728,112.51728,0,0,1,89.05573-12.36076c26.80989,7.636,51.12683,25.338,65.17973,49.56,5.1613,12.58575,7.33472,26.89037,3.14086,40.07908-5.63829,20.81125-24.40694,37.37476-45.83054,40.12859-19.95664,3.39729-41.08774-5.61117-53.16073-21.70219-11.45653-15.2271-31.09816-23.5426-49.99288-21.66621-18.94869,1.9124-36.74544,13.85918-44.93506,31.16514-7.83869,15.36209-7.27621,33.838-.50851,49.488-10.453-15.78057-15.75832-34.78293-16.61776-53.60529-2.43893-40.12859,19.12872-80.57216,53.66923-101.08644m100.99372,43.2334c-13.87741,1.22842-21.64407,19.68182-12.325,30.28769,8.96364,12.39225,30.88668,7.28055,33.07809-8.05C962.51368,278.72663,951.16068,266.33887,939.01121,268.39975Z" fill="#beada7"/>
        <path id="path116" d="M335.58221,354.86208c9.69708-1.83138,19.78118,5.50317,21.2481,15.21807,2.2634,10.65534-6.75871,21.92719-17.65273,21.88668-9.29212.79646-18.38172-6.89807-19.2817-16.145C318.069,366.10691,325.86714,356.032,335.58221,354.86208Zm9.45409-37.48276c53.46222,1.69639,100.87672,47.04019,105.43053,100.25848,3.84735,33.1405-8.31115,67.43295-31.82264,91.02052-22.96251,23.6011-56.69759,35.85836-89.46073,32.98753l-.31049-.189c-17.68874-3.83375-33.94655-15.68156-41.22274-32.56a56.47031,56.47031,0,0,1,.70647-47.72415c9.3326-19.65484,30.6887-32.335,52.35979-31.76809,27.65131-.387,51.94129-24.15457,53.80422-51.5714,2.96536-29.28875-20.41115-57.34907-49.48441-60.45386m-9.00861,149.96475c-9.53511,1.25542-17.18028,10.96133-15.66385,20.53229.79648,9.38193,9.76008,17.423,19.25918,16.586,9.00861.02248,16.89227-7.65856,17.94073-16.451,1.65142-11.66781-9.77806-23.12861-21.5361-20.66727Z" fill="#baacb3"/>
        <path id="path118" d="M131.23463,375.56083c12.95944-1.81339,24.68145,12.61275,19.52466,24.969-4.22081,13.97618-25.10893,16.95947-32.8576,4.53575C109.14506,394.23921,117.44271,376.29879,131.23463,375.56083Zm1668.75425,3.32979a110.089,110.089,0,0,1,0-69.16986ZM63.85,240.2202c27.92581-9.13,60.94541,6.6911,70.458,34.62992,10.04808,25.725-2.52439,57.19606-27.16984,69.40835-27.04836,13.28322-38.73436,49.75351-23.8805,76.13992,12.424,24.81151,44.12963,36.37132,69.891,26.53942-40.94827,19.48834-93.39354,9.61143-125.08345-22.64713-12.8987-12.32925-22.06482-28.0783-27.99106-44.8173V309.0976C10.15825,278.39143,33.77775,252.33351,63.85,240.21124m14.37239,35.43537C64.201,277.379,57.35224,296.53885,67.42282,306.62727c9.04911,11.01982,28.64578,6.31761,32.02064-7.46054,4.18932-12.64875-8.35615-26.28293-21.2211-23.5201Z" fill="#592a43"/>
        <path id="path120" d="M1154.90743,389.47627c9.41365-1.34543,18.86767,5.89014,20.40212,15.19559,2.40288,10.1694-5.80026,21.11274-16.11379,22.03969-9.83207,1.70089-19.91167-6.36712-20.82514-16.226C1136.64268,400.5051,1144.92231,390.36271,1154.90743,389.47627Z" fill="#a14120"/>
        <path id="path128" d="M1493.18066,428.36517c46.159,20.35229,73.47743,74.75851,62.66885,124.01255-6.45268,32.88855-28.37579,62.33928-58.23207,77.65632-29.37468,15.42059-66.04824,17.54892-96.35439,3.63578-18.00376-9.37744-31.17471-28.52827-31.05772-49.11453a55.124,55.124,0,0,1,13.54887-38.22971c14.28244-16.865,38.90986-23.74058,59.86993-16.649,16.4873,6.26361,35.976,4.7742,50.79835-4.98121,17.86425-10.80836,28.36673-32.51055,25.89642-53.23632-1.386-17.72445-12.397-33.595-27.13837-43.08943m-68.23965,136.16184c-13.0854.49048-22.08955,16.37-15.03841,27.68688,6.17818,13.45421,27.69632,12.58127,33.30309-.855,6.70921-12.23927-4.68423-28.4878-18.26468-26.83188Z" fill="#5c7ebf"/>
        <path id="path134" d="M1247.15352,454.73359c10.51154-1.43991,20.82507,8.10852,20.45169,18.68288.18,9.21093-7.42919,17.69293-16.57286,18.58837-10.48449,1.6829-21.0636-7.582-20.83867-18.19241C1229.43318,464.23252,1237.69936,455.35006,1247.15352,454.73359Zm-128.942-87.92473c21.72056-20.29829,58.92048-19.86182,79.24158,2.15535,18.48975,18.47141,20.94207,49.97851,5.82278,71.21275-11.69047,16.001-14.21035,38.12171-5.86769,56.17913,9.51266,22.39515,35.09406,36.6368,59.13648,32.62305,12.81542-1.57041,24.5464-8.19851,33.59559-17.243-28.72226,37.20825-82.513,51.60741-126.23085,34.75591-31.37267-11.37082-57.06208-37.47827-67.6096-69.17436-13.07194-37.15429-4.90931-81.44511,21.914-110.50886m36.68687,22.66065c-9.98505.88644-18.26475,11.02882-16.53681,21.00924.91347,9.85891,10.993,17.92693,20.82514,16.226,10.31353-.927,18.51667-11.8703,16.11379-22.03969C1173.76837,395.35965,1164.31435,388.12408,1154.9007,389.46951Z" fill="#801014"/>
        <path id="path136" d="M485.12211,485.59048c11.71749-18.79988,34.779-30.19768,56.86859-26.30093,27.05735,3.60879,48.94892,29.45972,47.51348,56.8001.378,13.49919-8.11766,25.54048-6.74972,39.15663-.045,25.509,19.77215,49.07409,44.76409,53.85278,22.82753,5.03968,47.41-6.12863,59.69-25.797-23.07505,51.94039-89.61374,77.85434-141.93521,55.85513a111.76325,111.76325,0,0,1-61.05791-57.28155c-14.09792-29.95469-14.43089-66.78051.909-96.28524m47.01176,10.54062c-16.06432.27-23.29552,22.47166-11.31252,32.48356,8.70712,8.68448,25.01443,5.26917,29.57274-6.09715C557.06959,510.29619,545.39707,494.72263,532.13614,496.13106Z" fill="#ba2744"/>
        <path id="path138" d="M1460.66952,458.67085c9.58461-1.95737,19.78114,4.58072,21.88713,14.10217,2.88434,9.89489-4.39627,20.83374-14.33641,22.75063-10.34951,2.62335-21.52254-5.68766-22.454-16.19-1.52539-9.44943,5.69672-18.75038,14.90342-20.66278Z" fill="#5c7ebf"/>
        <path id="path140" d="M336.03219,467.34411c11.758-2.46134,23.18751,8.99946,21.5361,20.66727-1.04847,8.79248-8.93213,16.47352-17.94074,16.451-9.4991.83694-18.4627-7.20406-19.25918-16.586-1.51642-9.57092,6.12874-19.27683,15.66385-20.53228Z" fill="#d2c9a7"/>
        <path id="path142" d="M532.13388,496.13113c13.26093-1.40844,24.93344,14.16516,18.26021,26.38641-4.5583,11.36632-20.86561,14.78163-29.57273,6.09715C508.83835,518.60279,516.06956,496.40113,532.13388,496.13113Zm-47.0095-10.54288c18.72821-41.906,65.97621-67.793,111.3793-63.28422A114.15844,114.15844,0,0,1,667.25421,456.43c32.04762,32.67705,41.06975,86.02583,19.95664,126.86993-12.28,19.66833-36.86244,30.83663-59.69,25.797-24.99194-4.7787-44.80907-28.34379-44.76409-53.85278-1.36795-13.61619,7.12769-25.65748,6.74971-39.15664,1.43544-27.34038-20.45612-53.1913-47.51348-56.8001-22.08954-3.89675-45.1511,7.50105-56.86859,26.30093m152.746,49.731c-10.56558.288-19.4482,10.98835-17.53577,21.43222,1.23742,9.72393,11.24953,17.44544,20.98259,15.80755,9.10309-1.07543,16.71677-9.63841,16.17229-18.91238.279-10.21887-9.5531-19.15987-19.61917-18.32739Z" fill="#d750ac"/>
        <g>
          <path id="path144" d="M1676.66035,501.78954c21.36064-10.39437,49.20087-4.9542,64.93675,12.89171,7.63613,7.834,12.028,18.19691,14.44435,28.73529,5.62929,20.27127,23.43957,35.81784,43.90458,39.92607V643.459c-41.37124,18.70091-93.2675,8.446-124.77975-24.105a111.73971,111.73971,0,0,1-31.03973-61.70479c-1.78191-22.98912,11.26751-46.46869,32.53367-55.85965m20.10508,32.59606c-9.81861,1.57939-17.17131,12.44175-14.74591,22.15215,1.83148,9.68342,12.27094,16.928,21.99507,14.50263,11.632-1.7999,18.74175-16.208,13.135-26.55741-3.6403-7.37506-12.23042-11.8568-20.38413-10.09741Z" fill="#634021"/>
          <path id="path146" d="M.03145,512.4089c10.46205-8.563,28.1913.063,28.71328,13.45868C30.96314,540.62669,12.34293,552.51047.03145,543.484Z" fill="#634021"/>
          <path id="path148" d="M1799.9551,543.56951c-11.425-6.8441-11.20009-24.807,0-31.78611Z" fill="#634021"/>
        </g>
        <path id="path150" d="M913.47018,518.38229c27.30481-7.12307,57.98,9.7104,66.43968,36.66831,5.12078,19.67733,21.25263,36.05181,41.09673,40.79453,19.84418,5.28266,42.24868-1.79087,55.73465-17.216,10.72755-11.78027,15.52432-28.16382,14.07543-43.91737l.26551-.333c7.54619,35.68736-3.63138,74.484-28.99224,100.69945-27.17882,29.01425-70.5705,41.537-109.00337,31.38564-39.84133-9.70144-73.50434-42.99042-81.802-83.37546-5.63376-28.29881,13.93591-58.5865,42.18571-64.70611m10.237,36.25433c-13.52641,1.40843-21.00963,19.49283-11.974,29.91418,7.94216,11.62277,28.18684,8.662,32.41214-4.85518,5.50776-12.72076-7.01969-27.70933-20.4381-25.059Z" fill="#58f31c"/>
        <path id="path152" d="M1031.7027,522.69077c9.57562-1.83588,19.56521,5.25118,21.3156,14.7681,2.71337,10.75435-6.56975,22.54366-17.65724,22.40414-9.96259.693-19.54714-8.01851-19.30868-18.09793-.68847-9.10746,6.7092-17.81443,15.65032-19.07435Z" fill="#58f31c"/>
        <path id="path154" d="M66.33164,522.81453C75.26825,572.19906,45.82151,624.13721.03145,643.756v-60.6339c18.35472,3.41078,38.33837-3.06884,50.97384-16.874,11.029-11.42932,16.4198-27.66436,15.32635-43.4359Z" fill="#634021"/>
        <path id="path156" d="M1696.797,534.39006c8.1537-1.75939,16.74382,2.72235,20.38413,10.09741,5.60677,10.34939-1.503,24.75751-13.135,26.55741-9.72413,2.42536-20.16358-4.81921-21.99506-14.50263-2.42541-9.71041,4.92729-20.57276,14.74591-22.15216ZM.03145,436.67843c34.51353,15.47009,60.94091,48.39909,66.30019,86.13383,1.09345,15.77154-4.29732,32.00658-15.32635,43.4359C38.36982,580.0533,18.38617,586.53292.03145,583.12214V543.484c12.31148,9.02644,30.93169-2.85734,28.71328-17.61645-.522-13.38669-18.25123-22.01494-28.71328-13.45418v-75.735Zm1693.72812,9.31894c30.96324-20.46925,72.24441-24.00605,106.17754-8.90045v74.68652c-11.20009,6.97909-11.425,24.942,0,31.78611v39.77313c-20.46515-4.10823-38.27543-19.6548-43.90459-39.92611-2.41634-10.53838-6.80821-20.90123-14.44435-28.73528-15.73587-17.846-43.57611-23.28612-64.93674-12.89172-21.26616,9.39093-34.31558,32.87053-32.53367,55.85966-7.41573-42.73395,13.153-88.40172,49.64195-111.65179Z" fill="#ac1b95"/>
        <path id="path158" d="M637.87939,535.32377c10.06607-.83244,19.89814,8.10852,19.61917,18.32739.54449,9.27393-7.0692,17.83692-16.17229,18.91238-9.73306,1.6379-19.74516-6.08362-20.98258-15.80755-1.91243-10.44387,6.97018-21.14422,17.53577-21.43222Z" fill="#ba2744"/>
        <path id="path162" d="M923.70728,554.63884c13.41841-2.65032,25.94593,12.33825,20.43817,25.059-4.2253,13.51718-24.47,16.478-32.41214,4.85519-9.03559-10.42139-1.55244-28.50579,11.974-29.91422Zm-20.91962-78.86227c36.201-36.12383,97.68189-41.447,139.85408-12.71173,24.72643,16.14053,42.86965,42.563,48.17493,71.64923,1.449,15.75355-3.34788,32.13706-14.07543,43.91734-13.4859,15.42505-35.89047,22.49865-55.73465,17.216-19.84417-4.74272-35.976-21.11723-41.09673-40.79456-8.45967-26.95787-39.13487-43.79138-66.43968-36.66831-28.2498,6.11964-47.81947,36.4073-42.18571,64.70611l-.42749.06749c-9.20663-38.16672,3.19936-80.56766,31.93061-107.38155m128.90832,46.9142c-8.94112,1.25992-16.3388,9.96688-15.65033,19.07435-.23846,10.07938,9.34609,18.79088,19.30869,18.09792,11.08755.13949,20.3706-11.64978,17.65723-22.40414-1.75046-9.51691-11.74-16.604-21.31559-14.7681Z" fill="#171012"/>
        <path id="path164" d="M1424.896,564.527c13.58045-1.65588,24.97388,14.59264,18.26468,26.83191-5.60677,13.43623-27.12492,14.30911-33.30309.855-7.05114-11.31681,1.95287-27.19636,15.03841-27.68684ZM1362.1056,454.06312c31.92615-35.77737,88.02531-47.20666,131.03442-25.70245,14.74137,9.49443,25.75237,25.365,27.13837,43.0894,2.47045,20.72577-8.03217,42.428-25.89642,53.23631-14.8224,9.75541-34.31105,11.24483-50.79835,4.98121-20.96007-7.09156-45.58762-.216-59.86993,16.649a55.12332,55.12332,0,0,0-13.54887,38.22972c-.117,20.58625,13.054,39.73709,31.05772,49.11452-35.44053-14.05266-61.51245-48.2551-67.2137-85.78283-5.75522-33.40148,5.29629-68.89985,28.10129-93.81487m98.53686,4.59874c-9.20656,1.9124-16.4288,11.21331-14.90342,20.66277.93147,10.50237,12.1045,18.81337,22.454,16.19,9.94014-1.9169,17.22075-12.85574,14.33641-22.75064-2.10585-9.52141-12.30252-16.05953-21.88713-14.10216Z" fill="#a39ac2"/>
        <path id="path166" d="M183.7474,605.37334c15.87083-20.82024,46.933-27.83981,69.99453-15.32157,23.66449,11.35733,36.264,40.90706,28.2903,65.903-2.91587,8.99946-8.14017,17.26995-9.17512,26.8454-3.90134,24.951,11.29451,51.26992,35.004,60.11187,22.769,9.73289,50.57784,1.26445,65.65673-17.94495-18.5887,31.02112-53.53874,51.19795-89.5912,52.63337-44.57961,3.01481-89.22221-24.03308-107.53193-64.75565-15.90683-33.88749-14.00341-76.365,7.35268-107.47157m40.72327,16.307c-12.56347,2.10589-19.74067,18.40388-11.7895,28.78926,7.42469,12.15825,27.40384,10.31787,32.57411-2.92933C251.645,634.58994,238.79807,618.049,224.47069,621.68026Z" fill="#8f1ce9"/>
        <path id="path168" d="M1172.68173,601.1773c34.00509-20.38831,78.78264-20.2803,113.02392-.44547,46.47858,25.71148,69.198,86.87632,49.47991,136.40933-10.12457,23.43909-36.79041,38.31074-62.02535,33.1945-24.58251-4.18025-44.75516-26.35489-45.9025-51.39144-1.82242-12.24373,4.59882-23.49759,4.5763-35.60634,1.45343-28.00185-21.56758-54.5457-49.48445-57.115-22.83205-3.45129-45.81708,9.6069-56.92708,29.39223,8.94111-22.78662,26.19338-42.10849,47.26145-54.43324m108.35534,95.14681c-7.60016.954-14.45341,6.82162-15.90684,14.4351-3.05091,10.95237,6.40325,23.2636,17.82374,22.79561,10.93.92245,20.85212-10.08388,19.04317-20.81125-1.05739-9.87241-11.00207-18.06642-20.96007-16.41953Z" fill="#387f7b"/>
        <path id="path170" d="M665.10325,691.23939c9.58008-49.44752,56.76058-88.11372,107.10446-88.23518,45.17359-1.97989,89.38421,26.80943,106.51048,68.5444,8.44167,20.23526,11.308,43.1434,6.87571,64.67463-4.35583,15.51959-14.59287,29.69824-29.27128,36.86179-18.09372,9.5484-41.42076,7.98253-57.989-4.04973-14.11587-9.68338-23.003-26.26941-23.786-43.3099-.477-7.15009,1.197-14.22816.77849-21.37825-1.341-20.76175-14.98884-40.17809-34.27507-48.12011-17.70227-7.59556-39.31029-5.39067-54.80318,6.18712-10.15608,6.84408-16.90126,17.53547-21.14462,28.8253m162.75809,13.24721c-8.65762,1.20142-16.01931,9.35945-15.66385,18.21039-.67495,9.90393,8.15364,19.20934,18.11623,18.96189,12.27547,1.01693,22.72405-12.70726,18.37269-24.28053-2.5514-8.635-11.90648-14.62865-20.82514-12.89175Z" fill="#807117"/>
        <path id="path174" d="M224.47067,621.68486c14.3274-3.63131,27.17435,12.90975,20.78462,25.85993-5.17028,13.2472-25.14944,15.08758-32.57411,2.92933C204.73,640.08874,211.9072,623.79075,224.47067,621.68486Zm-40.72327-16.307c20.00615-34.44542,61.12091-54.67172,100.66524-52.31386,33.40207,1.50741,65.58924,19.20034,85.1049,46.31576,26.45437,35.95287,28.75827,88.20373,4.00033,125.58748-15.07885,19.20934-42.88767,27.67785-65.65673,17.945-23.7095-8.842-38.90535-35.16087-35.004-60.11187,1.035-9.57545,6.25923-17.846,9.17511-26.84541,7.97368-24.996-4.6258-54.5457-28.29029-65.903-23.06152-12.51823-54.1237-5.49867-69.99453,15.32158m142.7902,66.668c-8.94112.99441-16.86079,9.06249-16.51429,18.2599-.89545,10.65088,9.57109,20.46479,20.12764,18.88985,10.57005-.31947,19.23669-11.64982,16.77981-21.94071-1.62443-9.256-11.002-16.42852-20.39313-15.20911Z" fill="#76c367"/>
        <path id="path180" d="M.03145,667.27834c41.42524-24.294,98.38832-16.77951,132.42938,17.06748,25.69391,24.05106,38.79736,60.86335,33.82506,95.73173a110.55956,110.55956,0,0,1-38.37437,70.96523c-16.14982,11.06483-37.8119,14.48014-55.94163,6.27714-17.94974-7.51454-31.31418-25.01849-33.46958-44.38986-2.80789-17.6502,4.41881-35.87412,17.01827-48.2146,16.4783-16.76152,20.51013-44.24361,9.32361-64.96485C53.39917,676.622,24.76239,664.1015.02694,671.45853v-4.18025M90.77908,787.27481c-8.69363,1.34993-15.56934,9.80938-15.19135,18.57938-.342,10.12439,9.16611,19.29935,19.25918,18.55685a18.83582,18.83582,0,0,0,17.19378-12.60825c5.04429-12.88276-7.63618-27.88486-21.2616-24.52805Z" fill="#1f942a"/>
        <path id="path182" d="M1482.26854,693.84925c9.64765-23.8306,36.25047-39.78213,61.86785-34.73793,29.97767,4.18026,52.54428,35.87638,45.92955,65.61054-5.6157,26.38195,10.408,55.20718,35.98049,63.95019,27.72337,11.10535,61.11641-4.75171,71.85742-32.13706-8.97256,33.45548-35.22,61.52029-67.56017,73.7056-29.64026,11.43835-64.17171,9.63841-92.24155-5.36815-46.58651-23.06565-71.772-81.4586-55.83359-131.02086m50.29438,2.03839c-13.86842,1.30489-21.833,19.60084-12.29346,30.28317,8.46859,11.78027,29.14522,7.85653,32.52914-6.33565,4.42785-12.45974-7.56871-25.887-20.23568-23.94759Z" fill="#83859c"/>
        <path id="path184" d="M1172.56926,663.52111c10.70957-2.1374,21.77014,7.03756,21.74762,17.91344.80993,10.35838-8.9771,19.99227-19.2817,19.25884-11.542.342-20.59561-12.0278-17.7202-23.02514a19.11862,19.11862,0,0,1,15.25442-14.14714Z" fill="#387f7b"/>
        <path id="path186" d="M1783.30575,678.61768a71.73951,71.73951,0,0,1,16.64481-11.2853v3.73925A127.599,127.599,0,0,0,1783.30575,678.61768Z" fill="#1f942a"/>
        <path id="path194" d="M326.53759,672.04805c9.39109-1.21941,18.76869,5.95313,20.39312,15.20911,2.45689,10.29089-6.20972,21.62117-16.77981,21.94071-10.55655,1.57494-21.02309-8.239-20.12764-18.88985-.3465-9.19748,7.57317-17.26549,16.51429-18.2599Z" fill="#8f1ce9"/>
        <path id="path196" d="M715.7936,689.61949c9.10762-1.75943,19.09267,4.32423,21.2481,13.40471,3.78435,11.10535-5.79573,24.19058-17.59428,23.77656-9.22009.52649-17.98124-7.03309-18.92616-16.181C698.81131,701.08482,706.272,691.073,715.7936,689.61949Z" fill="#807117"/>
        <path id="path198" d="M1532.554,695.88537c12.667-1.93938,24.6634,11.48778,20.23569,23.94759-3.38392,14.19218-24.06041,18.11592-32.52914,6.33564-9.53957-10.68232-1.575-28.97827,12.29345-30.28316Zm49.80839-82.849c39.85932-3.32083,80.50152,17.06747,101.96116,50.75695,17.7158,26.9039,23.19651,61.94778,13.57139,92.73944-10.741,27.38535-44.13419,43.24241-71.85743,32.13706-25.57248-8.74294-41.59618-37.56824-35.98048-63.95019,6.61472-29.73422-15.95189-61.43028-45.92956-65.61053-25.61738-5.04421-52.22033,10.90733-61.86784,34.73792,11.79854-44.50233,54.22264-78.34478,100.10276-80.81065m59.55051,104.48827c-8.12212,1.26891-14.95285,8.716-15.14181,17.00451-1.64239,11.44281,10.057,21.96317,21.20766,19.89779,10.14709-1.2779,18.19726-12.06377,15.64139-22.17917-1.66943-9.70144-12.00548-16.883-21.7071-14.72313Z" fill="#dbddd3"/>
        <path id="path200" d="M1281.01455,696.32411c9.95814-1.64689,19.90268,6.54712,20.96007,16.41953,1.809,10.72736-8.1132,21.7337-19.04317,20.81125-11.42049.468-20.87465-11.84331-17.82374-22.79561,1.45343-7.61355,8.30669-13.4812,15.90684-14.4351Zm-155.61466-40.71358c11.11-19.78532,34.0951-32.84351,56.927-29.39222,27.91686,2.56934,50.93787,29.11326,49.48444,57.115.02252,12.10875-6.39872,23.36261-4.5763,35.60634,1.14747,25.03648,21.32013,47.21119,45.9025,51.39144,25.23494,5.11617,51.90079-9.75541,62.02536-33.1945-11.48353,33.604-40.66472,60.1074-74.71032,69.72329-35.66093,10.58339-76.1323,1.61991-104.2156-22.6876-36.47093-30.26518-49.9569-85.08538-30.83717-128.55732m47.14445,7.9105a19.11909,19.11909,0,0,0-15.25442,14.14714c-2.87541,10.99734,6.17818,23.36707,17.7202,23.02514,10.3046.73343,20.09163-8.90045,19.2817-19.25884.02252-10.87588-11.03805-20.05077-21.74762-17.91344Z" fill="#0d0438"/>
        <path id="path202" d="M827.86134,704.47987c8.91859-1.7369,18.27374,4.25674,20.82514,12.89175,4.35129,11.57334-6.09722,25.29746-18.37269,24.28053-9.96259.24745-18.79118-9.058-18.11623-18.96188-.35546-8.851,7.00623-17.009,15.66385-18.2104Zm-141.62026-42.0725c15.49281-11.5778,37.1009-13.78269,54.80318-6.18713,19.28616,7.942,32.9341,27.35837,34.27506,48.12011.4185,7.1501-1.25548,14.22816-.77848,21.37825.783,17.04049,9.6701,33.62652,23.786,43.30991,16.56833,12.03226,39.89529,13.5982,57.989,4.04973,14.67835-7.16355,24.91545-21.34221,29.27128-36.8618-7.42919,45.10977-45.66857,82.723-90.66213,90.2286-49.40343,9.95789-102.68561-18.39489-122.75479-64.45862-9.62959-21.99015-12.94148-47.34165-7.07819-70.75375,4.24329-11.28984,10.98854-21.98116,21.14462-28.8253m29.55026,27.21438c-9.52159,1.45341-16.98229,11.46534-15.27234,21.00028.945,9.148,9.70608,16.70748,18.92617,16.181,11.79847.41395,21.37862-12.67122,17.59427-23.77656C734.87954,693.946,724.89449,687.8624,715.78687,689.62175Z" fill="#2c2225"/>
        <path id="path204" d="M.03145,714.503c6.51572-10.07042,23.5475-9.88593,30.02272.234,6.06575,7.816,4.22083,20.2713-3.89683,25.97245-7.77117,6.22091-20.23564,4.466-26.1259-3.50978V714.50752Z" fill="#1f942a"/>
        <path id="path206" d="M1799.9551,737.11418c-5.3953-6.45711-5.11626-16.433,0-22.95765Z" fill="#1f942a"/>
        <path id="path208" d="M1641.8993,717.52906c9.70161-2.15985,20.03766,5.02169,21.7071,14.72313,2.55586,10.1154-5.4943,20.90127-15.64139,22.17918-11.15052,2.06537-22.85-8.455-21.20766-19.8978.189-8.28848,7.01969-15.73553,15.14181-17.00451Z" fill="#83859c"/>
        <path id="path210" d="M422.18105,768.22978c10.37206-21.39624,35.63848-34.19345,59.02848-29.91418,22.985,3.28032,41.90221,22.38618,46.384,44.95233,7.48319,31.53862,45.23658,50.748,75.12434,37.70322,22.77356-8.482,37.76692-33.118,35.3775-57.241l.38251.03151c8.56314,49.749-20.9466,102.71986-67.84813,121.42522-37.41143,16.127-83.23748,9.62043-114.58762-16.415a111.34465,111.34465,0,0,1-39.86382-67.703c-.792-11.19083.54-22.8721,6.00275-32.839m49.08843,6.81262c-8.14014.45-15.75832,6.44365-17.41427,14.52512-3.25336,11.29883,6.90722,23.66409,18.54822,23.12408,10.74554.09447,20.06015-10.59238,18.31872-21.23873-1.18345-9.34593-9.94907-16.93249-19.45267-16.41053Z" fill="#9a780f"/>
        <path id="path212" d="M957.14083,753.76316c37.93343-23.6461,90.17168-19.96082,125.26341,7.474,24.54647,18.7594,41.02025,47.87712,43.65267,78.74527,4.45483,40.925-15.94735,84.23942-51.54979,105.38821-19.35818,11.05584-45.11962,9.24691-62.47982-4.86418-23.25954-17.40494-28.30377-53.81681-10.723-76.88239,5.50777-9.004,15.32185-13.71519,22.07156-21.5672,17.38726-19.28136,18.4627-50.88747,2.09693-71.14072-15.14188-20.9575-45.07685-27.54959-68.32959-17.15522m88.42575,123.96758c-9.56662.53994-17.73825,9.42241-17.32429,19.02038a18.77168,18.77168,0,0,0,13.16642,17.53093c10.87154,4.04973,24.15949-4.91822,24.2-16.5815C1067.05548,886.65605,1056.382,876.52266,1045.56892,877.72855Z" fill="#deb814"/>
        <path id="path216" d="M580.74309,749.94963c8.62617-.81445,17.35127,5.52565,19.38071,13.95365,2.73589,9.33693-3.43789,20.37478-12.95494,22.65616-10.948,3.92374-24.164-5.47169-23.804-17.14849-.90444-9.79593,7.60919-19.13285,17.3783-19.46132Z" fill="#9a780f"/>
        <path id="path218" d="M471.274,775.04687c9.50359-.522,18.26921,7.06461,19.45267,16.41053,1.74143,10.64635-7.57318,21.33321-18.31872,21.23873-11.641.53995-21.80158-11.82532-18.54822-23.12408,1.65591-8.08154,9.27409-14.07518,17.41427-14.52511Zm39.24284-105.20371c33.53709-5.38168,68.99108,5.98464,93.65454,29.20773,17.94527,17.01351,30.72917,40.04757,33.92853,64.68362,2.38943,24.12309-12.60394,48.75907-35.37749,57.241-29.88773,13.04473-67.64112-6.16461-75.12432-37.70323-4.48182-22.56614-23.399-41.672-46.384-44.95233-23.39-4.27926-48.65642,8.518-59.02852,29.91418-5.46275,9.96689-6.79472,21.64823-6.00274,32.83905-6.76321-34.86837,4.8553-72.50864,29.65826-97.82862a110.87117,110.87117,0,0,1,64.67576-33.40151m70.2285,80.10866c-9.76908.32848-18.28274,9.6654-17.37827,19.46132-.36,11.67681,12.85594,21.07223,23.804,17.1485,9.51713-2.28138,15.69084-13.31924,12.955-22.65616-2.02944-8.428-10.75455-14.76811-19.38071-13.95366Z" fill="#92426d"/>
        <path id="path220" d="M977.23246,786.82495c13.9044-3.50532,27.14284,12.44628,20.91509,25.51346-4.71128,13.22022-24.69944,15.69056-32.4076,3.92827C957.37483,806.0073,964.264,788.78232,977.23246,786.82495Z" fill="#deb814"/>
        <path id="path222" d="M90.78359,787.26369c13.62543-3.35681,26.30589,11.64529,21.2616,24.52805A18.83594,18.83594,0,0,1,94.85142,824.4c-10.09307.74242-19.60117-8.43246-19.25919-18.55686-.378-8.77,6.49773-17.22944,15.19136-18.57937Zm1692.49071-108.655a127.6005,127.6005,0,0,1,16.64482-7.54606v43.08491c-5.11626,6.52459-5.3953,16.50054,0,22.95764V864.2c-35.89947-19.12839-59.231-59.401-58.0791-100.056C1742.12346,731.449,1757.3868,698.79,1783.2743,678.60869ZM0,671.45413c24.73545-7.357,53.37224,5.16567,64.81525,28.29428,11.18652,20.71225,7.1547,48.20114-9.3236,64.95813-12.59947,12.34274-19.82616,30.56666-17.01828,48.21459C40.62878,832.297,53.99321,849.80092,71.934,857.31546c18.12974,8.203,39.79182,4.78769,55.94163-6.27715-34.1738,30.7894-88.08151,36.04282-127.87332,13.218V737.20639c5.89025,7.978,18.35472,9.73742,26.12589,3.51431,8.11766-5.70115,9.96258-18.15643,3.89684-25.97245-6.47523-10.1244-23.507-10.31562-30.02273-.24746V671.44741Z" fill="#1f0414"/>
        <path id="path224" d="M292.474,795.56563c24.67246-3.64477,50.82534,1.3364,72.08693,14.40365,12.63995,9.07149,21.89156,23.0296,23.993,38.55819,3.71233,22.12514-7.73068,45.82974-27.27782,56.78657-16.65831,9.9489-38.18089,9.9984-55.24416.97642-26.99436-13.0312-62.54735.342-74.28285,27.89385-11.36652,23.4301-3.22186,53.50179,17.53576,68.8864-46.25354-26.33691-66.69617-88.5412-46.06455-137.46677,14.2419-37.1948,49.72739-65.07059,89.25371-70.03831m37.70389,42.55395c-9.77357,1.32295-17.48626,11.1773-15.83481,21.04971,1.17445,9.09394,9.69258,16.766,19.01618,16.127,10.66006.315,19.87566-10.3404,18.17923-20.80672C350.814,844.27972,340.235,836.20272,330.17792,838.11958Z" fill="#024f81"/>
        <path id="path226" d="M1301.82617,814.10456c29.14082-19.26337,67.60961-23.61459,100.29625-11.27631,42.53218,15.06513,73.62588,58.02851,73.28834,103.33183-1.43544,25.82847-22.436,49.137-48.32791,52.09789-26.78738,4.6527-54.74475-13.79169-61.84093-39.83164-2.48843-9.409-2.44339-19.5963-7.20865-28.32133-10.49809-23.83506-39.20689-37.44225-64.34282-30.60717-23.63306,5.37721-41.78967,27.68684-42.63572,51.88188-2.01137-38.37823,18.57078-76.61687,50.7713-97.27515m115.87009,69.91678c-11.875.67494-20.87012,14.31818-15.96081,25.39647,4.67984,14.06166,26.02235,16.25755,33.26258,3.20829C1443.71407,900.48584,1432.14953,882.199,1417.69612,884.02134Z" fill="#4db28e"/>
        <path id="path230" d="M330.18245,838.12184c10.05708-1.91686,20.63612,6.16015,21.36061,16.37,1.69642,10.4664-7.51917,21.12174-18.17924,20.80673-9.3236.639-17.84172-7.0331-19.01618-16.127C312.69622,849.29914,320.40888,839.44472,330.18245,838.12184Zm34.383-28.15029c31.17468,17.216,52.35529,50.847,55.47816,86.24636,4.7473,41.249-16.30282,84.02348-51.50032,105.90563-35.17051,22.9801-83.88543,23.871-119.2562.94943-20.75761-15.3846-28.90227-45.45629-17.53575-68.88639,11.73551-27.55185,47.28849-40.92505,74.28285-27.89385,17.06327,9.022,38.58584,8.97248,55.24415-.97642,19.54718-10.95683,30.99019-34.66144,27.27783-56.78657-2.10142-15.52859-11.353-29.48671-23.993-38.55819M281.93548,938.95628c-9.62509.198-17.98574,9.04-17.79224,18.6514-.0855,9.175,7.32569,17.79644,16.52331,18.68738,10.79953,1.61091,21.75209-8.023,20.89712-19.05183.27447-10.25491-9.5081-19.20933-19.62817-18.28688Z" fill="#850133"/>
        <path id="path238" d="M1045.57332,877.73074c10.813-1.20595,21.48656,8.92744,20.04212,19.96982-.04051,11.66328-13.32846,20.6313-24.2,16.5815a18.77159,18.77159,0,0,1-13.16642-17.53093C1027.83506,887.15322,1036.00669,878.27076,1045.57332,877.73074ZM957.14083,753.76316c23.246-10.39436,53.17872-3.79774,68.33413,17.153,16.36577,20.25332,15.29032,51.85936-2.09693,71.14072-6.74971,7.852-16.5638,12.56328-22.07156,21.56721-17.58074,23.06564-12.53645,59.47744,10.723,76.88238,17.36027,14.11116,43.12163,15.92,62.47982,4.86418-31.86312,22.03965-76.14576,23.69561-110.64129,6.39414-36.47094-17.62095-61.48987-56.2916-62.52933-96.79817-1.9079-40.46159,20.18617-81.63409,55.80213-101.20342m20.09163,33.05952C964.264,788.78005,957.37483,806.005,965.74,816.26441c7.70816,11.76229,27.69632,9.292,32.4076-3.92827C1004.3753,799.2689,991.13686,783.31736,977.23246,786.82268Z" fill="#f2d4f3"/>
        <path id="path240" d="M620.22889,893.37853c17.15325-14.28213,42.88317-16.694,62.39434-5.93968a55.96262,55.96262,0,0,1,27.11132,33.172c5.86775,18.35438.93146,39.30515-11.74451,53.67729-13.04042,14.81761-17.35127,36.5603-10.678,55.1622,6.04326,18.61989,22.778,33.046,41.91574,36.81229,16.20833,3.52778,33.42455-1.14292,46.53254-11.05584-21.65307,21.77422-53.14727,32.74-83.647,31.10215-32.94764-1.34993-64.47775-18.69637-84.15095-45.01529-33.38408-43.24241-28.58728-111.08936,12.26647-147.91737m34.29978,24.861c-11.64549.53995-20.50113,13.4317-16.41528,24.465,2.70891,8.49549,12.163,14.61513,21.03662,12.59472,11.479-1.4039,18.92171-15.13708,14.0709-25.626a18.72594,18.72594,0,0,0-18.69224-11.43382Z" fill="#e1cd3f"/>
        <path id="path242" d="M1417.69626,884.01908c14.45341-1.82239,26.018,16.4645,17.30177,28.60476-7.24024,13.04919-28.58274,10.85336-33.26258-3.2083C1396.82614,898.33718,1405.82123,884.694,1417.69626,884.01908Zm-124.00347-24.52352c25.13592-6.83508,53.84473,6.77212,64.34282,30.60718,4.76525,8.72495,4.72035,18.91237,7.20865,28.32133,7.09618,26.03995,35.05355,44.48434,61.84093,39.83163,25.89189-2.96084,46.89246-26.26941,48.3279-52.09789,1.503,30.98062-12.09543,61.84431-34.23,83.29451-26.71089,26.21092-67.09217,37.08227-103.42365,28.46078-48.52593-10.54288-86.8508-56.6246-86.70235-106.53559.84591-24.195,19.00266-46.50474,42.63572-51.88188m13.15749,35.72334c-10.05261.027-19.14671,9.40442-18.15221,19.53334-.26106,9.11646,7.72168,16.84248,16.47385,17.936,11.74,1.60638,23.02554-10.19188,20.51458-21.88222C1324.323,901.88308,1315.79593,895.039,1306.85028,895.219Z" fill="#3c162a"/>
        <path id="path244" d="M1306.88846,895.21217c8.94565-.18,17.47274,6.66411,18.83622,15.58709,2.51095,11.69033-8.77468,23.48859-20.51459,21.88221-8.75216-1.09341-16.73476-8.8195-16.47385-17.936C1287.74175,904.61659,1296.83584,895.23915,1306.88846,895.21217Z" fill="#4db28e"/>
        <path id="path248" d="M53.48468,909.36384c28.69528-5.17466,59.04649,14.81761,64.61275,43.53037,5.11628,21.94072-4.49531,46.54519-23.57,58.699-6.91621,5.17467-15.65034,6.73607-22.886,11.31682-20.27164,11.38885-31.48967,36.56484-26.55338,59.28842,5.00379,29.24372,35.77349,49.99647,64.80626,44.65984-38.63086,10.79933-82.648-2.14859-109.86284-31.49811V940.79446a110.68405,110.68405,0,0,1,53.45323-31.47559m6.68671,37.1948C49.98832,947.95361,42.34315,959.03191,44.971,969.0978c1.98441,9.283,11.8435,16.17654,21.2661,14.33163C76.07822,982.06824,83.5524,971.76389,81.703,961.977c-1.43994-9.82064-11.65-17.43646-21.53159-15.45656Z" fill="#822f9d"/>
        <path id="path250" d="M654.52867,918.22832a18.726,18.726,0,0,1,18.69224,11.43381c4.85081,10.48884-2.59191,24.222-14.0709,25.626-8.87362,2.0204-18.32771-4.09924-21.03662-12.59473-4.08585-11.03332,4.76979-23.92507,16.41528-24.465Zm-34.30205-24.852c21.49556-22.16565,53.34522-33.262,84.00243-31.62411,30.9767,1.31842,60.88695,16.622,80.56455,40.50657,26.5759,31.35413,33.38857,77.85434,17.0138,115.553a107.2843,107.2843,0,0,1-26.0494,37.39728c-13.10792,9.91292-30.3242,14.58361-46.53254,11.05584-19.13772-3.7663-35.87248-18.19241-41.91573-36.81229-6.67323-18.6019-2.36238-40.3446,10.67805-55.16221,12.676-14.37214,17.61226-35.32291,11.7445-53.67728a55.96272,55.96272,0,0,0-27.11132-33.172c-19.51116-10.75435-45.24108-8.34251-62.39434,5.93968m119.28992,99.06156c-9.71961.342-18.37722,9.175-17.75625,19.03837-.216,9.20647,7.50568,17.28794,16.47378,18.40841,9.28759,1.08,18.73721-5.56163,20.50113-14.80861C761.71409,1003.58381,751.279,991.47952,739.51654,992.44242Z" fill="#50140e"/>
        <path id="path252" d="M1530.86656,931.49125c28.0833-18.54787,70.42652-4.77424,81.86047,27.04335,3.72132,8.82849,3.40191,18.80884,7.63174,27.47536,10.489,25.167,40.94829,39.57066,67.03367,31.36313,24.245-6.53812,42.03273-31.05264,40.60183-56.15661l.414.06749c3.15884,36.29033-12.208,73.60659-40.49376,96.65871-31.89017,27.01191-79.4216,33.62652-117.42252,16.181-36.74991-16.019-63.63629-52.99336-66.19215-93.15792a56.39279,56.39279,0,0,1,26.57136-49.47451m25.96385,29.45525c-11.26751,1.89441-18.66525,15.57809-13.37789,25.92742,3.8158,9.64741,16.69425,14.39912,25.68041,8.96348,8.82412-4.28372,12.712-16.1225,8.09521-24.78-3.33888-7.64507-12.37448-11.6858-20.39759-10.11087Z" fill="#4a94c6"/>
        <path id="path254" d="M281.93323,938.94955c10.12008-.92245,19.90264,8.032,19.62817,18.28689.855,11.02885-10.09759,20.66274-20.89712,19.05182-9.1976-.89093-16.60878-9.51242-16.5233-18.68737-.19349-9.61144,8.16715-18.45339,17.79224-18.65141Z" fill="#024f81"/>
        <path id="path256" d="M1769.24384,1019.101c-.59392-28.89279,11.08309-57.448,30.71565-78.48877v155.19572c-18.95322-20.78427-31.01268-48.35411-30.71565-76.70688Z" fill="#822f9d"/>
        <path id="path258" d="M1669.68557,944.743c13.702-2.25439,25.67588,14.04813,19.10166,26.39095-5.07574,12.37425-23.45756,14.61959-31.53464,4.03174C1647.695,964.47428,1655.52465,945.7194,1669.68557,944.743Z" fill="#4a94c6"/>
        <path id="path260" d="M60.17139,946.56537C70.053,944.59,80.263,952.20356,81.703,962.02646c1.84942,9.7824-5.62476,20.08682-15.46584,21.45474-9.4226,1.84491-19.28169-5.04867-21.2661-14.33163-2.62789-10.06589,5.01728-21.14425,15.20035-22.58413Zm-6.68671-37.1948c41.32175-11.55081,88.47975,4.05426,115.2401,37.47823,24.88394,29.9367,32.38962,73.04859,18.75521,109.55939-12.172,34.333-42.10923,61.89381-77.59021,70.4568-29.03277,5.3367-59.80247-15.41605-64.80626-44.65984-4.93629-22.72365,6.28174-47.89964,26.55338-59.28842,7.23569-4.58075,15.96982-6.14215,22.886-11.31682,19.0747-12.15379,28.68629-36.75832,23.57-58.699-5.56626-28.71276-35.91748-48.7051-64.61276-43.53037m44.06663,143.33889c-9.95807,1.23293-17.75174,11.5688-15.84832,21.5087,1.44443,10.20541,12.45547,17.93143,22.56654,15.25408,10.471-1.9619,17.53125-14.19218,13.65242-24.27606C115.19054,1056.98419,106.13243,1051.328,97.54679,1052.70946Z" fill="#f19bbe"/>
        <path id="path262" d="M1120.01146,958.05089c27.01238-11.88828,59.087-11.77582,86.28838-.315,36.795,14.68262,64.11322,50.32048,68.72563,89.65714,7.26715,48.5881-22.00852,100.56-68.226,117.98286-29.30725,10.68233-64.3203-7.82056-72.17244-37.87872-7.46071-24.74852,4.78331-53.24081,27.67833-65.08412,15.93376-7.72155,27.88981-23.20064,30.86862-40.69559a56.13879,56.13879,0,0,0-12.25747-46.24369c-14.21941-17.52647-39.56682-24.51906-60.90493-17.42293m65.57117,135.64438c-9.57555,1.41743-16.99128,11.43835-15.2768,21.00474,1.035,10.19189,11.794,17.88192,21.81051,15.91556,8.23912-1.16545,14.54336-8.55846,15.50641-16.64453C1209.13928,1102.13666,1197.33181,1091.09435,1185.5827,1093.6952Z" fill="#3189e8"/>
        <path id="path266" d="M1556.85294,960.95323c8.02311-1.57493,17.0587,2.46587,20.39758,10.11087,4.61681,8.65746.72891,20.49624-8.0952,24.78-8.98617,5.43564-21.86462.68393-25.68042-8.96348-5.28722-10.3494,2.11039-24.03308,13.3779-25.92742Zm-11.23607-77.26935c38.99981-32.39358,100.02627-32.93353,139.55039-1.15645,24.38,18.72789,40.6242,47.96261,42.84719,78.69577,1.43091,25.104-16.35685,49.6185-40.60182,56.15662-26.08538,8.20753-56.54465-6.19613-67.03367-31.36313-4.22983-8.66645-3.91028-18.64687-7.63174-27.47536C1601.31327,926.72374,1558.97,912.95,1530.88675,931.498a56.39292,56.39292,0,0,0-26.57137,49.47452l-.44547.027c-3.0689-36.74933,12.92349-74.29952,41.74476-97.31566m124.13846,61.06137c-14.16091.97642-21.99054,19.73129-12.433,30.42268,8.07722,10.58785,26.4589,8.34252,31.53465-4.03174C1695.429,958.79338,1683.455,942.49085,1669.75313,944.74518Z" fill="#080a08"/>
        <path id="path270" d="M739.5188,992.44008c11.76249-.963,22.19755,11.14132,19.21867,22.63817-1.76392,9.24691-11.21355,15.88857-20.50113,14.80861-8.9681-1.1204-16.68979-9.20194-16.47378-18.40841C721.14158,1001.615,729.7992,992.78208,739.5188,992.44008Z" fill="#e1cd3f"/>
        <path id="path272" d="M1136.45825,992.93506c12.649-1.38145,23.78144,12.48672,19.13772,24.519-3.84732,14.03467-23.921,17.36-32.51561,5.94414-9.53958-10.97036-1.08-30.05817,13.378-30.46319Z" fill="#3189e8"/>
        <path id="path274" d="M822.14656,1048.95668c14.78635-22.9801,47.0635-32.37106,71.574-19.82584,26.4004,11.65429,39.19783,45.49681,27.69186,71.83818-7.64967,16.69849-6.83074,37.11378,2.91139,52.79527,8.03664,14.10217,22.913,23.72259,38.78833,26.48535,21.2976,3.81121,43.84615-6.03415,56.13061-23.74511-19.25018,37.03283-61.24686,60.12539-102.77562,58.19507a112.72756,112.72756,0,0,1-86.67529-46.50014c-24.96943-33.90994-28.61426-82.55208-7.6452-119.24285m43.94963,12.34728c-13.504,1.86289-20.25368,19.82584-11.317,30.15717,8.03217,10.73183,26.94935,8.53147,31.72813-4.25674C893.03661,1074.45209,880.05462,1058.00558,866.09626,1061.30389Z" fill="#456074"/>
        <path id="path278" d="M394.61972,1056.1c14.3544-8.72948,32.33112-11.51483,48.373-5.99364,18.44021,5.95314,33.19508,22.12068,37.17743,41.10954,5.02177,20.86975-3.69434,43.79588-20.53265,56.89012-21.67109,18.53893-24.95593,53.91581-7.19069,76.14,15.87532,22.00814,47.59,28.14584,71.385,15.94708-41.56024,29.63974-103.43261,24.339-139.86533-11.36633-20.82961-19.41634-33.91508-47.02663-35.184-75.51892-2.71337-37.33878,15.24086-75.61793,45.835-97.20766m29.52773,28.61829c-11.263.31048-20.50113,12.45074-17.15326,23.38959,2.2139,9.62042,12.95495,16.244,22.54406,13.54416,9.2066-2.05185,16.04633-11.89281,14.07539-21.24773-1.125-9.20194-10.31356-16.469-19.46615-15.68609Z" fill="#973a44"/>
        <path id="path280" d="M97.55131,1052.714c8.58564-1.38145,17.64375,4.27473,20.37064,12.48672,3.87884,10.08388-3.18137,22.31416-13.65242,24.27606-10.11107,2.67735-21.12211-5.04867-22.56654-15.25408C79.79957,1064.28279,87.59324,1053.94692,97.55131,1052.714Z" fill="#822f9d"/>
        <path id="path282" d="M866.08719,1061.29723c13.95843-3.29831,26.94036,13.1482,20.41112,25.90043-4.77878,12.78821-23.696,14.98857-31.72813,4.25674C845.83359,1081.123,852.5833,1063.16012,866.08719,1061.29723ZM822.13756,1048.95c17.86425-35.0574,56.17559-58.312,95.40947-58.97794,40.46677-1.9034,80.77156,20.71678,100.69222,55.91363,19.54269,33.27552,20.51466,77.13436.99443,110.61244-12.28446,17.711-34.833,27.55631-56.13061,23.74511-15.87533-2.7629-30.7517-12.38332-38.78834-26.48535-9.74205-15.68156-10.56105-36.09685-2.91139-52.79534,11.50605-26.34144-1.29145-60.18389-27.69185-71.83818-24.51049-12.54522-56.78757-3.15433-71.574,19.82584m147.92,57.29953a18.87517,18.87517,0,0,0-15.22283,12.36973c-4.34683,10.79933,4.17133,24.27606,15.88885,24.843,11.37552,1.52543,22.139-9.56646,20.29864-20.81125-.91793-9.99387-10.98854-18.06188-20.96459-16.40153Z" fill="#95a3ac"/>
        <path id="path284" d="M1360.7737,1100.68113c28.00227-31.5161,74.86782-45.20878,115.17262-32.34854,20.72606,8.104,35.976,28.88826,36.039,51.35992,1.43091,27.34038-20.39319,53.24081-47.47293,56.82709-12.685,2.87536-25.08649-2.97437-37.77145-1.39038-23.94355,2.35341-45.09257,21.54469-49.2234,45.33031-5.81371,26.112,10.35857,53.91121,35.031,63.34721-49.94791-13.26519-85.29383-65.07965-80.49712-116.41926a113.37643,113.37643,0,0,1,28.71773-66.70848m91.67454,2.02486c-10.90305,1.56594-18.35023,14.16513-14.24193,24.50107,2.78986,8.21652,11.695,13.83219,20.3167,12.40577,9.02667-1.28244,16.50983-9.82744,16.08688-19.02938-.054-10.96582-11.24046-20.46026-22.16151-17.87746Z" fill="#8a028b"/>
        <path id="path288" d="M424.14972,1084.71833c9.15259-.78293,18.34124,6.48409,19.46619,15.6861,1.97093,9.35491-4.8688,19.19587-14.0754,21.24772-9.58907,2.69987-20.33012-3.92374-22.544-13.54416-3.34787-10.93884,5.89024-23.07911,17.15326-23.38959ZM394.622,1056.1c24.62745-18.84934,57.66056-25.887,87.98927-19.96082,32.61912,6.16015,62.03438,27.57884,77.61721,56.93509,27.93481,48.76806,11.506,117.29667-36.39445,147.11864-23.795,12.19876-55.50964,6.06107-71.385-15.94707-17.76524-22.22415-14.4804-57.601,7.19069-76.14,16.83827-13.09423,25.55442-36.02036,20.53265-56.89011-3.98235-18.98887-18.73722-35.15641-37.17743-41.10955-16.04183-5.52119-34.01855-2.73584-48.373,5.99365M494.88226,1171.5067c-9.86359.96742-17.75624,10.83983-16.3343,20.68519.86847,8.9275,8.89162,16.54552,17.91825,16.73447,11.02452.7874,21.1446-10.02992,19.30419-20.97329-.81446-9.94437-11.01552-18.01238-20.88811-16.44651Z" fill="#072600"/>
        <path id="path290" d="M1185.61868,1093.69527c11.749-2.60086,23.55644,8.44153,22.04011,20.27577-.96291,8.086-7.26714,15.47908-15.5064,16.64453-10.01664,1.96636-20.77564-5.72368-21.81051-15.91556C1168.6274,1105.13355,1176.04313,1095.1127,1185.61868,1093.69527Zm-65.60722-135.64438c21.33811-7.09606,46.68559-.10348,60.90486,17.42292a56.13883,56.13883,0,0,1,12.25748,46.2437c-2.97882,17.495-14.93487,32.974-30.86863,40.69559-22.895,11.8433-35.139,40.3356-27.67833,65.08411,7.85215,30.05824,42.86519,48.56113,72.17245,37.8788-47.36953,22.26465-108.97639,3.01035-137.16543-40.83058a112.21623,112.21623,0,0,1-18.9217-64.78263c.19349-43.60239,28.56482-85.87284,69.30156-101.71191m16.4468,34.88643c-14.45788.405-22.91754,19.49284-13.378,30.46319,8.59465,11.41583,28.66829,8.09054,32.51561-5.94414,4.64386-12.03226-6.48873-25.90043-19.13772-24.519Z" fill="#433409"/>
        <path id="path292" d="M1452.45731,1102.706c10.921-2.58287,22.10754,6.91157,22.1615,17.87746.423,9.20194-7.0602,17.74694-16.08687,19.02938-8.62157,1.42642-17.52671-4.18925-20.3167-12.40577-4.1083-10.33587,3.33887-22.93513,14.24193-24.50107Zm23.50247-34.3734c48.44943,12.95924,83.485,62.1953,80.72205,112.17384-1.14747,36.4028-21.41914,71.51424-52.3913,90.68313-26.8548,17-61.32789,22.27372-91.72865,12.61718-24.67247-9.43586-40.84475-37.23524-35.031-63.34721,4.13082-23.78562,25.28-42.9769,49.22339-45.33031,12.685-1.58386,25.08649,4.26574,37.77145,1.39038,27.07988-3.58628,48.904-29.48671,47.47293-56.82709-.063-22.47166-15.31292-43.25593-36.039-51.35992m-45.17359,144.16013a19.102,19.102,0,0,0-16.69879,15.84353c-1.692,10.60584,7.26715,21.76069,18.22417,21.34667,9.87712.684,19.24119-8.131,18.97122-18.05289C1452.09711,1220.75422,1441.5,1211.04824,1430.78605,1212.49272Z" fill="#5d6d23"/>
        <path id="path296" d="M970.05533,1106.24956c9.97606-1.66042,20.04666,6.40759,20.9646,16.40153,1.8404,11.2448-8.92313,22.33668-20.29865,20.81125-11.71752-.567-20.23561-14.04366-15.88885-24.843a18.87513,18.87513,0,0,1,15.22283-12.36972Z" fill="#456074"/>
        <path id="path300" d="M216.92225,1125.4409c31.03518-3.81127,63.36632,6.56058,86.67981,27.33139,5.81375,7.93756,11.67251,16.24849,13.81891,26.06693,5.88125,22.21069-3.85185,47.50821-23.11553,59.99041-18.8677,13.11675-45.78555,12.66222-64.32926-.882-13.26994-10.1064-31.11618-14.14267-47.34249-9.98487-17.43226,3.89222-32.34013,16.892-39.04034,33.39245-8.60813,20.13632-3.55485,44.41685,11.164,60.35033-20.91962-17.71549-34.31105-43.90835-37.33042-71.10475-4.5673-34.47687,8.60814-70.6682,33.90607-94.44929a110.72911,110.72911,0,0,1,65.58922-30.71065m45.13759,47.81863c-10.34506.41842-19.37168,10.38544-17.86874,20.74369a19.08563,19.08563,0,0,0,13.8909,16.31152c9.4136,2.77636,20.15914-3.48726,22.76-12.86023,3.93733-11.6948-6.43923-25.06806-18.7822-24.19512Z" fill="#830384"/>
        <path id="path302" d="M44.66055,1142.42736c31.57517,34.47248,36.92994,89.3827,13.36444,129.61469-12.649,22.94865-33.84306,40.38511-57.99354,49.947V1232.17c22.931-.738,44.7641-16.1315,51.9548-38.09927,6.32223-17.126,2.56939-36.59175-7.3257-51.58492Z" fill="#2b9a40"/>
        <path id="path304" d="M626.35989,1174.03793c41.77175-33.48246,107.73444-29.44173,145.51255,8.46405,27.23285,25.41452,40.03028,65.10657,33.00613,101.64889-4.83282,26.43138-19.27717,51.36885-40.87173,67.577-19.76769,13.70613-48.26948,13.23814-66.96618-2.15539-21.63508-16.18546-27.7323-48.89859-13.92691-71.99115,5.28729-10.52043,16.06881-16.685,21.57657-27.0209a56.34759,56.34759,0,0,0-31.09816-81.82758c-15.63233-5.27821-33.03758-2.81687-47.23,5.30511m104.21559,112.71819a18.93748,18.93748,0,0,0-16.0283,11.8523c-4.08585,9.4989,1.44443,21.22528,11.11,24.55956,11.61851,4.67523,26.07192-5.40865,24.98295-18.09793C751.06535,1294.58574,740.78781,1285.6717,730.57775,1286.75612Z" fill="#edf83b"/>
        <path id="path308" d="M.03145,1156.714c8.05466,1.035,15.73583,6.83514,17.16677,15.12809,2.63689,10.70484-6.23674,22.15219-17.16677,22.51664Z" fill="#2b9a40"/>
        <path id="path310" d="M1780.156,1175.5004c-.333-10.53841,9.55757-19.14184,19.82619-18.72342v37.56824C1789.50658,1195.32171,1779.53046,1186.03428,1780.156,1175.5004Z" fill="#2b9a40"/>
        <path id="path314" d="M494.87546,1171.56314c9.87258-1.56587,20.07364,6.50214,20.88811,16.44651,1.8404,10.94337-8.27963,21.76068-19.30419,20.97329-9.0266-.189-17.04978-7.807-17.91825-16.73447-1.422-9.84536,6.47074-19.71777,16.3343-20.6852Z" fill="#973a44"/>
        <path id="path316" d="M262.05533,1173.25054c12.343-.87295,22.71954,12.50031,18.7822,24.19511-2.60088,9.373-13.34643,15.63659-22.76,12.86024a19.08562,19.08562,0,0,1-13.8909-16.31153c-1.50293-10.35838,7.52369-20.32527,17.86875-20.74369Zm55.36114,5.57962c-2.1464-9.81844-8.00516-18.12938-13.81891-26.06694,30.8552,26.328,44.96208,70.36679,35.55749,109.76648-8.13115,36.75379-36.03448,68.52187-71.682,80.85109-37.75339,14.05713-83.035,5.68769-112.72021-21.6842-14.71888-15.93348-19.77217-40.21414-11.164-60.35032,6.70021-16.50048,21.60809-29.50023,39.04033-33.39246,16.22631-4.1578,34.07255-.12153,47.3425,9.98488,18.5437,13.54423,45.46157,13.99863,64.32926.882,19.26367-12.48219,28.99677-37.77972,23.11552-59.99041M192.468,1264.23962c-12.84695,1.7864-20.16364,18.36337-12.316,28.91071,7.31668,12.2438,27.73683,10.26844,32.69561-3.03287,6.47522-12.7523-6.40773-29.18068-20.37964-25.878Z" fill="#0b265c"/>
        <path id="path318" d="M1675.64787,1224.77236c17.62572-26.3369,58.07-31.38564,81.784-10.56533,11.24953,11.11887,26.53539,17.98547,42.47368,17.86394V1321.845c-42.62665,16.442-94.7705,3.86531-124.27344-31.24159-13.40042-19.33986-14.0214-46.68017.018-65.83108m42.66716,14.2237c-7.79364.99448-14.06643,7.798-15.41179,15.39353-1.674,9.51689,5.17022,19.60983,14.71433,21.3512,11.27657,2.79434,23.35855-7.24011,22.48105-18.87187C1740.4293,1245.84906,1729.0268,1236.65611,1718.31723,1238.99606Z" fill="#2b9a40"/>
        <path id="path320" d="M654.55119,1203.51125c12.77944-1.56134,23.92549,12.49125,19.2727,24.71707-4.13082,14.56109-25.84691,17.22045-33.45607,4.29718C632.0702,1221.42915,640.9393,1204.05573,654.55119,1203.51125Z" fill="#edf83b"/>
        <path id="path322" d="M1430.74581,1212.51071c10.7141-1.44448,21.31106,8.2615,20.4966,19.13731.27,9.92184-9.0941,18.73688-18.97121,18.05289-10.957.414-19.91613-10.74083-18.22417-21.34667A19.102,19.102,0,0,1,1430.74581,1212.51071Z" fill="#8a028b"/>
        <path id="path326" d="M1126.78362,1217.34784c27.84038-5.02169,57.1431,14.22369,63.45187,41.74842,7.57764,27.16042-8.94565,58.141-35.85,66.78944-18.62474,5.76418-33.84757,21.24326-38.46438,40.2861-5.30974,20.14085,1.86293,43.067,17.94527,56.39507,12.29345,10.87128,29.4557,15.30812,45.60561,12.98616-34.923,9.22-73.93637-.8459-100.80476-24.843-34.69356-29.71624-47.59-81.74657-30.70673-124.20384,12.69849-34.1079,43.07667-61.52937,78.82315-69.16084m6.6102,37.00125c-10.80851,1.02592-19.07022,13.15273-15.60082,23.556,2.19594,9.454,13.00445,15.59608,22.32355,13.22016,9.33262-1.97536,16.18128-12.16279,14.02146-21.5267-1.23289-9.57991-11.33954-16.712-20.74412-15.24962Z" fill="#7cef18"/>
        <path id="path330" d="M1718.39605,1239.05909c10.70957-2.33981,22.11207,6.85313,21.7836,17.87286.87749,11.63176-11.20448,21.66621-22.48106,18.87187-9.5441-1.74137-16.3883-11.83431-14.71433-21.3512C1704.32976,1246.85713,1710.60241,1240.05343,1718.39605,1239.05909ZM.03145,1111.17677c16.96428,6.86659,32.8126,17.17547,44.6291,31.28663,9.89509,14.993,13.64793,34.459,7.3257,51.58493-7.1907,21.96763-29.02377,37.3613-51.9548,38.09926v-37.74374c10.93-.36445,19.80366-11.81179,17.16677-22.51664-1.43094-8.32452-9.11211-14.06165-17.16677-15.18658v-45.52386ZM1732.908,1107.442c22.031-5.66517,45.727-3.93273,67.05619,3.77976V1156.804c-10.26862-.41842-20.1592,8.185-19.82619,18.72342-.6255,10.53389,9.35062,19.82131,19.82619,18.84482v37.7528c-15.93829.12153-31.22416-6.74506-42.47368-17.86393-23.71394-20.82032-64.15826-15.77158-81.784,10.56533-14.03939,19.1509-13.41841,46.49121-.018,65.83107-27.61983-30.35972-35.58005-76.58989-20.42918-114.64191,12.69842-33.6625,42.67623-60.13439,77.64876-68.57591Z" fill="#c6c8f7"/>
        <path id="path332" d="M1133.42087,1254.35814c9.40458-1.46246,19.51117,5.66971,20.74405,15.24962,2.16,9.36391-4.68883,19.55134-14.02139,21.5267-9.3191,2.37592-20.12768-3.7663-22.32355-13.22016-3.46933-10.40343,4.79231-22.53009,15.60082-23.556Zm-6.61019-37.00124c43.70217-11.91973,93.49257,7.501,118.7275,44.97478,22.184,31.44414,26.48142,74.68209,10.35857,109.70344-13.738,31.47106-42.79323,56.09819-76.39774,63.52725-16.14977,2.32182-33.31209-2.11488-45.60554-12.98616-16.08234-13.32823-23.255-36.25436-17.94527-56.39507,4.61681-19.04284,19.83964-34.52192,38.46432-40.2861,26.90437-8.64847,43.42766-39.62916,35.85-66.78944-6.30876-27.52487-35.61149-46.77025-63.4518-41.74856m40.76833,144.08131c-14.70993,1.41742-21.19859,21.78321-10.49356,31.64216,8.83758,9.61136,26.96288,6.11957,30.82826-6.66858,5.6562-12.54069-6.96573-27.68691-20.3347-24.97345Z" fill="#201329"/>
        <path id="path334" d="M192.46578,1264.25761c13.97191-3.30285,26.85486,13.12567,20.37963,25.878-4.95879,13.30117-25.37892,15.27653-32.6956,3.03286-7.84767-10.54734-.531-27.1243,12.316-28.91071Z" fill="#830384"/>
        <path id="path338" d="M480.70106,1275.1694c37.83438,17.252,63.48781,57.56957,63.84327,99.07508,1.035,32.83905-13.59391,65.69609-38.40136,87.16428-31.85416,28.35278-80.84358,36.4028-119.54866,18.0934-21.83306-11.48332-35.05352-37.67618-29.21728-62.01973,5.30978-27.62388,33.81156-48.10213,61.75088-43.90382,8.94561.69745,16.97779,5.38614,25.92341,6.11064,21.64407,2.71333,44.13412-8.50455,55.02814-27.39441,15.78985-25.62147,6.29075-61.78574-19.37617-77.12544m-71.31747,135.7344c-8.53166,1.206-15.84381,9.04889-15.65032,17.81889-.60749,9.92637,7.92866,19.65034,18.09824,19.35331,11.5735.94052,21.73859-11.15031,18.86771-22.39071-1.67394-9.56646-11.73551-16.66252-21.3156-14.78163Z" fill="#45a619"/>
        <path id="path340" d="M1012.016,1277.08173c13.34645,17.792,20.33016,40.16,20.8386,62.35727,1.458,38.47717-19.02971,76.7294-51.52733,97.26162a110.389,110.389,0,0,1-55.27118,17.64793c-37.55538,2.38032-75.9478-16.136-97.15086-47.24264-14.63791-24.55956-7.55965-59.338,16.69432-75.08252,22.71952-16.41945,57.22858-11.75329,74.84084,10.08842,16.4963,20.15431,47.26152,25.93648,69.927,13.18418,27.54334-14.12016,37.80736-51.88189,21.6486-78.21426m-136.08551,82.55208c-13.54441.64349-22.26059,17.85488-14.14739,28.97828,6.92068,11.50584,25.64443,11.0064,31.81368-.918,8.20314-12.21222-3.42436-29.90519-17.66623-28.06029Z" fill="#d86307"/>
        <path id="path342" d="M730.57549,1286.75626c10.21005-1.08443,20.4876,7.82948,20.06464,18.31393,1.089,12.68927-13.36444,22.77316-24.98295,18.09793-9.66556-3.33429-15.19585-15.06053-11.11-24.55956A18.93757,18.93757,0,0,1,730.57549,1286.75626Zm-104.21107-112.752c14.19243-8.122,31.59768-10.58332,47.23-5.30512a56.3476,56.3476,0,0,1,31.09816,81.82759c-5.50776,10.33586-16.28929,16.50047-21.57658,27.0209-13.80538,23.09256-7.70816,55.80569,13.92692,71.99115,18.6967,15.39353,47.19849,15.86152,66.96617,2.15539-19.70918,16.86053-46.10505,25.05446-71.87548,24.861a113.07672,113.07672,0,0,1-85.06889-40.98355c-21.4236-25.608-30.24771-61.09282-23.606-93.77889,5.3863-26.73734,20.55064-51.96291,42.9057-67.78845m28.18684,29.50476c-13.6119.54448-22.48106,17.9179-14.18337,29.01425,7.60916,12.92327,29.32525,10.26391,33.45607-4.29718C678.47675,1216.00031,667.33077,1201.94771,654.55126,1203.509Z" fill="#ad9055"/>
        <path id="path344" d="M962.65313,1287.09365a19.10162,19.10162,0,0,1,19.07468,14.47568c2.68639,9.724-4.29279,20.45134-13.99441,22.58421-11.01106,3.04632-23.0975-6.52906-22.958-17.927C944.36585,1296.41266,952.866,1287.45371,962.65313,1287.09365Z" fill="#d86307"/>
        <path id="path346" d="M448.97739,1305.09257c9.51708-1.64688,19.11519,5.48062,20.87011,14.82214,2.83037,11.22228-7.26718,23.36707-18.8677,22.40418-9.65657.23852-18.27371-8.518-18.09824-18.10246C432.08508,1314.87943,439.88775,1306.25349,448.97739,1305.09257Z" fill="#45a619"/>
        <path id="path350" d="M104.481,1313.4171c33.15459,9.724,60.59893,36.07433,72.39744,68.46338,15.92483,41.48752,3.93283,91.871-29.19926,121.56014-28.65478,26.83634-72.06894,37.09572-109.44885,24.64058-28.61879-11.03332-43.63015-47.08966-30.38721-74.93847,9.71958-23.21862,36.417-37.6358,61.1749-32.71752,16.52331,3.91475,34.932.80992,48.409-9.78686,16.5728-12.13573,25.09993-34,21.42359-54.18132-2.89338-19.19581-16.81129-35.3814-34.36955-43.0354m-47.878,143.78882c-9.94458,1.25992-17.81024,11.51037-15.85282,21.50417,1.35894,8.9319,9.86808,16.325,19.02969,15.71761,10.57455.216,19.65517-10.46192,18.04873-20.86975C76.79821,1463.5371,66.62864,1455.46,56.60306,1457.21045Z" fill="#2cb7b3"/>
        <path id="path354" d="M80.41154,1347.50261c10.92554-2.2408,22.02206,7.29408,21.79258,18.33193.31049,9.91292-8.59464,19.04283-18.55272,18.84482-9.98957.42747-18.98469-8.626-18.8632-18.5434C64.39672,1357.141,71.64591,1348.893,80.41154,1347.50261Z" fill="#2cb7b3"/>
        <path id="path358" d="M875.94179,1359.6518c14.24186-1.8449,25.86937,15.84807,17.66622,28.06029-6.16924,11.92425-24.89293,12.42369-31.81368.918-8.11313-11.12327.603-28.33479,14.14739-28.97828Zm-27.23286-104.15527a112.33814,112.33814,0,0,1,77.82872-25.6709c33.60459,1.5884,66.52517,19.38037,85.48738,47.27422,16.15883,26.33238,5.89474,64.09411-21.6486,78.21426-22.66555,12.7523-53.4307,6.97013-69.927-13.18417-17.61226-21.84171-52.12126-26.50788-74.84085-10.08842-24.254,15.74452-31.33215,50.523-16.69432,75.08252-12.802-17.144-19.82618-38.52674-20.70814-59.87341-2.10139-34.71087,13.69291-69.75488,40.50281-91.754m113.94639,31.61511c-9.78709.35992-18.2872,9.319-17.87777,19.13292-.13952,11.39777,11.947,20.97329,22.958,17.927,9.70161-2.13287,16.68079-12.86024,13.99441-22.5842A19.10166,19.10166,0,0,0,962.65532,1287.11178Z" fill="#216ab1"/>
        <path id="path360" d="M1167.61945,1361.3392c13.369-2.71332,25.9909,12.43276,20.33469,24.97345-3.86538,12.78828-21.99054,16.28007-30.82825,6.66858-10.705-9.859-4.21638-30.22474,10.49356-31.64217Z" fill="#7cef18"/>
        <path id="path364" d="M1432.43324,1399.47444c26.54885,18.11139,43.71563,48.7636,46.699,80.63523,3.4648,31.93012-8.06816,64.90855-30.10374,88.16315-36.16944,39.88567-102.31215,47.32366-145.83883,15.335-14.99336-12.71619-23.858-33.13155-20.31217-52.79081,3.08236-22.39072,21.14463-41.70353,43.27922-46.24816,15.43431-3.85171,31.67869.48144,45.02061,8.54946,28.3578,14.72766,66.64216-.69745,77.15371-30.83664,8.39663-21.72471,1.48048-47.53966-15.89778-62.80727m-94.86045,121.26779c-7.81616.57592-15.42538,6.05667-17.21622,13.88616-3.14539,10.07042,4.1668,21.51323,14.44888,23.35814,10.54753,2.38485,21.58558-6.16008,22.39111-16.82895,1.017-10.78133-8.77907-21.16677-19.62363-20.41522Z" fill="#30ed37"/>
        <path id="path366" d="M409.37909,1410.9487c9.58008-1.88088,19.64166,5.21517,21.31559,14.78163,2.87088,11.24026-7.2942,23.33109-18.8677,22.39072-10.16958.297-18.7057-9.42694-18.09825-19.35332-.19349-8.77,7.1187-16.61294,15.65032-17.81889Zm-60.17146-110.91832c32.16915-35.72334,88.58776-46.79264,131.48443-24.81155,25.66692,15.33957,35.166,51.504,19.37618,77.12544-10.894,18.88986-33.38408,30.10774-55.02815,27.39442-8.94562-.72451-16.97779-5.41319-25.92341-6.11064-27.93931-4.19831-56.4411,16.28007-61.75088,43.90381-5.83624,24.34356,7.38418,50.53642,29.21728,62.01974-36.71846-15.13263-62.92533-51.85484-66.71865-91.22747-3.82033-31.83565,7.66769-64.84113,29.33874-88.29375m99.76526,5.12069c-9.0896,1.16091-16.89228,9.78686-16.09584,19.12386-.17549,9.58444,8.44164,18.34085,18.09825,18.10246,11.60052.96289,21.69807-11.18177,18.8677-22.40418C468.08362,1310.63182,458.48551,1303.50418,448.96843,1305.15107Z" fill="#370584"/>
        <path id="path368" d="M541.48223,1452.23381c23.885-28.19527,62.56084-43.37294,99.2208-37.79771a57.61207,57.61207,0,0,1,34.37408,22.7597c13.27442,18.55685,13.63894,45.30325.34646,63.9322-7.30765,11.35286-19.24118,19.14637-32.1151,22.77769-12.61294,3.22635-26.22937-.09448-38.43734,5.2197-25.17644,8.77453-41.42075,37.04175-35.88147,63.2077,3.95982,21.88675,21.83309,39.81357,43.37369,44.79928-43.25666-4.65724-81.541-37.54119-93.524-79.25378-11.03354-36.08778-2.27239-77.2964,22.643-105.64465m84.79438-1.25538c-13.60743,1.49391-21.1311,19.44779-12.05046,29.96368,8.46866,12.07724,29.42426,8.041,32.86661-6.37608C651.15168,1462.05239,639.06971,1448.49923,626.27674,1450.97856Z" fill="#c860af"/>
        <path id="path372" d="M1723.00833,1416.9109c24.074,41.80253,15.94282,99.00752-18.59769,132.697-29.90118,31.37658-78.81862,42.21641-119.2562,26.76438-24.41594-9.03544-46.006-26.58-58.3131-49.67253-9.12568-18.4849-7.0602-41.90593,5.40423-58.357,11.09654-15.23163,30.40076-24.24908,49.23245-22.48519,17.95419.98088,34.482,11.64975,44.08915,26.65645,16.72584,24.18605,53.23268,30.36865,77.09521,13.25174,22.09408-14.35415,30.54921-44.74985,20.34362-68.85941m-147.35749,66.41606c-9.48561.59844-17.5447,9.56192-16.96423,19.06988-.396,11.38431,11.82545,20.83378,22.724,17.85487,9.67456-1.93938,16.72584-12.44621,14.24633-22.16111-1.70542-9.03091-10.93451-15.74453-20.00622-14.76364Z" fill="#0bc7e7"/>
        <path id="path374" d="M1667.99814,1420.84816c10.12457-1.97536,20.82068,6.0207,21.70257,16.30246,1.49847,10.56986-7.69917,21.22527-18.4627,20.87428-9.76012.37351-19.09275-8.221-18.8722-18.11592C1651.70885,1430.806,1659.012,1422.081,1667.99814,1420.84816Z" fill="#0bc7e7"/>
        <path id="path376" d="M1392.15989,1423.998c14.35894-3.72126,27.24178,13.54862,20.32563,26.28747-5.36371,13.07171-25.62644,14.60613-32.68211,2.18683C1372.22577,1441.94751,1379.502,1425.6224,1392.15989,1423.998Z" fill="#30ed37"/>
        <path id="path378" d="M986.82834,1522.317c17.25227-47.66119,69.74251-79.5957,120.03242-71.38378a56.24495,56.24495,0,0,1,41.06976,79.49217c-8.81966,19.11039-29.28028,32.35307-50.40685,31.975-8.29316.08555-16.78427-.85949-24.821,1.69646-22.36852,5.67863-39.88184,26.346-41.51977,49.42947-3.04637,26.48535,15.71336,52.48486,41.12826,59.58545-42.59521-6.682-78.99865-40.85309-89.29419-82.61951-5.66527-22.41763-4.59429-46.58116,3.81134-68.17542m106.51047-34.44543c-9.87258,1.76842-17.26579,12.69381-14.48939,22.49866,2.11492,9.823,13.05842,17.09,22.931,14.01661,9.7286-2.24986,16.3298-13.25627,13.47244-22.89908C1112.886,1492.19116,1102.8514,1485.63958,1093.33881,1487.87145Z" fill="#8534fb"/>
        <path id="path380" d="M626.26987,1450.99641c12.793-2.47933,24.875,11.07383,20.81615,23.5876-3.44235,14.41718-24.39795,18.45346-32.86661,6.37609C605.13877,1470.4442,612.66251,1452.49032,626.26987,1450.99641Zm14.42636-36.54232c36.60593,3.53684,70.17,27.88039,86.40985,60.71491,19.08821,37.01484,15.12836,84.66243-10.32259,117.73548-23.36748,32.25406-65.03575,49.89306-104.42707,44.24135-21.5406-4.98571-39.41384-22.91267-43.37366-44.79929-5.53928-26.16594,10.70507-54.43316,35.88151-63.20769,12.208-5.31418,25.82439-1.99335,38.43733-5.21971,12.87392-3.63131,24.80745-11.42482,32.11511-22.77768,13.29241-18.629,12.928-45.37535-.34647-63.9322a57.61246,57.61246,0,0,0-34.37408-22.7597m-19.40316,148.986c-8.98162,1.1789-16.35678,10.03445-15.62787,19.14184-.19348,9.95343,9.37307,18.79538,19.27717,18.02144,8.88262-.12153,16.59978-7.37962,17.90922-16.03248,2.0339-11.92426-9.62059-23.49766-21.55858-21.1308Z" fill="#0b25b8"/>
        <path id="path384" d="M56.60305,1457.18354c10.02557-1.75043,20.19514,6.32664,21.22559,16.352,1.60644,10.40782-7.47418,21.08575-18.04873,20.86975-9.16161.60751-17.67075-6.78557-19.02969-15.71761C38.7928,1468.69377,46.65847,1458.44346,56.60305,1457.18354Zm1702.3903-41.50551c1.0394-31.51157,16.55473-62.00174,40.93483-81.88608v174.06079c-26.99432-22.08023-43.09465-57.232-40.9347-92.17251ZM.018,1334.12042c28.2858-23.9835,69.13507-32.00208,104.44957-20.6223,17.55826,7.654,31.47617,23.83959,34.36954,43.0354,3.67634,20.18122-4.85079,42.04545-21.42359,54.18118-13.47692,10.59692-31.88565,13.70174-48.409,9.78686-24.75794-4.91814-51.45531,9.4989-61.1749,32.71752-13.24294,27.84881,1.76842,63.90515,30.38721,74.93847C24.18647,1524.40032,11.218,1516.97126.018,1507.82322V1334.12234m80.38009,13.40472c-8.76562,1.39037-16.01482,9.63841-15.62333,18.63334-.1215,9.91745,8.87362,18.97088,18.86319,18.5434,9.95808.198,18.8632-8.9319,18.55272-18.84482C102.42015,1354.82113,91.32362,1345.28626,80.39808,1347.52706Z" fill="#e3e4f5"/>
        <path id="path388" d="M171.90166,1526.36689c15.30385-31.29556,46.12754-54.65371,80.53759-60.33234,11.299-.64348,22.976,1.09788,32.8801,6.799,19.46166,10.16037,31.39516,32.81653,28.97429,54.60427a55.91868,55.91868,0,0,1-27.20586,43.01741c-7.58668,4.87778-16.72128,6.09266-24.81644,9.8319a55.94516,55.94516,0,0,0-28.99227,33.10449c-8.11766,23.02967,1.30045,50.96843,21.90956,64.16167,10.74105,7.62254,24.29448,10.59238,37.32142,9.49436l.018.42748c-48.88591,9.28289-101.70467-17.87739-122.00107-63.40571-14.30489-30.53522-14.0934-67.64,1.37245-97.7027m83.57946-22.71466c-15.62334,1.62437-21.44609,24.16353-8.57663,33.244,9.6161,8.02751,26.1439,3.01035,29.37025-9.19747,4.65731-12.51831-7.77117-26.81836-20.79361-24.04654Z" fill="#a60e22"/>
        <path id="path390" d="M816.75806,1476.41986c48.05793-18.39935,106.84795,2.83485,132.9244,47.02223a112.33091,112.33091,0,0,1,16.49177,53.27226c3.28484,48.24617-28.92028,96.97819-75.28632,111.48985-29.14075,8.401-62.12889-11.26278-68.74362-40.81712-5.82278-22.08023,3.62232-47.06714,22.544-59.80585,7.0692-4.80114,15.46583-7.4605,21.95456-13.14366,22.32808-17.306,27.24185-52.21942,10.84456-75.096-12.631-19.60077-38.36984-28.70377-60.7339-22.9216m57.845,138.78293c-9.28759.8415-17.11275,9.70144-16.48731,19.05189-.14851,9.25145,7.92417,17.87286,17.24327,18.05742,11.44755,1.52536,21.95456-9.99394,19.90268-21.21621C894.05122,1621.44854,884.27319,1613.79455,874.59856,1615.20292Z" fill="#d915bf"/>
        <path id="path394" d="M1575.63958,1483.39438c9.07158-.98088,18.30066,5.7326,20.00622,14.76364,2.47937,9.71491-4.57177,20.22174-14.24633,22.16112-10.89852,2.97876-23.12-6.47056-22.724-17.85487-.58047-9.508,7.47863-18.47144,16.96423-19.06989Zm10.3046-118.75907c50.36634-19.31733,112.65274,4.14874,137.05289,52.34535,10.20559,24.10956,1.75046,54.50526-20.34362,68.85941-23.86253,17.11691-60.36937,10.93431-77.09521-13.25174-9.60713-15.00656-26.135-25.67543-44.08915-26.65645-18.83169-1.76389-38.13591,7.25356-49.23245,22.48519-12.46442,16.451-14.5299,39.87208-5.40422,58.357-17.60773-28.38875-19.98809-65.40812-7.92864-96.43824,11.299-30.3372,36.61039-54.8292,67.03821-65.70062m81.95508,56.21957c-8.98616,1.23287-16.28929,9.958-15.63233,19.06083-.22055,9.89492,9.11208,18.48943,18.8722,18.11591,10.76353.351,19.96117-10.30442,18.4627-20.87428C1688.71761,1426.87531,1678.02164,1418.87925,1667.89707,1420.85475Z" fill="#bd5e12"/>
        <path id="path396" d="M1093.33881,1487.89411c9.51259-2.23187,19.54715,4.31971,21.91405,13.61619,2.85736,9.643-3.74384,20.64921-13.47244,22.89908-9.87258,3.07338-20.81615-4.19378-22.931-14.01662C1076.073,1500.58792,1083.46623,1489.66253,1093.33881,1487.89411Zm13.522-36.93835c55.95059,5.37268,101.0882,59.23446,97.92029,115.19312-.77849,34.1035-18.48976,67.154-45.99712,87.19573-24.49243,17.94949-56.63459,25.77444-86.47281,19.78986-25.4149-7.10059-44.17463-33.1-41.12825-59.58545,1.63792-23.08364,19.15117-43.75084,41.51976-49.42947,8.03664-2.55581,16.52781-1.61091,24.821-1.69646,21.12664.37805,41.58726-12.86477,50.40685-31.975a56.24494,56.24494,0,0,0-41.06976-79.49216m-22.06709,148.95235c-9.98505,1.26445-18.23324,11.67228-16.01032,21.72471,1.26894,8.986,10.0301,16.41507,19.19622,15.50614,10.70957.135,19.73164-10.7904,17.79222-21.28377C1104.66476,1605.95147,1094.59869,1598.39182,1084.7936,1599.90825Z" fill="#bc35fb"/>
        <path id="path398" d="M255.48561,1503.64317c13.02245-2.77182,25.45093,11.52836,20.79361,24.04653-3.22636,12.20783-19.75416,17.225-29.37025,9.19748-12.86946-9.08048-7.04671-31.61964,8.57663-33.244Zm-3.04186-37.61768c42.90566-8.716,89.3887,11.35726,113.44018,47.72861,21.27508,31.4171,25.32042,73.8811,9.40009,108.439-14.57937,33.50052-46.618,59.06349-82.774,64.84566-13.02695,1.09788-26.58038-1.87182-37.32142-9.49437-20.60913-13.19324-30.02722-41.132-21.90956-64.16166a55.94514,55.94514,0,0,1,28.99227-33.10449c8.09516-3.73925,17.22976-4.95427,24.81644-9.8319a55.919,55.919,0,0,0,27.20586-43.01741c2.4209-21.78774-9.51259-44.4439-28.97427-54.60427-9.90408-5.70115-21.58109-7.44252-32.8801-6.799m31.39517,146.4549c-13.01795,1.30043-20.62262,18.05289-12.93695,28.65433,7.2717,12.88729,28.93827,10.56533,33.24009-3.65823,5.43577-12.67567-6.96119-27.55178-20.30314-24.996Z" fill="#41846a"/>
        <path id="path400" d="M827.5126,1512.53016c16.03284-3.8697,29.21725,17.06748,18.49422,29.66227-7.48769,10.96136-26.10337,9.57992-31.57515-2.66828-6.01174-10.52935,1.30945-24.89257,13.08093-26.99385Z" fill="#d915bf"/>
        <path id="path402" d="M1337.48724,1520.62962c10.84456-.75142,20.64065,9.63389,19.62363,20.41522-.8054,10.66887-11.84344,19.2138-22.39111,16.829-10.28208-1.84491-17.59427-13.28772-14.44888-23.35814,1.791-7.82949,9.40006-13.31024,17.21622-13.88617Zm-74.41329-73.539c16.15883-39.70564,56.67057-67.68491,99.50884-68.8189a109.38782,109.38782,0,0,1,69.765,21.09468c17.37826,15.26761,24.29441,41.08256,15.89777,62.80727-10.51154,30.13918-48.7959,45.5643-77.15371,30.83664-13.34191-8.068-29.5863-12.40131-45.02061-8.54946-22.13459,4.54477-40.19686,23.85757-43.27921,46.24815-3.54583,19.65927,5.3188,40.07463,20.31217,52.79081-43.63461-28.21779-61.11641-89.09913-40.03029-136.40933m129.032-23.15559c-12.65791,1.62437-19.93413,17.94948-12.35649,28.4743,7.05567,12.4193,27.31841,10.88488,32.68212-2.18683C1419.34771,1437.48362,1406.46486,1420.2136,1392.10593,1423.93486Z" fill="#3d0413"/>
        <path id="path408" d="M621.2976,1563.37706c11.938-2.36686,23.59249,9.2064,21.55859,21.1308-1.30944,8.653-9.0266,15.91109-17.90922,16.03248-9.9041.77394-19.47066-8.068-19.27717-18.02144-.729-9.10739,6.64624-17.96294,15.62787-19.14184Z" fill="#c860af"/>
        <path id="path410" d="M72.98685,1573.50145c29.38825,27.86227,41.02026,72.38719,29.61324,111.17937C90.42811,1730.056,47.023,1764.67256.03144,1766.21138v-108.421c25.35642,17.08547,63.5193,7.852,78.33268-18.94382C90.6891,1618.7013,87.66073,1591.65335,72.98685,1573.50145Z" fill="#141395"/>
        <path id="path412" d="M27.36779,1591.72544c14.1159-2.64137,26.44537,14.12922,19.44817,26.84994-5.59776,12.11774-24.60046,14.3856-31.89465,2.65482C6.11069,1610.67833,13.98985,1593.14287,27.36779,1591.72544Z" fill="#141395"/>
        <path id="path414" d="M1084.80046,1599.8249c9.80509-1.51643,19.87116,6.04308,20.97813,15.94707,1.93941,10.49338-7.08273,21.41876-17.79223,21.28378-9.16612.90892-17.92721-6.52014-19.19621-15.50614C1066.56723,1611.49717,1074.81541,1601.08935,1084.80046,1599.8249Z" fill="#8534fb"/>
        <path id="path418" d="M283.83441,1612.42423c13.34191-2.55582,25.73891,12.32029,20.30314,24.996-4.30182,14.22369-25.9684,16.54551-33.24009,3.65822-7.68568-10.6013-.081-27.3539,12.93695-28.65433Z" fill="#a60e22"/>
        <path id="path420" d="M874.60309,1615.23656c9.67456-1.40836,19.45267,6.24563,20.65864,15.8931,2.05188,11.22228-8.45513,22.74158-19.90268,21.21622-9.3191-.18443-17.39178-8.806-17.24327-18.05742C857.49028,1624.938,865.3155,1616.07806,874.60309,1615.23656Zm-57.845-138.78292c22.36406-5.78217,48.103,3.32083,60.7339,22.9216,16.39729,22.87669,11.48352,57.79-10.84456,75.096-6.48873,5.68316-14.88536,8.34252-21.95456,13.14367-18.9217,12.73871-28.3668,37.72575-22.544,59.80585,6.61472,29.55419,39.60279,49.218,68.74362,40.81711-28.86179,11.15485-62.69584,8.023-89.90617-6.61008-40.73228-20.87428-64.97726-68.41394-58.745-113.67448,5.18375-41.177,34.81049-78.66879,74.51683-91.502m10.75908,36.05634c-11.77149,2.10142-19.09268,16.4645-13.08094,26.99385,5.47178,12.2482,24.08746,13.62965,31.57515,2.66828,10.723-12.59479-2.46138-33.532-18.49421-29.66227Z" fill="#e5d7dc"/>
        <path id="path422" d="M1186.96857,1637.39767c11.578-10.51136,27.47138-16.8965,43.21618-15.11463,17.81482,1.00341,34.70256,11.56887,43.78759,26.86793,11.64556,18.81337,10.50262,44.4439-2.73136,62.16831-9.58915,11.81633-14.79081,27.50235-12.6174,42.72039,1.97993,20.28929,16.17682,38.40974,35.04,45.90169H1199.127c-24.497-19.36677-39.89983-49.857-41.29929-81.03565-1.66038-29.57672,8.73856-59.90046,29.14082-81.50817m35.96249,22.30516c-8.61717,1.269-16.09579,9.373-15.65938,18.23745-.82792,11.42029,11.31255,21.49525,22.418,18.53434,10.66906-1.88542,17.94527-14.31365,13.79193-24.49654A18.72751,18.72751,0,0,0,1222.93106,1659.7027Z" fill="#c41bfc"/>
        <path id="path424" d="M471.99394,1629.74808c48.54395-5.83161,99.01379,23.94752,116.10631,69.93477,8.84664,27.39441-6.57874,59.8914-33.99156,69.31834-26.06289,10.64182-58.358-2.30837-70.26451-27.68238-12.361-25.26594-44.9261-37.88326-70.935-26.66085-26.79188,9.82737-41.55574,41.65849-33.18609,68.69738-15.60085-36.67731-8.41466-81.44061,16.63129-112.25473a113.17584,113.17584,0,0,1,75.63728-41.35253m59.33,68.22485c-8.90061,1.269-16.3208,9.99394-15.65032,19.06535-.189,9.841,9.1526,18.45346,18.8722,18.10686,8.44614.09448,16.19031-6.34464,18.00374-14.52965,3.41986-12.3023-8.76113-25.257-21.22562-22.6427Z" fill="#aeb1af"/>
        <path id="path426" d="M1707.259,1675.30785c10.13363-25.03648,39.92674-39.45366,65.90872-32.11908,10.14256,2.40737,18.64726,8.67552,26.80536,14.85812v108.17355c-30.84624,1.75043-62.38541-9.92184-84.15541-31.93465-13.11245-16.334-17.3648-39.61117-8.55867-58.97794m48.4585,3.83372c-13.70637,1.7459-20.60014,19.88434-11.398,30.23819,8.35612,11.47426,28.27679,7.77552,32.24117-5.75072,4.98127-12.73871-7.58217-27.31793-20.84306-24.48747Z" fill="#141395"/>
        <path id="path430" d="M1222.967,1659.67139a18.72757,18.72757,0,0,1,20.55057,12.27525c4.15334,10.1829-3.12287,22.61112-13.79193,24.49654-11.10547,2.96077-23.24594-7.114-22.418-18.53434C1206.87124,1669.04437,1214.34987,1660.94038,1222.967,1659.67139Zm-35.96249-22.30516c21.73855-24.80248,55.32961-38.67066,88.24572-36.78524,33.26258,1.0619,65.3012,18.34538,85.09594,44.9973,32.1287,41.60452,28.92028,105.74366-7.69024,143.60893a83.91227,83.91227,0,0,1-17.34228,10.72283h-41.61417c-18.86314-7.49208-33.06017-25.6124-35.04-45.90169-2.17342-15.218,3.02839-30.9042,12.6174-42.72039,13.234-17.72441,14.37692-43.35494,2.73136-62.16831-9.08517-15.29906-25.97291-25.86439-43.78759-26.86793-15.7448-1.78187-31.63818,4.60327-43.21618,15.11464m124.62225,91.655a18.91153,18.91153,0,0,0-15.54239,14.75018c-2.74935,11.16377,7.1187,23.20517,18.69217,22.44015,10.489.14405,19.60111-10.03884,18.23777-20.41522-.71546-10.23686-11.173-18.75487-21.38755-16.775ZM1293.85249,0h40.83583c-12.94149,5.28268-27.81332,4.90021-40.80877,0Z" fill="#215430"/>
        <path id="path432" d="M1755.74442,1679.13264c13.26089-2.83032,25.82446,11.74877,20.84306,24.48747-3.96439,13.52625-23.885,17.225-32.24117,5.75073-9.20217-10.35386-2.30841-28.4923,11.398-30.2382Zm-30.37372-113.98936A111.87181,111.87181,0,0,1,1800,1541.66814v116.36309c-8.1581-6.18259-16.66281-12.45074-26.80537-14.85811-25.98183-7.33459-55.77508,7.08259-65.90871,32.11907-8.80613,19.36678-4.55378,42.6439,8.55867,58.97794-25.127-23.78109-37.59142-59.99933-33.03312-94.26034a112.16161,112.16161,0,0,1,42.55923-74.871ZM.03145,1541.5197c27.10235,1.3949,53.73222,12.72525,72.9554,31.975,14.67388,18.1519,17.70225,45.19985,5.37727,65.3451-14.81337,26.79583-52.97625,36.02929-78.33268,18.94382V1541.52189m27.33634,50.18556c-13.37793,1.41743-21.2571,18.95289-12.44647,29.50476,7.29419,11.73078,26.29688,9.46292,31.89464-2.65482C53.81316,1605.83667,41.48368,1589.06622,27.36778,1591.70745Z" fill="#213b34"/>
        <path id="path438" d="M1631.66226,1695.89417c23.858,28.18181,31.87672,68.88632,20.5551,104.00229H1522.03791c-5.40422-15.65-29.86973-15.6635-35.19746,0h-38.33833c2.24538-18.65133,14.26446-35.75492,31.24668-43.85438a56.42738,56.42738,0,0,1,55.9731,3.84732c8.3921,5.77764,14.74591,14.36761,24.37543,18.38136,23.372,11.88375,54.5422,4.40072,69.70654-17.07654C1644.37881,1742.65989,1644.24382,1715.45443,1631.66226,1695.89417Z" fill="#a98e08"/>
        <path id="path440" d="M140.043,1699.269c15.39834-4.18471,32.76311-2.09688,46.132,6.83515,17.87774,11.04238,28.2498,33.05052,25.37892,53.87084-1.66492,16.091-11.002,30.98508-24.353,40.025H64.31123c1.52543-44.79475,32.84861-87.20026,75.72729-100.7309m14.88086,35.16994a19.17671,19.17671,0,0,0-17.49076,14.46661c-2.47489,9.2785,3.59085,19.83037,12.89646,22.27372,10.27307,3.53684,22.53954-4.06772,23.80849-14.9346C176.56347,1745.04941,166.16891,1733.84059,154.91938,1734.439Z" fill="#8685eb"/>
        <path id="path444" d="M588.10025,1699.719c13.94491,32.02459,10.03009,70.43873-7.78019,100.218H387.81824a87.63211,87.63211,0,0,1-8.09518-16.54552c-8.36965-27.03889,6.39422-58.87,33.18609-68.69737,26.0089-11.22227,58.574,1.39491,70.935,26.66085,11.90647,25.374,44.20161,38.32419,70.26451,27.68237,27.41285-9.42694,42.83816-41.92392,33.99152-69.31833m-157.60582,48.68258c-10.25956,1.58386-17.87324,12.84678-14.96185,22.95318,1.89441,8.149,9.7826,14.45769,18.18823,14.2101,10.13806.33754,19.32667-9.19748,18.5707-19.30827.22051-10.92978-11.14151-20.00587-21.79708-17.85488Zm100.82272-50.3925c12.46445-2.61432,24.64544,10.34039,21.22561,22.6427-1.81342,8.185-9.5576,14.62412-18.00373,14.52964-9.71961.34646-19.0612-8.266-18.87221-18.10685-.67048-9.07142,6.74972-17.79637,15.65033-19.06536ZM387.63817.03584H580.35371c-18.4042,30.41368-51.73655,51.27443-87.2513,53.90227C451.42294,57.72688,409.10224,35.87169,387.63814.03584Z" fill="#a67ae1"/>
        <path id="path446" d="M1581.15188,1709.28089c10.43959-2.49732,21.72509,5.93062,22.18855,16.61294,1.557,10.58332-7.85667,20.84723-18.45817,20.55021a18.67425,18.67425,0,0,1-17.97218-13.13474c-3.79328-10.16944,3.6988-22.3546,14.24193-24.02855Z" fill="#a98e08"/>
        <path id="path448" d="M915.84388,1751.91586c10.14256-18.9798,31.63818-31.57913,53.26426-29.70717a55.47893,55.47893,0,0,1,40.19679,20.63122c12.98646,15.686,16.0373,38.33766,8.34267,57.11505H905.31887c.54449-16.46,2.94737-33.217,10.52508-48.0391m47.45048,7.717c-9.11662.972-16.85177,9.37751-16.53228,18.63788-.22048,8.08147,5.58878,15.52852,13.19793,17.94495,10.57005,3.51432,23.138-4.23868,24.11445-15.46562C986.08144,1769.16323,974.95345,1757.734,963.29443,1759.63288Z" fill="#bcf5d5"/>
        <path id="path450" d="M1311.61334,1729.07968c10.21452-1.9799,20.67209,6.53812,21.38755,16.775,1.36348,10.37637-7.7486,20.55927-18.23777,20.41522-11.57347.765-21.44165-11.27638-18.69217-22.44016a18.91189,18.91189,0,0,1,15.54239-14.75018Z" fill="#c41bfc"/>
        <path id="path452" d="M154.92613,1734.36681c11.24952-.59845,21.64409,10.61037,19.21419,21.80572-1.269,10.86689-13.53543,18.47145-23.8085,14.93461-9.3056-2.44335-15.37135-12.99522-12.89644-22.27372A19.1767,19.1767,0,0,1,154.92613,1734.36681Zm-14.88087-35.16994c41.20926-15.64112,90.99514-2.33088,120.16741,30.44514a112.78736,112.78736,0,0,1,29.23077,70.28576H187.20328c13.35093-9.04,22.688-23.93407,24.353-40.025,2.87088-20.82032-7.50118-42.82846-25.37892-53.8707-13.36894-8.9319-30.73369-11.01986-46.132-6.83515ZM187.25951.09873H289.37142c3.28937,49.911-30.96769,99.20556-79.10216,113.05572-11.19552,1.78639-22.93552,1.27793-33.48758-3.1633-21.4191-8.2885-36.27971-31.03464-35.01976-53.99226a55.7912,55.7912,0,0,1,23.849-44.21435C172.34938,7.02382,180.32529,4.522,187.255.09874m7.04669,39.35464c-9.11212,1.79539-16.21281,10.87585-14.97086,20.23078.72446,10.70036,12.10448,19.17786,22.60253,16.49152C211.437,74.37579,218.45667,64.1524,216.40475,54.64,215.0413,44.58308,204.22376,37.145,194.30169,39.45338Z" fill="#91fadb"/>
        <path id="path454" d="M430.50569,1748.42846c10.65557-2.15085,22.01756,6.92509,21.79708,17.85487.756,10.11094-8.43264,19.64581-18.5707,19.30828-8.40563.24745-16.29382-6.06107-18.18823-14.2101-2.91139-10.10641,4.70229-21.36919,14.96185-22.95319Z" fill="#aeb1af"/>
        <path id="path456" d="M963.29436,1759.67779c11.659-1.89888,22.787,9.53048,20.7801,21.1172-.97644,11.2268-13.5444,18.9798-24.11445,15.46563-7.60915-2.4163-13.41841-9.86335-13.19793-17.945C946.44259,1769.05515,954.17774,1760.64974,963.29436,1759.67779Zm18.8632-68.29695c36.47547-12.88729,79.20113-4.55823,108.62086,20.43321,25.61292,21.37825,41.14178,54.73472,40.06633,88.18568h-54.58717c-3.32089-.954-6.92068-1.44448-10.14709,0h-48.463c7.6947-18.7774,4.64379-41.429-8.34267-57.11505a55.47891,55.47891,0,0,0-40.19678-20.63122c-21.62609-1.87182-43.12171,10.72737-53.26427,29.70717,11.731-28.61382,37.254-50.667,66.31369-60.57993ZM1017.62734.04477h47.81047c-9.73759,2.89332-15.78084,14.39013-12.14047,23.97906,2.7764,8.54949,12.3295,14.18315,21.14462,12.37876,8.54515-1.51191,15.57837-9.62043,15.35336-18.3949.36-8.06352-5.51229-15.22709-12.86945-17.96292h53.96173c-.24746,15.81205-3.57734,31.82659-10.75454,45.99174-8.9186,14.9166-24.605,25.626-41.89775,27.87583a57.61876,57.61876,0,0,1-41.02924-10.83985c-18.97794-14.08866-27.38137-40.61007-19.51789-63.02772Z" fill="#50084c"/>
        <path id="path458" d="M771.44495,1761.36519c36.61492-4.48175,74.77781,10.48884,98.69431,38.53566H698.899c18.39974-21.10827,44.62457-35.48041,72.55043-38.53566ZM733.35408,84.4283c10.85356-2.20486,22.10308,7.22656,21.7836,18.2959.414,9.79142-8.19415,19.09236-18.10271,18.88088-10.0886.70645-19.67314-8.374-19.32668-18.55689-.4005-8.99046,6.88471-17.261,15.64586-18.61989ZM698.99807.07186H869.94584A93.26582,93.26582,0,0,1,884.75924,22.494c4.70683,12.40125,5.71478,26.57091,1.24642,39.19265-6.5922,21.06324-26.80084,37.01478-48.832,38.49518C815.80415,102.28322,794.115,90.54793,783.536,71.982c-15.03834-23.75857-48.84994-32.731-73.40986-18.78637-25.7164,12.77924-36.88043,46.41022-25.17644,72.36916C662.72062,86.35867,669.49286,33.77033,699.00033.06736m131.11318,25.365C820.0519,26.61576,811.97029,37.13613,814.0942,47.184c1.31844,9.44494,10.966,16.90549,20.46062,15.40708,10.957-.441,19.24565-12.74774,16.20833-23.13311C848.67076,30.54853,839.21214,24.00142,830.11351,25.43234Z" fill="#d1bbc2"/>
        <path id="path460" d="M1486.88082,1799.95043c5.32773-15.66351,29.79325-15.65005,35.19747,0Zm44.18363-144.6663c37.51493-4.67976,77.18076,10.8353,100.63818,40.664,12.58143,19.5604,12.71641,46.76572-1.85839,65.30006-15.16434,21.47726-46.33452,28.96028-69.70653,17.07654-9.62966-4.01376-15.98333-12.60373-24.37543-18.38136a56.42774,56.42774,0,0,0-55.97311-3.84732c-16.98222,8.09946-29.0013,25.203-31.24667,43.85438H1437.059c-9.65657-28.51935-5.55719-61.23687,8.99962-87.49276,17.02727-31.20561,49.70485-53.11475,85.00586-57.17354m50.03785,53.9833c-10.543,1.67395-18.03521,13.85911-14.24193,24.02855a18.67438,18.67438,0,0,0,17.97218,13.13474c10.6015.297,20.01514-9.96689,18.45817-20.55021-.46346-10.68232-11.749-19.11039-22.18855-16.61294ZM1486.83125.0449h34.87352c5.21526,10.55187-3.1274,24.15456-14.56588,25.44148C1493.599,27.78574,1481.37745,12.90513,1486.91227.0449Zm-50.19537,0h11.78948c-1.71448,14.33614,2.72243,28.73528,10.7726,40.53807C1448.61885,29.10866,1441.31119,14.86251,1436.63588.0449Z" fill="#04040c"/>
        <path id="path462" d="M1335.23734,1799.95043a83.91274,83.91274,0,0,0,17.34228-10.72284,68.01087,68.01087,0,0,1-11.677,10.72284Z" fill="#c41bfc"/>
        <path id="path464" d="M1066.115,1799.95043c3.22634-1.44448,6.8262-.954,10.14709,0Z" fill="#bcf5d5"/>
      </g>
    </g>
  </g>
</svg>
