<svg xmlns="http://www.w3.org/2000/svg" width="1800" height="1800" viewBox="0 0 1800 1800">
  <g id="Layer_2" data-name="Layer 2">
    <g id="Layer_1-2" data-name="Layer 1">
      <g id="Zigzag-Chevron-Pattern-190">
        <g>
          <polygon points="513.353 450.04 648.316 450.04 648.32 450.031 540.35 300.027 405.388 300.027 513.357 450.031 513.353 450.04" fill="#666"/>
          <polygon points="513.357 1050.029 405.427 900.082 270.465 900.082 378.395 1050.029 378.347 1050.095 513.309 1050.095 513.357 1050.029" fill="#69f"/>
          <polygon points="513.357 450.031 405.388 300.027 270.425 300.027 378.395 450.031 378.391 450.04 513.353 450.04 513.357 450.031" fill="#f4e6cc"/>
          <polygon points="513.357 750.028 405.401 600.056 270.438 600.056 378.395 750.028 378.369 750.067 513.331 750.067 513.357 750.028" fill="#dcdcdc"/>
          <polygon points="513.357 1350.026 405.449 1200.111 270.486 1200.111 378.395 1350.026 378.325 1350.123 513.287 1350.123 513.357 1350.026" fill="#c9e2e9"/>
          <polygon points="1458.095 1050.029 1458.049 1050.095 1593.011 1050.095 1593.058 1050.029 1485.127 900.082 1350.165 900.082 1458.095 1050.029" fill="#2f8cab"/>
          <polygon points="1458.091 450.04 1593.053 450.04 1593.058 450.031 1485.087 300.027 1350.125 300.027 1458.095 450.031 1458.091 450.04" fill="#f90"/>
          <polygon points="1458.095 750.028 1458.069 750.067 1593.031 750.067 1593.058 750.028 1485.103 600.056 1350.14 600.056 1458.095 750.028" fill="#ffab35"/>
          <polygon points="1188.166 450.04 1323.128 450.04 1323.132 450.031 1215.163 300.027 1080.2 300.027 1188.17 450.031 1188.166 450.04" fill="#69f"/>
          <polygon points="648.316 450.04 783.278 450.04 783.282 450.031 675.312 300.027 540.35 300.027 648.32 450.031 648.316 450.04" fill="#fe4902"/>
          <polygon points="783.278 450.04 918.241 450.04 918.245 450.031 810.275 300.027 675.312 300.027 783.282 450.031 783.278 450.04" fill="#ffab35"/>
          <polygon points="918.241 450.04 1053.203 450.04 1053.208 450.031 945.237 300.027 810.275 300.027 918.245 450.031 918.241 450.04" fill="#c60"/>
          <polygon points="1053.203 450.04 1188.166 450.04 1188.17 450.031 1080.2 300.027 945.237 300.027 1053.208 450.031 1053.203 450.04" fill="#fcf5eb"/>
          <polygon points="1323.128 450.04 1458.091 450.04 1458.095 450.031 1350.125 300.027 1215.163 300.027 1323.132 450.031 1323.128 450.04" fill="#dcdcdc"/>
          <polygon points="1593.058 450.031 1593.053 450.04 1728.016 450.04 1728.02 450.031 1620.05 300.027 1485.087 300.027 1593.058 450.031" fill="#ffc3ce"/>
          <polygon points="1593.058 750.028 1593.031 750.067 1727.994 750.067 1728.02 750.028 1620.065 600.056 1485.103 600.056 1593.058 750.028" fill="#206ba4"/>
          <polygon points="1593.058 1350.026 1592.989 1350.123 1727.952 1350.123 1728.02 1350.026 1620.111 1200.111 1485.149 1200.111 1593.058 1350.026" fill="#ffab35"/>
          <polygon points="1593.058 1050.029 1593.011 1050.095 1727.974 1050.095 1728.02 1050.029 1620.09 900.082 1485.127 900.082 1593.058 1050.029" fill="#c60"/>
          <polygon points="918.219 750.067 1053.181 750.067 1053.208 750.028 945.253 600.056 810.288 600.056 918.245 750.028 918.219 750.067" fill="#154890"/>
          <polygon points="783.282 1050.029 675.352 900.082 540.39 900.082 648.32 1050.029 648.272 1050.095 783.234 1050.095 783.282 1050.029" fill="#ffab35"/>
          <polygon points="783.256 750.067 918.219 750.067 918.245 750.028 810.288 600.056 675.326 600.056 783.282 750.028 783.256 750.067" fill="#fcf5eb"/>
          <polygon points="1053.181 750.067 1188.144 750.067 1188.17 750.028 1080.215 600.056 945.253 600.056 1053.208 750.028 1053.181 750.067" fill="#2f8cab"/>
          <polygon points="783.282 750.028 675.326 600.056 540.363 600.056 648.32 750.028 648.294 750.067 783.256 750.067 783.282 750.028" fill="#69f"/>
          <polygon points="810.315 900.082 675.352 900.082 783.282 1050.029 783.234 1050.095 918.199 1050.095 918.245 1050.029 810.315 900.082" fill="#f90"/>
          <polygon points="945.277 900.082 810.315 900.082 918.245 1050.029 918.199 1050.095 1053.161 1050.095 1053.208 1050.029 945.277 900.082" fill="#ffc3ce"/>
          <polygon points="1188.17 1050.029 1188.124 1050.095 1323.086 1050.095 1323.132 1050.029 1215.202 900.082 1080.24 900.082 1188.17 1050.029" fill="#f4e6cc"/>
          <polygon points="1080.24 900.082 945.277 900.082 1053.208 1050.029 1053.161 1050.095 1188.124 1050.095 1188.17 1050.029 1080.24 900.082" fill="#dcdcdc"/>
          <polygon points="1188.144 750.067 1323.106 750.067 1323.132 750.028 1215.178 600.056 1080.215 600.056 1188.17 750.028 1188.144 750.067" fill="#c60"/>
          <polygon points="675.374 1200.111 540.411 1200.111 648.32 1350.026 648.25 1350.123 783.212 1350.123 783.282 1350.026 675.374 1200.111" fill="#ffc3ce"/>
          <polygon points="540.411 1200.111 405.449 1200.111 513.357 1350.026 513.287 1350.123 648.25 1350.123 648.32 1350.026 540.411 1200.111" fill="#2f8cab"/>
          <polygon points="1323.132 1050.029 1323.086 1050.095 1458.049 1050.095 1458.095 1050.029 1350.165 900.082 1215.202 900.082 1323.132 1050.029" fill="#666"/>
          <polygon points="648.32 1050.029 540.39 900.082 405.427 900.082 513.357 1050.029 513.309 1050.095 648.272 1050.095 648.32 1050.029" fill="#c9e2e9"/>
          <polygon points="1350.186 1200.111 1215.224 1200.111 1323.132 1350.026 1323.064 1350.123 1458.027 1350.123 1458.095 1350.026 1350.186 1200.111" fill="#dcdcdc"/>
          <polygon points="1458.095 1350.026 1458.027 1350.123 1592.989 1350.123 1593.058 1350.026 1485.149 1200.111 1350.186 1200.111 1458.095 1350.026" fill="#154890"/>
          <polygon points="945.299 1200.111 810.336 1200.111 918.245 1350.026 918.177 1350.123 1053.139 1350.123 1053.208 1350.026 945.299 1200.111" fill="#fe4902"/>
          <polygon points="1080.261 1200.111 945.299 1200.111 1053.208 1350.026 1053.139 1350.123 1188.102 1350.123 1188.17 1350.026 1080.261 1200.111" fill="#206ba4"/>
          <polygon points="1215.224 1200.111 1080.261 1200.111 1188.17 1350.026 1188.102 1350.123 1323.064 1350.123 1323.132 1350.026 1215.224 1200.111" fill="#c60"/>
          <polygon points="810.336 1200.111 675.374 1200.111 783.282 1350.026 783.212 1350.123 918.177 1350.123 918.245 1350.026 810.336 1200.111" fill="#f4e6cc"/>
          <polygon points="1323.132 750.028 1323.106 750.067 1458.069 750.067 1458.095 750.028 1350.14 600.056 1215.178 600.056 1323.132 750.028" fill="#fe4902"/>
          <polygon points="648.32 750.028 540.363 600.056 405.401 600.056 513.357 750.028 513.331 750.067 648.294 750.067 648.32 750.028" fill="#f90"/>
          <polygon points="1800 0 1755.013 0 1800 62.503 1800 0" fill="#fcf5eb"/>
          <polygon points="0.5 0 0.5 150.012 108.47 150.012 0.5 0" fill="#fcf5eb"/>
          <polygon points="243.432 150.012 135.462 0 0.5 0 108.47 150.012 243.432 150.012" fill="#69f"/>
          <polygon points="378.395 150.012 270.425 0 135.462 0 243.432 150.012 378.395 150.012" fill="#ffab35"/>
          <polygon points="513.357 150.012 405.388 0 270.425 0 378.395 150.012 513.357 150.012" fill="#154890"/>
          <polygon points="648.32 150.012 540.35 0 405.388 0 513.357 150.012 648.32 150.012" fill="#dcdcdc"/>
          <polygon points="108.466 450.04 243.428 450.04 243.432 450.031 135.462 300.027 0.5 300.027 108.47 450.031 108.466 450.04" fill="#154890"/>
          <polygon points="108.47 450.031 0.5 300.027 0.5 450.04 108.466 450.04 108.47 450.031" fill="#206ba4"/>
          <polygon points="1800 150.012 1800 62.503 1755.013 0 1620.05 0 1728.02 150.012 1800 150.012" fill="#f90"/>
          <polygon points="0.5 600.034 0.5 600.056 0.513 600.056 0.5 600.034" fill="#fff" stroke="#000"/>
          <polygon points="783.282 150.012 675.312 0 540.35 0 648.32 150.012 783.282 150.012" fill="#c60"/>
          <polygon points="1728.02 150.012 1620.05 0 1485.087 0 1593.058 150.012 1728.02 150.012" fill="#666"/>
          <polygon points="1593.058 150.012 1485.087 0 1350.125 0 1458.095 150.012 1593.058 150.012" fill="#c9e2e9"/>
          <polygon points="918.245 150.012 810.275 0 675.312 0 783.282 150.012 918.245 150.012" fill="#206ba4"/>
          <polygon points="1053.208 150.012 945.237 0 810.275 0 918.245 150.012 1053.208 150.012" fill="#ffc3ce"/>
          <polygon points="1188.17 150.012 1080.2 0 945.237 0 1053.208 150.012 1188.17 150.012" fill="#fe4902"/>
          <polygon points="1458.095 150.012 1350.125 0 1215.163 0 1323.132 150.012 1458.095 150.012" fill="#2f8cab"/>
          <polygon points="1323.132 150.012 1215.163 0 1080.2 0 1188.17 150.012 1323.132 150.012" fill="#f4e6cc"/>
          <polygon points="108.47 1650.015 0.583 1500.139 0.5 1500.139 0.5 1650.151 108.373 1650.151 108.47 1650.015" fill="#c60"/>
          <polygon points="0.5 1500.025 0.5 1500.139 0.583 1500.139 0.5 1500.025" fill="#fff" stroke="#000"/>
          <polygon points="108.47 1050.029 0.54 900.082 0.5 900.082 0.5 1050.095 108.422 1050.095 108.47 1050.029" fill="#154890"/>
          <polygon points="0.5 900.025 0.5 900.082 0.54 900.082 0.5 900.025" fill="#fff" stroke="#000"/>
          <polygon points="108.47 750.028 0.513 600.056 0.5 600.056 0.5 750.067 108.444 750.067 108.47 750.028" fill="#ffc3ce"/>
          <polygon points="108.47 1350.026 0.562 1200.111 0.5 1200.111 0.5 1350.123 108.4 1350.123 108.47 1350.026" fill="#dcdcdc"/>
          <polygon points="0.5 1200.023 0.5 1200.111 0.562 1200.111 0.5 1200.023" fill="#fff" stroke="#000"/>
          <polygon points="1620.133 1500.139 1728.02 1650.015 1727.923 1650.151 1800 1650.151 1800 1562.519 1755.096 1500.139 1620.133 1500.139" fill="#206ba4"/>
          <polygon points="405.471 1500.139 270.508 1500.139 378.395 1650.015 378.298 1650.151 513.261 1650.151 513.357 1650.015 405.471 1500.139" fill="#f90"/>
          <polygon points="540.433 1500.139 405.471 1500.139 513.357 1650.015 513.261 1650.151 648.223 1650.151 648.32 1650.015 540.433 1500.139" fill="#dcdcdc"/>
          <polygon points="270.508 1500.139 135.546 1500.139 243.432 1650.015 243.336 1650.151 378.298 1650.151 378.395 1650.015 270.508 1500.139" fill="#ffc3ce"/>
          <polygon points="135.546 1500.139 0.583 1500.139 108.47 1650.015 108.373 1650.151 243.336 1650.151 243.432 1650.015 135.546 1500.139" fill="#2f8cab"/>
          <polygon points="675.396 1500.139 540.433 1500.139 648.32 1650.015 648.223 1650.151 783.186 1650.151 783.282 1650.015 675.396 1500.139" fill="#69f"/>
          <polygon points="1215.246 1500.139 1080.283 1500.139 1188.17 1650.015 1188.073 1650.151 1323.036 1650.151 1323.132 1650.015 1215.246 1500.139" fill="#fe4902"/>
          <polygon points="1350.208 1500.139 1215.246 1500.139 1323.132 1650.015 1323.036 1650.151 1457.998 1650.151 1458.095 1650.015 1350.208 1500.139" fill="#666"/>
          <polygon points="1485.171 1500.139 1350.208 1500.139 1458.095 1650.015 1457.998 1650.151 1592.961 1650.151 1593.058 1650.015 1485.171 1500.139" fill="#f4e6cc"/>
          <polygon points="1800 362.527 1800 300.027 1755.013 300.027 1800 362.527" fill="#206ba4"/>
          <polygon points="945.321 1500.139 810.358 1500.139 918.245 1650.015 918.148 1650.151 1053.111 1650.151 1053.208 1650.015 945.321 1500.139" fill="#c60"/>
          <polygon points="810.358 1500.139 675.396 1500.139 783.282 1650.015 783.186 1650.151 918.148 1650.151 918.245 1650.015 810.358 1500.139" fill="#fcf5eb"/>
          <polygon points="378.395 1350.026 270.486 1200.111 135.524 1200.111 243.432 1350.026 243.362 1350.123 378.325 1350.123 378.395 1350.026" fill="#666"/>
          <polygon points="135.476 600.056 0.513 600.056 108.47 750.028 108.444 750.067 243.406 750.067 243.432 750.028 135.476 600.056" fill="#c9e2e9"/>
          <polygon points="378.395 750.028 270.438 600.056 135.476 600.056 243.432 750.028 243.406 750.067 378.369 750.067 378.395 750.028" fill="#666"/>
          <polygon points="378.395 450.031 270.425 300.027 135.462 300.027 243.432 450.031 243.428 450.04 378.391 450.04 378.395 450.031" fill="#c9e2e9"/>
          <polygon points="135.524 1200.111 0.562 1200.111 108.47 1350.026 108.4 1350.123 243.362 1350.123 243.432 1350.026 135.524 1200.111" fill="#f90"/>
          <polygon points="378.395 1050.029 270.465 900.082 135.502 900.082 243.432 1050.029 243.384 1050.095 378.347 1050.095 378.395 1050.029" fill="#206ba4"/>
          <polygon points="135.502 900.082 0.54 900.082 108.47 1050.029 108.422 1050.095 243.384 1050.095 243.432 1050.029 135.502 900.082" fill="#fcf5eb"/>
          <polygon points="1080.283 1500.139 945.321 1500.139 1053.208 1650.015 1053.111 1650.151 1188.073 1650.151 1188.17 1650.015 1080.283 1500.139" fill="#ffab35"/>
          <polygon points="1620.065 600.056 1728.02 750.028 1727.994 750.067 1800 750.067 1800 662.533 1755.028 600.056 1620.065 600.056" fill="#f4e6cc"/>
          <polygon points="1620.133 1500.139 1485.171 1500.139 1593.058 1650.015 1592.961 1650.151 1727.923 1650.151 1728.02 1650.015 1620.133 1500.139" fill="#c9e2e9"/>
          <polygon points="1800 962.53 1800 900.082 1755.052 900.082 1800 962.53" fill="#154890"/>
          <polygon points="1800 662.533 1800 600.056 1755.028 600.056 1800 662.533" fill="#ffc3ce"/>
          <polygon points="1620.05 300.027 1728.02 450.031 1728.016 450.04 1800 450.04 1800 362.527 1755.013 300.027 1620.05 300.027" fill="#2f8cab"/>
          <polygon points="1620.09 900.082 1728.02 1050.029 1727.974 1050.095 1800 1050.095 1800 962.53 1755.052 900.082 1620.09 900.082" fill="#fe4902"/>
          <polygon points="1800 1562.519 1800 1500.139 1755.096 1500.139 1800 1562.519" fill="#c60"/>
          <polygon points="1620.111 1200.111 1728.02 1350.026 1727.952 1350.123 1800 1350.123 1800 1262.527 1755.074 1200.111 1620.111 1200.111" fill="#69f"/>
          <polygon points="1800 1262.527 1800 1200.111 1755.074 1200.111 1800 1262.527" fill="#dcdcdc"/>
        </g>
        <g>
          <polygon points="405.388 900.025 513.331 750.067 378.369 750.067 270.425 900.025 270.465 900.082 405.427 900.082 405.388 900.025" fill="#9c9c9c"/>
          <polygon points="918.177 1350.123 783.212 1350.123 675.312 1500.025 675.396 1500.139 810.358 1500.139 810.275 1500.025 918.177 1350.123" fill="#b4a68c"/>
          <polygon points="648.25 1350.123 513.287 1350.123 405.388 1500.025 405.471 1500.139 540.433 1500.139 540.35 1500.025 648.25 1350.123" fill="#004c6b"/>
          <polygon points="405.388 1200.023 513.309 1050.095 378.347 1050.095 270.425 1200.023 270.486 1200.111 405.449 1200.111 405.388 1200.023" fill="#2659bf"/>
          <polygon points="783.212 1350.123 648.25 1350.123 540.35 1500.025 540.433 1500.139 675.396 1500.139 675.312 1500.025 783.212 1350.123" fill="#bf838e"/>
          <polygon points="513.287 1350.123 378.325 1350.123 270.425 1500.025 270.508 1500.139 405.471 1500.139 405.388 1500.025 513.287 1350.123" fill="#89a2a9"/>
          <polygon points="405.388 600.034 513.353 450.04 378.391 450.04 270.425 600.034 270.438 600.056 405.401 600.056 405.388 600.034" fill="#b4a68c"/>
          <polygon points="1350.125 600.034 1350.14 600.056 1485.103 600.056 1485.087 600.034 1593.053 450.04 1458.091 450.04 1350.125 600.034" fill="#bf5900"/>
          <polygon points="1350.125 900.025 1350.165 900.082 1485.127 900.082 1485.087 900.025 1593.031 750.067 1458.069 750.067 1350.125 900.025" fill="#bf6b00"/>
          <polygon points="1485.087 600.034 1485.103 600.056 1620.065 600.056 1620.05 600.034 1728.016 450.04 1593.053 450.04 1485.087 600.034" fill="#bf838e"/>
          <polygon points="1350.125 300.027 1458.095 150.012 1323.132 150.012 1215.163 300.027 1350.125 300.027" fill="#004c6b"/>
          <polygon points="1485.087 300.027 1593.058 150.012 1458.095 150.012 1350.125 300.027 1485.087 300.027" fill="#89a2a9"/>
          <polygon points="1620.05 300.027 1728.02 150.012 1593.058 150.012 1485.087 300.027 1620.05 300.027" fill="#262626"/>
          <polygon points="1215.163 300.027 1323.132 150.012 1188.17 150.012 1080.2 300.027 1215.163 300.027" fill="#b4a68c"/>
          <polygon points="1053.139 1350.123 918.177 1350.123 810.275 1500.025 810.358 1500.139 945.321 1500.139 945.237 1500.025 1053.139 1350.123" fill="#be0900"/>
          <polygon points="675.312 300.027 783.282 150.012 648.32 150.012 540.35 300.027 675.312 300.027" fill="#8c2600"/>
          <polygon points="945.237 300.027 1053.208 150.012 918.245 150.012 810.275 300.027 945.237 300.027" fill="#bf838e"/>
          <polygon points="405.388 300.027 513.357 150.012 378.395 150.012 270.425 300.027 405.388 300.027" fill="#000850"/>
          <polygon points="810.275 300.027 918.245 150.012 783.282 150.012 675.312 300.027 810.275 300.027" fill="#002b64"/>
          <polygon points="540.35 300.027 648.32 150.012 513.357 150.012 405.388 300.027 540.35 300.027" fill="#9c9c9c"/>
          <polygon points="1458.027 1350.123 1323.064 1350.123 1215.163 1500.025 1215.246 1500.139 1350.208 1500.139 1350.125 1500.025 1458.027 1350.123" fill="#9c9c9c"/>
          <polygon points="1592.989 1350.123 1458.027 1350.123 1350.125 1500.025 1350.208 1500.139 1485.171 1500.139 1485.087 1500.025 1592.989 1350.123" fill="#000850"/>
          <polygon points="1188.102 1350.123 1053.139 1350.123 945.237 1500.025 945.321 1500.139 1080.283 1500.139 1080.2 1500.025 1188.102 1350.123" fill="#002b64"/>
          <polygon points="1323.064 1350.123 1188.102 1350.123 1080.2 1500.025 1080.283 1500.139 1215.246 1500.139 1215.163 1500.025 1323.064 1350.123" fill="#8c2600"/>
          <polygon points="1485.087 1500.025 1485.171 1500.139 1620.133 1500.139 1620.05 1500.025 1727.952 1350.123 1592.989 1350.123 1485.087 1500.025" fill="#bf6b00"/>
          <polygon points="1485.087 900.025 1485.127 900.082 1620.09 900.082 1620.05 900.025 1727.994 750.067 1593.031 750.067 1485.087 900.025" fill="#002b64"/>
          <polygon points="1485.087 1200.023 1485.149 1200.111 1620.111 1200.111 1620.05 1200.023 1727.974 1050.095 1593.011 1050.095 1485.087 1200.023" fill="#8c2600"/>
          <polygon points="1080.2 300.027 1188.17 150.012 1053.208 150.012 945.237 300.027 1080.2 300.027" fill="#be0900"/>
          <polygon points="1215.163 1200.023 1215.224 1200.111 1350.186 1200.111 1350.125 1200.023 1458.049 1050.095 1323.086 1050.095 1215.163 1200.023" fill="#262626"/>
          <polygon points="675.312 900.025 783.256 750.067 648.294 750.067 540.35 900.025 540.39 900.082 675.352 900.082 675.312 900.025" fill="#2659bf"/>
          <polygon points="1188.124 1050.095 1053.161 1050.095 945.237 1200.023 945.299 1200.111 1080.261 1200.111 1080.2 1200.023 1188.124 1050.095" fill="#9c9c9c"/>
          <polygon points="783.234 1050.095 648.272 1050.095 540.35 1200.023 540.411 1200.111 675.374 1200.111 675.312 1200.023 783.234 1050.095" fill="#bf6b00"/>
          <polygon points="1323.086 1050.095 1188.124 1050.095 1080.2 1200.023 1080.261 1200.111 1215.224 1200.111 1215.163 1200.023 1323.086 1050.095" fill="#b4a68c"/>
          <polygon points="918.199 1050.095 783.234 1050.095 675.312 1200.023 675.374 1200.111 810.336 1200.111 810.275 1200.023 918.199 1050.095" fill="#bf5900"/>
          <polygon points="1053.161 1050.095 918.199 1050.095 810.275 1200.023 810.336 1200.111 945.299 1200.111 945.237 1200.023 1053.161 1050.095" fill="#bf838e"/>
          <polygon points="810.275 900.025 918.219 750.067 783.256 750.067 675.312 900.025 675.352 900.082 810.315 900.082 810.275 900.025" fill="#bcb5ab"/>
          <polygon points="810.315 900.082 945.277 900.082 945.237 900.025 1053.181 750.067 918.219 750.067 810.275 900.025 810.315 900.082" fill="#000850"/>
          <polygon points="1188.073 1650.151 1080.2 1800 1215.163 1800 1323.036 1650.151 1188.073 1650.151" fill="#be0900"/>
          <polygon points="945.277 900.082 1080.24 900.082 1080.2 900.025 1188.144 750.067 1053.181 750.067 945.237 900.025 945.277 900.082" fill="#004c6b"/>
          <polygon points="1350.125 1200.023 1350.186 1200.111 1485.149 1200.111 1485.087 1200.023 1593.011 1050.095 1458.049 1050.095 1350.125 1200.023" fill="#004c6b"/>
          <polygon points="1080.2 900.025 1080.24 900.082 1215.202 900.082 1215.163 900.025 1323.106 750.067 1188.144 750.067 1080.2 900.025" fill="#8c2600"/>
          <polygon points="540.35 900.025 648.294 750.067 513.331 750.067 405.388 900.025 405.427 900.082 540.39 900.082 540.35 900.025" fill="#bf5900"/>
          <polygon points="540.35 1200.023 648.272 1050.095 513.309 1050.095 405.388 1200.023 405.449 1200.111 540.411 1200.111 540.35 1200.023" fill="#89a2a9"/>
          <polygon points="1080.215 600.056 1215.178 600.056 1215.163 600.034 1323.128 450.04 1188.166 450.04 1080.2 600.034 1080.215 600.056" fill="#2659bf"/>
          <polygon points="1215.178 600.056 1350.14 600.056 1350.125 600.034 1458.091 450.04 1323.128 450.04 1215.163 600.034 1215.178 600.056" fill="#9c9c9c"/>
          <polygon points="1215.163 900.025 1215.202 900.082 1350.165 900.082 1350.125 900.025 1458.069 750.067 1323.106 750.067 1215.163 900.025" fill="#be0900"/>
          <polygon points="945.253 600.056 1080.215 600.056 1080.2 600.034 1188.166 450.04 1053.203 450.04 945.237 600.034 945.253 600.056" fill="#bcb5ab"/>
          <polygon points="540.35 600.034 648.316 450.04 513.353 450.04 405.388 600.034 405.401 600.056 540.363 600.056 540.35 600.034" fill="#262626"/>
          <polygon points="540.363 600.056 675.326 600.056 675.312 600.034 783.278 450.04 648.316 450.04 540.35 600.034 540.363 600.056" fill="#be0900"/>
          <polygon points="810.288 600.056 945.253 600.056 945.237 600.034 1053.203 450.04 918.241 450.04 810.275 600.034 810.288 600.056" fill="#8c2600"/>
          <polygon points="675.326 600.056 810.288 600.056 810.275 600.034 918.241 450.04 783.278 450.04 675.312 600.034 675.326 600.056" fill="#bf6b00"/>
          <polygon points="0.5 150.012 0.5 300.027 108.47 150.012 0.5 150.012" fill="#bcb5ab"/>
          <polygon points="135.476 600.056 135.462 600.034 243.428 450.04 108.466 450.04 0.5 600.034 0.513 600.056 135.476 600.056" fill="#000850"/>
          <polygon points="0.5 450.04 0.5 600.034 108.466 450.04 0.5 450.04" fill="#002b64"/>
          <polygon points="243.432 150.012 108.47 150.012 0.5 300.027 135.462 300.027 243.432 150.012" fill="#2659bf"/>
          <polygon points="1728.02 150.012 1620.05 300.027 1755.013 300.027 1800 237.52 1800 150.012 1728.02 150.012" fill="#bf5900"/>
          <polygon points="1323.036 1650.151 1215.163 1800 1350.125 1800 1457.998 1650.151 1323.036 1650.151" fill="#262626"/>
          <polygon points="108.373 1650.151 0.5 1800 135.462 1800 243.336 1650.151 108.373 1650.151" fill="#004c6b"/>
          <polygon points="0.5 1650.151 0.5 1800 108.373 1650.151 0.5 1650.151" fill="#8c2600"/>
          <polygon points="1800 300.027 1800 237.52 1755.013 300.027 1800 300.027" fill="#bcb5ab"/>
          <polygon points="378.298 1650.151 270.425 1800 405.388 1800 513.261 1650.151 378.298 1650.151" fill="#bf5900"/>
          <polygon points="243.336 1650.151 135.462 1800 270.425 1800 378.298 1650.151 243.336 1650.151" fill="#bf838e"/>
          <polygon points="1053.111 1650.151 945.237 1800 1080.2 1800 1188.073 1650.151 1053.111 1650.151" fill="#bf6b00"/>
          <polygon points="918.148 1650.151 810.275 1800 945.237 1800 1053.111 1650.151 918.148 1650.151" fill="#8c2600"/>
          <polygon points="648.223 1650.151 540.35 1800 675.312 1800 783.186 1650.151 648.223 1650.151" fill="#2659bf"/>
          <polygon points="513.261 1650.151 405.388 1800 540.35 1800 648.223 1650.151 513.261 1650.151" fill="#9c9c9c"/>
          <polygon points="783.186 1650.151 675.312 1800 810.275 1800 918.148 1650.151 783.186 1650.151" fill="#bcb5ab"/>
          <polygon points="135.502 900.082 135.462 900.025 243.406 750.067 108.444 750.067 0.5 900.025 0.54 900.082 135.502 900.082" fill="#89a2a9"/>
          <polygon points="0.5 1050.095 0.5 1200.023 108.422 1050.095 0.5 1050.095" fill="#000850"/>
          <polygon points="0.5 750.067 0.5 900.025 108.444 750.067 0.5 750.067" fill="#bf838e"/>
          <polygon points="135.524 1200.111 135.462 1200.023 243.384 1050.095 108.422 1050.095 0.5 1200.023 0.562 1200.111 135.524 1200.111" fill="#bcb5ab"/>
          <polygon points="135.546 1500.139 135.462 1500.025 243.362 1350.123 108.4 1350.123 0.5 1500.025 0.583 1500.139 135.546 1500.139" fill="#bf5900"/>
          <polygon points="0.5 1350.123 0.5 1500.025 108.4 1350.123 0.5 1350.123" fill="#9c9c9c"/>
          <polygon points="270.425 1500.025 378.325 1350.123 243.362 1350.123 135.462 1500.025 135.546 1500.139 270.508 1500.139 270.425 1500.025" fill="#262626"/>
          <polygon points="270.425 600.034 378.391 450.04 243.428 450.04 135.462 600.034 135.476 600.056 270.438 600.056 270.425 600.034" fill="#89a2a9"/>
          <polygon points="270.425 900.025 378.369 750.067 243.406 750.067 135.462 900.025 135.502 900.082 270.465 900.082 270.425 900.025" fill="#262626"/>
          <polygon points="270.425 1200.023 378.347 1050.095 243.384 1050.095 135.462 1200.023 135.524 1200.111 270.486 1200.111 270.425 1200.023" fill="#002b64"/>
          <polygon points="1727.994 750.067 1620.05 900.025 1620.09 900.082 1755.052 900.082 1755.013 900.025 1800 837.526 1800 750.067 1727.994 750.067" fill="#b4a68c"/>
          <polygon points="1755.052 900.082 1800 900.082 1800 837.526 1755.013 900.025 1755.052 900.082" fill="#bf838e"/>
          <polygon points="1457.998 1650.151 1350.125 1800 1485.087 1800 1592.961 1650.151 1457.998 1650.151" fill="#b4a68c"/>
          <polygon points="1728.016 450.04 1620.05 600.034 1620.065 600.056 1755.028 600.056 1755.013 600.034 1800 537.535 1800 450.04 1728.016 450.04" fill="#004c6b"/>
          <polygon points="1755.028 600.056 1800 600.056 1800 537.535 1755.013 600.034 1755.028 600.056" fill="#002b64"/>
          <polygon points="1592.961 1650.151 1485.087 1800 1620.05 1800 1727.923 1650.151 1592.961 1650.151" fill="#89a2a9"/>
          <polygon points="1755.096 1500.139 1800 1500.139 1800 1437.526 1755.013 1500.025 1755.096 1500.139" fill="#9c9c9c"/>
          <polygon points="1800 1650.151 1727.923 1650.151 1620.05 1800 1755.013 1800 1800 1737.505 1800 1650.151" fill="#002b64"/>
          <polygon points="1800 1737.505 1755.013 1800 1800 1800 1800 1737.505" fill="#8c2600"/>
          <polygon points="378.395 150.012 243.432 150.012 135.462 300.027 270.425 300.027 378.395 150.012" fill="#bf6b00"/>
          <polygon points="1727.952 1350.123 1620.05 1500.025 1620.133 1500.139 1755.096 1500.139 1755.013 1500.025 1800 1437.526 1800 1350.123 1727.952 1350.123" fill="#2659bf"/>
          <polygon points="1727.974 1050.095 1620.05 1200.023 1620.111 1200.111 1755.074 1200.111 1755.013 1200.023 1800 1137.529 1800 1050.095 1727.974 1050.095" fill="#be0900"/>
          <polygon points="1755.074 1200.111 1800 1200.111 1800 1137.529 1755.013 1200.023 1755.074 1200.111" fill="#000850"/>
        </g>
      </g>
    </g>
  </g>
</svg>
