<svg xmlns="http://www.w3.org/2000/svg" width="1391.86207" height="1800" viewBox="0 0 1391.86207 1800">
  <g style="isolation: isolate">
    <g id="Layer_2" data-name="Layer 2">
      <g id="abstract-124">
        <g id="abstract-124-2" data-name="abstract-124">
          <g opacity="0.1">
            <g>
              <g>
                <path d="M275.92344,627.09221v1.20016a19.73067,19.73067,0,0,1,5.78585-5.05119,14.15758,14.15758,0,0,1,6.8108-1.61459,15.66248,15.66248,0,0,1,8.39022,2.35493,16.19512,16.19512,0,0,1,6.05639,6.8773,24.01112,24.01112,0,0,1,2.2208,10.7086,26.05018,26.05018,0,0,1-1.27551,8.36569,18.71711,18.71711,0,0,1-3.53194,6.40206,15.417,15.417,0,0,1-11.86,5.3737,13.83339,13.83339,0,0,1-7.11674-1.69221,20.18358,20.18358,0,0,1-5.47991-4.98469v14.82336q0,6.50441-4.72982,6.50622c-1.85631,0-3.09527-.56308-3.68264-1.67337a10.62386,10.62386,0,0,1-.90307-4.915V627.163a6.15676,6.15676,0,0,1,1.22331-4.21443,4.29069,4.29069,0,0,1,3.3624-1.403,4.41527,4.41527,0,0,1,3.41867,1.44389A5.86649,5.86649,0,0,1,275.92344,627.09221Zm19.36683,14.38329a16.83845,16.83845,0,0,0-1.20356-6.71344,9.73155,9.73155,0,0,0-3.31133-4.30768,7.8379,7.8379,0,0,0-4.67989-1.51041,8.8422,8.8422,0,0,0-6.8941,3.22143c-1.87513,2.16317-2.80815,5.31063-2.80815,9.49076q0,5.89434,2.78047,9.16572a8.77405,8.77405,0,0,0,6.92178,3.27366,7.89832,7.89832,0,0,0,4.56142-1.43733,9.88111,9.88111,0,0,0,3.3633-4.2809A16.9939,16.9939,0,0,0,295.29027,641.4755Z" fill="#5e5e5d"/>
                <path d="M338.76354,656.14248v-1.26575a21.4557,21.4557,0,0,1-3.7312,3.7514,13.2823,13.2823,0,0,1-4.25775,2.25506,17.107,17.107,0,0,1-5.28042.74034,13.84052,13.84052,0,0,1-6.422-1.47046,10.94,10.94,0,0,1-4.39528-4.08821c-1.23443-2.09574-1.83609-5.10657-1.83609-9.02751V627.47328a6.38863,6.38863,0,0,1,1.33633-4.43162,4.5606,4.5606,0,0,1,3.53965-1.45955,4.67643,4.67643,0,0,1,3.61046,1.48181,6.27351,6.27351,0,0,1,1.372,4.40936v15.80856a24.72294,24.72294,0,0,0,.574,5.75479,6.94583,6.94583,0,0,0,2.09233,3.65925,5.93547,5.93547,0,0,0,4.06052,1.31773,8.22876,8.22876,0,0,0,4.70531-1.49271,8.52951,8.52951,0,0,0,3.22259-3.85762q.83477-2.10628.82794-9.1882v-12.0018a6.30681,6.30681,0,0,1,1.37742-4.40936,4.62863,4.62863,0,0,1,3.57391-1.48181,4.56743,4.56743,0,0,1,3.53852,1.45955,6.42663,6.42663,0,0,1,1.33315,4.43162v28.59158a6.054,6.054,0,0,1-1.27777,4.22552,4.23147,4.23147,0,0,1-3.30135,1.41395,4.32235,4.32235,0,0,1-3.34219-1.45506A5.93714,5.93714,0,0,1,338.76354,656.14248Z" fill="#5e5e5d"/>
              </g>
              <path d="M366.925,612.52827v15.07914a22.63148,22.63148,0,0,1,5.67306-4.43614,15.03957,15.03957,0,0,1,7.15783-1.54468,15.895,15.895,0,0,1,8.63056,2.32928,15.43194,15.43194,0,0,1,5.74818,6.76882,24.75648,24.75648,0,0,1,2.04467,10.51023,28.55208,28.55208,0,0,1-1.13139,8.22726,19.75263,19.75263,0,0,1-3.307,6.4951,14.97532,14.97532,0,0,1-12.08146,5.75159,16.44289,16.44289,0,0,1-4.29657-.54084,12.12836,12.12836,0,0,1-3.40755-1.42962,15.17537,15.17537,0,0,1-2.41824-1.81408c-.66386-.62935-1.53039-1.56261-2.61208-2.82248v.963a5.94021,5.94021,0,0,1-1.352,4.22552,4.44341,4.44341,0,0,1-3.38214,1.41849,4.24622,4.24622,0,0,1-3.35332-1.41849,6.31714,6.31714,0,0,1-1.239-4.22552v-43.111a7.20685,7.20685,0,0,1,1.209-4.528,4.04526,4.04526,0,0,1,3.38327-1.5372,4.31751,4.31751,0,0,1,3.50515,1.4707A6.31389,6.31389,0,0,1,366.925,612.52827Zm.48,29.34282c0,3.92956.8831,6.93946,2.68288,9.04725a8.8127,8.8127,0,0,0,7.07022,3.1772,8.10812,8.10812,0,0,0,6.41975-3.24483q2.7048-3.22633,2.70308-9.2756a18.24438,18.24438,0,0,0-1.12163-6.72885,10.03518,10.03518,0,0,0-3.17946-4.36192,7.91791,7.91791,0,0,0-4.82174-1.54037,8.62023,8.62023,0,0,0-5.02441,1.54037,10.19787,10.19787,0,0,0-3.47315,4.455A17.27776,17.27776,0,0,0,367.40505,641.87109Z" fill="#5e5e5d"/>
              <g>
                <path d="M403.13766,655.7101V612.895a6.708,6.708,0,0,1,1.32771-4.49152,4.4922,4.4922,0,0,1,3.5594-1.51495,4.646,4.646,0,0,1,3.61272,1.50724,6.47972,6.47972,0,0,1,1.3697,4.49923V655.7101a6.40881,6.40881,0,0,1-1.39512,4.50266,4.66289,4.66289,0,0,1-3.5873,1.49611,4.44576,4.44576,0,0,1-3.52286-1.5558A6.51759,6.51759,0,0,1,403.13766,655.7101Z" fill="#5e5e5d"/>
                <path d="M428.19186,616.97212a5.19315,5.19315,0,0,1-3.53306-1.27777,4.93583,4.93583,0,0,1,.04879-7.03936,5.001,5.001,0,0,1,3.48427-1.34087,5.23129,5.23129,0,0,1,3.40665,1.219,4.41041,4.41041,0,0,1,1.47274,3.58073,4.51528,4.51528,0,0,1-1.44414,3.56166A5.03,5.03,0,0,1,428.19186,616.97212Zm4.87939,10.21632V655.7101a6.42161,6.42161,0,0,1-1.40418,4.48722,4.68375,4.68375,0,0,1-3.57166,1.51155,4.45815,4.45815,0,0,1-3.5308-1.55149,6.54749,6.54749,0,0,1-1.3563-4.44728V627.47328a6.35723,6.35723,0,0,1,1.3563-4.40936,4.54293,4.54293,0,0,1,3.5308-1.48181,4.70943,4.70943,0,0,1,3.57166,1.48181A5.781,5.781,0,0,1,433.07125,627.18844Z" fill="#5e5e5d"/>
                <path d="M478.628,649.48873a8.61478,8.61478,0,0,1-1.09826,3.93978,13.54573,13.54573,0,0,1-3.36988,3.99606,17.19573,17.19573,0,0,1-5.69394,3.03988,23.63559,23.63559,0,0,1-7.73294,1.15908q-9.14621,0-14.28138-5.31832-5.13483-5.3476-5.13766-14.30453a23.56,23.56,0,0,1,2.3472-10.73833,16.94672,16.94672,0,0,1,6.79878-7.20662,20.94349,20.94349,0,0,1,10.62416-2.55442,21.28735,21.28735,0,0,1,7.036,1.1182,18.63223,18.63223,0,0,1,5.42908,2.89239,14.13262,14.13262,0,0,1,3.40121,3.78,7.41183,7.41183,0,0,1,1.1736,3.74346,3.96806,3.96806,0,0,1-1.32544,2.98882,4.50042,4.50042,0,0,1-3.19376,1.229,3.25183,3.25183,0,0,1-2.05148-.63617,10.08747,10.08747,0,0,1-1.8218-2.04013,15.041,15.041,0,0,0-3.77886-4.12248,9.26895,9.26895,0,0,0-12.06171,2.04127q-2.67144,3.42617-2.66746,9.35773a18.39708,18.39708,0,0,0,.68269,5.12428,12.00615,12.00615,0,0,0,1.98477,3.98063,8.49287,8.49287,0,0,0,3.15721,2.489,9.38563,9.38563,0,0,0,4.036.85884,9.02974,9.02974,0,0,0,5.08116-1.38084A11.957,11.957,0,0,0,469.911,648.733a9.7387,9.7387,0,0,1,1.96047-2.62206,3.70085,3.70085,0,0,1,2.56214-.933,3.83133,3.83133,0,0,1,3.00766,1.37423A4.49992,4.49992,0,0,1,478.628,649.48873Z" fill="#5e5e5d"/>
                <path d="M514.28662,656.06486v-.963a24.769,24.769,0,0,1-3.9332,3.70013,14.23926,14.23926,0,0,1-4.18988,2.16541,15.48607,15.48607,0,0,1-4.92932.74148,14.55381,14.55381,0,0,1-6.55956-1.49611,15.55717,15.55717,0,0,1-5.21392-4.28862,19.583,19.583,0,0,1-3.34787-6.55073,27.723,27.723,0,0,1-1.147-8.13849q0-9.25413,4.52487-14.43866a15.03242,15.03242,0,0,1,11.88856-5.16967,15.95856,15.95856,0,0,1,7.19345,1.47047,20.04314,20.04314,0,0,1,5.71392,4.51035V613.04347a7.27055,7.27055,0,0,1,1.209-4.58911,4.08294,4.08294,0,0,1,3.43751-1.56579,4.31,4.31,0,0,1,3.462,1.42621,6.39646,6.39646,0,0,1,1.21673,4.21349v43.53659a5.99978,5.99978,0,0,1-1.3032,4.22892,4.37076,4.37076,0,0,1-3.37556,1.41509,4.32145,4.32145,0,0,1-3.33561-1.45506A6.05967,6.05967,0,0,1,514.28662,656.06486Zm-19.3968-14.48975a16.78915,16.78915,0,0,0,1.239,6.83216,9.46445,9.46445,0,0,0,3.41324,4.25094,8.37086,8.37086,0,0,0,4.723,1.43733,8.78081,8.78081,0,0,0,4.75524-1.3554,9.39074,9.39074,0,0,0,3.44-4.1622,16.877,16.877,0,0,0,1.27437-7.00283,16.47741,16.47741,0,0,0-1.27437-6.78446,10.17848,10.17848,0,0,0-3.47315-4.33627,8.20153,8.20153,0,0,0-4.78859-1.51041,8.11535,8.11535,0,0,0-4.83718,1.54037,9.91193,9.91193,0,0,0-3.30134,4.425A17.48333,17.48333,0,0,0,494.88982,641.57511Z" fill="#5e5e5d"/>
                <path d="M570.45981,641.66387a23.437,23.437,0,0,1-1.374,8.13193,17.47738,17.47738,0,0,1-10.18886,10.49458,22.19572,22.19572,0,0,1-8.13194,1.41849,21.21941,21.21941,0,0,1-8.06-1.44391,17.68969,17.68969,0,0,1-6.20572-4.14472,18.0258,18.0258,0,0,1-3.98518-6.35439,23.45377,23.45377,0,0,1-1.33974-8.12422,23.841,23.841,0,0,1,1.36084-8.19071,17.867,17.867,0,0,1,3.94727-6.37664,17.22647,17.22647,0,0,1,6.22253-4.06256,21.99642,21.99642,0,0,1,8.06-1.42961,21.73288,21.73288,0,0,1,8.13194,1.455,17.73283,17.73283,0,0,1,6.25248,4.11047,17.95212,17.95212,0,0,1,3.95067,6.37323A23.14693,23.14693,0,0,1,570.45981,641.66387Zm-9.9006,0q0-6.03256-2.65748-9.39427a8.65734,8.65734,0,0,0-7.13672-3.36671,8.91251,8.91251,0,0,0-5.10884,1.50723,9.63954,9.63954,0,0,0-3.39211,4.425,20.20018,20.20018,0,0,0-.02,13.59412,9.7035,9.7035,0,0,0,3.37124,4.42844,8.757,8.757,0,0,0,5.14969,1.52608,8.63548,8.63548,0,0,0,7.13672-3.3767Q560.55817,647.634,560.55921,641.66387Z" fill="#5e5e5d"/>
                <path d="M612.14578,633.52082c-.72695,1.66338-1.08144,4.6034-1.08144,8.83233v13.13092a6.68507,6.68507,0,0,1-1.42531,4.669,4.75287,4.75287,0,0,1-3.71464,1.5558,4.63774,4.63774,0,0,1-3.63271-1.5558,6.8039,6.8039,0,0,1-1.39171-4.669V639.73881a50.264,50.264,0,0,0-.25056-5.78813,6.373,6.373,0,0,0-1.37628-3.38441,4.38169,4.38169,0,0,0-3.53738-1.322c-3.21394,0-5.33716,1.1037-6.36891,3.33561q-1.53742,3.3162-1.5381,9.555v13.34926a6.87973,6.87973,0,0,1-1.37764,4.65447,5.08363,5.08363,0,0,1-7.34847,0,6.71035,6.71035,0,0,1-1.42393-4.64766V627.23724a6.24425,6.24425,0,0,1,1.26778-4.23982,4.3691,4.3691,0,0,1,3.38668-1.45185,4.56017,4.56017,0,0,1,3.38327,1.362,5.02632,5.02632,0,0,1,1.35313,3.73687v.94415a17.10506,17.10506,0,0,1,5.49218-4.52465,14.60194,14.60194,0,0,1,6.49851-1.43733,13.122,13.122,0,0,1,6.39864,1.47047,11.633,11.633,0,0,1,4.40414,4.49151,17.14951,17.14951,0,0,1,5.35692-4.50263,13.635,13.635,0,0,1,6.32124-1.45935,14.35317,14.35317,0,0,1,6.9749,1.58463,10.22442,10.22442,0,0,1,4.38189,4.55143q1.26336,2.683,1.25667,8.4356v19.28582a6.74849,6.74849,0,0,1-1.39852,4.669,4.78978,4.78978,0,0,1-3.73028,1.5558,4.69836,4.69836,0,0,1-3.66812-1.57033,6.62822,6.62822,0,0,1-1.43618-4.65447V638.87228a38.72124,38.72124,0,0,0-.266-5.1,5.91347,5.91347,0,0,0-1.46729-3.23255,4.68567,4.68567,0,0,0-3.61046-1.29548,6.73314,6.73314,0,0,0-3.70351,1.14818,7.89076,7.89076,0,0,0-2.7285,3.1284Z" fill="#5e5e5d"/>
                <path d="M668.68824,656.15337a30.8461,30.8461,0,0,1-6.93494,4.16243,19.13533,19.13533,0,0,1-7.49374,1.39307,14.24572,14.24572,0,0,1-6.678-1.49611,11.07956,11.07956,0,0,1-4.43046-4.07028,10.52568,10.52568,0,0,1-1.55149-5.5766,9.97747,9.97747,0,0,1,2.571-6.90182,12.79182,12.79182,0,0,1,7.04367-3.82221c.63163-.15958,2.18538-.47412,4.66559-.96957,2.48679-.5186,4.60567-.9707,6.3898-1.39625,1.76869-.42555,3.69239-.92985,5.767-1.52607-.12415-2.62205-.64933-4.52488-1.57373-5.755-.92848-1.221-2.85673-1.82838-5.767-1.82838a12.02748,12.02748,0,0,0-5.66716,1.05831,9.01334,9.01334,0,0,0-3.24936,3.15495c-.91306,1.39648-1.54037,2.315-1.91712,2.7782a3.20442,3.20442,0,0,1-2.39805.65183,4.20681,4.20681,0,0,1-2.87262-1.05945,3.461,3.461,0,0,1-1.21445-2.74075,8.37391,8.37391,0,0,1,1.83723-5.06209,13.3829,13.3829,0,0,1,5.75387-4.06165,25.91262,25.91262,0,0,1,9.72766-1.58463,27.73948,27.73948,0,0,1,10.23539,1.54035,9.46589,9.46589,0,0,1,5.25954,4.8617,21.3874,21.3874,0,0,1,1.53379,8.82121c0,2.31067,0,4.29088-.0177,5.89888-.02452,1.618-.02883,3.41324-.05992,5.3871a19.69861,19.69861,0,0,0,.92871,5.807,18.34994,18.34994,0,0,1,.91306,3.88418,3.64978,3.64978,0,0,1-1.42961,2.76276,4.78574,4.78574,0,0,1-3.22486,1.24442,4.38872,4.38872,0,0,1-3.00539-1.41849A21.0993,21.0993,0,0,1,668.68824,656.15337Zm-.6516-14.29683a50.72288,50.72288,0,0,1-6.31672,1.68451q-4.13257.8776-5.73591,1.3a7.78482,7.78482,0,0,0-3.02536,1.63345,4.1485,4.1485,0,0,0-1.45414,3.38781,5.0263,5.0263,0,0,0,1.70015,3.82539,6.28671,6.28671,0,0,0,4.4527,1.57691,11.47731,11.47731,0,0,0,5.408-1.29548,8.49874,8.49874,0,0,0,3.6259-3.29907c.90216-1.50042,1.34541-3.9661,1.34541-7.40612Z" fill="#5e5e5d"/>
                <path d="M692.74291,616.97212a5.15449,5.15449,0,0,1-3.52194-1.27777,4.91261,4.91261,0,0,1,.04427-7.03936,5.00037,5.00037,0,0,1,3.47767-1.34087,5.23464,5.23464,0,0,1,3.40643,1.219,4.40829,4.40829,0,0,1,1.47614,3.58073,4.51813,4.51813,0,0,1-1.44278,3.56166A5.05608,5.05608,0,0,1,692.74291,616.97212Zm4.88257,10.21632V655.7101a6.42254,6.42254,0,0,1-1.40965,4.48722,4.65616,4.65616,0,0,1-3.57051,1.51155,4.4548,4.4548,0,0,1-3.52853-1.55149,6.54209,6.54209,0,0,1-1.35856-4.44728V627.47328a6.352,6.352,0,0,1,1.35856-4.40936,4.53942,4.53942,0,0,1,3.52853-1.48181,4.68168,4.68168,0,0,1,3.57051,1.48181A5.78328,5.78328,0,0,1,697.62548,627.18844Z" fill="#5e5e5d"/>
              </g>
              <g>
                <path d="M716.79282,627.04115v1.1879a17.2211,17.2211,0,0,1,5.68509-5.04007,15.23425,15.23425,0,0,1,7.11243-1.60687,14.08929,14.08929,0,0,1,6.97717,1.711,10.72779,10.72779,0,0,1,4.59024,4.78747,11.32945,11.32945,0,0,1,1.26325,3.89983,41.42515,41.42515,0,0,1,.29051,5.358V655.7101a6.59112,6.59112,0,0,1-1.3588,4.48722,4.86176,4.86176,0,0,1-7.08792-.04425,6.43583,6.43583,0,0,1-1.37651-4.443v-16.45a16.55394,16.55394,0,0,0-1.352-7.468c-.91762-1.719-2.71513-2.5921-5.41685-2.5921a7.95553,7.95553,0,0,0-4.80744,1.57691,8.95991,8.95991,0,0,0-3.18264,4.322c-.47865,1.47387-.7358,4.21327-.7358,8.25041V655.7101a6.33567,6.33567,0,0,1-1.39648,4.50266,4.64246,4.64246,0,0,1-3.57936,1.49611,4.44461,4.44461,0,0,1-3.502-1.55149,6.42473,6.42473,0,0,1-1.38512-4.44728V627.18844a6.17724,6.17724,0,0,1,1.23442-4.2178,4.296,4.296,0,0,1,3.3624-1.38853,4.62733,4.62733,0,0,1,2.34267.61188,4.38909,4.38909,0,0,1,1.67994,1.8361A6.617,6.617,0,0,1,716.79282,627.04115Z" fill="#5e5e5d"/>
                <path d="M758.541,627.72609l7.9901,22.40652,8.604-23.38061a14.12174,14.12174,0,0,1,2.00357-3.99631,3.64116,3.64116,0,0,1,2.95228-1.17358,4.43209,4.43209,0,0,1,3.2092,1.27006,3.93574,3.93574,0,0,1,1.32317,2.92888,6.11547,6.11547,0,0,1-.23695,1.50385,15.61879,15.61879,0,0,1-.54538,1.64023c-.21266.49977-.4344,1.08487-.7047,1.73306l-9.4685,23.50385c-.27484.67384-.6205,1.52493-1.04174,2.56213a14.1929,14.1929,0,0,1-1.40737,2.66314,5.32895,5.32895,0,0,1-4.68759,2.32156,5.31474,5.31474,0,0,1-3.349-.95527,6.35824,6.35824,0,0,1-1.83519-2.09665c-.4033-.75463-1.07714-2.25846-2.01471-4.49491l-9.4063-23.24784c-.2172-.5851-.44325-1.15136-.67611-1.73306a15.54266,15.54266,0,0,1-.574-1.77436,6.47013,6.47013,0,0,1-.23717-1.547,3.762,3.762,0,0,1,.62277-2.01131,4.70419,4.70419,0,0,1,1.69334-1.62911,4.58277,4.58277,0,0,1,2.35833-.6373,3.72739,3.72739,0,0,1,3.37556,1.41531A22.06733,22.06733,0,0,1,758.541,627.72609Z" fill="#5e5e5d"/>
              </g>
              <g>
                <path d="M818.22386,644.05965H798.9192a13.16317,13.16317,0,0,0,1.35631,5.94,9.05489,9.05489,0,0,0,8.32938,5.1699,12.05693,12.05693,0,0,0,3.24256-.40785,10.94249,10.94249,0,0,0,2.8413-1.30342,20.837,20.837,0,0,0,2.53558-1.91031c.76236-.66726,1.771-1.57828,2.99223-2.74076a3.20726,3.20726,0,0,1,2.16972-.66272,3.5582,3.5582,0,0,1,2.46024.8402,2.9614,2.9614,0,0,1,.93529,2.35152,6.40929,6.40929,0,0,1-1.04832,3.13294,12.27053,12.27053,0,0,1-3.15836,3.43321,18.51278,18.51278,0,0,1-5.3215,2.72824,22.80809,22.80809,0,0,1-7.35617,1.07831q-9.49859,0-14.78116-5.41456-5.25636-5.43747-5.2661-14.7192a24.679,24.679,0,0,1,1.30091-8.12079,17.56888,17.56888,0,0,1,3.79-6.41317,16.05645,16.05645,0,0,1,6.14377-4.11817,22.26835,22.26835,0,0,1,8.10334-1.42167,19.09446,19.09446,0,0,1,9.91151,2.44684,15.85767,15.85767,0,0,1,6.19484,6.29561,16.44827,16.44827,0,0,1,2.0769,7.88705c0,2.48134-.7181,4.09274-2.14113,4.82173A13.11089,13.11089,0,0,1,818.22386,644.05965Zm-19.30466-5.60951h17.90614c-.24148-3.37352-1.15681-5.89231-2.74824-7.57362a8.17746,8.17746,0,0,0-6.23252-2.50993,7.86832,7.86832,0,0,0-6.04412,2.55873C800.21582,632.61321,799.26259,635.12428,798.9192,638.45014Z" fill="#5e5e5d"/>
                <path d="M870.07419,649.48873a8.46661,8.46661,0,0,1-1.10372,3.93978,13.49791,13.49791,0,0,1-3.36217,3.99606,17.241,17.241,0,0,1-5.69394,3.03988,23.7242,23.7242,0,0,1-7.73974,1.15908q-9.14928,0-14.28683-5.31832-5.11644-5.3476-5.12427-14.30453a23.34906,23.34906,0,0,1,2.35152-10.73833,16.86687,16.86687,0,0,1,6.78676-7.20662,20.97216,20.97216,0,0,1,10.643-2.55442,21.367,21.367,0,0,1,7.03256,1.1182,18.803,18.803,0,0,1,5.42361,2.89239,14.413,14.413,0,0,1,3.39984,3.78,7.55941,7.55941,0,0,1,1.17043,3.74346,3.9371,3.9371,0,0,1-1.32544,2.98882,4.50523,4.50523,0,0,1-3.20057,1.229,3.17912,3.17912,0,0,1-2.039-.63617,9.78866,9.78866,0,0,1-1.83292-2.04013,15.00322,15.00322,0,0,0-3.77021-4.12248,9.26222,9.26222,0,0,0-12.05721,2.04127c-1.793,2.28411-2.67062,5.40593-2.67062,9.35773a18.5193,18.5193,0,0,0,.67815,5.12428,11.979,11.979,0,0,0,1.99247,3.98063,8.51287,8.51287,0,0,0,3.14066,2.489,9.45372,9.45372,0,0,0,4.05825.85884,9.06866,9.06866,0,0,0,5.07547-1.38084A12.02941,12.02941,0,0,0,861.366,648.733a9.43641,9.43641,0,0,1,1.95049-2.62206,3.68274,3.68274,0,0,1,2.551-.933,3.812,3.812,0,0,1,3.0122,1.37423A4.4267,4.4267,0,0,1,870.07419,649.48873Z" fill="#5e5e5d"/>
                <path d="M879.24787,622.4155h1.08824v-5.9243c0-1.586.04-2.85151.133-3.74459a5.47383,5.47383,0,0,1,.70039-2.33609,4.45319,4.45319,0,0,1,1.65794-1.63683,4.74156,4.74156,0,0,1,2.41575-.62618,4.8702,4.8702,0,0,1,3.3978,1.39966,4.24779,4.24779,0,0,1,1.29209,2.29274,21.05712,21.05712,0,0,1,.2594,3.85444v6.72115h3.62614a4.5793,4.5793,0,0,1,3.19147.993,3.25333,3.25333,0,0,1,1.11051,2.5467,2.8458,2.8458,0,0,1-1.58486,2.78478,10.20414,10.20414,0,0,1-4.49469.79686h-1.84857V647.718a27.16525,27.16525,0,0,0,.175,3.57392,3.49471,3.49471,0,0,0,.86676,2.01789,2.94131,2.94131,0,0,0,2.29616.78573,13.10851,13.10851,0,0,0,2.34718-.30367,11.69786,11.69786,0,0,1,2.30273-.31139,3.00054,3.00054,0,0,1,2.16339.94755,3.2398,3.2398,0,0,1,.96183,2.38148,3.95389,3.95389,0,0,1-2.6132,3.64382,17.69231,17.69231,0,0,1-7.48465,1.25554c-3.07642,0-5.42363-.5152-7.00168-1.5558a7.16074,7.16074,0,0,1-3.13407-4.30655,29.54138,29.54138,0,0,1-.7358-7.33508V629.53679h-1.312a4.70135,4.70135,0,0,1-3.24256-1.01065,3.31709,3.31709,0,0,1-1.13048-2.571,3.18228,3.18228,0,0,1,1.17928-2.5467A5.18677,5.18677,0,0,1,879.24787,622.4155Z" fill="#5e5e5d"/>
                <path d="M941.84329,641.66387a23.15545,23.15545,0,0,1-1.38082,8.13193A17.52725,17.52725,0,0,1,930.267,660.29038a22.075,22.075,0,0,1-8.13193,1.41849,21.20316,21.20316,0,0,1-8.05-1.44391,17.842,17.842,0,0,1-10.17978-10.49911,25.26363,25.26363,0,0,1,.01112-16.31493,17.9486,17.9486,0,0,1,3.94523-6.37664,17.45851,17.45851,0,0,1,6.22343-4.06256,22.05693,22.05693,0,0,1,8.05-1.42961,21.63852,21.63852,0,0,1,8.13193,1.455,17.65054,17.65054,0,0,1,6.26361,4.11047,18.161,18.161,0,0,1,3.95839,6.37323A23.58363,23.58363,0,0,1,941.84329,641.66387Zm-9.90289,0c0-4.02171-.89989-7.15782-2.66856-9.39427a8.62091,8.62091,0,0,0-7.13674-3.36671,8.8291,8.8291,0,0,0-5.08433,1.50723,9.52483,9.52483,0,0,0-3.3978,4.425,20.182,20.182,0,0,0-.02224,13.59412,9.764,9.764,0,0,0,3.35786,4.42844,8.79843,8.79843,0,0,0,5.14651,1.52608,8.59924,8.59924,0,0,0,7.13674-3.3767C931.04051,648.75835,931.9404,645.63767,931.9404,641.66387Z" fill="#5e5e5d"/>
              </g>
              <path d="M959.42147,647.47084v8.23926a6.369,6.369,0,0,1-1.40737,4.50266,4.7147,4.7147,0,0,1-3.58388,1.49611,4.53469,4.53469,0,0,1-3.504-1.51155,6.51375,6.51375,0,0,1-1.372-4.48722V628.237c0-4.4441,1.59575-6.65488,4.80949-6.65488a4.03869,4.03869,0,0,1,3.53964,1.55149,8.64262,8.64262,0,0,1,1.19245,4.59249,17.29783,17.29783,0,0,1,3.63928-4.59249,7.54868,7.54868,0,0,1,4.967-1.55149,12.84639,12.84639,0,0,1,6.03506,1.55149c1.95275,1.03743,2.93458,2.40712,2.93458,4.12134a3.901,3.901,0,0,1-1.25213,2.98111,3.8482,3.8482,0,0,1-2.69741,1.18132,11.97075,11.97075,0,0,1-2.61978-.68156,12.62243,12.62243,0,0,0-3.666-.66272,5.35357,5.35357,0,0,0-3.54172,1.14047,7.26857,7.26857,0,0,0-2.13886,3.38872,23.96,23.96,0,0,0-1.05263,5.3249C959.52133,641.97844,959.42147,644.49632,959.42147,647.47084Z" fill="#5e5e5d"/>
              <path d="M1011.98988,648.8217a12.05514,12.05514,0,0,1-1.99905,6.98826,12.20525,12.20525,0,0,1-5.86688,4.41392,26.68831,26.68831,0,0,1-9.47508,1.485,22.97154,22.97154,0,0,1-9.10261-1.63025,13.10336,13.10336,0,0,1-5.60545-4.05371,8.13843,8.13843,0,0,1-1.81953-4.89595,3.73947,3.73947,0,0,1,1.1702-2.77389,3.92394,3.92394,0,0,1,2.91234-1.16589,3.40423,3.40423,0,0,1,2.39149.76574,8.93422,8.93422,0,0,1,1.60686,2.13661,10.72236,10.72236,0,0,0,3.6261,3.95521,11.04459,11.04459,0,0,0,5.77156,1.29662,8.36252,8.36252,0,0,0,4.86713-1.322,3.73385,3.73385,0,0,0,1.91056-3.01424,4.11389,4.11389,0,0,0-1.97479-3.8,23.58808,23.58808,0,0,0-6.50509-2.28411,54.91659,54.91659,0,0,1-8.296-2.66631,13.618,13.618,0,0,1-5.12428-3.67378A8.37994,8.37994,0,0,1,978.56,632.98a9.86429,9.86429,0,0,1,1.76869-5.60634,12.25394,12.25394,0,0,1,5.22187-4.21349,20.08377,20.08377,0,0,1,8.34709-1.578,27.31027,27.31027,0,0,1,6.88411.79683,16.95336,16.95336,0,0,1,5.11316,2.13661,10.53342,10.53342,0,0,1,3.10073,2.95773,5.76557,5.76557,0,0,1,1.07712,3.18491,3.69216,3.69216,0,0,1-1.148,2.79273,4.51393,4.51393,0,0,1-3.22485,1.066,3.97987,3.97987,0,0,1-2.59777-.86993,17.47,17.47,0,0,1-2.43572-2.58869,9.0074,9.0074,0,0,0-2.64427-2.31839,8.33692,8.33692,0,0,0-4.12455-.86652,8.05031,8.05031,0,0,0-4.44839,1.14137,3.31147,3.31147,0,0,0-1.76869,2.84379,3.05945,3.05945,0,0,0,1.29888,2.551,11.0055,11.0055,0,0,0,3.504,1.6368c1.47616.43329,3.50855.97413,6.08635,1.59577a32.15281,32.15281,0,0,1,7.49579,2.674,12.25174,12.25174,0,0,1,4.40615,3.677A8.06532,8.06532,0,0,1,1011.98988,648.8217Z" fill="#5e5e5d"/>
              <g>
                <path d="M1023.19166,661.70887a5.59671,5.59671,0,0,1-3.86534-1.44391,5.11294,5.11294,0,0,1-1.618-4.04055,5.28444,5.28444,0,0,1,1.54037-3.79225,5.18853,5.18853,0,0,1,3.8431-1.5926,5.33581,5.33581,0,0,1,3.85875,1.58148,5.07462,5.07462,0,0,1,1.61367,3.80337,5.14415,5.14415,0,0,1-1.61367,4.0294A5.3819,5.3819,0,0,1,1023.19166,661.70887Z" fill="#5e5e5d"/>
                <path d="M1076.75732,641.66387a23.10418,23.10418,0,0,1-1.37852,8.13193,17.818,17.818,0,0,1-3.97611,6.39091,17.5457,17.5457,0,0,1-6.2105,4.10367,22.14037,22.14037,0,0,1-8.13625,1.41849,21.26685,21.26685,0,0,1-8.06543-1.44391,17.90038,17.90038,0,0,1-10.17547-10.49911,25.05411,25.05411,0,0,1,.02656-16.31493,17.91441,17.91441,0,0,1,3.92752-6.37664,17.47017,17.47017,0,0,1,6.22139-4.06256,22.08919,22.08919,0,0,1,8.06543-1.42961,21.78509,21.78509,0,0,1,8.13625,1.455,17.51146,17.51146,0,0,1,6.24363,4.11047,18.17654,18.17654,0,0,1,3.9652,6.37323A23.42933,23.42933,0,0,1,1076.75732,641.66387Zm-9.90947,0q0-6.03256-2.66631-9.39427a8.61462,8.61462,0,0,0-7.1256-3.36671,8.85429,8.85429,0,0,0-5.09545,1.50723,9.65661,9.65661,0,0,0-3.40665,4.425,18.319,18.319,0,0,0-1.18359,6.82873,17.99534,17.99534,0,0,0,1.17247,6.76539,9.74073,9.74073,0,0,0,3.3624,4.42844,8.7723,8.7723,0,0,0,5.15082,1.52608,8.593,8.593,0,0,0,7.1256-3.3767Q1066.84785,647.634,1066.84785,641.66387Z" fill="#5e5e5d"/>
              </g>
              <path d="M1094.33119,647.47084v8.23926a6.368,6.368,0,0,1-1.40079,4.50266,4.70084,4.70084,0,0,1-3.57278,1.49611,4.52307,4.52307,0,0,1-3.51083-1.51155,6.43937,6.43937,0,0,1-1.38081-4.48722V628.237c0-4.4441,1.62253-6.65488,4.814-6.65488a4.02655,4.02655,0,0,1,3.53735,1.55149,8.55676,8.55676,0,0,1,1.199,4.59249,17.28184,17.28184,0,0,1,3.62158-4.59249,7.61325,7.61325,0,0,1,4.9736-1.55149,12.85769,12.85769,0,0,1,6.04638,1.55149c1.94391,1.03743,2.92119,2.40712,2.92119,4.12134a3.8581,3.8581,0,0,1-1.2367,2.98111,3.89849,3.89849,0,0,1-2.69513,1.18132,11.79943,11.79943,0,0,1-2.62206-.68156,12.52453,12.52453,0,0,0-3.67242-.66272,5.40488,5.40488,0,0,0-3.5485,1.14047,7.356,7.356,0,0,0-2.12547,3.38872,22.88117,22.88117,0,0,0-1.05059,5.3249C1094.44195,641.97844,1094.33119,644.49632,1094.33119,647.47084Z" fill="#5e5e5d"/>
              <path d="M1151.43878,628.80641v28.68806a30.29365,30.29365,0,0,1-1.05945,8.4499,13.53589,13.53589,0,0,1-3.34673,5.87006,14.3375,14.3375,0,0,1-6.06842,3.42547,32.87827,32.87827,0,0,1-9.30667,1.12165,27.30053,27.30053,0,0,1-9.116-1.4253,15.75566,15.75566,0,0,1-6.18371-3.70351,6.696,6.696,0,0,1-2.16315-4.64335,3.77487,3.77487,0,0,1,1.23012-2.94,4.13123,4.13123,0,0,1,2.9609-1.14478,4.86387,4.86387,0,0,1,3.79906,1.91825c.52973.65158,1.086,1.31091,1.64228,1.97363a9.789,9.789,0,0,0,1.8774,1.70015,7.23809,7.23809,0,0,0,2.48679,1.05491,14.47524,14.47524,0,0,0,3.3111.33363,13.45337,13.45337,0,0,0,5.95562-1.05945,6.01033,6.01033,0,0,0,2.97-2.97656,11.943,11.943,0,0,0,.99068-4.10705c.08647-1.46615.17067-3.80678.22378-7.03594a16.33767,16.33767,0,0,1-5.26609,4.83285,14.33855,14.33855,0,0,1-7.10361,1.65453,14.95887,14.95887,0,0,1-8.65712-2.52562,16.10589,16.10589,0,0,1-5.69621-7.09473,26.03916,26.03916,0,0,1-1.98362-10.52,24.77155,24.77155,0,0,1,1.21449-8.03571,16.54817,16.54817,0,0,1,3.44429-6.03619,14.70146,14.70146,0,0,1,5.17534-3.70692,16.183,16.183,0,0,1,6.432-1.24782,15.42121,15.42121,0,0,1,7.26748,1.61459,17.78009,17.78009,0,0,1,5.72047,5.05119v-1.33315a5.79966,5.79966,0,0,1,1.25235-3.99516,4.19,4.19,0,0,1,3.24914-1.41849q2.87262,0,3.80792,1.86946A12.27081,12.27081,0,0,1,1151.43878,628.80641Zm-28.60248,12.52043c0,3.99629.87765,7.01391,2.63091,9.07631a8.49021,8.49021,0,0,0,6.77313,3.06621,8.84032,8.84032,0,0,0,4.64562-1.322,9.83434,9.83434,0,0,0,3.56393-3.98063,13.89233,13.89233,0,0,0,1.3697-6.45087q0-6.03729-2.66632-9.39856a8.446,8.446,0,0,0-6.99486-3.37329,8.259,8.259,0,0,0-6.77336,3.22143Q1122.842,635.39381,1122.8363,641.32684Z" fill="#5e5e5d"/>
            </g>
            <g>
              <path d="M651.172,523.848a57.89715,57.89715,0,1,1,16.94883,40.94132A55.8466,55.8466,0,0,1,651.172,523.848Zm14.88328,0q0,18.83066,12.45822,31.83528a42.29877,42.29877,0,0,0,61.01082,0q12.46717-12.98772,12.44507-31.83528,0-18.83541-12.44507-31.83731a42.31822,42.31822,0,0,0-61.01082,0Q666.05619,505.01475,666.05529,523.848Zm57.61506,8.84685h14.64588Q736.76382,544.025,728.675,550.406a27.30278,27.30278,0,0,1-18.07023,6.2214q-14.31576,0-22.87767-9.65029-8.08541-9.16566-8.092-23.6289,0-14.80939,8.0255-23.74079,8.00573-8.9365,22.64048-8.94762,10.89129,0,18.3739,5.6229c5.28383,4.02511,8.49756,9.69227,9.64121,16.95223H723.67035q-1.86492-9.49516-12.15909-9.495-16.9722,0-16.982,19.28264,0,9.026,4.3617,14.76776,4.37531,5.765,12.31661,5.76475Q723.02964,543.55506,723.67035,532.69485Z" fill="#5e5e5d"/>
              <polygon points="674.586 560.164 683.026 567.007 745.072 490.671 736.634 483.818 674.586 560.164" fill="#5e5e5d"/>
            </g>
          </g>
          <g>
            <g>
              <path d="M5.0002,1029.176C99.003,1110.72585,155.53,1233.4143,147.849,1367.26457A414.4713,414.4713,0,0,1,5.0002,1657.67644Z" fill="#fecae9" style="mix-blend-mode: multiply"/>
              <path d="M965.519,966.55621a98.46322,98.46322,0,1,1-103.93122,92.66726A98.46915,98.46915,0,0,1,965.519,966.55621Z" fill="#fecae9" style="mix-blend-mode: multiply"/>
            </g>
            <path d="M5.0002,1022.60867a414.23444,414.23444,0,0,1,157.10252,251.38789c31.66551,161.1718-34.43055,318.88146-157.10252,411.81051Z" fill="#fecae9" style="mix-blend-mode: multiply"/>
            <g>
              <path d="M843.78123,1800c-57.96093-130.4636-47.14274-287.35315,42.14238-411.6841,116.906-162.78956,329.69527-215.95645,505.93846-137.7821V1800Z" fill="#fecae8" style="mix-blend-mode: multiply"/>
              <path d="M86.55564,1800a213.36317,213.36317,0,0,1,28.61587-55.34117c68.72719-95.70373,202.03549-117.57529,297.73718-48.84038A212.3401,212.3401,0,0,1,490.32409,1800Z" fill="#fecae9" style="mix-blend-mode: multiply"/>
              <path d="M1057.22664,1800c.18611-.26373.37222-.52745.56059-.78891A98.54784,98.54784,0,0,1,1218.34508,1800Z" fill="#fecae8" style="mix-blend-mode: multiply"/>
            </g>
            <g>
              <path d="M5.0002,1800V1032.23671c133.72622-5.66058,267.75035,53.23566,352.97857,169.18617,135.98891,185.01585,96.24573,445.23154-88.76787,581.21841Q256.67222,1791.85695,243.69143,1800Z" fill="#ffccdf" style="mix-blend-mode: multiply"/>
              <path d="M442.47755,1288.669c-69.77755-94.93684-49.38236-228.47686,45.559-298.26236,94.94365-69.78754,228.47709-49.38781,298.2558,45.547,69.78982,94.94818,49.39006,228.47255-45.547,298.26236C645.804,1403.99694,512.27508,1383.60832,442.47755,1288.669Z" fill="#fecae9" style="mix-blend-mode: multiply"/>
              <path d="M524.71788,1723.84263a180.53313,180.53313,0,0,1,38.54326-252.37858c80.32638-59.0449,193.32277-41.79014,252.37176,38.543a180.52253,180.52253,0,0,1-38.54735,252.36972C696.75668,1821.417,583.76277,1804.17786,524.71788,1723.84263Z" fill="#ffccde" style="mix-blend-mode: multiply"/>
            </g>
            <g>
              <path d="M136.98542,1800A414.76972,414.76972,0,0,1,9.81753,1719.04177q-2.43028-2.25744-4.81733-4.54348V1114.29864C162.76635,962.7483,413.34422,958.996,575.66852,1109.764c168.24632,156.2536,177.97854,419.30627,21.72948,587.56168A414.19083,414.19083,0,0,1,448.46858,1800Z" fill="#ffccd2" style="mix-blend-mode: multiply"/>
              <path d="M415.64036,1107.54321c-80.17476,86.33737-215.1798,91.32865-301.51831,11.1439-86.334-80.18679-91.31978-215.183-11.13959-301.50606,80.18589-86.34509,215.17322-91.332,301.51287-11.15164C490.83384,886.21621,495.83284,1021.197,415.64036,1107.54321Z" fill="#fecae9" style="mix-blend-mode: multiply"/>
              <path d="M550.324,1006.05226a180.51847,180.51847,0,0,1-255.13021,9.424c-73.05121-67.83933-77.27241-182.06881-9.42424-255.12114a180.52385,180.52385,0,0,1,255.11706-9.42423C613.93671,818.77135,618.16994,932.99991,550.324,1006.05226Z" fill="#ffcbcf" style="mix-blend-mode: multiply"/>
              <path d="M929.27411,1251.52016a98.46937,98.46937,0,1,1-5.14858-139.16293A98.472,98.472,0,0,1,929.27411,1251.52016Z" fill="#ffcbcf" style="mix-blend-mode: multiply"/>
              <path d="M863.48942,1576.39026a61.81682,61.81682,0,1,1-3.24481-87.35483A61.80817,61.80817,0,0,1,863.48942,1576.39026Z" fill="#fecae9" style="mix-blend-mode: multiply"/>
            </g>
            <g>
              <path d="M403.36371,1800C202.41218,1760.84077,56.2941,1578.2609,68.3481,1368.17558c13.14863-229.23717,209.642-404.42094,438.87807-391.2712,229.23717,13.15,404.41436,209.65541,391.26437,438.8926C887.38661,1609.33922,745.58617,1764.34047,563.72982,1800Z" fill="#ffccc3" style="mix-blend-mode: multiply"/>
              <path d="M437.3887,1800c18.5323-105.046,113.18136-181.92831,222.29427-175.66471C760.36708,1630.1089,840.7359,1704.82372,857.56716,1800Z" fill="#fecae9" style="mix-blend-mode: multiply"/>
              <path d="M5.0002,1800V1614.1133a180.606,180.606,0,0,1,115.67574,178.976q-.1995,3.47418-.52745,6.91067Z" fill="#ffcabd" style="mix-blend-mode: multiply"/>
              <path d="M5.0002,1024.42842a98.38346,98.38346,0,0,1,39.83861,84.88121A98.26662,98.26662,0,0,1,5.0002,1182.894Z" fill="#ffcabd" style="mix-blend-mode: multiply"/>
              <path d="M244.43381,848.95527a61.81538,61.81538,0,1,1-65.25267,58.18814A61.81465,61.81465,0,0,1,244.43381,848.95527Z" fill="#fecae9" style="mix-blend-mode: multiply"/>
            </g>
            <g>
              <path d="M571.00633,1800c-125.27283-119.53667-166.95879-309.98933-90.04883-475.79335C577.56566,1115.91,824.76,1025.3703,1033.06119,1121.98732c208.29682,96.617,298.82749,343.79823,202.22386,552.09052A414.73539,414.73539,0,0,1,1145.22851,1800Z" fill="#ffc6ac" style="mix-blend-mode: multiply"/>
              <path d="M1391.86207,1113.0111c-61.41844,63.12948-158.2926,83.88372-242.72394,44.72018-106.8833-49.57188-153.34334-176.41844-103.76716-283.30851,49.58076-106.89212,176.425-153.34989,283.304-103.7703a212.886,212.886,0,0,1,63.18713,44.72017Z" fill="#fecae9" style="mix-blend-mode: multiply"/>
              <path d="M1391.86207,1474.95264a180.66545,180.66545,0,0,1,0-278.50765Z" fill="#ffc6a6" style="mix-blend-mode: multiply"/>
            </g>
            <g>
              <path d="M1020.54963,1800c-175.01741-92.08669-264.22287-299.07125-202.053-494.052,69.741-218.76916,303.62381-339.57362,522.38617-269.82806a419.74493,419.74493,0,0,1,50.97924,19.98507V1800Z" fill="#ffc696" style="mix-blend-mode: multiply"/>
              <path d="M870.03218,1800a211.79882,211.79882,0,0,1,67.55336,0Z" fill="#eec8f7" style="mix-blend-mode: multiply"/>
              <path d="M460.5555,1800a180.48338,180.48338,0,0,1-41.02643-179.13559c30.28152-94.98132,131.83217-147.4501,226.82007-117.16518A180.60153,180.60153,0,0,1,722.48449,1800Z" fill="#ffc68e" style="mix-blend-mode: multiply"/>
              <path d="M796.19956,925.63919a98.46889,98.46889,0,1,1-123.71453,63.912A98.4722,98.4722,0,0,1,796.19956,925.63919Z" fill="#ffb485" style="mix-blend-mode: multiply"/>
              <path d="M1118.17071,846.83321A61.82306,61.82306,0,1,1,1040.495,886.96,61.82774,61.82774,0,0,1,1118.17071,846.83321Z" fill="#fdc7e8" style="mix-blend-mode: multiply"/>
            </g>
            <g>
              <path d="M1391.86207,1776.94735a415.46845,415.46845,0,0,1-59.25076-115.155c-43.89356-132.59361-17.34554-271.56136,59.25076-376.32823Z" fill="#ffc57a" style="mix-blend-mode: multiply"/>
              <path d="M1018.699,1184.3145c-111.85253,37.036-232.55736-23.6289-269.58885-135.49459-37.0315-111.8548,23.64-232.55645,135.48824-269.58568,111.86138-37.02809,232.54827,23.63231,269.58885,135.49142C1191.201,1026.5893,1130.55585,1147.283,1018.699,1184.3145Z" fill="#d5c1f0" style="mix-blend-mode: multiply"/>
            </g>
            <path d="M553.17305,1800a98.50325,98.50325,0,0,1,180.64849,0Z" fill="#f96e2a" style="mix-blend-mode: multiply"/>
          </g>
          <g>
            <g>
              <path d="M1390.72069,167.10609a417.21059,417.21059,0,0,1-63.61494-68.41217A416.12948,416.12948,0,0,1,1272.8617,0h117.859Z" fill="#ffccdf" style="mix-blend-mode: multiply"/>
              <path d="M1232.93785,0q4.84408,5.67,9.35322,11.75465c70.12228,94.67879,50.21009,228.29413-44.47645,298.42191C1103.12153,380.30772,969.51728,360.39,899.39272,265.709,839.02712,184.20221,845.37471,73.87235,908.69279,0Z" fill="#fecae9" style="mix-blend-mode: multiply"/>
            </g>
            <g>
              <path d="M1390.72069,301.23779A414.24257,414.24257,0,0,1,1109.7485,191.13852,413.82238,413.82238,0,0,1,991.83413,0h398.88656Z" fill="#ffccd2" style="mix-blend-mode: multiply"/>
              <path d="M1390.72069,728.73273a180.3428,180.3428,0,0,1-164.10614-42.9272c-73.29633-67.57787-77.944-181.78986-10.3618-255.08709a180.46719,180.46719,0,0,1,174.46794-53.29536Z" fill="#ffcbcf" style="mix-blend-mode: multiply"/>
              <path d="M755.633,50.66355a98.46835,98.46835,0,1,1,5.65173,139.14182A98.47266,98.47266,0,0,1,755.633,50.66355Z" fill="#ffcbcf" style="mix-blend-mode: multiply"/>
            </g>
            <g>
              <path d="M1390.72069,278.59843a413.81792,413.81792,0,0,1-212.04686,45.1514C988.51826,313.53215,835.09077,177.0689,795.28877,0h595.43192Z" fill="#ffccc3" style="mix-blend-mode: multiply"/>
              <path d="M1390.72069,418.16146a61.93615,61.93615,0,0,1,0-58.30544Z" fill="#fecae9" style="mix-blend-mode: multiply"/>
            </g>
            <g>
              <path d="M1191.91233,0C1088.81905,191.78127,852.9061,272.72837,652.31248,180.56743A413.91548,413.91548,0,0,1,459.86078,0Z" fill="#ffc6ac" style="mix-blend-mode: multiply"/>
              <path d="M536.108,145.24584C643.16877,194.431,690.0909,321.10894,640.90033,428.17627,591.70406,535.25041,465.03385,582.1646,357.972,532.97288,250.89351,483.78,203.98024,357.12207,253.16877,250.0502,302.36049,142.97084,429.033,96.053,536.108,145.24584Z" fill="#fecae9" style="mix-blend-mode: multiply"/>
              <path d="M355.60705,0a180.796,180.796,0,0,1-13.77594,43.95011c-41.62173,90.58831-148.8098,130.2829-239.40719,88.66574A180.30361,180.30361,0,0,1,.01441,0Z" fill="#ffc6a6" style="mix-blend-mode: multiply"/>
            </g>
            <g>
              <path d="M864.87684,0c-70.581,216.39313-302.45364,336.06529-520.07461,267.551C211.7942,225.681,114.69285,123.13737,74.3843,0Z" fill="#ffc696" style="mix-blend-mode: multiply"/>
              <path d="M889.88449,376.05883a98.4684,98.4684,0,1,1,123.48417-64.3596A98.46681,98.46681,0,0,1,889.88449,376.05883Z" fill="#ffb485" style="mix-blend-mode: multiply"/>
              <path d="M568.20021,456.02978a61.82259,61.82259,0,1,1,77.52729-40.405A61.829,61.829,0,0,1,568.20021,456.02978Z" fill="#fdc7e8" style="mix-blend-mode: multiply"/>
            </g>
            <g>
              <path d="M305.53224,0a414.013,414.013,0,0,1-216.862,168.149A417.17479,417.17479,0,0,1,0,187.50469V0Z" fill="#ffc57a" style="mix-blend-mode: multiply"/>
              <path d="M0,216.25582c105.72866-24.315,214.67,35.20175,249.85631,140.21783,37.43707,111.72067-22.79891,232.64156-134.51186,270.07659A212.35437,212.35437,0,0,1,0,632.26415Z" fill="#d5c1f0" style="mix-blend-mode: multiply"/>
            </g>
          </g>
        </g>
      </g>
    </g>
  </g>
</svg>
