<svg xmlns="http://www.w3.org/2000/svg" xmlns:xlink="http://www.w3.org/1999/xlink" width="1800" height="1800" viewBox="0 0 1800 1800">
  <defs>
    <linearGradient id="linear-gradient" x1="900" y1="1789.2" x2="900" y2="-49.374" gradientUnits="userSpaceOnUse">
      <stop offset="0" stop-color="#ff0"/>
      <stop offset="1" stop-color="#f7931e"/>
    </linearGradient>
  </defs>
  <g id="Layer_2" data-name="Layer 2">
    <g id="Publicdomainvectors.org">
      <g id="desert-landscape">
        <rect width="1800" height="1800" fill="url(#linear-gradient)"/>
        <path d="M1800,639.79632V1247.755c-.54149.225-1.044.3798-1.58549.6048C911.19741,1565.87,893.80725,1490.72688,1.43964,1244.88288c-.50436-.1512-.972-.3024-1.43964-.4536V766.3464c57.77928-1.058,87.66036-119.974,110.05128-119.974,36,0,166.53707,156.56472,195.33707,94.2714S500.4,661.9464,590.4,661.9464,787.03234,837.86292,833.83233,825.38964c46.8-12.47508,316.04436-345.63528,359.24436-270.86832,43.2,74.69136,261.93491,108.78588,283.53491,40.29444,21.6-68.56884,164.62979,5.06412,318.09743,46.7946,2.9142.8316,5.03784-23.96412,5.07312-17.76636C1799.82067,629.21268,1799.89087,634.5036,1800,639.79632Z" fill="#f9e29f"/>
        <path d="M0,1014.98544V1491.43c.53964.17928,1.044.29556,1.58364.47484C888.80433,1740.73,906.19089,1681.84332,1798.55851,1489.18c.50616-.11952.9738-.239,1.44149-.355V1114.16148c-57.77933-.8298-87.65861-94.02192-110.05313-94.02192-36,0-166.53527,122.6952-195.33527,73.8774-28.8-48.81456-195.0116-61.67124-285.0116-61.67124s-196.63239,137.86164-243.43239,128.08476c-46.8-9.77328-316.04435-270.86472-359.24435-212.27328-43.2,58.53492-261.93491,85.25376-283.53491,31.577-21.6-53.73252-164.628,3.973-318.09743,36.675-2.916.65052-5.03964-18.78048-5.07456-13.92156C.17928,1006.69212.10728,1010.84076,0,1014.98544Z" fill="#ffc145"/>
        <path d="M1800,1178.7822v354.87036c-.54149.13392-1.044.22176-1.58549.35172-887.2171,185.33664-904.60726,141.47244-1796.97487-2.0286-.50436-.08784-.972-.17568-1.43964-.26352V1252.6524c57.77928-.61884,87.66036-70.03116,110.05128-70.03116,36,0,166.53707,91.38492,195.33707,55.02636,28.8-36.36216,195.01165-45.93492,285.01165-45.93492s196.63234,102.68064,243.43233,95.4c46.8-7.281,316.04436-201.748,359.24436-158.1048,43.2,43.59708,261.93491,63.49932,283.53491,23.51952,21.6-40.02552,164.62979,2.95308,318.09743,27.31284,2.9142.48528,5.03784-13.98852,5.07636-10.36764C1799.82067,1172.605,1799.89087,1175.692,1800,1178.7822Z" fill="#f1a843"/>
        <path d="M0,1366.30548v289.49076H1800V1279.77192l-3.6-5.74452s-284.4-39.99744-306,0c-21.6,39.99384-262.8,21.81456-306-21.81816-43.2-43.62876-306,116.34984-352.8,123.62364-46.8,7.2702-151.2-94.53528-241.2-94.53528s-266.4,18.17928-295.2,54.53784S146.06892,1291.419,110.06892,1291.419C86.20128,1291.419,65.628,1376.01216,0,1366.30548Z" fill="#f15a24"/>
        <path d="M1800,1513.36764V1800H0V1427.68836L3.6,1422s284.4-39.6,306,0,262.8,21.6,306-21.6,306,115.2,352.8,122.4,151.2-93.6,241.2-93.6,266.4,18,295.2,54,68.4,54,104.4,54C1633.06759,1537.2,1734.37015,1522.97928,1800,1513.36764Z" fill="#1f0f05"/>
        <path d="M370.00367,1389.29076c-9.2214-4.40532-43.10136,1.29024-75.6702,8.35308,26.72568-43.91712,44.8416-97.02432,32.2542-95.7726-10.97784,1.08972-40.41936,27.1404-66.09384,51.8238-10.40112-42.2262-27.14256-78.61284-34.47072-70.717-6.88176,7.41816-11.49984,40.86216-14.45111,73.74024-41.19444-31.24692-92.925-54.92448-92.925-42.19092,0,10.28664,20.011,38.7,40.56876,65.18664-47.98332-4.23972-96.26508,1.30788-90.31644,11.51352,9.3762,16.09128,105.2982,50.49864,128.13731,58.5072-1.2762,8.15292,2.41524,16.31592,15.94008,22.78116C255.92327,1493.04744,389.092,1398.41712,370.00367,1389.29076Z" fill="#1f0f05"/>
        <path d="M1058.95545,1509.76044c-5.481-2.619-25.61472.76284-44.96832,4.9608,15.88-26.1,26.64828-57.65976,19.16712-56.91816-6.525.65052-24.02208,16.1298-39.28,30.80052-6.18048-25.09452-16.1298-46.71936-20.4858-42.026C969.3,1450.98648,966.55425,1470.86028,964.8,1490.4c-24.47931-18.56952-55.22331-32.64264-55.22331-25.07328,0,6.11352,11.88972,22.999,24.10992,38.74212-28.51884-2.52072-57.21156.77688-53.67636,6.84144,5.57208,9.56232,62.57808,30.00924,76.15188,34.76952-.7596,4.84452,1.43427,9.69588,9.47088,13.53852C991.16025,1571.42124,1070.30049,1515.18168,1058.95545,1509.76044Z" fill="#1f0f05"/>
        <path d="M1742.22751,1478.65788c-55.76832,14.33664-90.54828,11.858-82.77871,6.41952,13.99207-46.83168,23.994-82.71576,40.13419-99.19692-55.35324,21.906-86.43492,21.92-82.03,59.35428.73116-52.91712-39.68063-11.9214-28.16351-66.57552-50.67792,8.24436-11.51712,54.65412-43.44984,73.85976-22.4964-37.1988-67.68968-65.97756-54.16524-53.96472-12.01284,37.044-12.2202,32.37876,26.1,63.84024-40.08492,22.01472-93.2202.05292-79.18236,24.76764-8.708-5.87808,116.03664,43.55136,106.51284,63.6714-9.69948,4.08528,30.65292,9.59076,6.4548,14.28048C1605.33643,1569.2202,1714.58779,1499.19624,1742.22751,1478.65788Z" fill="#1f0f05"/>
        <path d="M657.06334,1413.56592c19.43244-25.60788,42.46706-61.214,42.46706-61.214s-27.148,21.55428-48.10286,41.95188c13.82184-37.174,29.29428-86.17824,29.29428-86.17824s-21.77422,38.57328-37.92852,71.88372c6.54264-44.258,12.58776-100.75068,12.58776-100.75068s-13.77432,50.94144-23.1804,93.14316c-1.52386-46.00548-5.63544-103.16952-5.63544-103.16952s-4.11336,57.164-5.63544,103.16952c-9.40788-42.20172-23.1804-93.14316-23.1804-93.14316s6.04332,56.49264,12.58776,100.75068c-16.15428-33.31044-37.92852-71.88372-37.92852-71.88372s15.47244,49.00428,29.29392,86.17824c-20.95488-20.3976-48.10248-41.95188-48.10248-41.95188s23.0346,35.60616,42.46524,61.214c-23.22576-5.0274-52.4725-6.9642-52.4725-6.9642s41.9011,26.9892,64.8144,34.96284c14.094,4.90068,17.49022,3.97944,18.158.99828.6678,2.98116,4.064,3.9024,18.158-.99828,22.91148-7.97364,64.8144-34.96284,64.8144-34.96284S680.2909,1408.53852,657.06334,1413.56592Zm-30.49812,24.58152a18.183,18.183,0,0,1,0-2.67912A18.3834,18.3834,0,0,1,626.56522,1438.14744Z" fill="#1f0f05"/>
        <path d="M816.7464,1059.16644c21.13413-16.15068,47.345-39.49092,47.345-39.49092s-26.3988,11.22192-47.60352,22.88664c19.2042-26.617,42.32988-62.30412,42.32988-62.30412s-25.85556,25.98048-46.07208,49.001C827.703,995.38956,844.956,951.65172,844.956,951.65172s-22.198,37.60992-38.98658,69.20856c8.90675-37.03716,18.20378-83.54556,18.20378-83.54556s-15.8573,44.698-27.19694,81.06336c1.78236-35.73612,2.00414-79.40376,2.00414-79.40376s-7.6079,46.39572-12.12734,83.14092c-5.558-30.12552-14.44032-65.68956-14.44032-65.68956s1.561,42.49692,4.40676,75.19572c-12.2274-20.88612-29.14092-44.05428-29.14092-44.05428s10.53972,33.47568,20.408,58.18032c-17.42328-9.12312-40.32936-17.1036-40.32936-17.1036s27.48852,30.7512,44.014,42.1524c10.16352,7.00992,13.07628,7.02072,14.26464,4.7916-.12312,2.52432,2.38356,4.00788,14.70564,3.19932,20.03219-1.31832,59.39639-13.63,59.39639-13.63S836.38113,1060.267,816.7464,1059.16644Zm-29.73854,12.8988a15.19227,15.19227,0,0,1,.589-2.13768A14.92778,14.92778,0,0,1,787.00786,1072.06524Z" fill="#ffc145"/>
        <path d="M1413.79448,1426.39812c19.431-2.86164,42.46524-29.7072,42.46524-42.50052,0,12.79332-27.144,29.04264-48.10068,24.42672,13.81968-8.0298,29.29576-44.97552,29.29576-47.42244,0,2.44692-21.77608,31.52808-37.93036,59.78664,6.54264-36.513,12.58956-79.10136,12.58956-98.96112,0,19.85976-13.77432,58.26456-23.18184,82.59948-1.52244-27.20376-5.63576-70.29828-5.63576-70.18236,0-.11592-4.1134,42.9786-5.63548,84.62448-9.40788-38.777-23.1822-77.18184-23.1822-58.25016,0-18.93168,6.04692,23.65668,12.58956,45.35136-16.15428-13.44024-37.92636-42.5214-37.92636-48.57876,0,6.05736,15.47208,43.00308,29.29212,53.65548-20.95668,1.99332-48.101-14.256-48.101-4.792,0-9.464,23.0346,17.38152,42.46524,30.389-23.22756,2.50344-52.474,1.04436-52.474,15.09624,0-14.05188,41.90256,6.2964,64.814,17.71524,14.094-1.71216,17.49024-2.408,18.15808,8.50068.66812-10.90872,4.064-10.21284,18.1584-18.48492,22.91108-1.4346,64.814-21.78288,64.814-32.28048C1466.2688,1437.58836,1437.0224,1439.04744,1413.79448,1426.39812Zm-30.49808,18.53064c-.0526,15.77844-.08068,15.09624,0,1.63152C1383.37736,1460.025,1383.34928,1460.7072,1383.2964,1444.92876Z" fill="#1f0f05"/>
        <path d="M478.7773,1420.36884c-.13716-.87912-.2761-1.75788-.44856-2.64024.3006-1.02672.57852-2.05668.91406-3.0798,9.329-28.37808,29.4451-44.75376,47.12182-39.77208a28.80406,28.80406,0,0,0-5.26644-3.93408c-16.89084-9.77364-37.65924,2.66112-49.24512,28.0404-.311-.61164-.5976-1.23372-.92808-1.83852-4.94818-9.04572-11.23956-15.66576-17.7732-19.4976-1.10412-26.30736,9.3024-43.0524,24.05916-40.5036a29.69684,29.69684,0,0,0-5.13108-2.96712c-17.43408-7.75548-30.47,9.84384-29.11824,39.294.0072.18648.02808.3726.04068.55548q-1.04706-.12636-2.07972-.1476c-23.73408-21.49812-47.997-25.40376-57.44159-7.53732a30.29473,30.29473,0,0,0-2.54556,6.7392c9.85608-10.09332,27.64692-7.23492,46.10591,6.58476-1.062,1.076,3.35916-1.35324,2.48906-.05616,1.57822-.92088-2.16218,2.0322-.44822,1.62432a121.25829,121.25829,0,0,1,16.10316,15.5286c.86652.99468,1.68408,2.025,2.52072,3.04092.33408,1.06524.69624,2.10924,1.05984,3.15684-17.50248-12.15324-35.5867-10.5678-44.258,5.836a37.10016,37.10016,0,0,0-2.686,6.57792c12.25907-14.36508,34.90489-10.04436,53.60075,11.43972a90.42425,90.42425,0,0,1,7.99814,10.75068,79.66277,79.66277,0,0,0,3.02182,22.873c-.01044.01728-.01764.03132-.02808.049.01226-.00684.02268-.01764.03492-.02448a50.67437,50.67437,0,0,0,7.86636,16.23528c.71892,1.65924,1.53648,3.24468,2.3994,4.7952-.09322.45-.158.92124-.27072,1.35684.2196-.225.4115-.49212.61884-.73476.33408.58032.675,1.15344,1.02816,1.71216a54.08316,54.08316,0,0,1-2.05848,16.83648,29.37185,29.37185,0,0,0,3.67058-5.44572,36.99374,36.99374,0,0,0,2.43286-5.88888,38.138,38.138,0,0,0,9.752,8.22672,31.84509,31.84509,0,0,0,5.7024,2.60856,45.021,45.021,0,0,1-10.50624-13.4262c.7452.28836,1.4922.57672,2.2482.78768a35.463,35.463,0,0,1-4.10112-4.67928c-.39888-.93168-.76824-1.881-1.1196-2.84076a67.65934,67.65934,0,0,0-.18972-15.92928,69.681,69.681,0,0,0-1.6632-20.33424c.33048-1.30428.689-2.60532,1.11278-3.892,7.2475-22.05,25.63954-33.17688,42.99262-27.211a35.849,35.849,0,0,0-5.3208-3.76884C506.00554,1400.1678,489.09022,1405.44144,478.7773,1420.36884Z" fill="#1f0f05"/>
        <path d="M1620.08779,1048.46148c-.13716-.87912-.27432-1.75788-.4464-2.64024.2988-1.02672.57636-2.05668.914-3.0762,9.32688-28.37808,29.44337-44.75412,47.12-39.77244a28.682,28.682,0,0,0-5.26644-3.93732c-16.89264-9.77364-37.6596,2.66112-49.24332,28.044-.3132-.61524-.598-1.23732-.92808-1.84212-4.95-9.04212-11.23955-15.66576-17.775-19.49436-1.10412-26.3106,9.302-43.05564,24.06059-40.50684a29.68176,29.68176,0,0,0-5.13252-2.96352c-17.43407-7.75548-30.47,9.84024-29.11643,39.294.00684.18288.02812.369.03852.55548a20.81827,20.81827,0,0,0-2.07756-.1512c-23.734-21.49452-47.9988-25.40376-57.442-7.53408a30.015,30.015,0,0,0-2.5452,6.73956c9.85432-10.09332,27.64692-7.23852,46.10376,6.58476-1.06164,1.07208,3.361-1.3572,2.489-.05616,1.5786-.92124-2.16216,2.03184-.4464,1.624a121.2377,121.2377,0,0,1,16.10172,15.525c.86832.995,1.68372,2.025,2.52072,3.04452.33372,1.06524.69588,2.1096,1.06164,3.1536-17.50428-12.15-35.58888-10.5678-44.2584,5.836a37.06578,37.06578,0,0,0-2.686,6.57792c12.25908-14.36508,34.90344-10.04436,53.59932,11.44332a89.90672,89.90672,0,0,1,7.99811,10.75068,79.61387,79.61387,0,0,0,3.02328,22.8726c-.01044.014-.01728.03168-.02808.04572a.3324.3324,0,0,1,.03528-.02448,50.637,50.637,0,0,0,7.86456,16.23852c.72072,1.656,1.53612,3.245,2.40084,4.792-.09468.45-.158.92088-.27031,1.35684.21775-.2214.41107-.48852.61843-.73116q.50112.86994,1.02677,1.71216a54.16264,54.16264,0,0,1-2.05673,16.83612,29.77785,29.77785,0,0,0,3.6702-5.44536,37.45052,37.45052,0,0,0,2.43293-5.89248,38.12814,38.12814,0,0,0,9.7524,8.23032,32.12118,32.12118,0,0,0,5.7024,2.60856,44.94321,44.94321,0,0,1-10.5084-13.4298,23.74829,23.74829,0,0,0,2.25.78768,35.21225,35.21225,0,0,1-4.10261-4.676c-.39739-.93168-.76644-1.88424-1.11816-2.844a67.71726,67.71726,0,0,0-.18972-15.92928,69.80722,69.80722,0,0,0-1.66284-20.3346c.33053-1.30428.689-2.605,1.111-3.888,7.24932-22.05,25.63956-33.18048,42.99264-27.21456a36.084,36.084,0,0,0-5.31936-3.76884C1647.31639,1028.26044,1630.40251,1033.53408,1620.08779,1048.46148Z" fill="#ffc145"/>
        <path d="M824.52669,1433.68236c-.22356-1.07568-.48348-2.15136-.76464-3.23064.46224-1.192.94536-2.38032,1.46235-3.56508,14.80425-33.94692,46.72617-53.536,74.7756-47.57328a46.80832,46.80832,0,0,0-8.35671-4.70736c-26.79084-11.686-59.72688,3.164-78.11529,33.49332-.48711-.72072-.98463-1.44144-1.503-2.15532-18.77183-25.85736-49.68287-35.44092-69.03791-21.389a32.62477,32.62477,0,0,0-5.21746,4.72176c19.29382-8.4834,46.0303,1.60308,62.93338,24.8868q.82242,1.134,1.59264,2.28168c-1.97424-1.44468-4.03416-2.82636-6.20172-4.113-27.47268-16.31952-59.65308-12.88836-71.86824,7.67448a32.56189,32.56189,0,0,0-2.9214,6.40188c14.36148-15.42636,42.9048-16.745,67.644-2.04948a75.86317,75.86317,0,0,1,13.61268,10.30068c-4.04134,16.7202-3.02184,33.27192,2.35368,46.99692-.01582.01764-.02988.03528-.04572.05616a.37262.37262,0,0,1,.05616-.02808,56.21876,56.21876,0,0,0,12.32747,19.26216,60.12161,60.12161,0,0,0,37.08828,28.22688,59.44094,59.44094,0,0,1-16.7292-16.0488c1.2006.35172,2.4084.6714,3.62484.92808a48.817,48.817,0,0,1-6.5286-5.53356,57.35909,57.35909,0,0,1-2.9304-51.48972c11.50128-26.37792,40.68648-39.68784,68.22255-32.5512a59.97594,59.97594,0,0,0-8.44275-4.5108A58.9883,58.9883,0,0,0,824.52669,1433.68236Z" fill="#1f0f05"/>
        <g>
          <path d="M1173.58593,1483.25616l-13.261-286.861a134.634,134.634,0,0,0-128.03544-120.888h0a77.52853,77.52853,0,0,1-74.12364-76.8834c-.43236-58.56336-1.01229-137.30256-1.32516-178.69932a29.0783,29.0783,0,0,1,29.0952-29.29212h0a29.09848,29.09848,0,0,1,29.0988,29.097V943.45668a44.23947,44.23947,0,0,0,41.09076,44.12808h0a42.59057,42.59057,0,0,0,45.61851-43.31592l-6.349-325.46952a55.46559,55.46559,0,0,1,54.48168-56.53836h0a55.46407,55.46407,0,0,1,56.07071,61.82748l-27.995,242.1702a42.288,42.288,0,0,0,48.95852,46.57h0a42.28747,42.28747,0,0,0,35.16336-37.886l12.09024-133.07184a37.90969,37.90969,0,0,1,44.34268-33.9012h0a37.90728,37.90728,0,0,1,29.49224,48.96216l-37.058,260.564a21.84277,21.84277,0,0,1-20.7842,15.13836h0a32.31539,32.31539,0,0,0-32.3158,32.07636l-1.84932,406.02672Z" fill="#1f0f05"/>
          <polygon points="1102.655 709.27 1054.673 671.718 1115.174 688.409 1102.655 709.27" fill="#1f0f05"/>
          <polygon points="1302.012 788.546 1254.027 750.994 1314.527 767.684 1302.012 788.546" fill="#1f0f05"/>
          <polygon points="1314.527 855.888 1369.079 828.745 1327.971 876.168 1314.527 855.888" fill="#1f0f05"/>
          <polygon points="1181.011 663.957 1235.559 636.813 1194.451 684.235 1181.011 663.957" fill="#1f0f05"/>
          <polygon points="1243.596 1145.872 1298.148 1118.728 1257.04 1166.151 1243.596 1145.872" fill="#1f0f05"/>
          <polygon points="1129.778 876.168 1081.793 838.615 1142.293 855.306 1129.778 876.168" fill="#1f0f05"/>
          <polygon points="1089.657 1092.393 1028.735 1093.409 1086.254 1068.3 1089.657 1092.393" fill="#1f0f05"/>
          <polygon points="1132.907 621.649 1084.922 584.098 1145.422 600.787 1132.907 621.649" fill="#1f0f05"/>
          <polygon points="980.613 938.753 932.629 901.202 993.129 917.891 980.613 938.753" fill="#1f0f05"/>
          <polygon points="1186.035 1253.232 1128.438 1233.355 1191.076 1229.432 1186.035 1253.232" fill="#1f0f05"/>
          <polygon points="1170.401 1391.217 1144.765 1335.941 1191.041 1378.336 1170.401 1391.217" fill="#1f0f05"/>
        </g>
        <g>
          <path d="M423.92806,1044.5976,419.5249,949.342a44.713,44.713,0,0,0-42.51635-40.145h0a25.74336,25.74336,0,0,1-24.61464-25.52868c-.1422-19.44684-.33588-45.59436-.43956-59.34024a9.65665,9.65665,0,0,1,9.66276-9.72792h0a9.66209,9.66209,0,0,1,9.661,9.66276V865.3482a14.69309,14.69309,0,0,0,13.64436,14.65488h0a14.14455,14.14455,0,0,0,15.15024-14.38416l-2.10924-108.0792a18.41688,18.41688,0,0,1,18.09143-18.77328h0a18.41711,18.41711,0,0,1,18.62064,20.52937L425.37814,839.714a14.04167,14.04167,0,0,0,16.25832,15.46344h0a14.04236,14.04236,0,0,0,11.677-12.58056l4.01472-44.18784a12.58966,12.58966,0,0,1,14.72364-11.259h0a12.59,12.59,0,0,1,9.79452,16.25976l-12.3066,86.52492a7.25179,7.25179,0,0,1-6.9012,5.0274h0a10.73208,10.73208,0,0,0-10.73124,10.6524l-.61344,134.82756Z" fill="#ffc145"/>
          <polygon points="400.375 787.582 384.441 775.113 404.531 780.655 400.375 787.582" fill="#ffc145"/>
          <polygon points="466.574 813.907 450.642 801.438 470.732 806.98 466.574 813.907" fill="#ffc145"/>
          <polygon points="470.732 836.271 488.846 827.257 475.195 843.005 470.732 836.271" fill="#ffc145"/>
          <polygon points="426.394 772.536 444.509 763.523 430.857 779.27 426.394 772.536" fill="#ffc145"/>
          <polygon points="447.177 932.565 465.291 923.551 451.64 939.298 447.177 932.565" fill="#ffc145"/>
          <polygon points="409.38 843.005 393.448 830.535 413.538 836.077 409.38 843.005" fill="#ffc145"/>
          <polygon points="396.058 914.804 375.829 915.142 394.928 906.806 396.058 914.804" fill="#ffc145"/>
          <polygon points="410.419 758.487 394.487 746.018 414.577 751.56 410.419 758.487" fill="#ffc145"/>
          <polygon points="359.847 863.787 343.914 851.318 364.004 856.86 359.847 863.787" fill="#ffc145"/>
          <polygon points="428.063 968.217 408.938 961.615 429.736 960.31 428.063 968.217" fill="#ffc145"/>
          <polygon points="422.872 1014.036 414.357 995.681 429.726 1009.758 422.872 1014.036" fill="#ffc145"/>
        </g>
        <g>
          <path d="M570.60862,983.97072l-2.538-54.89316A25.762,25.762,0,0,0,543.5701,905.945h0a14.83656,14.83656,0,0,1-14.18364-14.71284c-.0828-11.20788-.19512-26.27424-.25344-34.19676a5.56325,5.56325,0,0,1,5.567-5.60556h0a5.56767,5.56767,0,0,1,5.567,5.56884v23.67576a8.466,8.466,0,0,0,7.86276,8.44452h0a8.15108,8.15108,0,0,0,8.73108-8.28972L555.6463,818.5482a10.613,10.613,0,0,1,10.4256-10.81944h0a10.6156,10.6156,0,0,1,10.7298,11.83212l-5.35788,46.341a8.09237,8.09237,0,0,0,9.369,8.91216h0a8.09435,8.09435,0,0,0,6.72912-7.25112l2.313-25.46352a7.255,7.255,0,0,1,8.4852-6.48792h0a7.2566,7.2566,0,0,1,5.64408,9.3708l-7.09272,49.86036a4.17693,4.17693,0,0,1-3.9762,2.89692h0a6.18291,6.18291,0,0,0-6.1837,6.138l-.35354,77.69556Z" fill="#ffc145"/>
          <polygon points="557.035 835.861 547.854 828.675 559.431 831.869 557.035 835.861" fill="#ffc145"/>
          <polygon points="595.183 851.031 586.002 843.845 597.579 847.039 595.183 851.031" fill="#ffc145"/>
          <polygon points="597.579 863.918 608.017 858.723 600.151 867.799 597.579 863.918" fill="#ffc145"/>
          <polygon points="572.029 827.19 582.467 821.995 574.601 831.071 572.029 827.19" fill="#ffc145"/>
          <polygon points="584.005 919.41 594.443 914.214 586.577 923.288 584.005 919.41" fill="#ffc145"/>
          <polygon points="562.224 867.799 553.043 860.613 564.62 863.807 562.224 867.799" fill="#ffc145"/>
          <polygon points="554.548 909.176 542.89 909.369 553.897 904.563 554.548 909.176" fill="#ffc145"/>
          <polygon points="562.823 819.093 553.641 811.909 565.219 815.101 562.823 819.093" fill="#ffc145"/>
          <polygon points="533.681 879.774 524.499 872.589 536.077 875.782 533.681 879.774" fill="#ffc145"/>
          <polygon points="572.991 939.952 561.969 936.148 573.956 935.399 572.991 939.952" fill="#ffc145"/>
          <polygon points="569.999 966.357 565.093 955.779 573.949 963.893 569.999 966.357" fill="#ffc145"/>
        </g>
        <path d="M0,140.4S723.6,97.2,745.2,126s-190.6524,50.4-190.6524,50.4L871.2,244.8,408.93767,259.2s322.53731,133.2,300.6,133.2C687.6,392.4,0,356.4,0,356.4Z" fill="#ffc145" opacity="0.3"/>
        <path d="M922.46469,39.6l124.48836,8.74872L704.4487,54.9l564.29818,39.6s-230.97671,61.2-250.63235,104.4c-19.04436,41.79564,237.888-39.02328,254.52071-44.27928-10.22364,5.43528-18.9,10.83528-25.34436,16.09092L988.956,332.1s199.29705-65.628,346.71416-95.68836L1207.009,316.8s164.04948-54.03528,304.59348-86.50728c68.50908,6.01164,131.32979-12.34872,143.712-16.23672-61.88219,20.988-128.22911,48.06036-138.38219,70.344-19.65564,43.2,255.38219-44.56764,255.38219-44.56764L1487.87924,417.56472C1491.553,416.37672,1659.42067,361.26036,1800,329.4V22.78836Zm735.1207,173.7-.57636-6.76764a182.1181,182.1181,0,0,1,20.15856.28836C1670.72323,208.90728,1664.17015,211.06764,1657.58539,213.3Z" fill="#ffc145" opacity="0.3"/>
        <g>
          <g>
            <g>
              <path d="M93.71088,311.49144v.6696a10.60834,10.60834,0,0,1,3.12516-2.8458,7.4261,7.4261,0,0,1,3.68784-.91584,8.25525,8.25525,0,0,1,4.53888,1.33236,9.02186,9.02186,0,0,1,3.27816,3.87612,14.08741,14.08741,0,0,1,1.2006,6.04692,15.21081,15.21081,0,0,1-.69084,4.7232,10.71185,10.71185,0,0,1-1.90872,3.62448,8.32661,8.32661,0,0,1-2.86524,2.24136,8.09624,8.09624,0,0,1-3.55284.79092,7.18992,7.18992,0,0,1-3.85308-.958,10.88927,10.88927,0,0,1-2.95992-2.81412v8.36352c0,2.45736-.85788,3.6774-2.56464,3.6774a2.01155,2.01155,0,0,1-1.99188-.94392,6.17885,6.17885,0,0,1-.48852-2.76876v-24.0642a3.56991,3.56991,0,0,1,.66276-2.3785,2.27731,2.27731,0,0,1,1.81764-.79094,2.34157,2.34157,0,0,1,1.849.81216A3.4252,3.4252,0,0,1,93.71088,311.49144Zm10.47132,8.11944a9.86015,9.86015,0,0,0-.65052-3.78826,5.5267,5.5267,0,0,0-1.79136-2.44514,4.18212,4.18212,0,0,0-2.53476-.84528,4.72306,4.72306,0,0,0-3.72816,1.82088,8.20076,8.20076,0,0,0-1.51884,5.35788,7.96292,7.96292,0,0,0,1.5048,5.16636,4.67056,4.67056,0,0,0,3.7422,1.85976,4.14226,4.14226,0,0,0,2.4732-.81756,5.55493,5.55493,0,0,0,1.81584-2.40984A9.88615,9.88615,0,0,0,104.1822,319.61088Z" fill="#231f20"/>
              <path d="M127.714,327.883v-.70488a12.02468,12.02468,0,0,1-2.0232,2.11284,7.11818,7.11818,0,0,1-2.30472,1.2834,9.20234,9.20234,0,0,1-2.85984.41472,7.21134,7.21134,0,0,1-3.47184-.833,5.93681,5.93681,0,0,1-2.37636-2.30652,10.53878,10.53878,0,0,1-.99864-5.0994V311.697a3.68258,3.68258,0,0,1,.72612-2.49264,2.42136,2.42136,0,0,1,1.91412-.83124,2.48978,2.48978,0,0,1,1.9584.842,3.653,3.653,0,0,1,.7416,2.48184v8.9316a14.78477,14.78477,0,0,0,.3042,3.24468,3.99785,3.99785,0,0,0,1.139,2.07254,3.10478,3.10478,0,0,0,2.192.73834,4.32606,4.32606,0,0,0,2.5434-.83664,4.73822,4.73822,0,0,0,1.74744-2.1762,18.12979,18.12979,0,0,0,.45-5.19084V311.697a3.63492,3.63492,0,0,1,.7452-2.48184,2.44739,2.44739,0,0,1,1.93176-.842,2.42073,2.42073,0,0,1,1.91628.83124,3.69206,3.69206,0,0,1,.72072,2.49264v16.15248a3.4917,3.4917,0,0,1-.69444,2.38536,2.22062,2.22062,0,0,1-1.78416.79632,2.31629,2.31629,0,0,1-1.8072-.8226A3.45837,3.45837,0,0,1,127.714,327.883Z" fill="#231f20"/>
            </g>
            <path d="M142.9506,303.26148v8.52012a12.36265,12.36265,0,0,1,3.069-2.51568,7.94588,7.94588,0,0,1,3.87792-.86652,8.40828,8.40828,0,0,1,4.667,1.31472,8.672,8.672,0,0,1,3.10932,3.82176,14.54162,14.54162,0,0,1,1.10772,5.93244,16.864,16.864,0,0,1-.612,4.6548,11.47361,11.47361,0,0,1-1.791,3.6648,8.54409,8.54409,0,0,1-2.8512,2.4066,8.1756,8.1756,0,0,1-3.68784.84024,8.53254,8.53254,0,0,1-2.3238-.30744A6.20256,6.20256,0,0,1,145.67,329.917a7.69077,7.69077,0,0,1-1.30248-1.01952c-.36216-.35892-.8298-.88452-1.417-1.59444v.54648a3.44462,3.44462,0,0,1-.73116,2.38536,2.34942,2.34942,0,0,1-1.83168.79992,2.24459,2.24459,0,0,1-1.814-.79992,3.68394,3.68394,0,0,1-.6714-2.38536V303.50556a4.20878,4.20878,0,0,1,.65556-2.55564,2.14119,2.14119,0,0,1,1.82988-.86832,2.28084,2.28084,0,0,1,1.89144.83124A3.61354,3.61354,0,0,1,142.9506,303.26148Zm.25668,16.5726a7.94254,7.94254,0,0,0,1.45008,5.11344,4.73086,4.73086,0,0,0,3.8304,1.78956,4.3505,4.3505,0,0,0,3.47688-1.83168,8.18779,8.18779,0,0,0,1.45728-5.233,10.68147,10.68147,0,0,0-.6048-3.80412,5.56547,5.56547,0,0,0-1.719-2.461,4.16834,4.16834,0,0,0-2.61036-.87516,4.50866,4.50866,0,0,0-2.71944.87516,5.71032,5.71032,0,0,0-1.88064,2.51208A10.10292,10.10292,0,0,0,143.20728,319.83408Z" fill="#231f20"/>
            <g>
              <path d="M162.55008,327.64212V303.47064a3.88768,3.88768,0,0,1,.71208-2.53476,2.38631,2.38631,0,0,1,1.92816-.85428,2.479,2.479,0,0,1,1.9566.84708,3.81237,3.81237,0,0,1,.74016,2.542v24.17148a3.78785,3.78785,0,0,1-.7524,2.5524,2.50466,2.50466,0,0,1-1.94436.84024,2.36753,2.36753,0,0,1-1.90728-.87876A3.80209,3.80209,0,0,1,162.55008,327.64212Z" fill="#231f20"/>
              <path d="M176.1012,305.77682a2.72851,2.72851,0,0,1-1.91088-.72614,2.62631,2.62631,0,0,1-.78552-2.025,2.5831,2.5831,0,0,1,.81216-1.9494,2.626,2.626,0,0,1,1.88424-.75384,2.74833,2.74833,0,0,1,1.84392.68544,2.55053,2.55053,0,0,1,.80172,2.0178,2.60973,2.60973,0,0,1-.78228,2.011A2.65378,2.65378,0,0,1,176.1012,305.77682Zm2.64564,5.76574v16.09956a3.75119,3.75119,0,0,1-.7596,2.53836,2.51813,2.51813,0,0,1-1.939.85428,2.36945,2.36945,0,0,1-1.90692-.87372,3.85477,3.85477,0,0,1-.73656-2.51892V311.697a3.68839,3.68839,0,0,1,.73656-2.48184,2.4062,2.4062,0,0,1,1.90692-.842,2.51223,2.51223,0,0,1,1.939.842A3.37,3.37,0,0,1,178.74684,311.54256Z" fill="#231f20"/>
              <path d="M203.39459,324.13356a5.00149,5.00149,0,0,1-.58859,2.22372,7.72624,7.72624,0,0,1-1.82665,2.2536,9.16338,9.16338,0,0,1-3.07944,1.7208,12.33014,12.33014,0,0,1-4.18212.65736,10.00355,10.00355,0,0,1-7.73244-3.00924,11.42677,11.42677,0,0,1-2.7774-8.07192,13.86124,13.86124,0,0,1,1.264-6.06456,9.4515,9.4515,0,0,1,3.68244-4.06944,10.94165,10.94165,0,0,1,5.74812-1.44288,11.20017,11.20017,0,0,1,3.81276.62928,10,10,0,0,1,2.9304,1.63476,7.87032,7.87032,0,0,1,1.84392,2.13552,4.26554,4.26554,0,0,1,.63288,2.11284,2.308,2.308,0,0,1-.71208,1.69128,2.40018,2.40018,0,0,1-1.733.69588,1.72093,1.72093,0,0,1-1.10952-.3672,5.26078,5.26078,0,0,1-.986-1.14624,8.60866,8.60866,0,0,0-2.04408-2.33964,4.8678,4.8678,0,0,0-6.5286,1.15848,8.66858,8.66858,0,0,0-1.43964,5.28408,10.71969,10.71969,0,0,0,.369,2.89332,6.86863,6.86863,0,0,0,1.07064,2.2464,4.5744,4.5744,0,0,0,1.71036,1.40616,4.88832,4.88832,0,0,0,2.183.48528,4.74675,4.74675,0,0,0,2.74932-.77508,6.71049,6.71049,0,0,0,2.025-2.36448,5.47509,5.47509,0,0,1,1.06343-1.48356,1.94778,1.94778,0,0,1,1.38852-.5202,2.02543,2.02543,0,0,1,1.62432.76644A2.61525,2.61525,0,0,1,203.39459,324.13356Z" fill="#231f20"/>
              <path d="M222.68843,327.84948V327.303a13.01648,13.01648,0,0,1-2.12688,2.08656,7.70026,7.70026,0,0,1-2.26224,1.23048,8.42706,8.42706,0,0,1-2.67011.41472,7.6985,7.6985,0,0,1-3.54925-.84024,8.60821,8.60821,0,0,1-2.82132-2.42748,11.2818,11.2818,0,0,1-1.814-3.70008,16.31331,16.31331,0,0,1-.61524-4.59864c0-3.47688.81576-6.205,2.44332-8.15076a7.99319,7.99319,0,0,1,6.43536-2.91816,8.16676,8.16676,0,0,1,3.892.842,10.63713,10.63713,0,0,1,3.08843,2.54016v-8.23032a4.27844,4.27844,0,0,1,.65917-2.59272,2.17784,2.17784,0,0,1,1.86155-.877,2.29662,2.29662,0,0,1,1.872.80136,3.6877,3.6877,0,0,1,.66276,2.37852v24.588a3.49213,3.49213,0,0,1-.71028,2.38536,2.43587,2.43587,0,0,1-3.63312-.02628A3.48538,3.48538,0,0,1,222.68843,327.84948Zm-10.494-8.177a9.83169,9.83169,0,0,0,.6768,3.85812,5.3,5.3,0,0,0,1.83492,2.389,4.41214,4.41214,0,0,0,2.5614.81756,4.62265,4.62265,0,0,0,2.57508-.76644,5.309,5.309,0,0,0,1.86156-2.35224,9.85268,9.85268,0,0,0,.69084-3.946,9.61079,9.61079,0,0,0-.69084-3.834,5.84127,5.84127,0,0,0-1.8792-2.461,4.38588,4.38588,0,0,0-2.58732-.84528,4.28443,4.28443,0,0,0-2.623.87516A5.57391,5.57391,0,0,0,212.83055,315.9,10.32137,10.32137,0,0,0,212.19443,319.67244Z" fill="#231f20"/>
              <path d="M253.09151,319.71456a13.77583,13.77583,0,0,1-.7416,4.59648,10.33742,10.33742,0,0,1-2.14812,3.6072,9.65072,9.65072,0,0,1-3.3696,2.3166,11.51374,11.51374,0,0,1-4.40172.79992,10.98191,10.98191,0,0,1-4.36284-.8172,9.64083,9.64083,0,0,1-3.35556-2.3346,10.3272,10.3272,0,0,1-2.15712-3.586,14.9152,14.9152,0,0,1,.0126-9.2196,10.39229,10.39229,0,0,1,2.13012-3.6,9.42268,9.42268,0,0,1,3.37-2.29214,12.16876,12.16876,0,0,1,8.76456.00864,9.5665,9.5665,0,0,1,3.38184,2.3328,10.01027,10.01027,0,0,1,2.13912,3.5982A13.41121,13.41121,0,0,1,253.09151,319.71456Zm-5.35428,0a8.59724,8.59724,0,0,0-1.44648-5.30352,4.61545,4.61545,0,0,0-3.86028-1.90008,4.67359,4.67359,0,0,0-2.76336.84888,5.3804,5.3804,0,0,0-1.83168,2.50848,10.33666,10.33666,0,0,0-.65016,3.84624,10.51107,10.51107,0,0,0,.63612,3.816,5.51751,5.51751,0,0,0,1.823,2.50308,4.89429,4.89429,0,0,0,6.64632-1.0458A8.5436,8.5436,0,0,0,247.73723,319.71456Z" fill="#231f20"/>
              <path d="M275.65127,315.11268a14.36014,14.36014,0,0,0-.5922,4.99716v7.40592a3.92694,3.92694,0,0,1-.76464,2.64024,2.53684,2.53684,0,0,1-2.02.87876A2.44534,2.44534,0,0,1,270.32,330.156a4.00178,4.00178,0,0,1-.7506-2.64024v-8.88768a29.64746,29.64746,0,0,0-.14436-3.27132,3.71428,3.71428,0,0,0-.738-1.90908,2.32763,2.32763,0,0,0-1.91627-.7488c-1.74349,0-2.88973.62928-3.4524,1.88964a13.78806,13.78806,0,0,0-.82585,5.39136v7.53588a3.96,3.96,0,0,1-.7506,2.6226,2.64727,2.64727,0,0,1-3.97115,0,3.83145,3.83145,0,0,1-.76969-2.61574V311.56884a3.62013,3.62013,0,0,1,.68184-2.389,2.31478,2.31478,0,0,1,1.83528-.8226,2.42984,2.42984,0,0,1,1.82808.76464,2.91806,2.91806,0,0,1,.733,2.11464v.5292a9.31347,9.31347,0,0,1,2.97073-2.5506,7.62723,7.62723,0,0,1,3.52259-.81576,6.75873,6.75873,0,0,1,3.45781.842,6.34947,6.34947,0,0,1,2.38175,2.52432,9.42908,9.42908,0,0,1,2.90052-2.53834,7.10376,7.10376,0,0,1,3.41712-.828,7.41632,7.41632,0,0,1,3.77748.9,5.59349,5.59349,0,0,1,2.36772,2.57184,12.15692,12.15692,0,0,1,.68544,4.76172v10.8828a3.99367,3.99367,0,0,1-.75563,2.64024,2.56113,2.56113,0,0,1-2.02.87876,2.4631,2.4631,0,0,1-1.98108-.8964,3.81229,3.81229,0,0,1-.78192-2.6226v-9.378a22.58714,22.58714,0,0,0-.14616-2.87748,3.29773,3.29773,0,0,0-.79452-1.81764,2.45773,2.45773,0,0,0-1.9512-.74376,3.49688,3.49688,0,0,0-1.99835.64872,4.38465,4.38465,0,0,0-1.48033,1.76508Z" fill="#231f20"/>
              <path d="M306.24263,327.897a16.19822,16.19822,0,0,1-3.7458,2.34684,9.942,9.942,0,0,1-4.0554.79092,7.54237,7.54237,0,0,1-3.61583-.84024,6.049,6.049,0,0,1-2.3976-2.31156,6.1556,6.1556,0,0,1-.84385-3.13776,5.80419,5.80419,0,0,1,1.39752-3.9024,6.90514,6.90514,0,0,1,3.80376-2.16036c.34272-.08062,1.18657-.25992,2.52612-.54468,1.3536-.29194,2.49445-.55188,3.46645-.78588.95255-.23544,1.99871-.5256,3.11831-.86292a6.13744,6.13744,0,0,0-.85248-3.25548c-.50472-.6822-1.55052-1.01952-3.12372-1.01952a6.288,6.288,0,0,0-3.069.5886,4.94463,4.94463,0,0,0-1.75428,1.786c-.49572.78588-.8334,1.30608-1.03536,1.55916a1.66171,1.66171,0,0,1-1.301.36936,2.19033,2.19033,0,0,1-1.55016-.59436,1.981,1.981,0,0,1-.66456-1.54656,4.78889,4.78889,0,0,1,.99829-2.8494,7.22182,7.22182,0,0,1,3.10967-2.2993,13.5095,13.5095,0,0,1,5.26644-.89642,14.43039,14.43039,0,0,1,5.544.87336,5.1776,5.1776,0,0,1,2.839,2.74392,12.36521,12.36521,0,0,1,.8334,4.97664c0,1.3043,0,2.42568-.009,3.33108-.01224.91728-.01764,1.93176-.02987,3.04632a11.54649,11.54649,0,0,0,.50111,3.271,11.14562,11.14562,0,0,1,.49212,2.19384,2.10413,2.10413,0,0,1-.77328,1.56456,2.51327,2.51327,0,0,1-1.74384.70308,2.336,2.336,0,0,1-1.62971-.79992A12.48238,12.48238,0,0,1,306.24263,327.897Zm-.34632-8.077a26.01641,26.01641,0,0,1-3.41711.95616c-1.49437.33408-2.53153.57312-3.10609.73476a4.20518,4.20518,0,0,0-1.63836.91586,2.42866,2.42866,0,0,0-.78732,1.9195,2.87417,2.87417,0,0,0,.91908,2.155,3.30477,3.30477,0,0,0,2.41164.89316,6.01573,6.01573,0,0,0,2.925-.733,4.68227,4.68227,0,0,0,1.9638-1.867,8.85445,8.85445,0,0,0,.72936-4.18Z" fill="#231f20"/>
              <path d="M319.26455,305.77682a2.69406,2.69406,0,0,1-1.90188-.72614,2.84083,2.84083,0,0,1,.02088-3.9744,2.62686,2.62686,0,0,1,1.881-.75384,2.75825,2.75825,0,0,1,1.84392.68544,2.55343,2.55343,0,0,1,.79633,2.0178,2.59081,2.59081,0,0,1-.78229,2.011A2.65348,2.65348,0,0,1,319.26455,305.77682Zm2.64025,5.76574v16.09956a3.742,3.742,0,0,1-.76141,2.53836,2.49835,2.49835,0,0,1-1.93176.85428,2.37356,2.37356,0,0,1-1.91052-.87372,3.82466,3.82466,0,0,1-.73836-2.51892V311.697a3.66022,3.66022,0,0,1,.73836-2.48184,2.41049,2.41049,0,0,1,1.91052-.842,2.49244,2.49244,0,0,1,1.93176.842A3.362,3.362,0,0,1,321.9048,311.54256Z" fill="#231f20"/>
            </g>
            <g>
              <path d="M332.27927,311.45976v.66636a9.44742,9.44742,0,0,1,3.0708-2.84256,7.968,7.968,0,0,1,3.85668-.91044,7.36329,7.36329,0,0,1,3.77748.9684,5.9611,5.9611,0,0,1,2.4786,2.7018,6.95256,6.95256,0,0,1,.684,2.21148,25.22548,25.22548,0,0,1,.158,3.01968v10.36764a3.84518,3.84518,0,0,1-.73656,2.53836,2.425,2.425,0,0,1-1.90728.85428,2.36218,2.36218,0,0,1-1.91952-.87876,3.758,3.758,0,0,1-.75564-2.51388V318.361a9.6836,9.6836,0,0,0-.72432-4.22064,2.9849,2.9849,0,0,0-2.939-1.46232,4.19805,4.19805,0,0,0-2.60171.89282,4.9935,4.9935,0,0,0-1.71541,2.43826,17.91628,17.91628,0,0,0-.401,4.66344v6.9696a3.75013,3.75013,0,0,1-.7506,2.5524,2.51243,2.51243,0,0,1-1.9458.84024,2.3769,2.3769,0,0,1-1.89324-.87372,3.75147,3.75147,0,0,1-.747-2.51892V311.54256a3.592,3.592,0,0,1,.66816-2.38032,2.25358,2.25358,0,0,1,1.81908-.78912,2.37279,2.37279,0,0,1,2.178,1.38348A4.00562,4.00562,0,0,1,332.27927,311.45976Z" fill="#231f20"/>
              <path d="M354.87611,311.8446l4.31352,12.65472,4.6566-13.2084a8.22666,8.22666,0,0,1,1.08432-2.25324,1.94927,1.94927,0,0,1,1.59985-.66456,2.37664,2.37664,0,0,1,1.74527.72432,2.27487,2.27487,0,0,1,.70668,1.65384,3.34094,3.34094,0,0,1-.13176.84024,6.59377,6.59377,0,0,1-.29016.93348c-.11412.27756-.22824.61164-.38123.9738L363.05171,326.767c-.14616.38126-.33408.87012-.55908,1.45692a8.89959,8.89959,0,0,1-.76284,1.5048,3.22349,3.22349,0,0,1-1.03356.958,3.068,3.068,0,0,1-1.5066.34812,2.82231,2.82231,0,0,1-1.80864-.536,3.468,3.468,0,0,1-.99864-1.19016c-.211-.42192-.57995-1.2708-1.08468-2.5416l-5.0904-13.12416c-.11952-.32328-.24264-.65376-.36936-.977-.11951-.32724-.216-.65412-.30744-.99864a4.18406,4.18406,0,0,1-.12816-.8737,2.15588,2.15588,0,0,1,.33912-1.14086,2.61676,2.61676,0,0,1,.91764-.92088,2.446,2.446,0,0,1,1.2744-.35856,1.97,1.97,0,0,1,1.82628.80676A12.75752,12.75752,0,0,1,354.87611,311.8446Z" fill="#231f20"/>
            </g>
            <g>
              <path d="M387.17387,321.0678H376.72379a7.71516,7.71516,0,0,0,.72432,3.35772,5.36591,5.36591,0,0,0,1.90189,2.18124,4.83832,4.83832,0,0,0,2.61755.73116,6.36572,6.36572,0,0,0,1.74888-.225,6.14852,6.14852,0,0,0,1.54152-.7398,11.2596,11.2596,0,0,0,1.36224-1.07928c.41328-.3762.97056-.88776,1.62072-1.54332a1.668,1.668,0,0,1,1.17792-.373,1.84968,1.84968,0,0,1,1.33056.47124,1.69738,1.69738,0,0,1,.50436,1.32192,3.73792,3.73792,0,0,1-.56592,1.77552,6.8872,6.8872,0,0,1-1.714,1.9404,9.88941,9.88941,0,0,1-2.87568,1.54008,11.90562,11.90562,0,0,1-3.98124.608q-5.13918,0-7.99452-3.05856a11.73733,11.73733,0,0,1-2.8512-8.30376,14.60446,14.60446,0,0,1,.70308-4.59,10.14762,10.14762,0,0,1,2.05129-3.62268,8.691,8.691,0,0,1,3.32567-2.3202,11.508,11.508,0,0,1,4.38768-.80856,9.99,9.99,0,0,1,5.35932,1.38312,8.86439,8.86439,0,0,1,3.35773,3.54924,9.719,9.719,0,0,1,1.11419,4.46292c0,1.39572-.37259,2.30472-1.14948,2.71584A6.84056,6.84056,0,0,1,387.17387,321.0678Zm-10.45008-3.16908h9.6804a6.85478,6.85478,0,0,0-1.47492-4.26816,4.35132,4.35132,0,0,0-3.3786-1.4166,4.17656,4.17656,0,0,0-3.26772,1.436A7.35348,7.35348,0,0,0,376.72379,317.89872Z" fill="#231f20"/>
              <path d="M415.23046,324.13356a4.889,4.889,0,0,1-.6012,2.22372,7.44584,7.44584,0,0,1-1.81943,2.2536,9.15119,9.15119,0,0,1-3.08663,1.7208,12.32132,12.32132,0,0,1-4.17817.65736,9.98718,9.98718,0,0,1-7.731-3.00924,11.46124,11.46124,0,0,1-2.781-8.07192,13.66759,13.66759,0,0,1,1.278-6.06456,9.34553,9.34553,0,0,1,3.672-4.06944,10.95022,10.95022,0,0,1,5.75532-1.44288,11.23753,11.23753,0,0,1,3.80916.62928,10.25219,10.25219,0,0,1,2.93364,1.63476,7.849,7.849,0,0,1,1.84067,2.13552,4.415,4.415,0,0,1,.63252,2.11284,2.24841,2.24841,0,0,1-.72394,1.69128,2.3712,2.3712,0,0,1-1.723.69588,1.66629,1.66629,0,0,1-1.09836-.3672,5.10487,5.10487,0,0,1-1.00187-1.14624,8.53734,8.53734,0,0,0-2.0376-2.33964,4.86041,4.86041,0,0,0-6.5232,1.15848,8.59993,8.59993,0,0,0-1.45009,5.28408,11.07385,11.07385,0,0,0,.369,2.89332,6.71959,6.71959,0,0,0,1.08109,2.2464,4.5959,4.5959,0,0,0,1.70351,1.40616,4.86239,4.86239,0,0,0,2.18844.48528,4.7586,4.7586,0,0,0,2.74932-.77508,6.86812,6.86812,0,0,0,2.03-2.36448,5.30731,5.30731,0,0,1,1.0548-1.48356,1.92008,1.92008,0,0,1,1.38672-.5202,1.9889,1.9889,0,0,1,1.61387.76644A2.55079,2.55079,0,0,1,415.23046,324.13356Z" fill="#231f20"/>
              <path d="M420.1909,308.84582h.589V305.492c0-.88956.02124-1.60308.0702-2.1096a3.04569,3.04569,0,0,1,.3816-1.31472,2.4743,2.4743,0,0,1,2.20608-1.278,2.58689,2.58689,0,0,1,1.83492.7895,2.43418,2.43418,0,0,1,.69444,1.292,12.01564,12.01564,0,0,1,.1458,2.17944v3.79514h1.9638a2.42971,2.42971,0,0,1,1.72944.56266,1.85588,1.85588,0,0,1,.5976,1.43424,1.61277,1.61277,0,0,1-.85608,1.575,5.3515,5.3515,0,0,1-2.43432.4464H426.1129v10.26576a18.14207,18.14207,0,0,0,.0864,2.0196,2.14725,2.14725,0,0,0,.48312,1.139,1.5273,1.5273,0,0,0,1.23948.44856,6.23347,6.23347,0,0,0,1.2744-.17784,6.21486,6.21486,0,0,1,1.24812-.17208,1.61972,1.61972,0,0,1,1.16352.53244,1.908,1.908,0,0,1,.51876,1.34136,2.23149,2.23149,0,0,1-1.40652,2.06172,9.23485,9.23485,0,0,1-4.05.71208A6.76566,6.76566,0,0,1,422.87,330.156a4.02366,4.02366,0,0,1-1.68588-2.43828,16.85144,16.85144,0,0,1-.40428-4.14144V312.86412h-.71208a2.45571,2.45571,0,0,1-1.75248-.57276,1.87644,1.87644,0,0,1-.60624-1.44864,1.83963,1.83963,0,0,1,.62748-1.43424A2.73829,2.73829,0,0,1,420.1909,308.84582Z" fill="#231f20"/>
              <path d="M454.064,319.71456a13.64967,13.64967,0,0,1-.747,4.59648,10.27778,10.27778,0,0,1-2.14812,3.6072,9.66067,9.66067,0,0,1-3.36456,2.3166,11.44756,11.44756,0,0,1-4.40136.79992,10.93993,10.93993,0,0,1-4.36644-.8172,9.58548,9.58548,0,0,1-3.35232-2.3346,10.12469,10.12469,0,0,1-2.14776-3.586,13.78005,13.78005,0,0,1-.72972-4.59144,14.00269,14.00269,0,0,1,.72972-4.62816,10.45524,10.45524,0,0,1,2.13372-3.6,9.48461,9.48461,0,0,1,3.36636-2.29214,11.55582,11.55582,0,0,1,4.36644-.81216,11.41315,11.41315,0,0,1,4.40136.8208,9.51987,9.51987,0,0,1,3.3822,2.3328,10.15117,10.15117,0,0,1,2.14452,3.5982A13.76872,13.76872,0,0,1,454.064,319.71456Zm-5.35968,0a8.66381,8.66381,0,0,0-1.436-5.30352,4.89275,4.89275,0,0,0-6.62508-1.0512,5.33782,5.33782,0,0,0-1.83528,2.50848,11.68,11.68,0,0,0-.00864,7.66224,5.45429,5.45429,0,0,0,1.814,2.50308,4.90507,4.90507,0,0,0,6.655-1.0458A8.60971,8.60971,0,0,0,448.70434,319.71456Z" fill="#231f20"/>
            </g>
            <path d="M463.5792,322.99992v4.6422a3.72526,3.72526,0,0,1-.76466,2.5524,2.52252,2.52252,0,0,1-1.94076.84024,2.41716,2.41716,0,0,1-1.89324-.85428,3.75948,3.75948,0,0,1-.738-2.53836v-15.511c0-2.50848.86112-3.758,2.596-3.758a2.16958,2.16958,0,0,1,1.91952.88056,5.17779,5.17779,0,0,1,.64512,2.59092,9.61242,9.61242,0,0,1,1.96886-2.59092,3.95706,3.95706,0,0,1,2.6791-.88056,6.73539,6.73539,0,0,1,3.27636.88056,2.62914,2.62914,0,0,1,1.58724,2.3256,2.26064,2.26064,0,0,1-.68184,1.68408,2.052,2.052,0,0,1-1.45726.6678,6.55885,6.55885,0,0,1-1.42022-.38484,6.43835,6.43835,0,0,0-1.99008-.3798,2.75047,2.75047,0,0,0-1.90548.65052,4.16884,4.16884,0,0,0-1.15992,1.90368,13.58225,13.58225,0,0,0-.56628,3.02184C463.63174,319.89744,463.5792,321.314,463.5792,322.99992Z" fill="#231f20"/>
            <path d="M492.02746,323.75376a7.00652,7.00652,0,0,1-1.08466,3.95172,6.67145,6.67145,0,0,1-3.18134,2.49264,14.00471,14.00471,0,0,1-5.126.83664,12.08659,12.08659,0,0,1-4.92876-.91944,7.20384,7.20384,0,0,1-3.02688-2.2921,4.6964,4.6964,0,0,1-.99324-2.758,2.17047,2.17047,0,0,1,.64152-1.5732,2.0696,2.0696,0,0,1,1.5768-.65412,1.83157,1.83157,0,0,1,1.29744.42552,5.10073,5.10073,0,0,1,.85932,1.20924,5.95812,5.95812,0,0,0,1.97424,2.23092,5.62259,5.62259,0,0,0,3.12156.73656,4.37126,4.37126,0,0,0,2.628-.7488,2.12808,2.12808,0,0,0,1.03716-1.70352,2.35023,2.35023,0,0,0-1.06884-2.14272,12.402,12.402,0,0,0-3.5172-1.292,29.30947,29.30947,0,0,1-4.48956-1.4994,7.44577,7.44577,0,0,1-2.77738-2.07756,4.8797,4.8797,0,0,1-1.0404-3.164,5.68929,5.68929,0,0,1,.96154-3.1608,6.6799,6.6799,0,0,1,2.83356-2.38536,10.417,10.417,0,0,1,4.51224-.8928,14.3635,14.3635,0,0,1,3.72816.4518,8.97464,8.97464,0,0,1,2.75472,1.20384,5.85174,5.85174,0,0,1,1.68732,1.66824,3.382,3.382,0,0,1,.58032,1.8018,2.13192,2.13192,0,0,1-.62064,1.5786,2.44432,2.44432,0,0,1-1.74744.603,2.07469,2.07469,0,0,1-1.40616-.49392,9.61765,9.61765,0,0,1-1.31832-1.45726,4.81512,4.81512,0,0,0-1.431-1.3115,4.40055,4.40055,0,0,0-2.227-.4885,4.15975,4.15975,0,0,0-2.403.6451,1.88556,1.88556,0,0,0-.9666,1.6031,1.773,1.773,0,0,0,.70308,1.44142,5.90612,5.90612,0,0,0,1.90188.93168c.79992.24588,1.89324.55008,3.29076.9a16.72534,16.72534,0,0,1,4.05864,1.51164,6.71535,6.71535,0,0,1,2.38536,2.06892A4.7105,4.7105,0,0,1,492.02746,323.75376Z" fill="#231f20"/>
            <g>
              <path d="M498.09022,331.03476a2.9197,2.9197,0,0,1-2.97432-3.09708,3.05742,3.05742,0,0,1,.8298-2.14308,2.74539,2.74539,0,0,1,2.083-.8892,2.78251,2.78251,0,0,1,2.08656.88416,3.206,3.206,0,0,1,0,4.419A2.80406,2.80406,0,0,1,498.09022,331.03476Z" fill="#231f20"/>
              <path d="M527.0749,319.71456a13.51726,13.51726,0,0,1-.7524,4.59648,10.28342,10.28342,0,0,1-2.1481,3.6072,9.582,9.582,0,0,1-3.36458,2.3166,11.454,11.454,0,0,1-4.40136.79992,10.97087,10.97087,0,0,1-4.36284-.8172,9.56151,9.56151,0,0,1-3.34692-2.3346,10.14342,10.14342,0,0,1-2.16576-3.586,14.01456,14.01456,0,0,1-.72432-4.59144,13.78037,13.78037,0,0,1,.742-4.62816,10.43805,10.43805,0,0,1,2.12508-3.6,9.43527,9.43527,0,0,1,3.37-2.29214,12.1678,12.1678,0,0,1,8.7642.00864,9.51216,9.51216,0,0,1,3.3876,2.3328,10.281,10.281,0,0,1,2.14272,3.5982A13.72273,13.72273,0,0,1,527.0749,319.71456Zm-5.36832,0a8.63034,8.63034,0,0,0-1.44144-5.30352,4.60657,4.60657,0,0,0-3.85668-1.90008,4.655,4.655,0,0,0-2.75472.84888,5.34019,5.34019,0,0,0-1.83672,2.50848,11.85211,11.85211,0,0,0-.01764,7.66224,5.578,5.578,0,0,0,1.82808,2.50308,4.88354,4.88354,0,0,0,6.63768-1.0458A8.57648,8.57648,0,0,0,521.70658,319.71456Z" fill="#231f20"/>
            </g>
            <path d="M536.58466,322.99992v4.6422a3.75065,3.75065,0,0,1-.7596,2.5524,2.51537,2.51537,0,0,1-1.93356.84024,2.42907,2.42907,0,0,1-1.90548-.85428,3.75969,3.75969,0,0,1-.7434-2.53836v-15.511c0-2.50848.87876-3.758,2.605-3.758a2.13586,2.13586,0,0,1,1.91086.88056,5.082,5.082,0,0,1,.65916,2.59092,9.44733,9.44733,0,0,1,1.9548-2.59092,3.98383,3.98383,0,0,1,2.68416-.88056,6.66663,6.66663,0,0,1,3.27276.88056,2.62072,2.62072,0,0,1,1.59084,2.3256,2.26621,2.26621,0,0,1-.6732,1.68408,2.085,2.085,0,0,1-1.46592.6678,6.59823,6.59823,0,0,1-1.41156-.38484,6.43982,6.43982,0,0,0-1.99332-.3798,2.814,2.814,0,0,0-1.91952.65052,4.23087,4.23087,0,0,0-1.15128,1.90368,14.00037,14.00037,0,0,0-.56268,3.02184C536.64262,319.89744,536.58466,321.314,536.58466,322.99992Z" fill="#231f20"/>
            <path d="M567.48526,312.453v16.1982a17.94522,17.94522,0,0,1-.57132,4.77432,7.74819,7.74819,0,0,1-1.81944,3.31164,7.6307,7.6307,0,0,1-3.27312,1.939,17.55744,17.55744,0,0,1-5.03784.62748,14.06569,14.06569,0,0,1-4.93416-.79812,8.54455,8.54455,0,0,1-3.34692-2.092,3.85059,3.85059,0,0,1-1.17756-2.6244,2.26055,2.26055,0,0,1,2.27088-2.30976,2.62091,2.62091,0,0,1,2.06028,1.08288c.28656.378.589.74376.88776,1.11276a4.89018,4.89018,0,0,0,1.01412.96336,3.9049,3.9049,0,0,0,1.35.5994,7.45712,7.45712,0,0,0,1.7964.19332,7.03232,7.03232,0,0,0,3.21516-.6048,3.38123,3.38123,0,0,0,1.6121-1.68046,6.70526,6.70526,0,0,0,.5184-2.3166c.06694-.83522.10186-2.14994.13714-3.978a9.07316,9.07316,0,0,1-2.8512,2.73168,7.49959,7.49959,0,0,1-3.83544.93168,7.78141,7.78141,0,0,1-4.69188-1.4256,8.98015,8.98015,0,0,1-3.08844-4.00428,15.43111,15.43111,0,0,1-1.07568-5.9364,14.38074,14.38074,0,0,1,.66276-4.54572,9.32792,9.32792,0,0,1,1.8666-3.40308,7.97367,7.97367,0,0,1,2.795-2.0988,8.59707,8.59707,0,0,1,3.48408-.70128,8.04947,8.04947,0,0,1,3.92688.91584,9.55737,9.55737,0,0,1,3.092,2.8458v-.7488a3.44242,3.44242,0,0,1,.68544-2.26042,2.23939,2.23939,0,0,1,1.75788-.79454,2.06462,2.06462,0,0,1,2.06352,1.0512A7.31473,7.31473,0,0,1,567.48526,312.453Zm-15.48108,7.06968a7.96707,7.96707,0,0,0,1.422,5.12784,4.52811,4.52811,0,0,0,3.65976,1.73664,4.65891,4.65891,0,0,0,2.51712-.756,5.431,5.431,0,0,0,1.93356-2.241,8.16819,8.16819,0,0,0,.73836-3.64248,8.62485,8.62485,0,0,0-1.44144-5.305,4.49319,4.49319,0,0,0-3.77748-1.91052,4.40279,4.40279,0,0,0-3.66516,1.82088A8.38077,8.38077,0,0,0,552.00418,319.52268Z" fill="#231f20"/>
          </g>
          <g>
            <path d="M296.7732,253.183a32.25527,32.25527,0,0,1,9.16343-23.11884,30.36666,30.36666,0,0,1,44.27064,0,33.715,33.715,0,0,1,0,46.23948,30.34325,30.34325,0,0,1-44.27064,0A32.22423,32.22423,0,0,1,296.7732,253.183Zm8.04743,0a25.609,25.609,0,0,0,6.7374,17.97732,22.238,22.238,0,0,0,33.02064,0,27.35814,27.35814,0,0,0,0-35.951,22.238,22.238,0,0,0-33.02064,0A25.61555,25.61555,0,0,0,304.82063,253.183Zm31.18356,4.99572h7.924a14.9178,14.9178,0,0,1-5.22215,10.00548,14.35206,14.35206,0,0,1-9.76825,3.50676,15.42985,15.42985,0,0,1-12.384-5.44392q-4.3821-5.1732-4.38048-13.34337c0-5.57751,1.45044-10.03539,4.34016-13.41039q4.32972-5.03874,12.24864-5.05044A15.65542,15.65542,0,0,1,338.706,237.614a14.46974,14.46974,0,0,1,5.22215,9.57672h-7.924q-1.0206-5.36328-6.583-5.35788-9.18108,0-9.19008,10.886a13.83885,13.83885,0,0,0,2.36268,8.34264,7.7558,7.7558,0,0,0,6.66036,3.25188Q335.6559,264.31344,336.00419,258.17868Z" fill="#231f20"/>
            <polygon points="309.442 273.69 314.005 277.562 347.585 234.448 343.02 230.581 309.442 273.69" fill="#231f20"/>
          </g>
        </g>
      </g>
    </g>
  </g>
</svg>
