<svg xmlns="http://www.w3.org/2000/svg" width="1340" height="1703.545" viewBox="0 0 1340 1703.545">
  <g style="isolation: isolate">
    <g id="Layer_2" data-name="Layer 2">
      <g id="Publicdomainvectors.org">
        <g id="digital-background-2">
          <g opacity="0.4">
            <g>
              <g>
                <path d="M168.55286,88.55751v.652a10.30976,10.30976,0,0,1,3.03933-2.77,7.22807,7.22807,0,0,1,3.59079-.89144,8.0468,8.0468,0,0,1,4.41581,1.29744,8.77171,8.77171,0,0,1,3.18894,3.7726,13.67161,13.67161,0,0,1,1.167,5.884,14.75263,14.75263,0,0,1-.67114,4.59532,10.43449,10.43449,0,0,1-1.85524,3.52681,8.12284,8.12284,0,0,1-2.7914,2.1821,7.87866,7.87866,0,0,1-3.454.76954,6.99677,6.99677,0,0,1-3.74894-.932,10.6036,10.6036,0,0,1-2.88118-2.74v8.139c0,2.39177-.83357,3.578-2.49643,3.578a1.95013,1.95013,0,0,1-1.93647-.917,6.00145,6.00145,0,0,1-.47877-2.69512v-23.417a3.48712,3.48712,0,0,1,.64548-2.31471,2.22176,2.22176,0,0,1,1.76976-.76953,2.28158,2.28158,0,0,1,1.79965.79076A3.33437,3.33437,0,0,1,168.55286,88.55751Zm10.1867,7.902a9.53485,9.53485,0,0,0-.63265-3.687,5.35568,5.35568,0,0,0-1.73984-2.37886,4.07152,4.07152,0,0,0-2.46651-.82294,4.59648,4.59648,0,0,0-3.62925,1.772,7.96633,7.96633,0,0,0-1.47905,5.213,7.72953,7.72953,0,0,0,1.46623,5.02714,4.54258,4.54258,0,0,0,3.64207,1.81046,4.03557,4.03557,0,0,0,2.40667-.79514,5.42016,5.42016,0,0,0,1.76547-2.34472A9.64534,9.64534,0,0,0,178.73956,96.45946Z"/>
                <path d="M201.63931,104.50871v-.68595a11.78089,11.78089,0,0,1-1.96638,2.05606,6.93179,6.93179,0,0,1-2.24423,1.24819,8.92772,8.92772,0,0,1-2.78285.404,7.018,7.018,0,0,1-3.377-.81,5.77516,5.77516,0,0,1-2.31263-2.24425,10.23192,10.23192,0,0,1-.97463-4.963V88.75843a3.57082,3.57082,0,0,1,.70958-2.42592,2.34479,2.34479,0,0,1,1.85951-.81,2.41643,2.41643,0,0,1,1.90655.82075,3.5416,3.5416,0,0,1,.72243,2.41519V97.449a14.54925,14.54925,0,0,0,.295,3.15693,3.90947,3.90947,0,0,0,1.11142,2.01773,3.01414,3.01414,0,0,0,2.1331.7181,4.20984,4.20984,0,0,0,2.47507-.81419,4.64111,4.64111,0,0,0,1.70136-2.11818,17.76031,17.76031,0,0,0,.436-5.05057V88.75843a3.52023,3.52023,0,0,1,.72673-2.41519,2.55739,2.55739,0,0,1,3.74465-.01073,3.61564,3.61564,0,0,1,.69669,2.42592v15.71833a3.42071,3.42071,0,0,1-.671,2.32108,2.17188,2.17188,0,0,1-1.73982.77369,2.25811,2.25811,0,0,1-1.7569-.7993A3.368,3.368,0,0,1,201.63931,104.50871Z"/>
              </g>
              <path d="M216.4683,80.549v8.29088a12.10276,12.10276,0,0,1,2.98381-2.44737,7.74833,7.74833,0,0,1,3.77457-.84438,8.175,8.175,0,0,1,4.53972,1.28037,8.4141,8.4141,0,0,1,3.02671,3.719,14.1166,14.1166,0,0,1,1.077,5.773,16.25815,16.25815,0,0,1-.594,4.52922,11.076,11.076,0,0,1-1.74,3.56709,8.34144,8.34144,0,0,1-2.77413,2.34056,7.9751,7.9751,0,0,1-3.59094.81856,8.34267,8.34267,0,0,1-2.26133-.29919,6.04445,6.04445,0,0,1-1.79536-.7888,7.599,7.599,0,0,1-1.26965-.99168c-.3504-.35063-.80368-.86124-1.37645-1.55176v.53228a3.37956,3.37956,0,0,1-.70956,2.32108,2.29556,2.29556,0,0,1-1.78683.77807,2.19156,2.19156,0,0,1-1.76538-.77807,3.5877,3.5877,0,0,1-.65419-2.32108V80.78622a4.07,4.07,0,0,1,.64128-2.48588,2.08119,2.08119,0,0,1,1.77829-.84636,2.21716,2.21716,0,0,1,1.84242.81A3.51608,3.51608,0,0,1,216.4683,80.549Zm.248,16.1263a7.731,7.731,0,0,0,1.41059,4.97592,4.59927,4.59927,0,0,0,3.72773,1.742,4.23635,4.23635,0,0,0,3.38543-1.78267,7.96607,7.96607,0,0,0,1.41935-5.09129,10.35358,10.35358,0,0,0-.59007-3.70188,5.424,5.424,0,0,0-1.67564-2.39593,4.04713,4.04713,0,0,0-2.53907-.85074,4.39162,4.39162,0,0,0-2.64609.85074,5.57572,5.57572,0,0,0-1.82972,2.44517A9.80593,9.80593,0,0,0,216.71628,96.67527Z"/>
              <g>
                <path d="M235.53791,104.27362V80.75186a3.78788,3.78788,0,0,1,.6925-2.46643A2.32646,2.32646,0,0,1,238.107,77.454a2.41772,2.41772,0,0,1,1.90654.82513,3.70265,3.70265,0,0,1,.72248,2.47275v23.52176a3.68974,3.68974,0,0,1-.73517,2.48373,2.44017,2.44017,0,0,1-1.89385.81856,2.29717,2.29717,0,0,1-1.851-.8549A3.70657,3.70657,0,0,1,235.53791,104.27362Z"/>
                <path d="M248.72549,82.99611a2.66249,2.66249,0,0,1-1.85949-.70518,2.55973,2.55973,0,0,1-.761-1.97068,2.50359,2.50359,0,0,1,.791-1.898,2.55339,2.55339,0,0,1,1.8295-.7332,2.67715,2.67715,0,0,1,1.79536.66689,2.47442,2.47442,0,0,1,.77807,1.96432,2.52877,2.52877,0,0,1-.761,1.95557A2.57327,2.57327,0,0,1,248.72549,82.99611Zm2.57343,5.61064v15.66687a3.66735,3.66735,0,0,1-.73517,2.47081,2.4648,2.4648,0,0,1-1.88947.83148,2.30808,2.30808,0,0,1-1.85533-.85074,3.74929,3.74929,0,0,1-.714-2.45155V88.75843a3.58526,3.58526,0,0,1,.714-2.41519,2.34123,2.34123,0,0,1,1.85533-.82075,2.45527,2.45527,0,0,1,1.88947.82075A3.28725,3.28725,0,0,1,251.29892,88.60675Z"/>
                <path d="M275.28865,100.86021a4.84823,4.84823,0,0,1-.57693,2.16306,7.44775,7.44775,0,0,1-1.77829,2.193,8.952,8.952,0,0,1-2.99234,1.67564,12.05334,12.05334,0,0,1-4.074.63909,9.73419,9.73419,0,0,1-7.52353-2.92821,11.1369,11.1369,0,0,1-2.70147-7.8549,13.46663,13.46663,0,0,1,1.23112-5.9013,9.16653,9.16653,0,0,1,3.58219-3.96038A10.648,10.648,0,0,1,266.0468,85.482a10.88227,10.88227,0,0,1,3.71044.61326,9.64257,9.64257,0,0,1,2.85117,1.59029,7.64431,7.64431,0,0,1,1.79536,2.07748,4.15789,4.15789,0,0,1,.61568,2.05625,2.24769,2.24769,0,0,1-.6925,1.64565,2.32577,2.32577,0,0,1-1.68439.67761,1.679,1.679,0,0,1-1.08142-.357A5.1473,5.1473,0,0,1,270.6036,92.67a8.38231,8.38231,0,0,0-1.99213-2.27643,4.728,4.728,0,0,0-6.34778,1.12651,8.40629,8.40629,0,0,0-1.40643,5.14248,10.4111,10.4111,0,0,0,.36331,2.81484,6.551,6.551,0,0,0,1.04312,2.18648,4.41074,4.41074,0,0,0,1.65857,1.36791,4.77586,4.77586,0,0,0,2.12454.47232,4.62473,4.62473,0,0,0,2.68024-.75444,6.53577,6.53577,0,0,0,1.96629-2.29984,5.46125,5.46125,0,0,1,1.03458-1.44474,1.90741,1.90741,0,0,1,1.35085-.50668,1.97935,1.97935,0,0,1,1.5859.74612A2.54909,2.54909,0,0,1,275.28865,100.86021Z"/>
                <path d="M294.06345,104.47676v-.53228a12.91545,12.91545,0,0,1-2.06916,2.03064,7.478,7.478,0,0,1-2.20574,1.19676,8.17417,8.17417,0,0,1-2.59466.404,7.49427,7.49427,0,0,1-3.45393-.81856,8.42011,8.42011,0,0,1-2.74874-2.36179,11.00437,11.00437,0,0,1-1.76538-3.60145,15.85629,15.85629,0,0,1-.5986-4.47363c0-3.38345.79514-6.03808,2.38105-7.93172a7.779,7.779,0,0,1,6.26242-2.84066,7.97673,7.97673,0,0,1,3.78749.82075,10.3504,10.3504,0,0,1,3.00525,2.471V80.83109a4.16038,4.16038,0,0,1,.64106-2.52222,2.11365,2.11365,0,0,1,1.81243-.85489,2.23787,2.23787,0,0,1,1.82119.78026,3.61764,3.61764,0,0,1,.64106,2.31473v23.92779a3.39833,3.39833,0,0,1-.68812,2.32108,2.3707,2.3707,0,0,1-3.53513-.02561A3.39375,3.39375,0,0,1,294.06345,104.47676Zm-10.21253-7.95757a9.66,9.66,0,0,0,.6542,3.75336,5.15769,5.15769,0,0,0,1.791,2.32546,4.289,4.289,0,0,0,2.49223.79514,4.48525,4.48525,0,0,0,2.50493-.74611,5.15407,5.15407,0,0,0,1.81265-2.28913,9.60162,9.60162,0,0,0,.671-3.83872,9.37757,9.37757,0,0,0-.671-3.73168,5.66628,5.66628,0,0,0-1.82972-2.39393,4.26771,4.26771,0,0,0-2.51784-.82294,4.16312,4.16312,0,0,0-2.552.85074,5.40975,5.40975,0,0,0-1.73977,2.42591A10.05852,10.05852,0,0,0,283.85092,96.51919Z"/>
                <path d="M323.64872,96.55992a13.5069,13.5069,0,0,1-.72226,4.47341,10.0987,10.0987,0,0,1-2.09039,3.50975,9.44857,9.44857,0,0,1-3.27884,2.25476,11.21007,11.21007,0,0,1-4.28322.77807,10.6759,10.6759,0,0,1-4.24491-.79514,9.38794,9.38794,0,0,1-3.27008-2.27206,10.11031,10.11031,0,0,1-2.09456-3.49026,14.4084,14.4084,0,0,1,.0127-8.97046,9.94921,9.94921,0,0,1,2.07332-3.50317,9.11275,9.11275,0,0,1,3.27862-2.23137,11.8296,11.8296,0,0,1,8.52813.00856,9.30324,9.30324,0,0,1,3.29153,2.26984,9.74173,9.74173,0,0,1,2.0777,3.501A13.069,13.069,0,0,1,323.64872,96.55992Zm-5.21515,0a8.4042,8.4042,0,0,0-1.40206-5.16174,4.49416,4.49416,0,0,0-3.7575-1.84877,4.54624,4.54624,0,0,0-2.68877.8271,5.26905,5.26905,0,0,0-1.78683,2.4408,11.44442,11.44442,0,0,0-.00853,7.45524,5.29227,5.29227,0,0,0,1.77391,2.43664,4.76565,4.76565,0,0,0,6.46772-1.01751A8.3511,8.3511,0,0,0,318.43357,96.55992Z"/>
                <path d="M345.59949,92.08213a13.94863,13.94863,0,0,0-.57693,4.86256v7.20705a3.82031,3.82031,0,0,1-.74393,2.56927,2.46588,2.46588,0,0,1-1.96214.8549,2.37445,2.37445,0,0,1-1.90217-.8549,3.86655,3.86655,0,0,1-.731-2.56927V95.50192a28.63633,28.63633,0,0,0-.141-3.18253,3.56349,3.56349,0,0,0-.72248-1.8573,2.24281,2.24281,0,0,0-1.85949-.72883,3.29182,3.29182,0,0,0-3.36,1.838,13.34683,13.34683,0,0,0-.80368,5.24732v7.33312a3.85551,3.85551,0,0,1-.731,2.5522,2.38857,2.38857,0,0,1-1.92778.872,2.41944,2.41944,0,0,1-1.94069-.872,3.73341,3.73341,0,0,1-.74393-2.54563V88.63236a3.496,3.496,0,0,1,.66251-2.32329,2.25285,2.25285,0,0,1,1.78705-.80146,2.36239,2.36239,0,0,1,1.77829.7437,2.86,2.86,0,0,1,.71372,2.05844v.515a9.01852,9.01852,0,0,1,2.88969-2.48151,7.41709,7.41709,0,0,1,3.42833-.79514,6.55658,6.55658,0,0,1,3.36.82075,6.16533,6.16533,0,0,1,2.32108,2.4559,9.19425,9.19425,0,0,1,2.82141-2.47079,6.92027,6.92027,0,0,1,3.32568-.80586,7.21266,7.21266,0,0,1,3.67629.87634,5.445,5.445,0,0,1,2.30423,2.50295,11.84662,11.84662,0,0,1,.66689,4.63384v10.59051a3.88944,3.88944,0,0,1-.7354,2.56927,2.49255,2.49255,0,0,1-1.96629.8549,2.4006,2.4006,0,0,1-1.928-.872,3.72043,3.72043,0,0,1-.76077-2.5522V95.02523a22.03736,22.03736,0,0,0-.14117-2.8,3.21317,3.21317,0,0,0-.7737-1.76975,2.391,2.391,0,0,0-1.898-.72226,3.41065,3.41065,0,0,0-1.94506.63034,4.26367,4.26367,0,0,0-1.44058,1.71853Z"/>
                <path d="M375.36882,104.52163a15.82,15.82,0,0,1-3.64631,2.28474,9.68315,9.68315,0,0,1-3.94572.76954,7.336,7.336,0,0,1-3.51806-.81856,5.88513,5.88513,0,0,1-2.334-2.24864,5.98738,5.98738,0,0,1-.82075-3.05428,5.64578,5.64578,0,0,1,1.35938-3.7958,6.7218,6.7218,0,0,1,3.7019-2.1033c.33355-.079,1.1543-.25214,2.45809-.5301,1.31648-.28431,2.42789-.53644,3.37273-.76516.92756-.22871,1.94485-.51083,3.035-.84a5.97609,5.97609,0,0,0-.82928-3.16741c-.49158-.66275-1.50909-.9919-3.0394-.9919a6.11972,6.11972,0,0,0-2.988.573,4.81831,4.81831,0,0,0-1.70563,1.73758c-.483.76516-.81221,1.27183-1.009,1.51762a1.61431,1.61431,0,0,1-1.26527.35894,2.13884,2.13884,0,0,1-1.50887-.57693,1.93663,1.93663,0,0,1-.64565-1.5069,4.6679,4.6679,0,0,1,.97045-2.77218A7.03542,7.03542,0,0,1,366.037,86.354a13.1444,13.1444,0,0,1,5.12541-.872,14.02677,14.02677,0,0,1,5.39484.85051,5.03061,5.03061,0,0,1,2.76144,2.66974,12.02635,12.02635,0,0,1,.81221,4.84329c0,1.26943,0,2.3596-.00854,3.2401-.01291.89339-.01707,1.88094-.03,2.96455a11.24584,11.24584,0,0,0,.48741,3.18472,10.8459,10.8459,0,0,1,.47867,2.133,2.05126,2.05126,0,0,1-.75225,1.524,2.44836,2.44836,0,0,1-1.69709.684,2.27375,2.27375,0,0,1-1.5859-.77807A12.17066,12.17066,0,0,1,375.36882,104.52163Zm-.33771-7.85906a25.24611,25.24611,0,0,1-3.32567.92975c-1.45349.32479-2.46225.55789-3.02233.71591a4.05915,4.05915,0,0,0-1.59444.89144,2.35959,2.35959,0,0,0-.76516,1.868,2.8,2.8,0,0,0,.89342,2.09674,3.21358,3.21358,0,0,0,2.34668.8678,5.87343,5.87343,0,0,0,2.847-.71175,4.55207,4.55207,0,0,0,1.91092-1.81681,8.61715,8.61715,0,0,0,.70956-4.06744Z"/>
                <path d="M388.03922,82.99611a2.627,2.627,0,0,1-1.851-.70518,2.76559,2.76559,0,0,1,.02123-3.86869,2.5604,2.5604,0,0,1,1.82972-.7332,2.68521,2.68521,0,0,1,1.79536.66689,2.48707,2.48707,0,0,1,.77369,1.96432,2.51432,2.51432,0,0,1-.761,1.95557A2.57809,2.57809,0,0,1,388.03922,82.99611Zm2.56905,5.61064v15.66687a3.64588,3.64588,0,0,1-.73955,2.47081,2.43394,2.43394,0,0,1-1.88093.83148,2.31085,2.31085,0,0,1-1.85949-.85074,3.72641,3.72641,0,0,1-.7181-2.45155V88.75843a3.56382,3.56382,0,0,1,.7181-2.41519,2.34415,2.34415,0,0,1,1.85949-.82075,2.42457,2.42457,0,0,1,1.88093.82075A3.26857,3.26857,0,0,1,390.60827,88.60675Z"/>
              </g>
              <g>
                <path d="M400.70524,88.52774v.64763a9.18782,9.18782,0,0,1,2.988-2.76582,7.753,7.753,0,0,1,3.75312-.88706,7.16491,7.16491,0,0,1,3.6763.94266,5.79956,5.79956,0,0,1,2.411,2.629,6.74448,6.74448,0,0,1,.66251,2.15233,23.56043,23.56043,0,0,1,.15824,2.93872v10.0884a3.73648,3.73648,0,0,1-.7181,2.47081,2.36277,2.36277,0,0,1-1.85533.83148,2.31556,2.31556,0,0,1-1.8724-.8549,3.68413,3.68413,0,0,1-.7308-2.44739V95.2432a9.41031,9.41031,0,0,0-.70541-4.10788,2.90921,2.90921,0,0,0-2.8597-1.42351,4.07327,4.07327,0,0,0-2.53076.87,4.871,4.871,0,0,0-1.67147,2.37229,17.46516,17.46516,0,0,0-.38893,4.53776v6.78176a3.645,3.645,0,0,1-.731,2.48373,2.44613,2.44613,0,0,1-1.89364.81856,2.31206,2.31206,0,0,1-1.84241-.85074,3.65713,3.65713,0,0,1-.72686-2.45155V88.60675a3.4913,3.4913,0,0,1,.64982-2.31473,2.19156,2.19156,0,0,1,1.76975-.76953,2.30875,2.30875,0,0,1,2.12038,1.34668A3.89969,3.89969,0,0,1,400.70524,88.52774Z"/>
                <path d="M422.69015,88.90179l4.202,12.31342,4.53119-12.85205a7.93471,7.93471,0,0,1,1.05582-2.193,1.88323,1.88323,0,0,1,1.55176-.64763,2.29643,2.29643,0,0,1,1.69709.70541,2.20315,2.20315,0,0,1,.69249,1.60932,3.2994,3.2994,0,0,1-.12825.81878,6.54118,6.54118,0,0,1-.28628.9083c-.107.26942-.218.59422-.3677.94681l-4.98862,12.91181c-.14095.36988-.3248.84657-.54279,1.41716a8.65074,8.65074,0,0,1-.74392,1.464,3.07641,3.07641,0,0,1-1.00876.93194,2.95627,2.95627,0,0,1-1.462.3399,2.76781,2.76781,0,0,1-1.76537-.52156,3.32532,3.32532,0,0,1-.96608-1.15846c-.20946-.41038-.56861-1.23747-1.06019-2.473l-4.9501-12.77064c-.11972-.31648-.23528-.6369-.36332-.95119-.11556-.31845-.2053-.6369-.295-.97243a4.05957,4.05957,0,0,1-.1241-.85073,2.09835,2.09835,0,0,1,.32918-1.10924,2.54433,2.54433,0,0,1,.89341-.89558,2.36279,2.36279,0,0,1,1.23966-.35062,1.92113,1.92113,0,0,1,1.77829.78658A12.2435,12.2435,0,0,1,422.69015,88.90179Z"/>
              </g>
              <g>
                <path d="M454.12221,97.87662H443.95258a7.53334,7.53334,0,0,0,.70541,3.2679,5.20084,5.20084,0,0,0,1.851,2.12256,4.70723,4.70723,0,0,0,2.54782.71154,6.25843,6.25843,0,0,0,1.70125-.22,5.97331,5.97331,0,0,0,1.50055-.72029,11.04608,11.04608,0,0,0,1.325-1.04947c.40184-.3655.94047-.86364,1.57737-1.50273a1.61808,1.61808,0,0,1,1.14139-.36113,1.8121,1.8121,0,0,1,1.29963.45743,1.65391,1.65391,0,0,1,.49157,1.28671,3.64035,3.64035,0,0,1-.5557,1.72686,6.68631,6.68631,0,0,1-1.66294,1.88947,9.718,9.718,0,0,1-2.8,1.49836,11.55858,11.55858,0,0,1-3.87284.592,10.13088,10.13088,0,0,1-7.78-2.97746,11.42416,11.42416,0,0,1-2.77435-8.07926,14.07654,14.07654,0,0,1,.684-4.46707,9.87654,9.87654,0,0,1,1.99628-3.52438,8.4602,8.4602,0,0,1,3.236-2.25935,11.20061,11.20061,0,0,1,4.27052-.78639,9.73532,9.73532,0,0,1,5.21515,1.34647,8.604,8.604,0,0,1,3.26154,3.45393,9.38843,9.38843,0,0,1,1.09018,4.34318c0,1.35719-.36332,2.24207-1.11994,2.64172A6.66178,6.66178,0,0,1,454.12221,97.87662Zm-10.16963-3.08429h9.42154a6.67571,6.67571,0,0,0-1.4362-4.153,4.23866,4.23866,0,0,0-3.28737-1.37864,4.06639,4.06639,0,0,0-3.18035,1.3979A7.10581,7.10581,0,0,0,443.95258,94.79233Z"/>
                <path d="M481.42076,100.86021a4.74567,4.74567,0,0,1-.58153,2.16306,7.27315,7.27315,0,0,1-1.76953,2.193,8.93453,8.93453,0,0,1-3.00526,1.67564,12.00949,12.00949,0,0,1-4.0696.63909,9.71163,9.71163,0,0,1-7.51916-2.92821,11.13813,11.13813,0,0,1-2.70584-7.8549,13.34853,13.34853,0,0,1,1.23966-5.9013,9.10648,9.10648,0,0,1,3.57781-3.96038,10.65868,10.65868,0,0,1,5.59991-1.40425,10.94734,10.94734,0,0,1,3.70629.61326,10.0106,10.0106,0,0,1,2.85555,1.59029A7.70032,7.70032,0,0,1,480.54,89.763a4.29376,4.29376,0,0,1,.61567,2.05625,2.19614,2.19614,0,0,1-.7054,1.64565,2.299,2.299,0,0,1-1.67565.67761,1.61928,1.61928,0,0,1-1.06872-.357,4.8146,4.8146,0,0,1-.97461-1.11554,8.30148,8.30148,0,0,0-1.98358-2.27643A4.7273,4.7273,0,0,0,468.4,91.52009a8.35029,8.35029,0,0,0-1.41081,5.14248,10.59077,10.59077,0,0,0,.35916,2.81484A6.56167,6.56167,0,0,0,468.4,101.66389a4.477,4.477,0,0,0,1.65857,1.36791,4.72917,4.72917,0,0,0,2.12869.47232,4.63861,4.63861,0,0,0,2.67608-.75444,6.68272,6.68272,0,0,0,1.97483-2.29984,5.26066,5.26066,0,0,1,1.02167-1.44474,1.897,1.897,0,0,1,1.35522-.50668,1.94079,1.94079,0,0,1,1.56884.74612A2.47434,2.47434,0,0,1,481.42076,100.86021Z"/>
                <path d="M486.25114,85.9843h.57277V82.72056c0-.86583.02145-1.5603.06851-2.05406a2.947,2.947,0,0,1,.37185-1.27818,2.40331,2.40331,0,0,1,2.146-1.244,2.51965,2.51965,0,0,1,1.78682.76735,2.405,2.405,0,0,1,.67543,1.25673,12.23464,12.23464,0,0,1,.141,2.12257V85.9843h1.91092a2.348,2.348,0,0,1,1.6798.54716,1.79176,1.79176,0,0,1,.58569,1.39571,1.56919,1.56919,0,0,1-.83345,1.53251,5.22267,5.22267,0,0,1-2.36834.43379h-.97462v9.99016a16.418,16.418,0,0,0,.08557,1.96411,2.07308,2.07308,0,0,0,.466,1.10921,1.49807,1.49807,0,0,0,1.2053.4362,5.99387,5.99387,0,0,0,1.23988-.17312,6.10429,6.10429,0,0,1,1.21821-.16678,1.57,1.57,0,0,1,1.12847.51718,1.83976,1.83976,0,0,1,.50865,1.306,2.172,2.172,0,0,1-1.36792,2.007,9.00854,9.00854,0,0,1-3.94113.6925,6.568,6.568,0,0,1-3.69774-.8549,3.90833,3.90833,0,0,1-1.6415-2.37251,16.21378,16.21378,0,0,1-.39331-4.03108v-10.424h-.69665a2.38085,2.38085,0,0,1-1.70146-.55789,1.82991,1.82991,0,0,1-.59423-1.40841,1.78846,1.78846,0,0,1,.61567-1.39571A2.65713,2.65713,0,0,1,486.25114,85.9843Z"/>
                <path d="M519.21352,96.55992a13.29139,13.29139,0,0,1-.7308,4.47341,9.97028,9.97028,0,0,1-2.09039,3.50975,9.37445,9.37445,0,0,1-3.2703,2.25476,11.17127,11.17127,0,0,1-4.28738.77807,10.63206,10.63206,0,0,1-4.24491-.79514,9.2382,9.2382,0,0,1-3.26155-2.27206,9.8457,9.8457,0,0,1-2.09039-3.49026,13.38553,13.38553,0,0,1-.70957-4.46706,13.60405,13.60405,0,0,1,.70957-4.5034,10.15393,10.15393,0,0,1,2.07748-3.50317,9.20729,9.20729,0,0,1,3.27446-2.23137,11.248,11.248,0,0,1,4.24491-.791,11.11868,11.11868,0,0,1,4.28738.79952,9.34533,9.34533,0,0,1,3.29175,2.26984,9.88566,9.88566,0,0,1,2.086,3.501A13.49664,13.49664,0,0,1,519.21352,96.55992Zm-5.21515,0a8.4333,8.4333,0,0,0-1.40205-5.16174,4.75319,4.75319,0,0,0-6.4419-1.02167,5.18423,5.18423,0,0,0-1.78705,2.4408,11.37278,11.37278,0,0,0-.00853,7.45524,5.308,5.308,0,0,0,1.7656,2.43664,4.77086,4.77086,0,0,0,6.47188-1.01751A8.38012,8.38012,0,0,0,513.99837,96.55992Z"/>
              </g>
              <path d="M528.47266,99.75734v4.51628a3.6245,3.6245,0,0,1-.74371,2.48373,2.45643,2.45643,0,0,1-1.88947.81856,2.35447,2.35447,0,0,1-1.84241-.83148,3.66667,3.66667,0,0,1-.72249-2.47081V89.17953q0-3.6612,2.53076-3.657a2.11065,2.11065,0,0,1,1.868.85708,5.0445,5.0445,0,0,1,.62837,2.52222,9.38041,9.38041,0,0,1,1.91508-2.52222,3.84746,3.84746,0,0,1,2.60757-.85708,6.54792,6.54792,0,0,1,3.18473.85708,2.55849,2.55849,0,0,1,1.54738,2.26352,2.21779,2.21779,0,0,1-.66251,1.63931,2.00477,2.00477,0,0,1-1.41934.64981,6.43587,6.43587,0,0,1-1.385-.374,6.20284,6.20284,0,0,0-1.93215-.36967,2.67073,2.67073,0,0,0-1.85512.63253,4.03263,4.03263,0,0,0-1.12869,1.85314,13.41879,13.41879,0,0,0-.5557,2.93891C528.5241,96.73742,528.47266,98.11584,528.47266,99.75734Z"/>
              <path d="M556.156,100.49054a6.81155,6.81155,0,0,1-1.056,3.84505,6.5,6.5,0,0,1-3.09477,2.42592,13.65063,13.65063,0,0,1-4.98862.8144,11.74752,11.74752,0,0,1-4.79624-.8956,6.98015,6.98015,0,0,1-2.94967-2.22916,4.59956,4.59956,0,0,1-.96169-2.68461,2.10728,2.10728,0,0,1,.624-1.53032,2.00533,2.00533,0,0,1,1.5347-.6369,1.78592,1.78592,0,0,1,1.2611.41453,4.8682,4.8682,0,0,1,.83345,1.17554,5.82691,5.82691,0,0,0,1.92361,2.17156,5.4855,5.4855,0,0,0,3.03941.71616,4.24349,4.24349,0,0,0,2.55636-.72883,2.06871,2.06871,0,0,0,1.00875-1.6566,2.28927,2.28927,0,0,0-1.03874-2.086,12.0913,12.0913,0,0,0-3.42417-1.25676,28.695,28.695,0,0,1-4.373-1.45984,7.22586,7.22586,0,0,1-2.69731-2.02186,4.71528,4.71528,0,0,1-1.01313-3.07792,5.53989,5.53989,0,0,1,.93609-3.07573,6.46478,6.46478,0,0,1,2.75291-2.32108,10.15681,10.15681,0,0,1,4.39439-.87,14.024,14.024,0,0,1,3.62925.44036,8.7274,8.7274,0,0,1,2.68045,1.17135,5.68818,5.68818,0,0,1,1.6415,1.62423,3.27982,3.27982,0,0,1,.56424,1.75268,2.07994,2.07994,0,0,1-.60276,1.53688,2.38383,2.38383,0,0,1-1.70147.58569,2.01857,2.01857,0,0,1-1.36791-.48107,9.36341,9.36341,0,0,1-1.28234-1.41694,4.66887,4.66887,0,0,0-1.39352-1.276,4.26438,4.26438,0,0,0-2.16744-.47669,4.0475,4.0475,0,0,0-2.33815.62836,1.83637,1.83637,0,0,0-.94047,1.5603,1.725,1.725,0,0,0,.684,1.40206,5.7056,5.7056,0,0,0,1.851.90632c.77806.23923,1.84241.53645,3.20179.87635a16.29565,16.29565,0,0,1,3.94988,1.47034,6.53967,6.53967,0,0,1,2.32108,2.01357A4.58,4.58,0,0,1,556.156,100.49054Z"/>
              <g>
                <path d="M562.05509,107.57591a2.84036,2.84036,0,0,1-2.89407-3.01379,2.97646,2.97646,0,0,1,.80783-2.086,2.67293,2.67293,0,0,1,2.02627-.86562,2.70644,2.70644,0,0,1,2.03064.86146,3.11884,3.11884,0,0,1,0,4.30029A2.73034,2.73034,0,0,1,562.05509,107.57591Z"/>
                <path d="M590.25974,96.55992a13.183,13.183,0,0,1-.731,4.47341,10.03241,10.03241,0,0,1-2.09039,3.50975,9.35273,9.35273,0,0,1-3.27446,2.25476,11.14895,11.14895,0,0,1-4.28322.77807,10.67593,10.67593,0,0,1-4.24491-.79514,9.29842,9.29842,0,0,1-3.25717-2.27206,9.88363,9.88363,0,0,1-2.10747-3.49026,13.607,13.607,0,0,1-.7054-4.46706,13.38508,13.38508,0,0,1,.72247-4.5034,10.13359,10.13359,0,0,1,2.06895-3.50317,9.14879,9.14879,0,0,1,3.27862-2.23137,11.8296,11.8296,0,0,1,8.52813.00856,9.24661,9.24661,0,0,1,3.29591,2.26984,10.00928,10.00928,0,0,1,2.086,3.501A13.38422,13.38422,0,0,1,590.25974,96.55992Zm-5.22368,0a8.40427,8.40427,0,0,0-1.40227-5.16174,4.48063,4.48063,0,0,0-3.75313-1.84877,4.52965,4.52965,0,0,0-2.68024.8271,5.18242,5.18242,0,0,0-1.78682,2.4408,11.51915,11.51915,0,0,0-.01707,7.45524,5.41962,5.41962,0,0,0,1.77829,2.43664,4.75475,4.75475,0,0,0,6.459-1.01751A8.35117,8.35117,0,0,0,585.03606,96.55992Z"/>
              </g>
              <path d="M599.51451,99.75734v4.51628a3.64549,3.64549,0,0,1-.73954,2.48373,2.44469,2.44469,0,0,1-1.881.81856,2.3683,2.3683,0,0,1-1.8551-.83148,3.66667,3.66667,0,0,1-.72249-2.47081V89.17953c0-2.4408.8549-3.657,2.53491-3.657a2.08009,2.08009,0,0,1,1.85949.85708,4.94674,4.94674,0,0,1,.64128,2.52222,9.19679,9.19679,0,0,1,1.90217-2.52222,3.87473,3.87473,0,0,1,2.61195-.85708,6.48728,6.48728,0,0,1,3.18473.85708,2.55093,2.55093,0,0,1,1.54738,2.26352,2.21122,2.21122,0,0,1-.654,1.63931,2.03114,2.03114,0,0,1-1.42788.64981,6.40187,6.40187,0,0,1-1.37208-.374,6.25205,6.25205,0,0,0-1.94091-.36967,2.74153,2.74153,0,0,0-1.868.63253,4.134,4.134,0,0,0-1.11994,1.85314,13.71677,13.71677,0,0,0-.54717,2.93891C599.5701,96.73742,599.51451,98.11584,599.51451,99.75734Z"/>
              <path d="M629.583,89.49382v15.763a17.45736,17.45736,0,0,1-.55571,4.64456,7.529,7.529,0,0,1-1.76975,3.22322,7.42794,7.42794,0,0,1-3.18473,1.88731,17.10357,17.10357,0,0,1-4.903.60911,13.67975,13.67975,0,0,1-4.80061-.77588,8.31153,8.31153,0,0,1-3.2574-2.0348,3.75322,3.75322,0,0,1-1.14554-2.55417,2.19714,2.19714,0,0,1,2.21011-2.24842,2.55426,2.55426,0,0,1,2.00482,1.05362c.27775.3677.57277.72467.86343,1.08361a4.68991,4.68991,0,0,0,.98752.93631,3.76408,3.76408,0,0,0,1.31232.58347,7.19341,7.19341,0,0,0,1.74831.188,6.8361,6.8361,0,0,0,3.12913-.58788,3.29612,3.29612,0,0,0,1.56884-1.63493,6.56442,6.56442,0,0,0,.50448-2.255c.06413-.81219.09827-2.09255.13242-3.87084a8.79953,8.79953,0,0,1-2.77435,2.659,7.2923,7.2923,0,0,1-3.73168.90633,7.57219,7.57219,0,0,1-4.56555-1.38718,8.7341,8.7341,0,0,1-3.005-3.89647,15.00329,15.00329,0,0,1-1.04728-5.77742,13.98212,13.98212,0,0,1,.64544-4.4222,9.05473,9.05473,0,0,1,1.81681-3.31276,7.75781,7.75781,0,0,1,2.71854-2.04137,8.348,8.348,0,0,1,3.39-.68395,7.82855,7.82855,0,0,1,3.82162.89144,9.29346,9.29346,0,0,1,3.00942,2.77v-.72882a3.35126,3.35126,0,0,1,.66688-2.19939,2.17459,2.17459,0,0,1,1.70979-.77369,2.00794,2.00794,0,0,1,2.00919,1.02385A7.12218,7.12218,0,0,1,629.583,89.49382ZM614.5189,96.37389a7.74029,7.74029,0,0,0,1.385,4.98862,4.406,4.406,0,0,0,3.56074,1.69074,4.54316,4.54316,0,0,0,2.44956-.73517,5.29259,5.29259,0,0,0,1.88093-2.18232,7.93362,7.93362,0,0,0,.7181-3.54388,8.393,8.393,0,0,0-1.402-5.16175,4.37487,4.37487,0,0,0-3.6763-1.85949,4.27976,4.27976,0,0,0-3.56512,1.772A8.14987,8.14987,0,0,0,614.5189,96.37389Z"/>
            </g>
            <g>
              <path d="M366.15258,31.81683a31.38927,31.38927,0,0,1,8.91705-22.49575,29.54975,29.54975,0,0,1,43.08079,0,31.38329,31.38329,0,0,1,8.92975,22.49575A31.3579,31.3579,0,0,1,418.15042,54.317a29.53123,29.53123,0,0,1-43.08079,0A31.36389,31.36389,0,0,1,366.15258,31.81683Zm7.83126,0a24.9196,24.9196,0,0,0,6.55745,17.49443,21.64022,21.64022,0,0,0,32.13309,0,24.87833,24.87833,0,0,0,6.5533-17.49443,24.8862,24.8862,0,0,0-6.5533-17.49,21.64065,21.64065,0,0,0-32.13309,0A24.92754,24.92754,0,0,0,373.98384,31.81683Zm30.3421,4.86255h7.71592a14.52386,14.52386,0,0,1-5.08274,9.73584,13.979,13.979,0,0,1-9.50711,3.41319,15.015,15.015,0,0,1-12.05035-5.29851q-4.26427-5.03349-4.262-12.98446c0-5.42683,1.41059-9.76561,4.22346-13.0486q4.21274-4.90512,11.91793-4.916a15.24986,15.24986,0,0,1,9.678,3.08645,14.08771,14.08771,0,0,1,5.08274,9.3189h-7.71592q-.98752-5.21964-6.40359-5.21318-8.93205,0-8.94288,10.59291a13.46792,13.46792,0,0,0,2.29985,8.11776A7.5472,7.5472,0,0,0,397.76,42.64919Q403.99239,42.64919,404.32594,36.67938Z"/>
              <polygon points="378.481 51.774 382.922 55.542 415.594 13.587 411.153 9.823 378.481 51.774"/>
            </g>
          </g>
          <g style="mix-blend-mode: color-burn">
            <g>
              <path d="M902.45758,1703.545c-.02779-.34427-.0536-.69052-.07923-1.03458C1065.67546,1677.92428,1210.80053,1656.20223,1340,1636.72v40.23181q-5.0046.84963-10.037,1.70562-70.89861,11.91039-148.01914,24.88752Z" fill="#fff" style="mix-blend-mode: multiply"/>
              <path d="M651.17574,1703.545c-4.55155-16.83411-9.22588-34.15957-13.90349-52.03855,231.58365-27.352,430.46362-51.21124,602.60928-71.77287q51.40909-6.19074,100.11847-12.06326v60.83589q-54.53156,7.98951-112.45969,16.41936c-119.91472,17.73781-252.45935,37.11318-400.11517,58.61943Z" fill="#fff" style="mix-blend-mode: multiply"/>
              <path d="M1340,1542.63529q-7.86438.85915-15.79515,1.72269c4.10812-14.80762,7.40184-29.81617,11.30686-45.25019q2.24721-.20519,4.48829-.406Z" fill="#fff" style="mix-blend-mode: multiply"/>
              <path d="M1340,1414.27582c-121.67178,6.40994-256.23829,13.41411-405.74069,21.08078-.41234-22.62838-1.44058-45.87-2.05822-69.93045,150.28047-3.749,285.55438-7.27556,407.79891-10.52Z" fill="#fff" style="mix-blend-mode: multiply"/>
              <path d="M1340,1490.50065c-89.22853,7.703-185.393,15.96193-289.33527,24.86191-115.79192,9.6588-242.277,20.56141-380.89387,32.285C516.342,1560.60422,346.45766,1574.792,157.24611,1590.427c-23.44781-38.25479-47.91861-78.97576-73.83743-121.96244,395.49949-18.30248,712.02653-33.52683,971.78286-46.274,102.07864-4.96083,196.7469-9.601,284.80846-13.96346Z" fill="#fff" style="mix-blend-mode: multiply"/>
              <path d="M0,1703.545v-76.44084c238.3208-21.10661,447.117-39.86193,631.72574-56.62534,193.73092-17.69535,363.81836-33.32373,514.57332-47.30842-2.6717,23.23946-5.3434,45.45746-7.81418,67.05564-143.55842,17.069-304.80366,35.98886-486.81319,57.587-142.97076,16.7783-301.09518,35.3327-476.21086,55.73192Z" fill="#fff" style="mix-blend-mode: multiply"/>
              <path d="M1340,1408.41939c-96.27759,4.78333-200.72436,9.93654-314.4259,15.42111-236.51885,11.717-520.13471,25.28717-865.44989,41.53976-23.44585-42.57653-48.32812-87.40978-74.86129-134.91933,381.50934-2.88116,689.39506-5.55286,942.77978-8.22457,112.56017-1.09214,216.231-2.12453,311.9573-3.09914Z" fill="#fff" style="mix-blend-mode: multiply"/>
              <path d="M1340,1350.41126q-11.936.30434-24.02384.61764c-218.00521,5.14248-480.02923,11.31517-802.71625,18.50953-10.28913-33.11405-20.16394-67.872-31.058-104.06835,344.69974,4.11228,621.73449,6.784,849.81737,8.64128q3.99769.03874,7.98074.077Z" fill="#fff" style="mix-blend-mode: multiply"/>
              <path d="M1340,1381.324c-97.86568,3.736-204.12926,7.7737-319.97876,12.074-242.89247,8.838-535.35491,19.74065-893.62479,32.08406-25.50406-45.04074-52.24144-92.55226-80.41524-143.55623,396.52773,2.67367,715.30754,4.31517,976.30136,5.13592,114.892.434,220.4567.81221,317.71743,1.13285Z" fill="#fff" style="mix-blend-mode: multiply"/>
              <path d="M1340,1214.81016c-104.11738-3.63559-217.31027-7.64107-340.74962-12.06764.61129-38.87221,1.02583-78.97563.82075-121.13731,123.02243,9.99213,235.95463,19.16373,339.92887,27.587Z" fill="#fff" style="mix-blend-mode: multiply"/>
              <path d="M0,1200.69284c115.28329,3.27665,222.96163,6.28168,323.83585,9.04115,316.31975,8.84439,577.71957,16.04313,797.99023,21.80107q115.1071,2.91759,218.17392,5.51237v94.86283q-106.82869,1.696-226.40045,3.4837c-206.2816,3.29175-448.76611,6.79055-738.14208,10.70191C259.31184,1347.81,134.39142,1349.43227,0,1351.15934Z" fill="#fff" style="mix-blend-mode: multiply"/>
              <path d="M1340,1187.09073c-122.04779-5.68768-257.41382-12.1959-408.41874-19.51632-194.556-9.25258-418.74026-20.15541-679.93084-33.11213C232.3116,1084.48418,210.72,1032.24492,188.50733,976.917c286.90839,26.94574,530.21146,49.777,739.16673,69.31478,152.45643,14.22,289.11969,26.83456,412.32594,38.08363Z" fill="#fff" style="mix-blend-mode: multiply"/>
              <path d="M0,806.42031c280.12341,38.29834,519.33127,70.72865,726.12042,98.51856C963.82335,937.45694,1165.82808,964.5073,1340,987.64017v121.61837c-169.09991-13.81813-364.92757-29.83981-593.9251-48.83675C534.35164,1042.844,288.61411,1022.39156,0,998.14947Z" fill="#fff" style="mix-blend-mode: multiply"/>
              <path d="M0,543.463c460.2682,96.08432,818.25376,170.1207,1103.72911,229.02531Q1229.27154,798.48641,1340,821.37655V974.01661q-114.81492-16.11066-244.91021-34.52706C826.07233,902.05574,495.15857,854.95875,76.6236,795.523Q40.39049,709.05868,0,612.91262Z" fill="#fff" style="mix-blend-mode: multiply"/>
              <path d="M0,1364.06261c243.32343-3.78748,456.47218-7.51937,644.06258-10.766,7.406,32.90066,13.98688,64.57413,20.56578,95.00817C471.7287,1458.09594,251.88133,1469.03926,0,1481.34Z" fill="#fff" style="mix-blend-mode: multiply"/>
              <path d="M1340,509.64883c-164.05986-56.0449-350.73759-119.90312-564.5193-193.12816-7.60889-87.61507-14.60036-181.39845-22.62181-281.968C975.65374,131.78691,1169.80357,216.36674,1340,290.44164Z" fill="#fff" style="mix-blend-mode: multiply"/>
              <path d="M0,173.68692c323.45743,99.79564,591.509,182.35687,817.85193,252.04262C1014.96214,486.6219,1187.702,539.695,1340,586.49589v190.964c-147.987-33.36422-315.41124-71.20535-506.31878-114.59386C603.242,610.77628,330.00526,548.93907,0,474.00928Z" fill="#fff" style="mix-blend-mode: multiply"/>
              <path d="M0,636.42151c210.53177,38.47256,397.63367,72.63848,564.87956,103.16,216.77186,39.48788,405.16354,73.62383,570.51886,103.44853-3.28715,45.65838-6.57868,89.26073-9.04947,131.01212C837.59477,936.8242,473.54989,889.85985,0,828.06751Z" fill="#fff" style="mix-blend-mode: multiply"/>
            </g>
            <g>
              <path d="M1077.11255,1703.545c1.541-7,3.23594-14.09171,4.81112-21.18561C1080.34849,1689.45329,1078.65358,1696.545,1077.11255,1703.545Z" fill="#fff" style="mix-blend-mode: multiply"/>
              <path d="M985.0709,1703.545c49.5507-14.98293,94.81578-28.60452,136.34283-41.13375-3.08645,12.5463-6.16853,25.09063-9.45787,37.63058q-5.149,1.74065-10.37274,3.50317Z" fill="#c382be" style="mix-blend-mode: multiply"/>
              <path d="M1340,1604.82837c-63.42418,20.179-138.22355,43.90592-227.63377,71.97816,3.28935-13.57453,6.7818-27.76868,10.2806-42.15958,84.82584-23.28454,156.33562-43.07444,217.35317-60.01733Z" fill="#ddd" style="mix-blend-mode: multiply"/>
              <path d="M702.49816,1703.545c77.52666-18.43708,146.88848-35.07225,209.33807-49.97814,75.07074-18.09916,141.70966-34.14448,200.53-48.33227,89.36338-21.69864,164.263-39.94531,227.63377-55.471v40.51808c-66.549,19.88161-145.40716,43.14054-241.2083,71.71924-43.00812,12.68112-89.73939,26.5334-140.98061,41.54413Z" fill="#fcb381" style="mix-blend-mode: multiply"/>
              <path d="M954.00019,1618.19126c2.056-14.80763,3.7019-29.82274,5.76231-45.2502,65.8116-11.92647,124.22158-22.41892,176.86923-31.87461-3.08426,13.36705-6.1705,26.32175-9.45787,39.07751C1075.55006,1591.66005,1018.16591,1604.21292,954.00019,1618.19126Z" fill="#feeee0" style="mix-blend-mode: multiply"/>
              <path d="M759.02939,1509.18331c-.20727-22.61547-.82272-45.85493-1.03239-69.92389,144.17409-7.2007,260.9982-13.57431,356.83783-18.717-3.70607,17.89627-7.40381,35.37559-10.89845,52.44477C1010.3561,1483.069,897.44751,1494.99551,759.02939,1509.18331Z" fill="#fee5d2" style="mix-blend-mode: multiply"/>
              <path d="M1340,1498.37043c-70.56932,12.4373-155.02111,27.292-258.27725,45.16484-75.2802,13.16612-162.27741,28.17467-264.49283,45.654-57.788,9.67171-121.13732,20.568-190.44159,32.29352-76.7164,12.95667-161.66195,27.151-256.26608,42.77941q-17.58177-57.38512-36.91861-121.95806c197.75346-18.313,355.91005-33.52464,485.88978-46.27843,107.77026-10.49442,199.08943-19.53973,277.64825-27.56119,95.94863-9.7807,175.72149-18.03941,242.85833-25.03722Z" fill="#b0cd7b" style="mix-blend-mode: multiply"/>
              <path d="M277.18447,1703.545c125.30431-22.169,234.4961-41.78357,330.57716-59.23291,96.97006-17.68681,181.91562-33.31519,257.39017-47.30207-1.434,23.23311-2.879,45.44455-4.11009,67.04273-50.86718,12.12957-106.29991,25.19524-166.81714,39.49225Z" fill="#f88ec5" style="mix-blend-mode: multiply"/>
              <path d="M1340,1370.98755c-79.70655.41256-177.91213,1.23331-301.26174,1.84241,3.49661-23.03853,6.98906-46.2804,10.69534-70.54371,118.21129,7.40819,213.06339,13.06786,290.5664,17.61831Z" fill="#e2f38b" style="mix-blend-mode: multiply"/>
              <path d="M1340,1443.75647c-74.20294,7.75641-163.80772,17.05626-274.73075,28.20685-74.45508,7.40381-160.21918,16.03875-260.58126,25.70389-118.26053,11.72555-260.06846,25.30008-432.723,41.55486-11.72336-42.58506-24.16723-87.41635-37.436-134.92152,190.758-2.88751,344.69971-5.55921,471.3901-8.23091,106.12657-2.06041,196.61845-3.90918,274.36087-5.55286,103.58969-2.52419,188.69327-4.638,259.72-6.44846Z" fill="#fff" style="mix-blend-mode: multiply"/>
              <path d="M548.5287,1443.37171c-5.14467-33.10771-10.08207-67.86348-15.52594-104.05983,172.34461,4.11229,310.76253,6.784,424.90441,8.62859,94.818,1.851,175.43522,3.29154,244.9531,4.11229-5.34775,20.7772-10.69556,41.34518-15.63275,60.88294-67.45966,3.49442-145.61248,7.19633-237.33961,11.92647C840.8863,1430.00466,709.87418,1436.17735,548.5287,1443.37171Z" fill="#fdd4b5" style="mix-blend-mode: multiply"/>
              <path d="M1175.0916,1215.90887c4.11228-19.339,8.22456-39.08385,12.55045-59.23292,30.434,6.57891,58.408,13.16394,84.94337,19.12521-4.9374,18.30008-9.67367,36.40142-14.19633,53.67786C1232.47334,1225.16145,1204.50177,1220.84606,1175.0916,1215.90887Z" fill="#8dd4e5" style="mix-blend-mode: multiply"/>
              <path d="M1340,1425.75777c-73.63648,5.8862-162.65561,12.80281-272.26413,21.32219-75.89368,5.756-163.30127,12.53995-265.92707,20.15125-121.34479,8.84439-267.57689,19.74066-446.70963,32.0775-12.75379-45.0322-26.12083-92.53716-40.20817-143.5477,198.26648,2.6717,357.652,4.3132,488.15111,5.14248,109.00357.82075,201.14546,1.44058,279.90957,1.84242,102.35638.33355,186.58581.52791,257.04832.59422Z" fill="#df866c" style="mix-blend-mode: multiply"/>
              <path d="M1340,1089.55838q-9.50588-3.41136-19.29614-6.92515,9.48031-34.12839,19.29614-69.2036Z" fill="#8dd4e5" style="mix-blend-mode: multiply"/>
              <path d="M1340,1314.309c-41.5461-2.77216-87.67482-5.87569-139.196-9.35107-104.89348-6.99343-237.344-16.03875-409.28238-28.38216.41037-38.868.41037-78.97575.41037-121.14168,182.22555,29.61963,320.43422,52.03855,428.61486,69.10751,43.63649,7,83.257,13.32874,119.45313,19.09106Z" fill="#8dd4e5" style="mix-blend-mode: multiply"/>
              <path d="M0,1523.46959c74.74485-4.98446,144.17519-9.68221,208.871-14.07683,11.9245,31.4708,23.23749,61.90681,34.23859,90.90245C168.757,1609.13741,87.99984,1618.63381,0,1628.85465Z" fill="#fee5d2" style="mix-blend-mode: multiply"/>
              <path d="M0,1257.54251c177.29042,10.51369,326.40819,19.05692,453.81974,26.02672,158.15878,8.84461,288.75834,16.04532,398.993,21.7991,174.40721,8.84439,306.443,15.42746,409.6886,20.15957-6.98925,24.26353-13.57453,47.71244-20.15322,70.75119-100.777,3.49245-227.87977,8.02146-393.64961,12.95471-103.24347,3.29153-224.381,6.78595-369.06788,10.69534-83.40015,2.47078-175.84757,4.73211-278.3718,7.40382-62.64507,1.45546-129.565,3.09477-201.25886,4.7877Z" fill="#f88ec5" style="mix-blend-mode: multiply"/>
              <path d="M417.726,1208.29341c-9.67149-49.97158-20.46313-102.21543-31.5752-157.53895,143.45578,26.94355,265.10611,49.77285,369.58483,69.30838,90.49843,16.87025,169.68144,31.46846,239.80843,44.22222,117.64507,21.79669,213.27943,39.07313,291.63949,53.47257-6.99343,24.47277-13.37142,48.1272-20.1554,71.572-76.92389-7.20093-169.46759-15.43183-282.79708-26.32175-66.83764-6.17707-141.70112-13.37143-226.43482-21.60015C660.41343,1232.15489,548.32144,1221.25008,417.726,1208.29341Z" fill="#8dd4e5" style="mix-blend-mode: multiply"/>
              <path d="M151.17935,1048.28586c-22.31408-70.13137-46.38-145.40937-72.19177-226.437,236.209,64.99085,423.67526,115.997,575.97564,156.92109,126.27783,34.55266,232.40221,62.93482,323.10155,86.99524,146.22793,39.49007,258.93563,69.31053,349.01708,92.96483-8.22456,27.14447-15.83367,53.67983-23.44257,79.183-88.0296-13.77742-197.44377-31.47277-337.29809-54.08824-85.55445-13.98491-184.89069-30.23736-301.40728-49.56983C526.21243,1111.22055,358.28586,1083.25087,151.17935,1048.28586Z" fill="#fdc49a" style="mix-blend-mode: multiply"/>
              <path d="M1340,1153.15144c-61.26531-16.95147-132.61926-36.80548-216.73531-60.028-79.59338-22.42111-172.96641-48.33008-283.82115-79.80088C704.94334,975.891,539.479,928.79421,330.21165,869.356Q305.0698,749.34411,275.91176,610.6257c237.857,99.33931,421.8265,175.43281,567.85353,235.69593,119.28439,49.35831,217.5948,90.08147,301.0932,124.22375,74.51919,30.64349,138.95018,57.1596,195.14151,80.21323Z" fill="#fcba8d" style="mix-blend-mode: multiply"/>
              <path d="M0,1447.13358c87.039-2.67827,166.95945-5.24951,240.643-7.6647,143.24851-4.32174,266.54471-8.64347,373.287-12.34538,3.70409,32.90679,6.99563,64.58048,10.285,95.0167-99.33821,10.08186-212.96928,21.39507-343.67148,34.14447-84.691,8.216-177.7423,17.195-280.54342,26.93283Z" fill="#fff" style="mix-blend-mode: multiply"/>
              <path d="M1340,840.93335c-35.37976-24.07421-73.95277-50.30513-116.16576-78.93723C1094.67942,674.17487,921.91612,556.328,679.64326,390.355c-3.80872-87.6096-7.30336-181.39627-11.31737-281.96911,265.318,231.58057,449.38793,391.382,583.89248,508.41027q46.8372,40.72328,87.78163,76.4194Z" fill="#fdcba7" style="mix-blend-mode: multiply"/>
              <path d="M0,67.25437C300.50753,252.98309,525.64928,391.69931,700.82887,499.56478c161.444,99.74881,290.19257,178.52036,394.88075,243.09887C1191.51074,801.84622,1271.863,851.1971,1340,892.93339v127.98126c-72.80285-32.64831-160.06314-71.75142-266.3009-119.26731-98.7186-44.42289-218.00517-98.10512-364.85075-164.95021C531.56875,656.59815,303.78528,553.4488,0,415.08541Z" fill="#e2f38b" style="mix-blend-mode: multiply"/>
              <path d="M0,603.25493q64.74627,23.80961,124.03051,45.62533C300.592,713.45965,448.67506,767.55117,574.33743,813.41484c108.39228,39.48569,202.58188,73.628,285.2637,103.44852-1.6415,45.66276-3.29153,89.26292-4.527,131.01213-165.15-42.57-379.56013-97.9-668.83133-173.58208Q99.13613,851.37317,0,825.37655Z" fill="#fdd4b5" style="mix-blend-mode: multiply"/>
            </g>
          </g>
          <g style="mix-blend-mode: color-burn">
            <path d="M112.13927,1703.545c-28.59489-5.14467-55.63256-9.9965-81.27779-14.60254q1.70584,7.38017,3.41344,14.60254Z" fill="#fdd9bd" style="mix-blend-mode: multiply"/>
            <path d="M408.46492,1657.05931c.21165-22.61985.72248-45.86149,1.0324-69.92191-144.27674-7.2029-260.88833-13.57651-356.83456-18.719,3.80434,17.8897,7.30445,35.36925,10.90043,52.44455C157.24611,1630.93848,270.05315,1642.87151,408.46492,1657.05931Z" fill="#fdc69f" style="mix-blend-mode: multiply"/>
            <path d="M829.864,1703.545q2.00065-6.64938,4.02671-13.37142c-197.74712-18.30664-356.00636-33.52465-485.88979-46.27186-107.86875-10.49246-199.18551-19.53777-277.75615-27.56141Q33.58353,1612.59571,0,1609.146v67.3592q40.62413,7.08209,85.77681,14.90174,33.28368,5.82207,69.73172,12.13811Z" fill="#5f9215" style="mix-blend-mode: multiply"/>
            <path d="M0,1519.96007c39.62686.25432,82.463.515,128.86527.7459-3.59948-23.03876-7.09828-46.27821-10.80019-70.54393-42.24822,2.64828-81.51395,5.072-118.06508,7.30138Z" fill="#bfe10e" style="mix-blend-mode: multiply"/>
            <path d="M0,1609.47512c31.94837,3.26374,65.96131,6.71548,102.23032,10.364,74.4531,7.404,160.31855,16.04094,260.5782,25.70411,118.26052,11.71921,260.06626,25.29987,432.82978,41.54829,11.51828-42.57,24.06044-87.40977,37.43163-134.91933-190.86246-2.88115-344.80215-5.55286-471.49254-8.22653-106.23141-2.05844-196.62064-3.90283-274.36306-5.55089Q41.24418,1537.27263,0,1536.25533Z" fill="#fff" style="mix-blend-mode: multiply"/>
            <path d="M0,1561.82462c62.87179,3.19961,134.82412,6.64084,217.6086,10.91552,109.0016,5.14249,240.01569,11.30664,401.3592,18.50954,5.14248-33.114,10.07989-67.872,15.5301-104.06836-172.35095,4.11228-310.87151,6.784-424.90857,8.63494C130.449,1497.36167,61.12348,1498.62059,0,1499.47549Z" fill="#fca067" style="mix-blend-mode: multiply"/>
            <path d="M0,1587.19518q46.84541,3.64839,99.76172,7.7564c75.78567,5.754,163.30237,12.54433,265.82115,20.15125,121.44744,8.85074,267.67953,19.747,446.92127,32.09042,12.74744-45.04709,25.91357-92.55226,40.10137-143.55624-198.26649,2.6717-357.6542,4.31517-488.14893,5.14249-108.90333.82075-201.04089,1.434-279.91395,1.84438q-44.50332.14118-84.54263.25236Z" fill="#bf0000" style="mix-blend-mode: multiply"/>
            <path d="M0,1450.6024c99.3995-6.66865,221.68345-15.08756,375.97268-26.1506-.308-38.86805-.51521-78.97576-.41257-121.13534C221.78938,1328.29152,99.54373,1348.14774,0,1363.99848Z" fill="#00a0c6" style="mix-blend-mode: multiply"/>
            <path d="M1340,1703.545v-20.81594c-143.35947-9.34451-269.51123-17.85337-381.47716-25.46664Q949.597,1680.814,941.18228,1703.545Z" fill="#fdc69f" style="mix-blend-mode: multiply"/>
            <path d="M0,1546.75413c87.20032,3.0243,191.65673,6.57016,318.798,10.35764,103.143,3.28518,224.38294,6.784,369.06787,10.69534,83.50257,2.46225,175.85194,4.72358,278.47534,7.39528,110.17494,2.57343,234.00127,5.70891,373.65881,8.68418V1395.09918c-255.62043,15.404-459.551,27.23027-626.21643,36.34606-158.25924,8.84439-288.96779,16.03875-399.102,21.80106C189.67325,1459.58577,86.48332,1464.75824,0,1468.92611Z" fill="#f0037f" style="mix-blend-mode: multiply"/>
            <path d="M0,1428.0191c54.34147-4.98446,115.0931-10.57781,183.26223-17.14184,66.74035-6.17269,141.70428-13.367,226.54281-21.598,97.278-9.255,209.36783-20.15125,339.96323-33.10793,9.67368-49.97377,20.36684-102.2174,31.47278-157.53895-143.35116,26.93939-265.00149,49.76212-369.48241,69.30843-90.38941,16.8595-169.67509,31.45789-239.81057,44.22C108.44043,1323.91857,51.39312,1334.35959,0,1343.74481Z" fill="#00a0c6" style="mix-blend-mode: multiply"/>
            <path d="M0,1364.15235c59.11867-9.48983,125.68054-20.25368,201.15413-32.45373,85.55782-13.98491,184.90041-30.23312,301.41044-49.57,138.71731-23.03656,306.64609-51.00813,513.75476-85.96482,22.41893-70.13559,46.27187-145.40937,72.1874-226.44335-236.10433,64.99085-423.67329,115.9992-575.97345,156.92332-126.27563,34.55065-232.40243,62.93916-323.09833,86.99717C118.90706,1232.68717,56.15521,1249.48473,0,1264.425Z" fill="#fd7a39" style="mix-blend-mode: multiply"/>
            <path d="M0,1253.22078q21.51117-5.95044,44.2329-12.22347c79.4866-22.41893,172.86486-48.3303,283.81985-79.80286,134.50895-37.42756,299.96473-84.52665,509.12946-143.96683Q862.478,897.22525,891.4799,758.50367c-237.75632,99.334-421.726,175.43083-567.74889,235.68957-119.18274,49.36029-217.69286,90.08783-300.99145,124.22169Q11.209,1123.15026,0,1127.75309Z" fill="#fd6624" style="mix-blend-mode: multiply"/>
            <path d="M1340,1703.545V1600.16476c-156.77161-4.54191-293.21884-8.89144-413.14669-12.82644-143.14586-4.31539-266.54252-8.62859-373.28477-12.33685-3.70825,32.90482-6.99759,64.57851-10.28715,95.02086,97.73545,9.90677,209.212,21.021,337.36222,33.52267Z" fill="#fff" style="mix-blend-mode: multiply"/>
            <path d="M0,871.6088c122.08216-83.12328,279.13392-190.389,487.8574-333.37689,3.80456-87.617,7.30117-181.40042,11.313-281.97326C285.67737,442.61246,124.7891,582.483,0,690.98644Z" fill="#fc8d4f" style="mix-blend-mode: multiply"/>
            <path d="M0,1091.49053q44.27876-19.82306,93.79739-41.96939c98.71964-44.42506,217.90669-98.10731,364.95538-164.945,185.61557-83.91294,426.75755-193.12488,752.74441-341.61328C1250.2265,419.03091,1292.60185,281.78416,1340,131.229V108.53454C951.02054,349.14643,673.85118,519.8677,466.67179,647.44275,305.22367,747.18959,176.47287,825.96333,71.791,890.53746Q34.354,913.66256,0,934.82792Z" fill="#bfe10e" style="mix-blend-mode: multiply"/>
            <path d="M1340,687.72468c-108.65511,39.94312-207.01458,76.10751-296.5362,109.02939-176.66393,64.58464-324.745,118.6709-450.30473,164.53239-108.38593,39.48788-202.58406,73.63432-285.25954,103.45269,1.6415,45.66065,3.28956,89.26073,4.52266,131.00993,165.15024-42.572,379.55813-97.89982,668.72684-173.58624,105.91077-27.86279,224.76553-58.98056,358.851-94.22571Z" fill="#fca067" style="mix-blend-mode: multiply"/>
          </g>
        </g>
      </g>
    </g>
  </g>
</svg>
