<svg xmlns="http://www.w3.org/2000/svg" width="1671.72107" height="1627.57745" viewBox="0 0 1671.72107 1627.57745">
  <g id="Layer_2" data-name="Layer 2">
    <g id="publicdomainvectors.org">
      <g id="man-burning-bonfire-by-the-tent">
        <g>
          <g>
            <g>
              <path d="M451.85753,1585.30619v1.02007a16.15782,16.15782,0,0,1,4.74608-4.322,11.276,11.276,0,0,1,5.61036-1.39311,12.54614,12.54614,0,0,1,6.89544,2.02252,13.7648,13.7648,0,0,1,4.98245,5.899,21.38374,21.38374,0,0,1,1.8169,9.18627,23.08954,23.08954,0,0,1-1.04484,7.17537,16.32654,16.32654,0,0,1-2.897,5.50532,12.73018,12.73018,0,0,1-4.35542,3.41,12.30075,12.30075,0,0,1-5.39758,1.20092,10.938,10.938,0,0,1-5.85508-1.45728,16.53109,16.53109,0,0,1-4.50136-4.27544v12.71262c0,3.7305-1.3015,5.58709-3.89822,5.58709-1.52561,0-2.54419-.47512-3.02528-1.431a9.39469,9.39469,0,0,1-.7461-4.20859V1585.3617a5.44233,5.44233,0,0,1,1.00694-3.6141,3.47893,3.47893,0,0,1,2.76444-1.19763,3.54768,3.54768,0,0,1,2.80951,1.23553A5.18138,5.18138,0,0,1,451.85753,1585.30619Zm15.9098,12.34853a14.9063,14.9063,0,0,0-.98634-5.76167,8.434,8.434,0,0,0-2.7164-3.71885,6.38834,6.38834,0,0,0-3.85434-1.28538,7.166,7.166,0,0,0-5.66707,2.77459c-1.53905,1.85062-2.30843,4.55239-2.30843,8.13426,0,3.37774.76938,6.00072,2.28515,7.85135a7.08792,7.08792,0,0,0,5.69035,2.82711,6.30584,6.30584,0,0,0,3.75825-1.23852,8.53939,8.53939,0,0,0,2.757-3.66066A15.05794,15.05794,0,0,0,467.76733,1597.65472Z"/>
              <path d="M503.52753,1610.219v-1.06961a18.49875,18.49875,0,0,1-3.06885,3.21449,10.76042,10.76042,0,0,1-3.50308,1.941,13.82534,13.82534,0,0,1-4.35125.63837,10.96612,10.96612,0,0,1-5.27223-1.26778,8.94949,8.94949,0,0,1-3.60664-3.50606c-1.02753-1.80108-1.51995-4.38915-1.51995-7.74958V1585.627a5.62152,5.62152,0,0,1,1.10154-3.79466,3.67916,3.67916,0,0,1,2.9059-1.25912,3.76915,3.76915,0,0,1,2.97694,1.27941,5.53537,5.53537,0,0,1,1.12661,3.77437v13.57242a22.187,22.187,0,0,0,.46467,4.92843,6.15678,6.15678,0,0,0,1.73124,3.15033,4.74626,4.74626,0,0,0,3.33268,1.12213,6.58684,6.58684,0,0,0,3.86747-1.27344,7.19684,7.19684,0,0,0,2.65372-3.31089q.684-1.80138.68194-7.88059V1585.627a5.50756,5.50756,0,0,1,1.13675-3.77437,4.00229,4.00229,0,0,1,5.84763-.02029,5.68257,5.68257,0,0,1,1.08572,3.79466v24.54246a5.35828,5.35828,0,0,1-1.04185,3.62544,3.39235,3.39235,0,0,1-2.71789,1.20958,3.546,3.546,0,0,1-2.74833-1.2445A5.27281,5.27281,0,0,1,503.52753,1610.219Z"/>
            </g>
            <path d="M526.69031,1572.80636v12.94869a18.89809,18.89809,0,0,1,4.65565-3.82361,12.099,12.099,0,0,1,5.89179-1.32029,12.72868,12.72868,0,0,1,7.09212,1.99626,13.15458,13.15458,0,0,1,4.72877,5.81449,21.96661,21.96661,0,0,1,1.6832,9.01138,25.52035,25.52035,0,0,1-.927,7.0763,17.28941,17.28941,0,0,1-2.72055,5.56947,13.09051,13.09051,0,0,1-4.331,3.65469,12.48781,12.48781,0,0,1-5.61186,1.27672,13.3621,13.3621,0,0,1-3.52934-.46049,9.52973,9.52973,0,0,1-2.79638-1.2418,11.623,11.623,0,0,1-1.99208-1.54443c-.54047-.54793-1.25464-1.34656-2.14339-2.42213v.82787a5.27424,5.27424,0,0,1-1.11048,3.62544,3.57773,3.57773,0,0,1-2.78923,1.21554,3.42343,3.42343,0,0,1-2.76146-1.21554,5.628,5.628,0,0,1-1.01708-3.62544v-36.996a6.31743,6.31743,0,0,1,1.00276-3.8821,3.25324,3.25324,0,0,1,2.77578-1.3203,3.447,3.447,0,0,1,2.87367,1.2621A5.49025,5.49025,0,0,1,526.69031,1572.80636Zm.3847,25.18351c0,3.36908.73295,5.94849,2.20336,7.76718a7.19566,7.19566,0,0,0,5.82584,2.71908,6.608,6.608,0,0,0,5.27939-2.78026c1.48505-1.85659,2.224-4.4942,2.224-7.95371a16.10316,16.10316,0,0,0-.92693-5.77927,8.42542,8.42542,0,0,0-2.61554-3.74214,6.316,6.316,0,0,0-3.96089-1.33193,6.86419,6.86419,0,0,0-4.134,1.33193,8.63752,8.63752,0,0,0-2.86054,3.82092A15.282,15.282,0,0,0,527.075,1597.98987Z"/>
            <g>
              <path d="M556.47157,1609.85463v-36.73372a5.95467,5.95467,0,0,1,1.07379-3.85285,3.6715,3.6715,0,0,1,2.93784-1.297,3.75255,3.75255,0,0,1,2.97275,1.28538,5.78341,5.78341,0,0,1,1.13377,3.86449v36.73372a5.73156,5.73156,0,0,1-1.15257,3.87911,3.80646,3.80646,0,0,1-2.95395,1.27672,3.5991,3.5991,0,0,1-2.894-1.33492A5.7973,5.7973,0,0,1,556.47157,1609.85463Z"/>
              <path d="M577.06926,1576.627a4.16572,4.16572,0,0,1-2.91008-1.10452,3.99932,3.99932,0,0,1-1.19346-3.0805,3.91414,3.91414,0,0,1,1.23884-2.96111,4.0111,4.0111,0,0,1,2.8647-1.14243,4.15333,4.15333,0,0,1,2.79638,1.04036,3.85924,3.85924,0,0,1,1.21823,3.06318,3.92138,3.92138,0,0,1-1.19346,3.05722A4.02156,4.02156,0,0,1,577.06926,1576.627Zm4.01461,8.758v24.46965a5.73666,5.73666,0,0,1-1.14959,3.85882,3.855,3.855,0,0,1-2.94649,1.297,3.61393,3.61393,0,0,1-2.90143-1.32626,5.88815,5.88815,0,0,1-1.12064-3.82957V1585.627a5.63484,5.63484,0,0,1,1.12064-3.77437,3.64534,3.64534,0,0,1,2.90143-1.27941,3.81912,3.81912,0,0,1,2.94649,1.27941A5.14211,5.14211,0,0,1,581.08387,1585.385Z"/>
              <path d="M618.54488,1604.52121a7.59766,7.59766,0,0,1-.8992,3.38371,11.7021,11.7021,0,0,1-2.77608,3.42459,13.96805,13.96805,0,0,1-4.67744,2.61135,18.67834,18.67834,0,0,1-6.35945,1.00246q-7.53008,0-11.74956-4.57568-4.212-4.57731-4.21874-12.267a21.01821,21.01821,0,0,1,1.92345-9.21551,14.31979,14.31979,0,0,1,5.59454-6.18128,16.61184,16.61184,0,0,1,8.73443-2.1977,16.98887,16.98887,0,0,1,5.79539.96187,15.28473,15.28473,0,0,1,4.45632,2.48033,12.01357,12.01357,0,0,1,2.79637,3.24075,6.55529,6.55529,0,0,1,.96305,3.21449,3.50053,3.50053,0,0,1-1.08274,2.56777,3.60737,3.60737,0,0,1-2.62865,1.058,2.62359,2.62359,0,0,1-1.69036-.55659,8.16355,8.16355,0,0,1-1.49966-1.74289,13.01265,13.01265,0,0,0-3.10526-3.5556,7.39277,7.39277,0,0,0-9.91506,1.76616c-1.47011,1.96433-2.19442,4.63685-2.19442,8.02921a15.96808,15.96808,0,0,0,.56823,4.38915,10.19351,10.19351,0,0,0,1.62619,3.42161,7.04053,7.04053,0,0,0,2.58658,2.13623,7.45373,7.45373,0,0,0,3.324.73147,7.25632,7.25632,0,0,0,4.18382-1.17167,10.33375,10.33375,0,0,0,3.07752-3.59052,8.12488,8.12488,0,0,1,1.60738-2.25859,2.98807,2.98807,0,0,1,2.11594-.79564,3.08771,3.08771,0,0,1,2.47286,1.16869A3.98076,3.98076,0,0,1,618.54488,1604.52121Z"/>
              <path d="M647.87013,1610.16948v-.82787a19.84877,19.84877,0,0,1-3.23956,3.16525,11.49545,11.49545,0,0,1-3.43742,1.87091,12.68651,12.68651,0,0,1-4.05132.63269,11.73446,11.73446,0,0,1-5.39877-1.27672,13.18816,13.18816,0,0,1-4.29156-3.68961,17.20162,17.20162,0,0,1-2.7528-5.625,24.58673,24.58673,0,0,1-.9371-6.98587c0-5.28089,1.24181-9.4283,3.71885-12.38643a12.14169,12.14169,0,0,1,9.77658-4.4357,12.4715,12.4715,0,0,1,5.91626,1.27941,16.2021,16.2021,0,0,1,4.69684,3.86449v-12.50879a6.48288,6.48288,0,0,1,.99649-3.9403,3.29807,3.29807,0,0,1,2.83308-1.33492,3.49607,3.49607,0,0,1,2.84443,1.21823,5.65685,5.65685,0,0,1,1.00246,3.61709v37.36312a5.29867,5.29867,0,0,1-1.07826,3.62544,3.70722,3.70722,0,0,1-5.52143-.03492A5.34317,5.34317,0,0,1,647.87013,1610.16948Zm-15.95367-12.42732a15.08956,15.08956,0,0,0,1.02126,5.86106,8.07494,8.07494,0,0,0,2.80085,3.63439,6.6929,6.6929,0,0,0,3.89225,1.23852,7.04442,7.04442,0,0,0,3.90985-1.16,8.04014,8.04014,0,0,0,2.8298-3.57889,14.90745,14.90745,0,0,0,1.05349-5.995,14.57789,14.57789,0,0,0-1.05349-5.82882,8.92928,8.92928,0,0,0-2.85308-3.73914,6.68893,6.68893,0,0,0-3.93612-1.28538,6.498,6.498,0,0,0-3.98267,1.33193,8.46069,8.46069,0,0,0-2.72057,3.79168A15.74726,15.74726,0,0,0,631.91646,1597.74216Z"/>
              <path d="M694.07274,1597.80931a21.04619,21.04619,0,0,1-1.1308,6.98289,15.80408,15.80408,0,0,1-3.26135,5.485,14.81466,14.81466,0,0,1-5.12062,3.5177,17.47934,17.47934,0,0,1-6.6931,1.21554,16.661,16.661,0,0,1-6.623-1.23882,14.65321,14.65321,0,0,1-5.11047-3.55262,15.727,15.727,0,0,1-3.26849-5.4501,20.85749,20.85749,0,0,1-1.11051-6.97423,21.11544,21.11544,0,0,1,1.12511-7.03243,15.41609,15.41609,0,0,1,3.23926-5.47069,14.2105,14.2105,0,0,1,5.1251-3.48547,18.51311,18.51311,0,0,1,13.31607.01164,14.559,14.559,0,0,1,5.13525,3.544,15.042,15.042,0,0,1,3.24672,5.4704A20.40724,20.40724,0,0,1,694.07274,1597.80931Zm-8.14293,0c0-3.4419-.74043-6.14069-2.18876-8.06443a7.4452,7.4452,0,0,0-10.06934-1.594,8.24467,8.24467,0,0,0-2.7922,3.812,17.85922,17.85922,0,0,0-.01731,11.64033,8.23887,8.23887,0,0,0,2.77459,3.80331,7.443,7.443,0,0,0,10.10426-1.58263C685.18938,1603.89748,685.92981,1601.21331,685.92981,1597.80931Z"/>
              <path d="M728.34968,1590.8118c-.60911,1.43072-.8977,3.95761-.8977,7.598v11.25535a5.94835,5.94835,0,0,1-1.16153,4.01042,3.87291,3.87291,0,0,1-3.06885,1.33492,3.72268,3.72268,0,0,1-2.96975-1.33492,6.042,6.042,0,0,1-1.13827-4.01042v-13.51125a44.7249,44.7249,0,0,0-.21995-4.969,5.55318,5.55318,0,0,0-1.12929-2.897,3.48926,3.48926,0,0,0-2.90143-1.13675q-3.98238,0-5.25043,2.8677a20.78749,20.78749,0,0,0-1.25018,8.19246v11.45381a6.00527,6.00527,0,0,1-1.14541,3.98118,3.73667,3.73667,0,0,1-3.01066,1.36416,3.78222,3.78222,0,0,1-3.03244-1.36416,5.80861,5.80861,0,0,1-1.16152-3.9782v-24.23656a5.505,5.505,0,0,1,1.0317-3.6344,3.53255,3.53255,0,0,1,2.79787-1.24717,3.66047,3.66047,0,0,1,2.7731,1.16272,4.43623,4.43623,0,0,1,1.11348,3.20882v.80459a14.08238,14.08238,0,0,1,4.513-3.87345,11.55219,11.55219,0,0,1,5.3537-1.2415,10.25426,10.25426,0,0,1,5.25045,1.27941,9.61455,9.61455,0,0,1,3.62126,3.83554,14.43984,14.43984,0,0,1,4.40825-3.85882,10.78883,10.78883,0,0,1,5.19344-1.25613,11.2286,11.2286,0,0,1,5.7369,1.36983,8.52463,8.52463,0,0,1,3.60395,3.90538c.69805,1.53279,1.03738,3.9403,1.03738,7.23656v16.5422a6.0667,6.0667,0,0,1-1.14541,4.01042,3.89835,3.89835,0,0,1-3.07035,1.33492,3.75373,3.75373,0,0,1-3.01332-1.36416,5.79625,5.79625,0,0,1-1.1848-3.98118v-14.25436a34.99916,34.99916,0,0,0-.21729-4.37453,5.08523,5.08523,0,0,0-1.21375-2.76295,3.73514,3.73514,0,0,0-2.96261-1.12213,5.3153,5.3153,0,0,0-3.03692.98216,6.71149,6.71149,0,0,0-2.25262,2.67849Z"/>
              <path d="M774.84238,1610.23931a24.53673,24.53673,0,0,1-5.69484,3.57023,15.08982,15.08982,0,0,1-6.16277,1.20092,11.4923,11.4923,0,0,1-5.49365-1.27672,9.16025,9.16025,0,0,1-3.64606-3.51472,9.392,9.392,0,0,1-1.27941-4.77085,8.79971,8.79971,0,0,1,2.12459-5.92223,10.42591,10.42591,0,0,1,5.78229-3.28761c.516-.12535,1.80257-.39335,3.831-.82757,2.06341-.44587,3.79466-.83355,5.27372-1.195,1.44266-.35574,3.03245-.79862,4.73743-1.31164a9.37448,9.37448,0,0,0-1.291-4.94872c-.77385-1.03469-2.36513-1.54472-4.74906-1.54472a9.61263,9.61263,0,0,0-4.66909.892,7.50415,7.50415,0,0,0-2.66357,2.7161c-.75356,1.192-1.26658,1.98761-1.57546,2.36364a2.49715,2.49715,0,0,1-1.97149.56554,3.35747,3.35747,0,0,1-2.36364-.90367,3.01643,3.01643,0,0,1-1.00246-2.3517,7.32219,7.32219,0,0,1,1.511-4.331,11.01556,11.01556,0,0,1,4.72877-3.49442,20.55244,20.55244,0,0,1,8.00594-1.36118,21.97805,21.97805,0,0,1,8.42285,1.32626,7.91039,7.91039,0,0,1,4.31335,4.17039,18.81662,18.81662,0,0,1,1.26478,7.569c0,1.98164,0,3.68095-.01164,5.05646-.01611,1.39879-.02477,2.93485-.04387,4.63118a17.4538,17.4538,0,0,0,.76222,4.972,16.9854,16.9854,0,0,1,.74462,3.33118,3.18641,3.18641,0,0,1-1.17438,2.37827,3.80911,3.80911,0,0,1-2.64775,1.0696,3.53363,3.53363,0,0,1-2.47735-1.21554A18.79449,18.79449,0,0,1,774.84238,1610.23931Zm-.52766-12.26974a39.54514,39.54514,0,0,1-5.19493,1.44833q-3.40758.761-4.71564,1.11915a6.38,6.38,0,0,0-2.489,1.39043,3.69377,3.69377,0,0,0-1.20211,2.91724,4.41735,4.41735,0,0,0,1.3946,3.27866,5.02516,5.02516,0,0,0,3.66633,1.35253,9.18494,9.18494,0,0,0,4.44466-1.10751,7.11068,7.11068,0,0,0,2.98559-2.83577c.736-1.28837,1.11049-3.39236,1.11049-6.35646Z"/>
              <path d="M794.62561,1576.627a4.09472,4.09472,0,0,1-2.88382-1.10452,4.3159,4.3159,0,0,1,.02626-6.04161,4.00359,4.00359,0,0,1,2.85756-1.14243,4.18854,4.18854,0,0,1,2.811,1.04036,4.52058,4.52058,0,0,1,.01462,6.1204A4.0405,4.0405,0,0,1,794.62561,1576.627Zm4.01162,8.758v24.46965a5.699,5.699,0,0,1-1.14959,3.85882,3.81053,3.81053,0,0,1-2.94082,1.297,3.61005,3.61005,0,0,1-2.89844-1.32626,5.79163,5.79163,0,0,1-1.12631-3.82957V1585.627a5.54454,5.54454,0,0,1,1.12631-3.77437,3.64132,3.64132,0,0,1,2.89844-1.27941,3.77558,3.77558,0,0,1,2.94082,1.27941A5.10719,5.10719,0,0,1,798.63723,1585.385Z"/>
            </g>
            <g>
              <path d="M814.41035,1585.26262v1.01111a14.40535,14.40535,0,0,1,4.66013-4.319,12.12381,12.12381,0,0,1,5.85807-1.38148,11.2743,11.2743,0,0,1,5.74734,1.46594,9.069,9.069,0,0,1,3.75676,4.10652,10.47455,10.47455,0,0,1,1.049,3.3661,38.4389,38.4389,0,0,1,.23905,4.58731v15.75552a5.82076,5.82076,0,0,1-1.12213,3.85882,3.69422,3.69422,0,0,1-2.89695,1.297,3.58706,3.58706,0,0,1-2.91724-1.33492,5.69793,5.69793,0,0,1-1.15138-3.82091v-14.10574a14.6833,14.6833,0,0,0-1.10154-6.412c-.75774-1.47758-2.24427-2.22964-4.465-2.22964a6.36636,6.36636,0,0,0-3.94478,1.36118,7.65615,7.65615,0,0,0-2.61283,3.70721,27.41122,27.41122,0,0,0-.60613,7.08495v10.594a5.6923,5.6923,0,0,1-1.14092,3.87911,3.82615,3.82615,0,0,1-2.95516,1.27672,3.62945,3.62945,0,0,1-2.87965-1.32626,5.72159,5.72159,0,0,1-1.13526-3.82957V1585.385a5.41086,5.41086,0,0,1,1.01738-3.61111,3.41877,3.41877,0,0,1,2.76564-1.20063,3.58165,3.58165,0,0,1,3.30643,2.09535A6.08364,6.08364,0,0,1,814.41035,1585.26262Z"/>
              <path d="M848.7455,1585.84547l6.55433,19.23233,7.07928-20.07184a12.04884,12.04884,0,0,1,1.64679-3.4213,2.93417,2.93417,0,0,1,2.4278-1.01142A3.60073,3.60073,0,0,1,869.1,1581.6721a3.45561,3.45561,0,0,1,1.07229,2.51793,5.11448,5.11448,0,0,1-.19816,1.27643,9.58415,9.58415,0,0,1-.44287,1.41937c-.16894.41692-.34382.921-.57989,1.47489l-7.78449,20.165c-.21873.57719-.50735,1.3203-.84518,2.212a13.77208,13.77208,0,0,1-1.16,2.28485,4.85543,4.85543,0,0,1-1.574,1.45728,4.6395,4.6395,0,0,1-2.28786.53062,4.35552,4.35552,0,0,1-2.754-.81026,5.39334,5.39334,0,0,1-1.51249-1.813c-.32082-.63806-.88308-1.93508-1.64676-3.86151l-7.738-19.94649c-.17758-.48676-.37007-.98784-.56226-1.48623-.17787-.49571-.32351-.99112-.46348-1.51846a6.03284,6.03284,0,0,1-.19816-1.32626,3.29075,3.29075,0,0,1,.51271-1.73095,3.93291,3.93291,0,0,1,1.3961-1.3961,3.70138,3.70138,0,0,1,1.94105-.54794,3.00285,3.00285,0,0,1,2.77459,1.2239A19.51453,19.51453,0,0,1,848.7455,1585.84547Z"/>
            </g>
            <g>
              <path d="M897.81879,1599.86407H881.94092a11.67713,11.67713,0,0,0,1.10154,5.103,8.06316,8.06316,0,0,0,2.89426,3.31656,7.30337,7.30337,0,0,0,3.97223,1.11049,9.537,9.537,0,0,0,2.65522-.34678,9.429,9.429,0,0,0,2.346-1.11915,17.27614,17.27614,0,0,0,2.06938-1.64082c.62642-.57718,1.4716-1.34925,2.46839-2.349a2.52042,2.52042,0,0,1,1.78079-.56554,2.80983,2.80983,0,0,1,2.03147.72013,2.57738,2.57738,0,0,1,.75774,2.0079,5.68363,5.68363,0,0,1-.8598,2.69581,10.45132,10.45132,0,0,1-2.59971,2.95246,15.26676,15.26676,0,0,1-4.37184,2.33738,18.07741,18.07741,0,0,1-6.05324.924c-5.2021,0-9.26207-1.56233-12.14437-4.64879-2.89131-3.11839-4.331-7.315-4.331-12.61951a22.27555,22.27555,0,0,1,1.06394-6.97423,15.3367,15.3367,0,0,1,3.12137-5.50531,13.25392,13.25392,0,0,1,5.05049-3.52666,17.42474,17.42474,0,0,1,6.66833-1.22986,15.19765,15.19765,0,0,1,8.14591,2.10131,13.45212,13.45212,0,0,1,5.10033,5.39757,14.7847,14.7847,0,0,1,1.69633,6.785c0,2.11295-.56853,3.49443-1.74886,4.12085A10.434,10.434,0,0,1,897.81879,1599.86407Zm-15.87787-4.82069H896.6501c-.18652-2.88532-.92964-5.05079-2.2383-6.48151a6.61928,6.61928,0,0,0-5.13823-2.15115,6.366,6.366,0,0,0-4.966,2.1801A11.2107,11.2107,0,0,0,881.94092,1595.04338Z"/>
              <path d="M940.46011,1604.52121a7.43477,7.43477,0,0,1-.918,3.38371,11.40569,11.40569,0,0,1-2.76,3.42459,14.02818,14.02818,0,0,1-4.69535,2.61135,18.59106,18.59106,0,0,1-6.34183,1.00246q-7.54977,0-11.75374-4.57568-4.2102-4.57731-4.22322-12.267a20.77517,20.77517,0,0,1,1.93807-9.21551,14.20108,14.20108,0,0,1,5.5841-6.18128,16.60165,16.60165,0,0,1,8.74636-2.1977,17.04253,17.04253,0,0,1,5.788.96187,15.57089,15.57089,0,0,1,4.45926,2.48033,12.06526,12.06526,0,0,1,2.7919,3.24075,6.67137,6.67137,0,0,1,.95891,3.21449,3.39748,3.39748,0,0,1-1.09858,2.56777,3.56556,3.56556,0,0,1-2.6203,1.058,2.546,2.546,0,0,1-1.66977-.55659,7.619,7.619,0,0,1-1.51279-1.74289,13.03441,13.03441,0,0,0-3.10078-3.5556,7.38822,7.38822,0,0,0-9.91207,1.76616c-1.48056,1.96433-2.20935,4.63685-2.20935,8.02921a16.72625,16.72625,0,0,0,.56256,4.38915,10.18566,10.18566,0,0,0,1.64679,3.42161,7.05464,7.05464,0,0,0,2.58807,2.13623,7.37051,7.37051,0,0,0,3.32819.73147,7.27413,7.27413,0,0,0,4.17937-1.17167,10.46145,10.46145,0,0,0,3.08047-3.59052,8.0391,8.0391,0,0,1,1.6059-2.25859,2.92089,2.92089,0,0,1,2.11-.79564,3.00356,3.00356,0,0,1,2.44242,1.16869A3.86975,3.86975,0,0,1,940.46011,1604.52121Z"/>
              <path d="M947.99692,1581.28741h.89171v-5.09168c0-1.35521.0379-2.43645.11072-3.20882a4.636,4.636,0,0,1,.58017-1.99924,3.71563,3.71563,0,0,1,1.36984-1.41371,3.78494,3.78494,0,0,1,1.98462-.52436,3.92025,3.92025,0,0,1,2.78921,1.19764,3.7319,3.7319,0,0,1,1.052,1.96164,18.65238,18.65238,0,0,1,.21846,3.31358v5.76495H959.978a3.70464,3.70464,0,0,1,2.63194.85682,2.82684,2.82684,0,0,1,.90934,2.18278,2.45162,2.45162,0,0,1-1.303,2.39289,8.18285,8.18285,0,0,1-3.69528.676h-1.52741v15.60121a27.76247,27.76247,0,0,0,.1343,3.07184,3.30716,3.30716,0,0,0,.73147,1.72826,2.33877,2.33877,0,0,0,1.88554.67895,9.14056,9.14056,0,0,0,1.93541-.268,9.56034,9.56034,0,0,1,1.89417-.26233,2.4855,2.4855,0,0,1,1.77482.80728,2.91692,2.91692,0,0,1,.784,2.04281,3.383,3.383,0,0,1-2.13623,3.13033,13.98659,13.98659,0,0,1-6.15233,1.08423,10.30829,10.30829,0,0,1-5.7763-1.33492,6.114,6.114,0,0,1-2.5618-3.70422,25.47912,25.47912,0,0,1-.61807-6.29529v-16.28016h-1.07826a3.75663,3.75663,0,0,1-2.66387-.87145,2.85879,2.85879,0,0,1-.918-2.19741,2.78527,2.78527,0,0,1,.95292-2.18278A4.147,4.147,0,0,1,947.99692,1581.28741Z"/>
              <path d="M999.47772,1597.80931a20.61175,20.61175,0,0,1-1.13947,6.98289,15.69484,15.69484,0,0,1-3.26135,5.485,14.76909,14.76909,0,0,1-5.112,3.5177,17.44023,17.44023,0,0,1-6.69459,1.21554,16.64658,16.64658,0,0,1-6.63311-1.23882,14.62786,14.62786,0,0,1-5.10033-3.55262,15.352,15.352,0,0,1-3.25538-5.4501,20.897,20.897,0,0,1-1.10452-6.97423,21.23458,21.23458,0,0,1,1.10452-7.03243,15.76814,15.76814,0,0,1,3.24076-5.47069,14.42361,14.42361,0,0,1,5.115-3.48547,18.54444,18.54444,0,0,1,13.3277.01164,14.5869,14.5869,0,0,1,5.13824,3.544,15.62336,15.62336,0,0,1,3.25838,5.4704A20.84437,20.84437,0,0,1,999.47772,1597.80931Zm-8.14892,0c0-3.4419-.73446-6.14069-2.18278-8.06443a7.43435,7.43435,0,0,0-10.06067-1.594,8.13463,8.13463,0,0,0-2.79789,3.812,17.73328,17.73328,0,0,0-.01164,11.64033,8.26829,8.26829,0,0,0,2.754,3.80331,7.45791,7.45791,0,0,0,10.1162-1.58263C990.59434,1603.89748,991.3288,1601.21331,991.3288,1597.80931Z"/>
            </g>
            <path d="M1013.93618,1602.80459v7.05a5.65583,5.65583,0,0,1-1.1657,3.87911,3.83767,3.83767,0,0,1-2.95246,1.27672,3.69357,3.69357,0,0,1-2.87368-1.297,5.74344,5.74344,0,0,1-1.1218-3.85882V1586.2797q0-5.71392,3.94892-5.70646a3.30179,3.30179,0,0,1,2.91754,1.33194,7.9327,7.9327,0,0,1,.9762,3.94029,14.59974,14.59974,0,0,1,2.996-3.94029,6.01765,6.01765,0,0,1,4.07161-1.33194,10.24136,10.24136,0,0,1,4.9777,1.33194,4.00808,4.00808,0,0,1,2.41017,3.538,3.44336,3.44336,0,0,1-1.03436,2.5618,3.129,3.129,0,0,1-2.221,1.01708,9.81025,9.81025,0,0,1-2.15085-.58852,9.93756,9.93756,0,0,0-3.03095-.5742,4.17327,4.17327,0,0,0-2.891.98217,6.29827,6.29827,0,0,0-1.7605,2.894,20.63743,20.63743,0,0,0-.86547,4.59329C1014.015,1598.08626,1013.93618,1600.23712,1013.93618,1602.80459Z"/>
            <path d="M1057.16632,1603.944a10.62992,10.62992,0,0,1-1.64679,6.00669,10.0984,10.0984,0,0,1-4.835,3.786,21.30089,21.30089,0,0,1-7.79046,1.27373,18.16134,18.16134,0,0,1-7.48695-1.40206,10.8501,10.8501,0,0,1-4.60194-3.47682,7.15237,7.15237,0,0,1-1.51279-4.194,3.29178,3.29178,0,0,1,.9765-2.3899,3.12482,3.12482,0,0,1,2.39557-.99082,2.81263,2.81263,0,0,1,1.973.641,8.08394,8.08394,0,0,1,1.30866,1.845,8.96813,8.96813,0,0,0,2.999,3.3837,8.53041,8.53041,0,0,0,4.7419,1.12512,6.65618,6.65618,0,0,0,3.99551-1.13974,3.22821,3.22821,0,0,0,1.571-2.58807,3.57835,3.57835,0,0,0-1.62053-3.264,19.08781,19.08781,0,0,0-5.34206-1.96134,44.21274,44.21274,0,0,1-6.83158-2.2762,11.30855,11.30855,0,0,1-4.21128-3.16226,7.35047,7.35047,0,0,1-1.58531-4.8001,8.69381,8.69381,0,0,1,1.463-4.81174,10.1301,10.1301,0,0,1,4.30469-3.61679,15.73581,15.73581,0,0,1,6.86053-1.3582,21.72876,21.72876,0,0,1,5.66289.68791,13.81567,13.81567,0,0,1,4.188,1.82436,8.93408,8.93408,0,0,1,2.5618,2.54151,5.10579,5.10579,0,0,1,.88308,2.7337,3.24028,3.24028,0,0,1-.94426,2.40154,3.71482,3.71482,0,0,1-2.65223.912,3.18225,3.18225,0,0,1-2.14518-.75176,14.85985,14.85985,0,0,1-1.99922-2.20935,7.31065,7.31065,0,0,0-2.17416-1.99328,6.68859,6.68859,0,0,0-3.38072-.7461,6.31265,6.31265,0,0,0-3.65469.98217,2.86314,2.86314,0,0,0-1.46892,2.43646,2.695,2.695,0,0,0,1.06364,2.18875,8.845,8.845,0,0,0,2.89426,1.41639c1.21823.373,2.87636.83653,4.99827,1.36984a25.48062,25.48062,0,0,1,6.17262,2.29351,10.271,10.271,0,0,1,3.62276,3.14465A7.14385,7.14385,0,0,1,1057.16632,1603.944Z"/>
            <g>
              <path d="M1066.38186,1615.01046a4.42844,4.42844,0,0,1-4.52049-4.704,4.63944,4.63944,0,0,1,1.2621-3.26134,4.168,4.168,0,0,1,3.162-1.34925,4.228,4.228,0,0,1,3.1739,1.34626,4.44278,4.44278,0,0,1,1.3379,3.26433,4.49886,4.49886,0,0,1-1.3379,3.45354A4.28239,4.28239,0,0,1,1066.38186,1615.01046Z"/>
              <path d="M1110.42492,1597.80931a20.67824,20.67824,0,0,1-1.13676,6.98289,15.7068,15.7068,0,0,1-3.267,5.485,14.71368,14.71368,0,0,1-5.112,3.5177,17.38345,17.38345,0,0,1-6.69161,1.21554,16.68165,16.68165,0,0,1-6.62446-1.23882,14.53147,14.53147,0,0,1-5.08869-3.55262,15.30658,15.30658,0,0,1-3.29328-5.4501,21.1979,21.1979,0,0,1-1.10183-6.97423,20.78512,20.78512,0,0,1,1.13108-7.03243,15.78612,15.78612,0,0,1,3.22912-5.47069,14.25342,14.25342,0,0,1,5.1236-3.48547,18.51314,18.51314,0,0,1,13.31607.01164,14.52816,14.52816,0,0,1,5.14987,3.544,15.69135,15.69135,0,0,1,3.25239,5.4704A20.913,20.913,0,0,1,1110.42492,1597.80931Zm-8.15456,0c0-3.4419-.73177-6.14069-2.18872-8.06443a7.41983,7.41983,0,0,0-10.04908-1.594,8.1639,8.1639,0,0,0-2.7922,3.812,18.01619,18.01619,0,0,0-.02626,11.64033,8.43163,8.43163,0,0,0,2.77757,3.80331,7.42522,7.42522,0,0,0,10.09-1.58263C1101.53859,1603.89748,1102.27036,1601.21331,1102.27036,1597.80931Z"/>
            </g>
            <path d="M1124.88043,1602.80459v7.05a5.672,5.672,0,0,1-1.15974,3.87911,3.80932,3.80932,0,0,1-2.93485,1.27672,3.69953,3.69953,0,0,1-2.89128-1.297,5.68094,5.68094,0,0,1-1.13377-3.85882V1586.2797c0-3.80928,1.33492-5.70646,3.95793-5.70646a3.24611,3.24611,0,0,1,2.90558,1.33194,7.79028,7.79028,0,0,1,1.00275,3.94029,14.397,14.397,0,0,1,2.96679-3.94029,6.0627,6.0627,0,0,1,4.08026-1.33194,10.12358,10.12358,0,0,1,4.975,1.33194,3.99961,3.99961,0,0,1,2.41616,3.538,3.44575,3.44575,0,0,1-1.02305,2.5618,3.15776,3.15776,0,0,1-2.22964,1.01708,9.90677,9.90677,0,0,1-2.13921-.58852,9.90713,9.90713,0,0,0-3.031-.5742,4.29015,4.29015,0,0,0-2.92023.98217,6.513,6.513,0,0,0-1.74886,2.894,21.73771,21.73771,0,0,0-.85085,4.59329C1124.96489,1598.08626,1124.88043,1600.23712,1124.88043,1602.80459Z"/>
            <path d="M1171.84106,1586.77511v24.6126a27.1645,27.1645,0,0,1-.87144,7.25685,11.72584,11.72584,0,0,1-2.763,5.03348,11.57822,11.57822,0,0,1-4.975,2.94351,26.49738,26.49738,0,0,1-7.65915.9559,21.3528,21.3528,0,0,1-7.49023-1.21256,12.89852,12.89852,0,0,1-5.08839-3.18256,5.8468,5.8468,0,0,1-1.78944-3.98387,3.4392,3.4392,0,0,1,3.45055-3.515,3.99147,3.99147,0,0,1,3.13,1.6438c.43721.57718.892,1.13377,1.34357,1.69633a7.84405,7.84405,0,0,0,1.54472,1.46295,5.88008,5.88008,0,0,0,2.04879.90934,11.38079,11.38079,0,0,0,2.73669.29426,10.75462,10.75462,0,0,0,4.88455-.915,5.17412,5.17412,0,0,0,2.4481-2.55584,10.38951,10.38951,0,0,0,.79-3.518c.0961-1.27642.15161-3.267.20682-6.05325a13.74227,13.74227,0,0,1-4.33065,4.15607,11.37995,11.37995,0,0,1-5.83181,1.41938,11.8272,11.8272,0,0,1-7.12882-2.16846,13.63709,13.63709,0,0,1-4.69236-6.08249,23.45794,23.45794,0,0,1-1.63485-9.023,21.96937,21.96937,0,0,1,1.00246-6.90738,14.15213,14.15213,0,0,1,2.84173-5.17584,12.10391,12.10391,0,0,1,4.24322-3.18852,13.06689,13.06689,0,0,1,5.29849-1.06662,12.17118,12.17118,0,0,1,5.96016,1.39311,14.53907,14.53907,0,0,1,4.70666,4.322v-1.13377a5.22135,5.22135,0,0,1,1.04364-3.43892,3.37976,3.37976,0,0,1,2.66954-1.2036,3.13264,3.13264,0,0,1,3.133,1.59426A11.13965,11.13965,0,0,1,1171.84106,1586.77511Zm-23.52836,10.74263q0,5.14135,2.16547,7.79344a6.87934,6.87934,0,0,0,5.56085,2.63463,7.07833,7.07833,0,0,0,3.82358-1.14541,8.19525,8.19525,0,0,0,2.93187-3.413,12.22185,12.22185,0,0,0,1.1281-5.53157q0-5.18031-2.18876-8.05548a6.84137,6.84137,0,0,0-5.74734-2.91157,6.68187,6.68187,0,0,0-5.56679,2.77459C1149.01492,1591.51105,1148.3127,1594.12239,1148.3127,1597.51774Z"/>
          </g>
          <g>
            <path d="M760.44773,1496.69834a49.02077,49.02077,0,0,1,13.92519-35.13079q13.94595-14.55743,33.65769-14.56056,19.66164,0,33.618,14.56056a49.00813,49.00813,0,0,1,13.94577,35.13079q0,20.582-13.94577,35.13945-13.95846,14.57086-33.618,14.5722-19.70774,0-33.65769-14.5722Q760.44713,1517.28887,760.44773,1496.69834Zm12.23065,0q0,16.16229,10.23826,27.326a33.8068,33.8068,0,0,0,50.17813,0q10.26034-11.14806,10.23555-27.326,0-16.14885-10.23555-27.31138a33.78923,33.78923,0,0,0-50.17813,0Q772.68495,1480.535,772.67838,1496.69834Zm47.39038,7.595h12.03817c-.85117,6.49046-3.50907,11.55587-7.93313,15.2019a21.79216,21.79216,0,0,1-14.8405,5.33341q-11.79492,0-18.82285-8.27423-6.6603-7.86447-6.6552-20.28164c0-8.47508,2.20037-15.24846,6.591-20.37774q6.58371-7.66348,18.619-7.67676a23.79922,23.79922,0,0,1,15.1085,4.81771c4.3396,3.46219,6.99452,8.32646,7.93313,14.55459H820.06876c-1.04215-5.43518-4.35721-8.137-10.004-8.137q-13.95441,0-13.96456,16.53951,0,7.75525,3.592,12.672a11.76606,11.76606,0,0,0,10.11769,4.9514Q819.54112,1513.61657,820.06876,1504.29333Z"/>
            <polygon points="779.699 1527.863 786.64 1533.75 837.659 1468.233 830.722 1462.355 779.699 1527.863"/>
          </g>
        </g>
        <g>
          <path d="M819.767,0c410.34252,0,742.9947,332.64771,742.9947,742.98726a739.57539,739.57539,0,0,1-99.37972,371.42305H176.15654a739.52985,739.52985,0,0,1-99.37972-371.423C76.77682,332.64771,409.426,0,819.767,0Z" fill="#dceefa" fill-rule="evenodd"/>
          <path d="M1519.51135,492.74553a744.96084,744.96084,0,0,1-29.02506,570.23352c-113.86746-42.31482-195.00865-151.95041-195.00865-280.55631,0-6.26305.21577-12.47088.59449-18.63783A167.11083,167.11083,0,0,1,1096.418,646.02937c-2.01089.07163-4.02177.12266-6.04755.12266a164.04386,164.04386,0,0,1-55.68613-9.68495c-13.66883,108.44661-106.23458,192.32449-218.39138,192.32449-96.03808,0-177.701-61.51522-207.77231-147.28163a187.61266,187.61266,0,0,1-224.27989,36.9844,223.34333,223.34333,0,0,1-76.99229,144.45452,204.87652,204.87652,0,0,1-40.51523,251.46145H176.15654a744.557,744.557,0,0,1-48.269-642.73759,225.66863,225.66863,0,0,1,34.09163-2.5821,222.66915,222.66915,0,0,1,127.701,40.02252c19.67671-82.53431,93.88873-143.914,182.44853-143.914A187.58223,187.58223,0,0,1,642.30185,473.81492,220.15078,220.15078,0,0,1,936.46729,424.2137a164.35322,164.35322,0,0,1,311.34185,10.51969c3.14164-.17608,6.30659-.274,9.49511-.274a166.98868,166.98868,0,0,1,156.75652,109.42609A298.15927,298.15927,0,0,1,1519.51135,492.74553Z" fill="#fff" fill-rule="evenodd"/>
          <path d="M372.60635,265.381,439.404,684.49135l39.33342,246.7867,41.31087-304.16764,54.25807-399.50948,54.25688,399.50948,54.25986,399.508H493.93181l12.27272,76.98513H239.00667l66.7991-419.11217L372.60635,265.381ZM1263.305,331.49514l64.354,303.4302,64.354,303.435H1134.59732l14.96285-70.57047H963.73778l46.98958-238.24,46.9869-238.2388,46.98958,238.2388,45.96086,233.03461,48.28659-227.65912,64.35368-303.4302ZM810.44379,233.89591,870.528,648.28826l60.0812,414.39355H690.28105l60.07973-414.39355Z" fill="#7cb54b" fill-rule="evenodd"/>
          <path d="M264.454,483.18771,323.75422,885.772l33.67947,228.6383H171.47462L205.15231,885.772,264.454,483.18771Zm96.89372,631.2226L408.2806,818.08685,483.259,344.66408l74.97872,473.42277L582.808,973.23445l31.9918-203.55656,66.79909-425.01381,66.7976,425.01381,44.58983,283.70962,67.105-371.06731,93.52166-517.10743,93.516,517.10743,28.8764,159.65642,73.74407-358.78891,84.9272,413.20725,35.08394,170.70524L1313.11,799.19534l73.55188-454.53126,73.55188,454.53126,51.00568,315.215Z" fill="#5f992c" fill-rule="evenodd"/>
          <path d="M835.86367,1150.61071c460.37469,0,835.8574-16.25689,835.8574-36.2004,0-19.93784-375.48271-36.20338-835.8574-36.20338C375.4857,1078.20693,0,1094.47247,0,1114.41031,0,1134.35382,375.4857,1150.61071,835.86367,1150.61071Z" fill="#bad526" fill-rule="evenodd"/>
          <polygon points="1319.74 666.967 1465.268 890.686 1610.795 1114.41 1319.74 1114.41 1028.692 1114.41 1028.692 666.967 1319.74 666.967" fill="#ff9100" fill-rule="evenodd"/>
          <polygon points="1028.692 666.967 1174.219 890.686 1319.74 1114.41 1028.692 1114.41 737.641 1114.41 883.165 890.686 1028.692 666.967" fill="#f07c00" fill-rule="evenodd"/>
          <polygon points="1028.692 742.917 1068.439 928.667 1108.187 1114.41 1028.692 1114.41 949.198 1114.41 988.945 928.667 1028.692 742.917" fill="#a15810" fill-rule="evenodd"/>
          <g>
            <path d="M354.04432,778.124,343.778,809.99049c-7.353,22.82315-3.71736,48.45253,9.89178,69.73991l-11.384,82.671-7.35742,13.85833c-21.12384,39.78794-20.84987,88.67768.73744,131.16173l31.72351-22.16719,12.6589-90.9891,12.76963-15.7003,20.18853-108.99424L441.861,752.261l-74.97872-2.3138Z" fill="#302825" fill-rule="evenodd"/>
            <path d="M455.08366,802.64321l13.68493,179.19167,2.477,35.90912a251.26189,251.26189,0,0,1-8.65443,85.46021H435.51767c-15.61584-40.4-23.46419-64.16447-16.53533-121.36933l-23.22515-99.42031c-30.54766-16.74365-48.67278-40.43795-51.97919-72.42408l18.15138-49.1667,49.96085,23.88679Z" fill="#4d4441" fill-rule="evenodd"/>
            <path d="M461.39356,1068.15519l6.56776,11.64033a39.55768,39.55768,0,0,0,30.30293,19.9844,7.03252,7.03252,0,0,1,4.71982,2.5618,6.80009,6.80009,0,0,1,1.52145,5.07974q-.43065,3.528-1.14989,6.98885h-70.19l2.429-26.87119Z" fill="#4d4441" fill-rule="evenodd"/>
            <path d="M356.721,1068.15519l6.56358,11.64033a39.56527,39.56527,0,0,0,30.30711,19.9844,7.02666,7.02666,0,0,1,4.71714,2.5618,6.78759,6.78759,0,0,1,1.52144,5.07974q-.43065,3.528-1.14988,6.98885h-70.19l2.43048-26.87119Z" fill="#302825" fill-rule="evenodd"/>
          </g>
          <path d="M452.99846,672.73612l4.80159,12.78992a55.64355,55.64355,0,0,1-1.55338,43.84194l4.19368,22.893c-.52436,14.49072-7.26551,41.26581-5.35371,50.38224-23.32,24.93879-83.51646-21.65148-109.23061.90039l-1.38863-43.839L335.41812,732.883c-10.55342-31.29824-15.34486-46.87618-5.22717-76.14443L346.23207,642.401l38.838-11.47709,28.98683,6.18874C432.55357,641.069,446.30387,654.91421,452.99846,672.73612Z" fill="#fc0" fill-rule="evenodd"/>
          <path d="M461.55084,705.80768a53.74308,53.74308,0,0,1-5.30417,23.5603l4.19368,22.893c-.52436,14.49072-7.26551,41.26581-5.35371,50.38224-14.35076,15.34754-35.08571,5.50232-54.90806.912l-.00747-.01164c43.1791.37036,53.96261-55.46168,43.09166-81.20208l-6.30841-14.93391Z" fill="#f5a40e" fill-rule="evenodd"/>
          <path d="M400.77008,643.641l19.951-8.21872a28.09084,28.09084,0,0,1,26.077,2.91008,29.83151,29.83151,0,0,1,13.45574,23.18755l34.06268,33.65024a26.89524,26.89524,0,0,1,7.44069,25.90633,23.45938,23.45938,0,0,1-19.0461,17.14564,27.4212,27.4212,0,0,1-25.30886-9.82463L403.2707,690.68456Z" fill="#fc0" fill-rule="evenodd"/>
          <polygon points="363.929 628.802 370.482 586.272 406.366 594.286 400.77 643.641 363.929 628.802" fill="#fbd08d" fill-rule="evenodd"/>
          <path d="M361.95266,565.07351l49.66061-10.49641L427.8,598.92758c4.835,13.24176-2.37945,26.44143-16.03813,29.32674h-.003c-13.65838,2.88382-28.78149-5.58559-33.61651-18.83182Z" fill="#fbd08d" fill-rule="evenodd"/>
          <path d="M352.294,639.27092c16.62276,0,31.02576,13.47632,32.17116,30.0988a27.72126,27.72126,0,0,1-28.01809,30.09314c-16.62248,0-31.02695-13.47036-32.17385-30.09314A27.73,27.73,0,0,1,352.294,639.27092Z" fill="#fc0" fill-rule="evenodd"/>
          <path d="M355.296,640.04477l.22293-.62076,3.7872-13.99979,40.89127,1.85092a18.5138,18.5138,0,0,1,13.97771,7.61976,17.55557,17.55557,0,0,1,2.83577,15.3562Z" fill="#fc0" fill-rule="evenodd"/>
          <path d="M417.67816,571.18644l1.32626-7.15627a14.92974,14.92974,0,0,0-7.09957-15.23683,13.8183,13.8183,0,0,0-16.29479,1.004l-27.31138,4.77981a7.9694,7.9694,0,0,0-6.59671,6.83426l-2.24277,2.61881a12.36881,12.36881,0,0,0-1.33611,13.74015l7.89073,37.51472H384.6269a12.473,12.473,0,0,0,12.31063-9.542l-.66583-16.52041,9.66705-1.1469-3.49294-7.87045a5.93569,5.93569,0,0,1,.21877-5.5447,5.53024,5.53024,0,0,1,4.61356-2.814Z" fill="#332d2a" fill-rule="evenodd"/>
          <path d="M392.60806,581.696c3.99879,0,8.53954,5.78524,10.14544,12.92272,1.6071,7.13748-.33246,12.92273-4.33244,12.92273-3.9973,0-8.53925-5.78525-10.14217-12.92273C386.6715,587.48123,388.61107,581.696,392.60806,581.696Z" fill="#fbd08d" fill-rule="evenodd"/>
          <path d="M545.49856,1070.40811H696.69422A22.06487,22.06487,0,0,1,718.694,1092.412h0a22.06,22.06,0,0,1-21.99978,21.99827H545.49856a22.05744,22.05744,0,0,1-21.99678-21.99827h0A22.06229,22.06229,0,0,1,545.49856,1070.40811Z" fill="#8c3604" fill-rule="evenodd"/>
          <path d="M675.0108,1070.40811l7.47711-9.83627A95.28393,95.28393,0,0,0,666.35338,928.6667a101.36772,101.36772,0,0,1-37.78-75.8806c-20.82361,26.13971-41.15629,51.83057-60.211,79.39562a121.55048,121.55048,0,0,0,0,138.22639Z" fill="#fc0" fill-rule="evenodd"/>
          <path d="M652.56965,1070.40811l4.17338-6.24574c17.43276-26.09614,13.44141-63.2405-9.00571-83.78448-12.88183-11.78895-20.586-29.401-21.09041-48.19617-11.62571,16.60069-22.976,32.91548-33.61353,50.43149-16.04857,26.41367-16.04857,61.37525,0,87.7949Z" fill="#ffdd30" fill-rule="evenodd"/>
          <path d="M639.12974,1070.40811l2.18994-3.279c9.14717-13.6921,7.05153-33.1781-4.727-43.95564A35.60012,35.60012,0,0,1,625.52776,997.882c-6.0998,8.71115-12.054,17.27964-17.63508,26.46024a45.15574,45.15574,0,0,0,0,46.06591Z" fill="#fff07f" fill-rule="evenodd"/>
        </g>
      </g>
    </g>
  </g>
</svg>
